<?xml version="1.0" encoding="utf-8"?>
<!-- Generator: Adobe Illustrator 28.1.0, SVG Export Plug-In . SVG Version: 6.00 Build 0)  -->
<svg version="1.1" id="Layer_1" xmlns="http://www.w3.org/2000/svg" xmlns:xlink="http://www.w3.org/1999/xlink" x="0px" y="0px"
	 viewBox="0 0 300 100" style="enable-background:new 0 0 300 100;" xml:space="preserve">
<style type="text/css">
	.st0{fill:#785B25;}
	.st1{fill:#815A14;}
	.st2{fill:#6A6351;}
	.st3{fill:#F7F5E1;}
	.st4{fill:#F4F2E8;}
	.st5{fill:#FAF7F2;}
	.st6{fill:#F4F1DD;}
	.st7{fill:#F7F6E6;}
	.st8{fill:#F6F3D5;}
	.st9{fill:#FAF5D4;}
	.st10{fill:#F6F2DA;}
	.st11{fill:#F8F3EA;}
	.st12{fill:#F7F2DE;}
	.st13{fill:#F4EFDF;}
	.st14{fill:#F2ECBD;}
	.st15{fill:#F5F5D6;}
	.st16{fill:#F0EDAC;}
	.st17{fill:#E6E595;}
	.st18{fill:#746C33;}
	.st19{fill:#DDDB97;}
	.st20{fill:#F8F5E5;}
	.st21{fill:#F2EFD8;}
	.st22{fill:#E7BF42;}
	.st23{fill:#D6B04E;}
	.st24{fill:#E3B957;}
	.st25{fill:#D9BD5A;}
	.st26{fill:#DBB241;}
	.st27{fill:#DCBA41;}
	.st28{fill:#D0B22E;}
	.st29{fill:#DCAE31;}
	.st30{fill:#CCBB54;}
	.st31{fill:#D5B24E;}
	.st32{fill:#664F21;}
	.st33{fill:#EACA43;}
	.st34{fill:#D7C16E;}
	.st35{fill:#DCD37C;}
	.st36{fill:#604E00;}
	.st37{fill:#F8F6DC;}
	.st38{fill:#F4F2E0;}
	.st39{fill:#6B5329;}
	.st40{fill:#655C36;}
	.st41{fill:#7B744F;}
	.st42{fill:#887B47;}
	.st43{fill:#5C542F;}
	.st44{fill:#645B3E;}
	.st45{fill:#6D653F;}
	.st46{fill:#726E4A;}
	.st47{fill:#F3EDC9;}
	.st48{fill:#E1D684;}
	.st49{fill:#E8E3A0;}
	.st50{fill:#F6F0E4;}
	.st51{fill:#886B35;}
	.st52{fill:#7A5F2C;}
	.st53{fill:#775923;}
	.st54{fill:#876B39;}
	.st55{fill:#7B7139;}
	.st56{fill:#B6AF62;}
	.st57{fill:#DDD076;}
	.st58{fill:#665A38;}
	.st59{fill:#635E34;}
	.st60{fill:#645B40;}
	.st61{fill:#EAE092;}
	.st62{fill:#F2E7A9;}
	.st63{fill:#F2EAB2;}
	.st64{fill:#FBF7E8;}
	.st65{fill:#D5CC79;}
	.st66{fill:#E1D798;}
	.st67{fill:#F0E7A5;}
	.st68{fill:#E5DF9C;}
	.st69{fill:#C9C56C;}
	.st70{fill:#DFD892;}
	.st71{fill:#DCD87F;}
	.st72{fill:#D1CE7B;}
	.st73{fill:#D9D762;}
	.st74{fill:#C9C465;}
	.st75{fill:#C8C45B;}
	.st76{fill:#C3BC76;}
	.st77{fill:#BDBB48;}
	.st78{fill:#EEECA5;}
	.st79{fill:#DCDC7E;}
	.st80{fill:#645C2D;}
	.st81{fill:#CFCB88;}
	.st82{fill:#E3E19B;}
	.st83{fill:#E1DEA6;}
	.st84{fill:#FBF8E3;}
	.st85{fill:#F9F7E4;}
	.st86{fill:#C8C76B;}
	.st87{fill:#D6D386;}
	.st88{fill:#EDECA7;}
	.st89{fill:#CAC95D;}
	.st90{fill:#C1C04E;}
	.st91{fill:#7F5E26;}
	.st92{fill:#795A1C;}
	.st93{fill:#BE902A;}
	.st94{fill:#BF963D;}
	.st95{fill:#815502;}
	.st96{fill:#C4953D;}
	.st97{fill:#8C6A33;}
	.st98{fill:#8E7031;}
	.st99{fill:#F8F8ED;}
	.st100{fill:#E6BE3E;}
	.st101{fill:#DCC66B;}
	.st102{fill:#E1D485;}
	.st103{fill:#F0EAAF;}
	.st104{fill:#EDD143;}
	.st105{fill:#CC9F46;}
	.st106{fill:#CEBE56;}
	.st107{fill:#B18623;}
	.st108{fill:#E9DD83;}
	.st109{fill:#8E865A;}
	.st110{fill:#615430;}
	.st111{fill:#B9B075;}
	.st112{fill:#605834;}
	.st113{fill:#D4C968;}
	.st114{fill:#E4DE7C;}
	.st115{fill:#D6CE80;}
	.st116{fill:#95742B;}
	.st117{fill:#D0C952;}
	.st118{fill:#6F5A1F;}
	.st119{fill:#635E2E;}
	.st120{fill:#A29B63;}
	.st121{fill:#C8BD86;}
	.st122{fill:#685E29;}
	.st123{fill:#8C6D22;}
	.st124{fill:#F5F3EA;}
	.st125{fill:#EFECC8;}
	.st126{fill:#F5F1C8;}
	.st127{fill:#EDCC4A;}
	.st128{fill:#EACF6F;}
	.st129{fill:#E9C54C;}
	.st130{fill:#B78B2E;}
	.st131{fill:#B2A764;}
	.st132{fill:#AB913A;}
	.st133{fill:#CBA12C;}
	.st134{fill:#E8C254;}
	.st135{fill:#F3EEDF;}
	.st136{fill:#F1F3D9;}
	.st137{fill:#F4F1C5;}
	.st138{fill:#DEB741;}
	.st139{fill:#FCF0FA;}
	.st140{fill:#CAA73C;}
	.st141{fill:#F6F2C0;}
	.st142{fill:#D6B346;}
	.st143{fill:#FDF7D3;}
	.st144{fill:#EADD80;}
	.st145{fill:#D3BC60;}
	.st146{fill:#E3C047;}
	.st147{fill:#E8CF54;}
	.st148{fill:#E7CF4F;}
	.st149{fill:#E7C854;}
	.st150{fill:#E9C557;}
	.st151{fill:#E3CF39;}
	.st152{fill:#D8B546;}
	.st153{fill:#E7C25B;}
	.st154{fill:#E3C046;}
	.st155{fill:#E1C352;}
	.st156{fill:#DDC340;}
	.st157{fill:#E2C144;}
	.st158{fill:#C79D31;}
	.st159{fill:#D1A62B;}
	.st160{fill:#E1B53A;}
	.st161{fill:#DDBC40;}
	.st162{fill:#ECCE75;}
	.st163{fill:#E6D06B;}
	.st164{fill:#E0BA4D;}
	.st165{fill:#D1AF3D;}
	.st166{fill:#D9B430;}
	.st167{fill:#D1A82E;}
	.st168{fill:#B2964F;}
	.st169{fill:#D2BA33;}
	.st170{fill:#DAB237;}
	.st171{fill:#E2C25A;}
	.st172{fill:#DBAD3C;}
	.st173{fill:#EEE4A5;}
	.st174{fill:#EEE7AB;}
	.st175{fill:#886B18;}
	.st176{fill:#8C6621;}
	.st177{fill:#C5AC3B;}
	.st178{fill:#E3D889;}
	.st179{fill:#AC8E16;}
	.st180{fill:#C5A631;}
	.st181{fill:#E7DE96;}
	.st182{fill:#D1C665;}
	.st183{fill:#D3C653;}
	.st184{fill:#F8F5E6;}
	.st185{fill:#8D743F;}
	.st186{fill:#C9C747;}
	.st187{fill:#D4D2AB;}
	.st188{fill:#F7F1BB;}
	.st189{fill:#F3ECB3;}
	.st190{fill:#E7DB8E;}
	.st191{fill:#E8DE74;}
	.st192{fill:#746A40;}
	.st193{fill:#C9BE89;}
	.st194{fill:#D1C756;}
	.st195{fill:#D6C964;}
	.st196{fill:#D3CC5B;}
	.st197{fill:#D8CD6E;}
	.st198{fill:#F7EF8B;}
	.st199{fill:#EDE59E;}
	.st200{fill:#F8F4D9;}
	.st201{fill:#E9DF98;}
	.st202{fill:#EBE3A5;}
	.st203{fill:#8D7936;}
	.st204{fill:#E3DD91;}
	.st205{fill:#F8F4D6;}
	.st206{fill:#F8F6F0;}
	.st207{fill:#F6F3E6;}
	.st208{fill:#F4EFDC;}
	.st209{fill:#F4EED4;}
	.st210{fill:#F6F3C7;}
	.st211{fill:#E5BF36;}
	.st212{fill:#B48910;}
	.st213{fill:#B58F27;}
	.st214{fill:#D4BC70;}
	.st215{fill:#AE7F08;}
	.st216{fill:#B99F4B;}
	.st217{fill:#CDB667;}
	.st218{fill:#EBD054;}
	.st219{fill:#77540F;}
	.st220{fill:#CBA030;}
	.st221{fill:#9B8624;}
	.st222{fill:#91732B;}
	.st223{fill:#A57E3A;}
	.st224{fill:#846830;}
	.st225{fill:#C9B169;}
	.st226{fill:#C5BB76;}
	.st227{fill:#8E6725;}
	.st228{fill:#C69532;}
	.st229{fill:#BF8F2E;}
	.st230{fill:#AC863C;}
	.st231{fill:#8F8546;}
	.st232{fill:#83693B;}
	.st233{fill:#A57921;}
	.st234{fill:#C69630;}
	.st235{fill:#DAB223;}
	.st236{fill:#D2C55D;}
	.st237{fill:#F4E89B;}
	.st238{fill:#EADE7B;}
	.st239{fill:#665013;}
	.st240{fill:#EFF19C;}
	.st241{fill:#B9A53F;}
	.st242{fill:#AC7418;}
	.st243{fill:#B6AB4B;}
	.st244{fill:#E8DB83;}
	.st245{fill:#E4D891;}
	.st246{fill:#F3EFBB;}
	.st247{fill:#775A2D;}
	.st248{fill:#E8E28C;}
	.st249{fill:#CCAA27;}
	.st250{fill:#5F522E;}
	.st251{fill:#EFE4A3;}
	.st252{fill:#B39B42;}
	.st253{fill:#C7A14B;}
	.st254{fill:#F8EC9A;}
	.st255{fill:#D9C670;}
	.st256{fill:#E6D887;}
	.st257{fill:#C9A753;}
	.st258{fill:#8E772A;}
	.st259{fill:#F0EB9D;}
	.st260{fill:#F6F0B5;}
	.st261{fill:#F8EDC7;}
	.st262{fill:#C0A342;}
	.st263{fill:#7E622C;}
	.st264{fill:#7E662B;}
	.st265{fill:#7A6632;}
	.st266{fill:#6F5B10;}
	.st267{fill:#E8DC8E;}
	.st268{fill:#E8DD99;}
	.st269{fill:#C9AD49;}
	.st270{fill:#E6DB97;}
	.st271{fill:#E0D37F;}
	.st272{fill:#DFD48F;}
	.st273{fill:#E2BE5A;}
	.st274{fill:#E3C14E;}
	.st275{fill:#E9C236;}
	.st276{fill:#63582D;}
	.st277{fill:#695740;}
	.st278{fill:#604A0E;}
	.st279{fill:#816841;}
	.st280{fill:#CEAA42;}
	.st281{fill:#E2BB5E;}
	.st282{fill:#DDC146;}
	.st283{fill:#755217;}
	.st284{fill:#7C6B33;}
	.st285{fill:#80661C;}
	.st286{fill:#8F8231;}
	.st287{fill:#D0C553;}
	.st288{fill:#D6C866;}
	.st289{fill:#E0D57F;}
	.st290{fill:#DFD47A;}
	.st291{fill:#D1C769;}
	.st292{fill:#CFC267;}
	.st293{fill:#6D6426;}
	.st294{fill:#E2D581;}
	.st295{fill:#756C2F;}
	.st296{fill:#D6C775;}
	.st297{fill:#F1E395;}
	.st298{fill:#DFDB89;}
	.st299{fill:#D6C55C;}
	.st300{fill:#FBF6CF;}
	.st301{fill:#DEC06F;}
	.st302{fill:#F4C748;}
	.st303{fill:#D2B275;}
	.st304{fill:#654606;}
	.st305{fill:#644E11;}
	.st306{fill:#EADD8A;}
	.st307{fill:#E9D56B;}
	.st308{fill:#A99F4D;}
	.st309{fill:#D3A041;}
	.st310{fill:#A7843B;}
	.st311{fill:#745E37;}
	.st312{fill:#867543;}
	.st313{fill:#B6934C;}
	.st314{fill:#705E2D;}
	.st315{fill:#DFD382;}
	.st316{fill:#6B531B;}
	.st317{fill:#DFC235;}
	.st318{fill:#F3C424;}
	.st319{fill:#755F3C;}
	.st320{fill:#795E18;}
	.st321{fill:#785F28;}
	.st322{fill:#93791E;}
	.st323{fill:#E9E5AC;}
	.st324{fill:#D2CA75;}
	.st325{fill:#99905B;}
	.st326{fill:#998255;}
	.st327{fill:#785F36;}
	.st328{fill:#D1C441;}
	.st329{fill:#CEBF70;}
	.st330{fill:#EDE98D;}
	.st331{fill:#CCC846;}
	.st332{fill:#867B42;}
	.st333{fill:#BCB167;}
	.st334{fill:#806A38;}
	.st335{fill:#D4C666;}
	.st336{fill:#CEAA32;}
	.st337{fill:#B3912C;}
	.st338{fill:#EED461;}
	.st339{fill:#94710B;}
	.st340{fill:#CFC663;}
	.st341{fill:#CBC06E;}
	.st342{fill:#DBCD7A;}
	.st343{fill:#5F4A1D;}
	.st344{fill:#6E4A0D;}
	.st345{fill:#E9CA53;}
	.st346{fill:#D7B145;}
	.st347{fill:#E1BB46;}
	.st348{fill:#D8C022;}
	.st349{fill:#E6DE97;}
	.st350{fill:#AE9334;}
	.st351{fill:#D0B635;}
	.st352{fill:#D8AB37;}
	.st353{fill:#D3CD6C;}
	.st354{fill:#D2CB4B;}
	.st355{fill:#F8E781;}
	.st356{fill:#856D26;}
	.st357{fill:#806620;}
	.st358{fill:#DACF8A;}
	.st359{fill:#7C5D21;}
	.st360{fill:#F9F3A1;}
	.st361{fill:#DECB87;}
	.st362{fill:#D4B984;}
	.st363{fill:#A08637;}
	.st364{fill:#B39845;}
	.st365{fill:#A7942E;}
	.st366{fill:#B69744;}
</style>
<g>
	<path class="st0" d="M12.3,42c0.1,0,0.1,0,0.2,0c0.4,0.2,0.8,0.2,1.2,0.1c0.3-0.1,0.5-0.2,0.8-0.1c0.6,0.3,0.2,0.5-0.1,0.7
		c-0.2,0.1-0.4,0.1-0.5,0.2c-0.2,0-0.4,0.1-0.6,0.1c-0.2,0-0.4,0-0.6-0.1c0,0-0.1,0-0.1,0c-0.3-0.2-0.6-0.3-0.4-0.7
		C12.3,42.1,12.3,42.1,12.3,42z"/>
	<path class="st1" d="M98.3,63.4c0.1,0,0.2,0.1,0.2,0.2c0,0.2-0.1,0.3-0.3,0.3c-0.2,0-0.3-0.1-0.3-0.2C98,63.5,98.2,63.5,98.3,63.4z
		"/>
	<path class="st2" d="M96,63.5c-0.1,0-0.1,0.1-0.2,0.1c-0.1,0-0.1-0.1-0.1-0.2c0,0,0.1-0.1,0.1-0.1C95.9,63.3,95.9,63.4,96,63.5z"/>
	<path class="st3" d="M44.2,39c1.5,0.1,3,0.2,4.5,0.5c-0.1,0.1-0.2,0.1-0.3,0.1c-0.1,0,0,0.1,0,0c0,0,0,0,0,0c0.2,0,0.5,0,0.5,0.3
		C48.9,40,48.7,40,48.6,40c-0.2-0.1-0.4-0.1-0.7-0.1c-0.1,0-0.3,0-0.4-0.1c-0.4-0.1-0.7,0-1.1-0.1c-0.4-0.1-0.8-0.1-1.2-0.1
		c-0.3,0-0.5-0.1-0.8-0.1c-0.4-0.1-0.7,0-1.1,0c-0.2,0-0.4,0-0.6,0c-1.3-0.1-2.6-0.1-3.9-0.1c-0.6,0-1.2-0.1-1.7,0.1
		c-0.2,0.1-0.4,0.1-0.6,0.1c-0.1,0-0.3,0-0.4,0c-0.1,0-0.3,0-0.4,0c-0.1,0-0.1,0-0.2,0c-0.2,0-0.4,0-0.6-0.2c0-0.1,0-0.2,0.1-0.3
		c2.5-0.1,5.1-0.1,7.6-0.1C43.2,39,43.7,39.2,44.2,39z"/>
	<path class="st4" d="M49,39.9c-0.2-0.2-0.4-0.2-0.6-0.3c0.1,0,0.3,0,0.4,0c0.8,0,1.6,0.1,2.3,0.4c0.2-0.1,0.4-0.1,0.7-0.1
		c0.5,0.1,1.1,0.2,1.6,0.3c0.2,0,0.4,0.1,0.6,0.3c0,0,0.1,0,0.1,0c0.7,0.1,1.4,0.3,2.1,0.4c0,0.1,0,0.1,0,0.2
		c-0.3,0.1-0.5,0.1-0.8,0.1c-0.1,0-0.2,0-0.3,0c-0.3,0-0.6-0.1-0.9-0.2c-0.2-0.1-0.4-0.1-0.6-0.1c-0.4-0.1-0.8-0.2-1.3-0.2
		c-0.9-0.1-1.8-0.4-2.7-0.4C49.4,40.2,49.1,40.2,49,39.9z"/>
	<path class="st5" d="M44.2,39c-0.6,0.4-1.2,0.1-1.9,0.1c-2.5,0-4.9,0-7.4,0c-0.1,0.1-0.3,0.2-0.4,0.2c-0.2,0-0.3-0.2-0.1-0.3
		c2.5-0.2,5-0.3,7.5-0.1c0.5,0.1,1,0,1.4,0.1C43.7,39,43.9,39,44.2,39z"/>
	<path class="st6" d="M24.1,40c0.2,0,0.3,0,0.5-0.1c0.4-0.2,0.9-0.3,1.3-0.5c0.2,0,0.4,0.1,0.4,0.4c0,0.2-0.2,0.4-0.4,0.5
		c-0.4,0.2-0.8,0.1-1.2,0.2c-0.2,0.1-0.5,0.1-0.7,0.1c-0.5,0-0.9,0-1.3,0.2c-0.1,0-0.2,0-0.3,0c-0.4,0-0.8,0-1.1,0.2
		c-0.2,0.1-0.4,0.1-0.6,0.1c-0.5-0.1-0.9,0.1-1.4,0c-0.1-0.1-0.2-0.2-0.1-0.3c0.1-0.1,0.2-0.1,0.3-0.1c0.2,0,0.4,0.1,0.7,0
		c0.1,0,0.2,0,0.2-0.1c0.1-0.1,0.1-0.1,0.3-0.1c0.2,0,0.4,0,0.6,0c0.1-0.1,0.2-0.1,0.3-0.2c0.1-0.1,0.3,0,0.4,0c0.2,0,0.4,0,0.6-0.1
		c0.2,0,0.4-0.1,0.6,0C23.4,40.2,23.8,40.1,24.1,40z"/>
	<path class="st7" d="M34.5,39c0,0.1-0.1,0.2,0.1,0.2c0.1,0,0.3,0,0.4-0.1c0,0.1,0,0.2,0,0.2c-0.4,0.4-1,0.1-1.4,0.3
		c-0.7,0-1.3,0.1-2,0.1c-0.1,0-0.1,0-0.2,0c-0.3,0-0.6,0-1,0.1c-0.1,0-0.3,0-0.4,0.1c-0.2,0-0.3,0-0.5-0.1c-0.1,0-0.2-0.1-0.3-0.2
		c0-0.2,0.2-0.4,0.4-0.3c0.1,0,0.2,0,0.4,0c0.3-0.2,0.6,0,0.9-0.1c0.2,0,0.4-0.1,0.7-0.1C32.5,39.1,33.5,39.1,34.5,39z"/>
	<path class="st8" d="M26.9,34.6c0,0,0-0.1,0-0.1c0.1-0.2,0.2-0.3,0.3-0.5c0-0.1,0.1-0.2,0.3-0.2l0,0l0,0c0.4-0.4,1.2-0.5,1.7-0.2
		c0.3,0.2,0.6,0.5,0.8,0.8c0.2,0.1,0.2,0.3,0.3,0.5c-0.1,0.3-0.1,0.7-0.5,0.8c-0.1-0.1-0.1-0.3-0.2-0.4c0-0.5-0.4-0.8-0.7-1
		c0,0-0.1-0.1-0.1-0.1c-0.2-0.1-0.3-0.1-0.5,0.1c0,0-0.1,0.1-0.1,0.1c-0.1,0.1-0.2,0.1-0.3,0.2c-0.1,0.1-0.2,0.2-0.3,0.4
		c-0.2,0.1-0.4,0.2-0.6,0.1C26.9,34.8,26.9,34.7,26.9,34.6z"/>
	<path class="st3" d="M43.4,39c-0.5,0-1,0.1-1.4-0.1C42.4,38.9,42.9,38.9,43.4,39z"/>
	<path class="st9" d="M76.9,25.4c1.1-1,2.1-2.2,3.4-3c0.2-0.1,0.4,0,0.6,0.2c0,0.1,0,0.1,0,0.2c-0.1,0.1-0.2,0.2-0.3,0.2
		c-0.5,0.3-0.9,0.8-1.5,1c-0.9,0.9-1.8,1.7-2.6,2.7c-0.3,0.4-0.7,0.8-1,1.2c-0.2,0.2-0.3,0.7-0.8,0.5c-0.1-0.2,0-0.3,0.1-0.5
		C75.5,26.9,76.3,26.2,76.9,25.4z"/>
	<path class="st10" d="M70.6,34.1c0.5-0.8,1.1-1.7,1.6-2.5c0.3-0.1,0.3-0.6,0.7-0.5c0.1,0.1,0.1,0.2,0.1,0.2
		c-0.1,0.2-0.3,0.4-0.4,0.6c-0.4,0.4-0.6,0.9-0.9,1.4c-0.4,0.6-0.8,1.2-1.1,1.9c-0.2,0.3-0.3,0.7-0.7,0.7c-0.1-0.1-0.1-0.3-0.1-0.4
		c0.2-0.3,0.3-0.7,0.5-1C70.4,34.4,70.4,34.2,70.6,34.1z"/>
	<path class="st11" d="M69.8,35.5c0.2,0.1,0.1,0.3,0.2,0.4C70,36,70,36.1,70,36.2c-0.1,0.3-0.3,0.6-0.5,0.9c-0.3,0.5-0.5,1-0.9,1.4
		c-0.1,0-0.3,0.1-0.3-0.2C68.7,37.4,69.3,36.4,69.8,35.5z"/>
	<path class="st12" d="M74.9,27.8c0,0.2,0,0.4,0,0.5c-0.2,0.7-0.5,1.3-1.2,1.6c-0.1-0.1-0.2-0.2-0.1-0.3C74,29,74.4,28.4,74.9,27.8z
		"/>
	<path class="st13" d="M73.6,29.6c0,0.1,0.1,0.2,0.1,0.3c0.2,0.5-0.2,0.7-0.4,1c-0.1,0.1-0.2,0.3-0.3,0.2c-0.3,0-0.4,0.5-0.8,0.5
		C72.6,30.9,73.1,30.3,73.6,29.6z"/>
	<path class="st14" d="M68.3,38.3c0.1,0.2,0.2,0.1,0.3,0.1c0.2,0.4-0.2,0.6-0.3,0.9c-0.1,0.1-0.1,0.3-0.2,0.4c-0.1,0-0.1,0-0.2,0
		c-0.1-0.1-0.2-0.2-0.1-0.3c0-0.1,0.1-0.3,0.1-0.4C68.1,38.7,68.2,38.5,68.3,38.3z"/>
	<path class="st15" d="M83.2,21.8C83.2,21.8,83.2,21.8,83.2,21.8c0,0.3,0.2,0.5-0.2,0.5c-0.2-0.2-0.5-0.2-0.8-0.1
		c-0.2-0.1-0.4-0.1-0.6,0c-0.3,0.1-0.6,0.2-0.9-0.1c0.5-0.4,1.1-0.6,1.6-0.7C82.6,21.5,83,21.5,83.2,21.8z"/>
	<path class="st16" d="M71.5,44.2c-0.2,0.3-0.4,0.6-0.7,0.9c-0.2,0.1-0.3,0-0.4-0.1c0.1-0.5,0.3-0.8,0.8-1
		C71.3,43.9,71.4,44,71.5,44.2z"/>
	<path class="st17" d="M70.4,44.9c0.1,0,0.2,0.1,0.3,0.1c-0.2,0.2-0.4,0.5-0.6,0.7c-0.1,0.1-0.2,0-0.3-0.1
		C69.9,45.2,70,44.9,70.4,44.9z"/>
	<path class="st18" d="M69.9,45.6c0.1,0,0.2,0.1,0.2,0.1c0,0,0,0.1,0,0.1c-0.4,0.1-0.4,0.5-0.7,0.7c-0.1,0-0.2,0-0.3-0.1
		c0-0.2,0.1-0.3,0.2-0.5C69.5,45.7,69.7,45.6,69.9,45.6z"/>
	<path class="st19" d="M71.5,44.2c-0.1-0.1-0.2-0.2-0.3-0.2c0,0,0-0.1,0-0.1c0.1-0.3,0.2-0.5,0.6-0.6c0.1,0.1,0.1,0.2,0.2,0.3
		c0,0.1-0.1,0.2-0.1,0.3C71.7,43.9,71.6,44,71.5,44.2z"/>
	<path class="st20" d="M19.2,40.8c0,0.1,0,0.2,0.1,0.2c0,0.1,0,0.1,0,0.2c0,0-0.1,0.1-0.2,0.1c-0.2,0-0.4-0.1-0.5,0.1
		c-0.1,0.1-0.3,0.1-0.4,0.2c-0.2,0.1-0.4,0.1-0.6,0.1c-0.4,0.1-0.9,0.1-1.3,0.3c-0.4,0.1-0.8,0.2-1.2,0.2c-0.6-0.1-1.1,0-1.6,0.2
		c-0.3,0.1-0.6,0-0.6-0.4c0.1-0.1,0.3-0.1,0.4,0c0.2-0.1,0.5,0,0.7-0.1c0.5-0.1,0.9-0.2,1.4-0.3c1.1-0.2,2.2-0.3,3.4-0.5
		C18.9,40.7,19,40.6,19.2,40.8z"/>
	<path class="st21" d="M12.8,41.8c0.1,0.3,0.3,0.4,0.6,0.3c0.5-0.1,1.1-0.3,1.6-0.2c-0.1,0.3-0.3,0.3-0.5,0.2
		c-0.4,0-0.8,0.2-1.1,0.2c-0.3,0-0.8,0.2-1-0.3C12.6,42,12.7,41.8,12.8,41.8z"/>
	<path class="st21" d="M14,41.7c-0.2,0.2-0.4,0.1-0.7,0.1C13.5,41.7,13.7,41.7,14,41.7z"/>
	<path class="st22" d="M25.2,63.5c-0.6,0.2-1.2,0.3-1.7,0.5c-0.3-0.1-0.7,0.1-0.9-0.2c0.2-0.4,0.6-0.3,0.9-0.5
		c0.1,0,0.3-0.1,0.4-0.2c0.1-0.1,0.2-0.1,0.3-0.1c0.2,0,0.4,0,0.6-0.1c0.2-0.1,0.5-0.1,0.7-0.2c0.2,0,0.3,0,0.5,0
		c0.1,0.1,0.2,0.2,0.1,0.3C25.9,63.3,25.5,63.4,25.2,63.5z"/>
	<path class="st23" d="M30,62c-0.6,0.2-1.2,0.4-1.8,0.5c-0.3,0-0.6,0.1-0.9-0.1c-0.1-0.3,0.2-0.3,0.3-0.4c0.6-0.1,1.1-0.4,1.7-0.4
		C29.6,61.7,29.9,61.8,30,62z"/>
	<path class="st24" d="M33.7,61.1c-0.6,0.2-1.2,0.4-1.8,0.5c-0.3,0.1-0.5,0-0.8-0.1c0.1-0.5,0.7-0.4,1-0.6c0.3-0.1,0.6-0.2,0.9-0.1
		C33.4,60.8,33.7,60.6,33.7,61.1z"/>
	<path class="st25" d="M33.7,61.1c-0.2-0.3-0.4-0.1-0.7-0.2c0.2-0.4,0.6-0.3,0.9-0.5c0.2-0.1,0.3-0.1,0.5-0.1
		c0.2,0.1,0.4,0.1,0.6,0.3c0,0.1,0,0.1,0,0.2c-0.2,0.1-0.4,0.1-0.6,0.2C34.2,61,34,61,33.7,61.1z"/>
	<path class="st26" d="M27.3,62.4c0.3,0,0.6,0.1,0.9,0.1c-0.4,0.1-0.8,0.2-1.2,0.3c-0.2-0.1-0.6,0-0.5-0.4
		C26.8,62.2,27.1,62.2,27.3,62.4z"/>
	<path class="st27" d="M26.6,62.6c0.1,0.2,0.4,0.1,0.5,0.3c-0.3,0.1-0.6,0.2-0.9,0.3c0-0.1,0-0.2-0.1-0.2c-0.1-0.3,0.3-0.1,0.2-0.4
		C26.4,62.5,26.5,62.4,26.6,62.6z"/>
	<path class="st28" d="M31.1,61.7c-0.2,0.2-0.4,0.3-0.7,0.2c-0.2,0-0.4,0.2-0.5-0.2c0-0.1,0.1-0.1,0.1-0.2c0.1-0.1,0.3-0.1,0.4-0.1
		c0.2,0,0.3,0,0.5,0.1C31,61.6,31.1,61.6,31.1,61.7z"/>
	<path class="st29" d="M31.1,61.7c-0.1,0-0.1,0-0.2,0c-0.1-0.1-0.1-0.2,0-0.3c0.1-0.1,0.2-0.1,0.3,0c0.3,0,0.5,0.1,0.8,0.1
		C31.7,61.7,31.4,61.6,31.1,61.7z"/>
	<path class="st30" d="M30,61.7c0,0.3,0.3,0.2,0.4,0.2C30.3,62.1,30.1,62,30,62c-0.2,0-0.4-0.1-0.5-0.2c0-0.1,0.1-0.2,0.2-0.2
		C29.8,61.5,29.9,61.5,30,61.7z"/>
	<path class="st31" d="M68.3,47.9c-0.1,0.1-0.3,0.2-0.4,0.4c-0.3-0.1-0.1-0.3-0.2-0.4c0-0.3,0.2-0.4,0.4-0.5
		c0.2-0.2,0.4-0.5,0.7-0.5c0.1,0,0.3,0,0.2,0.2c-0.2,0.3-0.4,0.5-0.6,0.8C68.4,47.8,68.3,47.8,68.3,47.9z"/>
	<path class="st32" d="M14.6,42.1c0.2-0.1,0.4-0.2,0.5-0.2c0.4-0.1,0.8-0.1,1.2-0.2c0.1,0,0.1,0,0.2,0.1c0,0.1,0,0.1,0,0.1
		c-0.1,0.1-0.2,0.1-0.2,0.2c-0.4,0.1-0.8,0.2-1.3,0.4c-0.1,0.1-0.3,0.3-0.5,0.1C14.4,42.4,15,42.4,14.6,42.1z"/>
	<path class="st33" d="M76,54.9c-0.5,0.1-1.1,0.2-1.6,0.3c-0.2,0.1-0.4,0.1-0.5-0.1c0-0.3,0.2-0.3,0.4-0.4c0.2-0.1,0.4-0.2,0.7-0.2
		c0.4,0,0.7,0,1.1-0.2c0.2-0.1,0.3-0.1,0.5-0.1c0.3,0,0.5-0.1,0.8-0.2c0.2-0.1,0.4,0,0.7,0c0.2,0.1,0.5,0.1,0.8,0.1
		c0.3,0,0.6,0.1,0.9,0.1c0.4,0,0.8,0.2,1.2,0.4c0.4,0.2,0.7,0.4,1.1,0.1c0.1,0,0.1,0,0.2,0c0.1,0,0.1,0,0.2,0c0,0.1,0,0.2,0,0.3
		c0,0.1-0.1,0.3-0.2,0.4c0,0-0.1,0.1-0.1,0.1c-0.9,0.1-1.7-0.3-2.4-0.7c0.1-0.1,0.1-0.1,0.2,0c0-0.1-0.1-0.1-0.1-0.1
		c-0.1,0-0.2,0-0.4,0c-0.8-0.1-1.5-0.1-2.3,0C76.5,54.8,76.2,54.6,76,54.9z"/>
	<path class="st34" d="M82,55c0.4,0,0.2,0.2,0.2,0.4c-0.1,0-0.1,0-0.2,0C82,55.3,82,55.1,82,55z"/>
	<path class="st35" d="M81.1,54.1c0.3,0,0.5,0.2,0.8,0.3c0.1,0.1,0.2,0.2,0.1,0.4c-0.1,0-0.1,0-0.2,0c-0.4,0.3-0.6-0.1-0.9-0.2
		c-0.1,0-0.1-0.1-0.1-0.2C80.9,54.3,80.9,54.1,81.1,54.1z"/>
	<path class="st36" d="M82.7,55.6c0-0.2-0.1-0.4,0.2-0.2C83,55.6,82.9,55.6,82.7,55.6z"/>
	<path class="st37" d="M59.7,41.7c1.3,0.5,2.6,0.9,3.8,1.7c0.2,0.1,0.4,0.2,0.4,0.5C63.7,44,63.6,44,63.5,44c-0.1,0-0.1,0-0.2,0
		c-0.1-0.1-0.2-0.1-0.4-0.2c0,0-0.1-0.1-0.1-0.1c-0.2-0.1-0.5-0.3-0.7-0.4c-0.1,0-0.2-0.1-0.2-0.1c-0.9-0.4-1.8-0.8-2.7-1
		c-0.4-0.1-0.8-0.4-1.3-0.4c-0.6-0.2-1.3-0.4-2-0.5c-0.2-0.1-0.5-0.1-0.6-0.4c0.3,0,0.6,0,0.9,0c0.5,0.1,0.9,0.2,1.4,0.2
		c0.3,0,0.5,0.1,0.8,0.1c0.1,0.1,0.2,0.1,0.4,0.1C59.2,41.3,59.4,41.5,59.7,41.7z"/>
	<path class="st38" d="M57.6,41.1c-0.5,0-1,0.1-1.4-0.2c0,0,0-0.1,0-0.1C56.7,40.8,57.2,40.9,57.6,41.1z"/>
	<path class="st39" d="M49,39.9c0.9,0.1,1.8,0.3,2.6,0.4c0.3,0,0.6,0.1,0.8,0.1c-0.1,0.4-0.5,0.2-0.7,0.4c-1.3-0.1-2.5-0.3-3.8-0.5
		c-0.2,0-0.3-0.1-0.4-0.3c0-0.1,0-0.1,0.1-0.2c0.1,0,0.2,0,0.4,0c0.2,0.1,0.5,0,0.7,0.1C48.7,39.9,48.8,39.9,49,39.9z"/>
	<path class="st40" d="M33.5,39.5c0.5-0.2,1-0.1,1.5-0.1c0.2,0,0.4,0,0.6,0c0,0.2-0.3,0.3-0.4,0.5c-0.5,0.1-1,0.1-1.5,0.1
		C33.6,39.9,33.3,39.8,33.5,39.5z"/>
	<path class="st41" d="M47.6,39.8c0,0.1,0,0.1,0,0.2c-0.4,0.4-0.8,0.4-1.2,0c0-0.1,0-0.2,0.1-0.3C46.8,39.7,47.2,39.6,47.6,39.8z"/>
	<path class="st42" d="M46.5,39.6c0,0.1,0,0.2,0,0.2c-0.2,0.2-0.3,0.2-0.5,0.1c-0.2-0.1-0.5-0.1-0.8-0.1c-0.1,0-0.2-0.1-0.2-0.2
		c0-0.1,0.2-0.1,0.2-0.1C45.6,39.5,46,39.5,46.5,39.6z"/>
	<path class="st43" d="M35.3,39.8c-0.2-0.3,0.2-0.2,0.2-0.3c0,0,0.1,0,0.1,0c0.1,0.1,0.3,0.1,0.4,0c0.1,0,0.2,0,0.4,0
		c0.1,0.1,0.1,0.2,0,0.4C36.1,40,35.7,40,35.3,39.8z"/>
	<path class="st44" d="M45.2,39.5c0,0.1-0.3,0.2,0,0.2c0.2,0,0.5-0.2,0.6,0.1c-0.5,0.3-1,0.3-1.4-0.1c0-0.2,0-0.3,0.2-0.3
		C44.8,39.4,45,39.5,45.2,39.5z"/>
	<path class="st45" d="M44.6,39.5c-0.1,0.1-0.2,0.2-0.2,0.3c-0.3,0.2-0.5,0.2-0.8,0.1c0.1-0.2,0.1-0.2,0.3-0.2
		c-0.1-0.1-0.5,0.2-0.5-0.2C43.8,39.4,44.2,39.4,44.6,39.5z"/>
	<path class="st43" d="M38.8,39.3c-0.6,0.1-1.2,0.3-1.8,0.1C37.6,39.2,38.2,39.3,38.8,39.3z"/>
	<path class="st44" d="M43.5,39.4c0.2,0.2,0.4,0,0.6,0.2c-0.1,0.2-0.4,0-0.5,0.2c-0.1,0.1-0.2,0.1-0.2,0c-0.1-0.2-0.4-0.1-0.5-0.4
		C43,39.4,43.2,39.4,43.5,39.4z"/>
	<path class="st46" d="M48.6,39.9c-0.2,0-0.5,0.1-0.7-0.1C48.2,39.8,48.4,39.8,48.6,39.9z"/>
	<path class="st40" d="M36.1,39.4c-0.1,0.2-0.2,0.4-0.4,0C35.8,39.4,36,39.4,36.1,39.4z"/>
	<path class="st47" d="M19.4,40.8c0.1,0,0.2-0.1,0.3-0.1c0.1,0,0.2,0,0.4,0C19.9,40.8,19.6,40.8,19.4,40.8z"/>
	<path class="st48" d="M25.8,39.5c0.1-0.4,0.2-0.9,0.4-1.2c0.4,0.2,0.1,0.5,0,0.8c0.2-0.5,0.2-1,0.4-1.5c0.1-0.3,0.2-0.5,0.4-0.7
		c0.1-0.1,0.4,0.2,0.3-0.2c0-0.2,0.1-0.4,0.3-0.4c0.2,0,0.2,0.3,0.2,0.4c0,0.3,0.3,0.4,0.3,0.7c0,0.2,0,0.4-0.1,0.5
		c-0.4,0-0.4,0.4-0.7,0.6c-0.2,0.1-0.4,0.4-0.3,0.5c0.2,0.2,0.6,0.5,0.9,0.4c0.1,0,0-0.1,0.1-0.2c0.1-0.2,0.2-0.5,0.4-0.6
		c0.2-0.2,0.3-0.3,0.1-0.6c-0.2-0.3,0.2-0.7,0.6-0.7c0,0,0,0,0.1,0c0,0,0,0,0-0.1c0-0.2,0.1-0.4,0.2-0.6c0.2-0.2,0.2-0.4,0.1-0.6
		c0-0.1,0-0.2,0-0.3c0-0.1,0.1-0.1,0.1-0.1c0.1,0,0.2,0,0.2,0c0.2-0.2,0.4-0.4,0.4-0.8c0,0.2,0.1,0.3,0.1,0.5c-0.1,0.5,0,1-0.2,1.5
		c-0.1-0.1-0.1-0.1-0.1-0.2c0,0,0,0.1,0,0.1c0,0.3-0.2,0.6,0,0.9c0,0.3-0.1,0.6-0.1,0.8c-0.1,0.2-0.2,0.4-0.1,0.7c0,0.1,0,0.2,0,0.2
		c-0.2,0-0.3,0.1-0.4,0.3c-0.3,0.5-1,0.6-1.3,1.1c-0.2,0.3-0.5,0-0.6-0.2c-0.4-0.4-0.7-0.4-0.9,0.1c0,0.1,0,0.2,0,0.2
		c0,0.1-0.1,0.2-0.1,0.3c0,0.1-0.1,0.2-0.2,0.2c-0.1,0-0.2,0-0.2-0.1c-0.1,0-0.1-0.1-0.2-0.1c-0.1,0-0.2,0.1-0.2,0.1
		c0,0-0.1,0.1-0.1,0.1c-0.1,0-0.1-0.1-0.2-0.2c0-0.1,0-0.3,0.1-0.4c0-0.4-0.5-0.2-0.6-0.5c0.3-0.2,0.7,0,1-0.2
		c0.2-0.1,0.4-0.1,0.4-0.3C26.2,39.6,25.9,39.6,25.8,39.5z"/>
	<path class="st49" d="M29.8,37.6c-0.1,0-0.3,0.1-0.2-0.1c0.1-0.4,0.1-0.7,0.3-1.1c0,0.2,0,0.3,0,0.4C29.9,37.2,29.9,37.4,29.8,37.6
		z"/>
	<path class="st50" d="M30.8,39.3c-0.3,0.2-0.6,0.1-0.9,0.1C30.2,39.2,30.5,39.3,30.8,39.3z"/>
	<path class="st51" d="M55.3,40.9c0.9,0.3,1.8,0.5,2.7,0.8c0,0.2-0.3,0.2-0.3,0.4c-0.2,0.1-0.4,0-0.5-0.1c-0.7-0.3-1.4-0.4-2.1-0.6
		c-0.2-0.1-0.4-0.1-0.6-0.3c0.1-0.5,0.5-0.1,0.6-0.2C55.1,40.9,55.2,40.9,55.3,40.9z"/>
	<path class="st52" d="M51.8,40.6c0.2-0.2,0.5,0,0.6-0.2c0.4,0.1,0.8,0.2,1.2,0.3c0,0.3-0.3,0.3-0.4,0.3C52.7,41,52.2,41,51.8,40.6z
		"/>
	<path class="st53" d="M55.1,40.9c-0.2,0.2-0.5,0-0.6,0.2c-0.2,0.2-0.4,0.2-0.5,0C53.9,41,54.1,41,54,41c-0.1,0-0.3,0-0.2-0.2
		c0.1-0.1,0.2-0.1,0.3,0C54.5,40.8,54.8,40.9,55.1,40.9z"/>
	<path class="st54" d="M54.2,40.8c-0.1,0-0.2,0-0.2,0c0,0.1,0.1,0.1,0.1,0.1c0,0,0.1,0,0.1,0.1c-0.1,0-0.2,0-0.2,0
		c-0.3,0.2-0.5,0.2-0.6-0.1c0.1-0.1,0.2-0.1,0.4-0.2C53.9,40.7,54.1,40.6,54.2,40.8z"/>
	<path class="st55" d="M24.7,40.4c0.3,0,0.5,0.1,0.7,0.2c0.2,0.1,0.2,0.2,0,0.3c-0.2,0-0.3,0-0.5,0c-0.1,0-0.2,0-0.2,0
		c-0.1-0.1-0.1-0.1-0.2,0c-0.1,0-0.1,0-0.2,0.1c-0.2,0-0.5,0-0.7,0c-0.1,0.1-0.3,0.1-0.5,0c-0.1-0.1-0.1-0.2,0-0.3
		c0.3-0.3,0.6-0.1,0.9-0.2C24.2,40.4,24.5,40.4,24.7,40.4z"/>
	<path class="st56" d="M23.2,40.6c0,0.1-0.1,0.2-0.1,0.3C23,41,22.9,40.9,22.8,41c-0.4,0.1-0.9,0-1.3,0.2c-0.2,0-0.4,0-0.6,0
		c-0.1-0.1-0.3,0-0.3-0.2c0-0.1,0-0.1,0.1-0.1c0.2,0,0.4,0,0.6,0c0.3-0.2,0.7-0.1,1-0.2c0.1,0,0.2,0,0.2,0
		C22.8,40.6,23,40.5,23.2,40.6z"/>
	<path class="st47" d="M20.7,40.9C20.7,40.9,20.7,41,20.7,40.9c-0.3,0.5-0.8,0.3-1.1,0.4c-0.1,0-0.2,0-0.3-0.1c0,0,0-0.1,0-0.1
		C19.8,40.9,20.2,40.8,20.7,40.9z"/>
	<path class="st47" d="M23.2,40.6c-0.2,0-0.4,0-0.6,0c0.4-0.3,0.9-0.2,1.4-0.2C23.7,40.5,23.5,40.6,23.2,40.6z"/>
	<path class="st47" d="M22.3,40.7c-0.3,0.2-0.7,0.3-1,0.2C21.6,40.4,22,40.6,22.3,40.7z"/>
	<path class="st47" d="M21.9,40.4C22,40.4,22,40.3,21.9,40.4c0.2-0.1,0.4-0.1,0.5-0.1C22.3,40.6,22.1,40.4,21.9,40.4z"/>
	<path class="st57" d="M26.3,40.6c-0.2-0.2,0-0.5,0.1-0.5c0.3,0,0.7-0.2,0.9,0.1c0.1,0.2,0.2,0.4,0.5,0.4c0.1-0.5,0.1-0.5,0.7-0.6
		c0.1,0,0.2-0.1,0.2-0.2c0-0.4,0.3-0.3,0.5-0.3c0.1,0,0.2,0.1,0.2,0.1C29.4,40,29,40.1,29,40.4c-0.1,0.2-0.2,0.4-0.3,0.6
		c-0.1,0.1-0.1,0.2-0.2,0.2c-0.1,0-0.2-0.1-0.3,0.1c-0.1,0.2-0.2,0.3-0.4,0.2c0,0-0.1-0.1-0.1-0.1c0,0,0,0,0,0c0.1,0,0,0,0,0
		c0.1,0.3,0.2,0.5,0,0.8c0,0-0.1,0.1-0.1,0.1c-0.1,0-0.2,0.1-0.3,0.1c-0.1,0-0.1,0-0.2,0c0,0-0.1-0.1-0.1-0.1c0-0.4,0.1-0.7,0-1.1
		c0-0.1,0-0.2,0-0.3c0-0.2,0-0.4-0.3-0.3C26.6,40.7,26.5,40.7,26.3,40.6z"/>
	<path class="st58" d="M28.8,40.3c0.1-0.3,0.4-0.4,0.6-0.5c0.2,0,0.3,0,0.5,0c0.1,0.1,0.2,0.1,0.1,0.3c-0.3,0.3-0.7,0.2-1,0.4
		C29,40.5,28.9,40.4,28.8,40.3z"/>
	<path class="st59" d="M30.1,40c0-0.1-0.1-0.1-0.1-0.2c0.1,0,0.2,0,0.4,0c0.3-0.1,0.7,0,1-0.1c0,0,0.1,0,0.1,0c0,0.1,0,0.2,0,0.2
		c-0.2,0.3-0.6,0.1-0.9,0.2C30.4,40.2,30.2,40.2,30.1,40z"/>
	<path class="st60" d="M31.3,39.7c-0.3,0.2-0.7,0.1-1,0.1C30.6,39.6,31,39.7,31.3,39.7z"/>
	<path class="st61" d="M28,37.4c-0.2-0.3-0.6-0.6-0.2-1.1c-0.4,0.2-0.2,0.5-0.3,0.7c-0.1,0-0.2-0.1-0.3-0.1c-0.1-0.2,0-0.5,0.1-0.7
		c0.1-0.2,0-0.3-0.2-0.3c0-0.3,0-0.7,0-1c0.2,0,0.3-0.1,0.5-0.1c0.3-0.2,0.4,0.1,0.4,0.2c0.1,0.2,0.2,0.4,0.4,0.5
		c0.2,0.1,0.2,0.3,0.2,0.5c0,0.2-0.1,0.4,0.2,0.4c0.3,0,0.2-0.2,0.2-0.4c0-0.1,0-0.2,0.1-0.3c0.1,0,0.2,0,0.3,0.1
		c0.3,0.3,0.3,0.5,0,0.8c-0.2,0.1-0.2,0.3-0.2,0.5c-0.4-0.1-0.7-0.1-0.8,0.4c0,0.1-0.2,0.2-0.4,0.2C27.9,37.7,27.8,37.6,28,37.4z"/>
	<path class="st62" d="M28.2,35.6c-0.5-0.1-0.3-0.8-0.8-0.9c0-0.2,0.1-0.3,0.3-0.4c0.1-0.1,0.3-0.1,0.4-0.3l0,0
		c0.2-0.1,0.5-0.3,0.7-0.1l0,0c-0.1,0.3,0,0.4,0.3,0.6c0.3,0.2,0.3,0.7,0.3,1.1c0,0.1,0,0.2,0,0.3c-0.1,0-0.3,0-0.4,0
		C28.7,36.1,28.5,35.7,28.2,35.6z"/>
	<path class="st63" d="M29.5,35.6c-0.2-0.2-0.2-0.4-0.2-0.7c0-0.2,0.1-0.5-0.3-0.2c-0.2,0.2-0.1-0.4-0.4-0.4c-0.1,0,0.1-0.1,0.2-0.1
		c0.1,0,0.1-0.1,0.2-0.2c0.4,0.3,0.9,0.5,0.9,1.1C29.5,35.3,29.6,35.5,29.5,35.6L29.5,35.6z"/>
	<path class="st61" d="M29.5,35.6c0.1-0.2-0.2-0.5,0.2-0.5c0,0.2,0,0.3,0,0.5C29.6,35.6,29.5,35.6,29.5,35.6z"/>
	<path class="st63" d="M28.8,34c-0.2,0-0.5,0.1-0.7,0.1C28.3,33.8,28.5,33.8,28.8,34z"/>
	<path class="st63" d="M28.1,34.1c0,0.3-0.2,0.3-0.4,0.3C27.8,34.2,27.9,34.1,28.1,34.1z"/>
	<path class="st64" d="M80.7,22.2c0.4,0,0.7,0.1,1-0.2c0.2-0.2,0.4,0,0.6,0.2c0,0,0,0.1,0,0.1c-0.1,0.2-0.4-0.1-0.4,0.2
		c-0.2,0.1-0.5,0.2-0.7,0.3c-0.1,0-0.2,0-0.2-0.1c-0.2,0-0.3-0.3-0.6-0.3C80.5,22.3,80.6,22.2,80.7,22.2z"/>
	<path class="st65" d="M66,43.4c0-0.1,0.1-0.3,0.1-0.4c0.2-0.5,0.5-1,0.7-1.5c0.2,0,0.3,0.1,0.3,0.3c0,0.2,0,0.3-0.1,0.4
		c-0.2,0.5-0.4,0.9-0.6,1.3c-0.1,0.1-0.1,0.1-0.2,0.2C66.1,43.7,66,43.5,66,43.4z"/>
	<path class="st66" d="M67.1,41.8c-0.1-0.1-0.2-0.2-0.3-0.3c0.2-0.5,0.3-0.9,0.6-1.3c0.2-0.1,0.3,0.1,0.3,0.2c0,0.2,0,0.3-0.1,0.4
		C67.5,41.2,67.4,41.5,67.1,41.8z"/>
	<path class="st67" d="M67.7,40.4c-0.1-0.1-0.2-0.2-0.3-0.3c0.1-0.3,0.2-0.6,0.4-0.8c0.1,0.1,0.1,0.2,0.2,0.3
		C68.1,40,67.9,40.2,67.7,40.4z"/>
	<path class="st68" d="M76.6,26.6c0-0.4,0.4-0.5,0.6-0.8c0.7-0.6,1.3-1.4,2-2c0.2,0.1,0.6-0.5,0.7,0.1c-0.1,0.3-0.5,0.5-0.7,0.7
		c-0.7,0.7-1.5,1.2-2.1,2c-0.1,0.1-0.2,0.1-0.3,0.1C76.6,26.8,76.5,26.8,76.6,26.6z"/>
	<path class="st69" d="M73.2,30.9c0.1-0.4,0.5-0.6,0.5-1c0.5-0.4,0.9-1,1.2-1.5c0.3-0.1,0.4-0.5,0.6-0.6c0.1-0.1,0.2,0,0.3,0.1
		c0,0.4-0.3,0.6-0.5,0.8c-0.4,0.5-0.7,0.9-1.1,1.4c0,0.1-0.1,0.1-0.1,0.2c-0.1,0.1-0.1,0.2-0.2,0.3c-0.2,0.2-0.3,0.4-0.5,0.5
		C73.3,31.1,73.2,31,73.2,30.9z"/>
	<path class="st70" d="M79.8,24c-0.1-0.2-0.2-0.2-0.4,0c-0.1,0.2-0.2,0-0.3-0.1c0.5-0.3,0.9-0.8,1.5-1c0.2,0.1,0.3,0.2,0.3,0.4
		c-0.1,0.2-0.3,0.3-0.5,0.5C80.3,23.8,80.1,24.1,79.8,24z"/>
	<path class="st71" d="M80.9,23.2c-0.1-0.1-0.3-0.2-0.3-0.3c0.1,0,0.2-0.1,0.2-0.1c0.1,0,0.2,0,0.3-0.1c0.2-0.2,0.5-0.2,0.8-0.3
		c0.1-0.1,0.2,0,0.4,0c0.1,0.3-0.2,0.4-0.3,0.5C81.7,23.1,81.4,23.4,80.9,23.2z"/>
	<path class="st72" d="M75.8,27.9c-0.1,0-0.2-0.1-0.3-0.1c0.3-0.4,0.6-0.8,1-1.1c0,0.1,0.1,0.1,0.2,0.1c0.1,0.4-0.4,0.5-0.5,0.8
		C76.2,27.7,76.1,28,75.8,27.9z"/>
	<path class="st73" d="M81.2,22.6c0.1,0.1,0.1,0.1,0,0.2c-0.1,0.1-0.2,0-0.2-0.1c0,0,0-0.1,0-0.1C81,22.6,81.1,22.6,81.2,22.6z"/>
	<path class="st74" d="M69.9,36.1c0-0.1,0-0.2,0-0.2c0.5-0.6,0.8-1.4,1.3-2c0.1-0.2,0.3-0.4,0.5-0.6c0.1,0,0.2,0.1,0.2,0.2
		c0,0.1,0,0.3,0,0.4c-0.5,0.8-0.9,1.7-1.5,2.4C70.2,36.1,70.1,36.2,69.9,36.1z"/>
	<path class="st75" d="M71.9,33.4c-0.1-0.1-0.1-0.1-0.2-0.2c0.3-0.5,0.5-1,0.9-1.4c0.2,0,0.2,0.1,0.3,0.2
		C72.7,32.7,72.4,33.1,71.9,33.4z"/>
	<path class="st76" d="M72.7,32.1c0-0.1,0-0.2-0.2-0.3c0.1-0.2,0.2-0.4,0.4-0.5c0.1-0.1,0.2,0,0.2,0.1
		C73.2,31.8,73.1,32.1,72.7,32.1z"/>
	<path class="st77" d="M73.1,31.6c-0.1-0.1-0.1-0.1-0.2-0.2c0-0.1,0-0.2,0-0.2c0.1-0.1,0.2-0.2,0.2-0.3c0.1,0,0.2,0.1,0.3,0.1
		C73.5,31.3,73.4,31.5,73.1,31.6z"/>
	<path class="st78" d="M68.2,39.3c-0.1-0.4,0.4-0.5,0.4-0.9c0.3-0.4,0.5-1,0.9-1.4c0.1,0,0.2,0.1,0.2,0.3c0,0.2,0,0.3-0.1,0.4
		c-0.3,0.5-0.5,1.1-0.9,1.5C68.5,39.3,68.4,39.3,68.2,39.3z"/>
	<path class="st79" d="M69.6,37.3c-0.1-0.1-0.1-0.2-0.2-0.3c0.1-0.3,0.3-0.6,0.5-0.9c0.1,0,0.2-0.1,0.3,0c0.1,0.3-0.1,0.5-0.2,0.8
		c0,0-0.1,0.1-0.1,0.1C69.8,37.2,69.7,37.3,69.6,37.3z"/>
	<path class="st80" d="M67.7,40.4c0-0.3,0.3-0.4,0.3-0.7c0,0,0.1,0,0.1,0c0.2,0,0.2,0,0.3,0.2c0,0.5-0.2,0.8-0.5,1.1
		c-0.1,0-0.2,0-0.3-0.1C67.6,40.6,67.6,40.5,67.7,40.4z"/>
	<path class="st81" d="M68.3,39.8c-0.1-0.1-0.2-0.1-0.3-0.2c0-0.1,0.1-0.2,0.1-0.3c0.1-0.1,0.2-0.1,0.4,0
		C68.7,39.5,68.5,39.7,68.3,39.8z"/>
	<path class="st82" d="M82.2,27.5c-0.2,0.4-0.4,0.7-0.7,1.1c-0.2,0-0.3,0.1-0.4-0.1c0.5-0.9,0.8-2,1.6-2.7c0.1,0,0.2,0,0.3,0.1
		C82.7,26.4,82.5,27,82.2,27.5z"/>
	<path class="st83" d="M83,25.9c-0.1,0-0.2,0-0.3,0c-0.2-0.3,0.1-0.5,0.1-0.8c0.1-0.2,0.2-0.5,0.3-0.8c0.1-0.2,0.2-0.5,0.2-0.7
		c0.1-0.2,0.2-0.4,0.5-0.4C83.8,24.2,83.4,25.1,83,25.9z"/>
	<path class="st84" d="M83.8,23.3c-0.5,0.2-0.3,0.8-0.6,1.1c0,0-0.1,0-0.1-0.1c-0.2-0.5,0-1,0.3-1.5c0.1-0.1,0.3-0.1,0.4,0
		C83.8,23,83.8,23.1,83.8,23.3z"/>
	<path class="st85" d="M83.8,22.9c-0.1,0-0.2,0-0.4,0c0-0.4-0.6-0.3-0.6-0.7c0,0,0,0,0-0.1c0.4,0.1,0.2-0.2,0.3-0.3
		C83.5,22.1,83.7,22.5,83.8,22.9z"/>
	<path class="st86" d="M79,33.4c-0.3,0.2-0.4,0.6-0.7,0.9c-0.1,0-0.2,0-0.3-0.2c0-0.2,0-0.3,0.1-0.4c0.6-0.8,0.9-1.7,1.5-2.5
		c0.2-0.2,0.3-0.6,0.6-0.7c0.1,0,0.2,0,0.3,0.2c-0.4,0.7-0.8,1.4-1.2,2.1C79.1,33,78.9,33.1,79,33.4z"/>
	<path class="st87" d="M80.4,30.6c-0.1,0-0.2-0.1-0.2-0.1c0,0-0.1-0.1-0.1-0.1c0.1-0.5,0.5-0.8,0.7-1.3c0.1-0.2,0.2-0.4,0.4-0.5
		c0.1-0.1,0.2-0.1,0.3,0C81.3,29.3,80.9,30,80.4,30.6z"/>
	<path class="st88" d="M76.8,36.6C76.8,36.7,76.8,36.7,76.8,36.6c-0.7,1-1.4,1.9-2,2.8c-0.1-0.1-0.1-0.1-0.1-0.2
		c-0.1-0.3,0.1-0.4,0.2-0.6c0.6-1,1.4-1.9,2-2.9c0.1-0.2,0.3-0.4,0.5-0.4c0.1,0,0.2,0.1,0.1,0.2C77.3,35.9,77,36.3,76.8,36.6z"/>
	<path class="st89" d="M77.5,35.6c-0.1-0.1-0.1-0.1-0.2-0.2c0-0.5,0.2-0.9,0.7-1.1c0.1,0,0.2,0.1,0.1,0.2
		C77.9,34.9,77.7,35.3,77.5,35.6z"/>
	<path class="st90" d="M78.1,34.6c-0.1-0.1-0.1-0.1-0.2-0.2c-0.1-0.1-0.1-0.2,0.1-0.3c0.1,0,0.2,0.1,0.2,0.1
		C78.2,34.4,78.2,34.5,78.1,34.6z"/>
	<path class="st85" d="M82.3,22.1c0.2-0.5,0.4-0.3,0.6,0c0,0,0,0,0,0c-0.1,0.1,0,0.3-0.2,0.4c-0.1,0-0.2,0-0.3-0.1
		C82.4,22.4,82.4,22.2,82.3,22.1L82.3,22.1z"/>
	<path class="st91" d="M20.6,58.8c0.2-1.2,0.6-2.2,0.9-3.4c0.2-0.6,0.2-1.3,0.5-1.9c0.3,0.1,0.4,0.4,0.4,0.7c0,0.5-0.1,1-0.4,1.4
		c0,0.1-0.4-0.1-0.2,0.2c0,0.2-0.1,0.4-0.1,0.6c0,0.1,0,0.2-0.1,0.2c-0.2,0.4-0.2,0.8-0.4,1.2c0,0.1-0.1,0.1-0.1,0.2
		c-0.1,0.2-0.1,0.3-0.2,0.5c0,0.1-0.1,0.3-0.2,0.3C20.6,58.9,20.6,58.9,20.6,58.8z"/>
	<path class="st92" d="M22.3,54.1c-0.1-0.2-0.2-0.4-0.3-0.6c0-0.1,0.1-0.2,0.1-0.2c0.1-0.3,0.2-0.7,0.3-1c0-0.3,0.1-0.7,0.3-1
		c0.1,0,0.1,0,0.2,0c0.1,0.1,0.2,0.3,0.2,0.4c0,0.3-0.1,0.5-0.1,0.8c-0.1,0.4-0.3,0.9-0.3,1.3C22.6,53.9,22.5,54.1,22.3,54.1z"/>
	<path class="st93" d="M23.1,49.1c0-0.2,0.1-0.5,0.1-0.7c0,0,0-0.1,0-0.1c0.1-0.3,0.2-0.6,0.3-0.9c0.4,0.1,0.2,0.4,0.3,0.6
		c0,0.1,0,0.2-0.1,0.2c-0.2,0.2-0.2,0.4-0.2,0.7c-0.1,0.2-0.1,0.3-0.2,0.5c-0.1,0-0.1,0-0.2,0C23.1,49.4,23,49.3,23.1,49.1z"/>
	<path class="st94" d="M22.7,50.2c0.1-0.2,0.1-0.4,0.2-0.6c0.2,0.1,0.2,0.2,0.3,0.3c0,0.5-0.1,0.9-0.4,1.3c0,0-0.1,0-0.1,0.1
		c-0.1-0.1-0.2-0.2-0.2-0.4c0-0.1,0-0.2,0.1-0.3C22.6,50.5,22.6,50.3,22.7,50.2z"/>
	<path class="st95" d="M20.6,58.8c0,0,0.1,0.1,0.1,0.1c0.1,0.1,0.1,0.2,0.1,0.4c0,0.2-0.1,0.4-0.1,0.6c-0.1,0.3,0,0.6-0.1,0.9
		c0,0.1,0,0.5-0.3,0.2c-0.2-0.3,0.1-0.6,0-0.9C20.3,59.6,20.3,59.2,20.6,58.8z"/>
	<path class="st96" d="M22.3,51.5c0.2-0.2,0-0.5,0.2-0.6c0.2,0.1,0.1,0.3,0.2,0.4c-0.1,0.3-0.2,0.6-0.3,1c-0.3,0-0.1-0.3-0.2-0.4
		C22.3,51.8,22.3,51.6,22.3,51.5z"/>
	<path class="st97" d="M22.2,51.9c0.1,0.1,0,0.3,0.2,0.4c-0.1,0.3-0.1,0.8-0.4,1C21.9,52.8,22.3,52.4,22.2,51.9z"/>
	<path class="st98" d="M20.2,60c0.2,0.3,0.1,0.6,0.1,0.9c0,0-0.1,0-0.1,0c-0.1,0-0.1-0.1-0.1-0.2c0-0.1,0-0.3,0-0.4
		C20.1,60.3,20.2,60.1,20.2,60z"/>
	<path class="st99" d="M28.3,61.7c0.4-0.1,0.7-0.2,1.1-0.3c0.1,0.1,0.2,0.1,0.2,0.3c-0.1,0-0.1,0.1-0.2,0.1
		c-0.7,0.2-1.4,0.3-2.1,0.6c-0.2,0.1-0.6-0.1-0.7,0.2c-0.1,0-0.2,0-0.3,0.1c-0.3,0.2-0.6,0.1-0.9,0.3c-0.2,0-0.3,0-0.5,0.1
		c-0.3,0.1-0.5,0-0.8,0.1c-0.1,0-0.1,0.1-0.2,0.1c-0.3,0-0.6,0.1-0.9,0.2c-0.4,0-0.7,0.2-1.1,0.2c-0.4,0.1-0.7,0.1-1.1,0.2
		c-0.2,0.1-0.4,0-0.6,0.2c-0.1,0-0.1,0.1-0.2,0.1c-0.2,0.1-0.4,0.1-0.6,0.1c-0.5,0-0.9,0.1-1.3,0.2c-0.1,0-0.3,0-0.4,0
		c-0.2-0.1-0.4-0.2-0.4-0.5c0.3-0.2,0.6-0.1,0.9-0.2c0.3-0.2,0.7,0,1-0.1c1.6-0.2,3.2-0.4,4.8-0.9c1.2-0.2,2.3-0.5,3.5-0.8
		C27.9,61.8,28.1,61.8,28.3,61.7z"/>
	<path class="st100" d="M21.7,58c-0.2,0.6-0.4,1.3-0.6,1.9C21,60.1,21,60.3,21,60.5c0,0.3-0.1,0.7-0.3,1l0,0l0,0
		c-0.5,0.1-0.6-0.1-0.4-0.5c0,0,0.1,0,0.1,0c0.1-0.2,0.1-0.2,0.2-0.4c0-0.2-0.1-0.5,0.1-0.7c0,0,0.1,0,0.1,0
		c0.1-0.2,0.1-0.4,0.1-0.7c0-0.1,0-0.1,0.1-0.2c0.1-0.4,0.2-0.7,0.4-1.1c0.1-0.4,0.2-0.7,0.3-1.1c0.3,0,0.4,0.3,0.4,0.5
		C21.9,57.5,21.9,57.8,21.7,58z"/>
	<path class="st101" d="M20.2,60.9c0,0.3,0,0.5,0.4,0.5c-0.6,0.2-0.6,0.2-0.5-0.6C20.1,60.8,20.2,60.9,20.2,60.9z"/>
	<path class="st102" d="M17.6,63c0,0.5,0.1,0.9,0.7,0.8c-0.3,0.2-0.6,0.1-0.8,0.1c-0.2,0-0.2-0.2-0.3-0.3c0-0.3-0.3-0.6-0.3-0.9
		c0.1-0.1,0.2-0.2,0.3-0.1c0,0,0.1,0,0.1,0C17.5,62.7,17.5,62.9,17.6,63L17.6,63z"/>
	<path class="st103" d="M17.2,62.6c-0.1,0-0.2,0-0.3,0.2c-0.1,0-0.1,0-0.2,0c-0.3-0.1-0.5,0-0.8-0.1c-0.1-0.1-0.2-0.2-0.1-0.3
		c0.1,0,0.1-0.1,0.2-0.1c0.2,0,0.3,0,0.5,0C16.8,62.3,17.1,62.3,17.2,62.6z"/>
	<path class="st104" d="M15.8,65.7c-0.2-0.1-0.3-0.1-0.5-0.2c-0.2-0.5-0.7-0.9-0.2-1.5c0.2,0.1,0.2,0.2,0.3,0.4c0,0,0.1,0.1,0.1,0.1
		c0.1,0.3,0.3,0.5,0.6,0.7c0.2,0.1,0.4,0.2,0.5,0.4c0,0.1,0,0.2-0.1,0.2C16.2,65.7,16,65.7,15.8,65.7z"/>
	<path class="st104" d="M15.8,65.7c-0.2-0.1-0.3-0.1-0.5-0.2c-0.2-0.5-0.7-0.9-0.2-1.5c0.2,0.1,0.2,0.2,0.3,0.4c0,0,0.1,0.1,0.1,0.1
		c0.1,0.3,0.3,0.5,0.6,0.7c0.2,0.1,0.4,0.2,0.5,0.4c0,0.1,0,0.2-0.1,0.2C16.2,65.7,16,65.7,15.8,65.7z"/>
	<path class="st105" d="M15.2,63.6c0-0.1,0-0.2,0-0.2c0.2-0.1,0.3,0,0.4,0.1c0.1,0.1,0.2,0.3,0.2,0.5c0,0.2,0.3,0.6-0.3,0.5
		c-0.1,0-0.2-0.1-0.2-0.1l0,0C15.2,64.1,15.2,63.9,15.2,63.6z"/>
	<path class="st106" d="M15.8,62.4c0,0.1,0.1,0.2,0.1,0.3c0,0.3-0.1,0.6-0.5,0.7c-0.2,0-0.2-0.2-0.2-0.3
		C15.4,62.8,15.5,62.5,15.8,62.4z"/>
	<path class="st107" d="M15.2,63.6c0.2,0.2,0.1,0.5,0.1,0.8c-0.2-0.1-0.2-0.3-0.3-0.5C15.1,63.8,15.2,63.7,15.2,63.6z"/>
	<path class="st108" d="M15.2,63c0.1,0.1,0.2,0.2,0.2,0.2c0.1,0.1,0.2,0.1,0.1,0.2c-0.1,0-0.2-0.1-0.4-0.1
		C15.1,63.3,15.1,63.1,15.2,63z"/>
	<path class="st109" d="M19.3,41.2c0.1,0,0.2,0,0.2,0c0.2,0.1,0.5,0,0.7,0.3c-0.5,0.1-0.9,0.2-1.4,0.2c-0.3,0.1-0.4,0-0.5-0.3
		c0.1-0.2,0.3-0.1,0.4-0.1C18.9,41.1,19.1,41.3,19.3,41.2C19.3,41.2,19.3,41.2,19.3,41.2z"/>
	<path class="st110" d="M16.5,41.9c-0.1,0-0.1-0.1-0.2-0.1c0.5-0.1,0.9-0.2,1.4-0.2c0.2-0.1,0.3,0.1,0.4,0.3
		c-0.2,0.2-0.5,0.1-0.8,0.1C17,41.8,16.7,42.1,16.5,41.9z"/>
	<path class="st111" d="M20.2,41.4c-0.2,0-0.5,0-0.7-0.3c0.3-0.2,0.8,0.1,1.1-0.2c0.1,0.1,0.2,0.2,0.3,0.3
		C20.7,41.4,20.5,41.4,20.2,41.4z"/>
	<path class="st112" d="M18.1,41.8c-0.2,0-0.3-0.2-0.4-0.3c0.2,0,0.4-0.1,0.7-0.1c0.2,0,0.3,0.3,0.5,0.3
		C18.6,41.8,18.4,41.8,18.1,41.8z"/>
	<path class="st112" d="M16.5,41.9c0.3,0.1,0.6-0.3,0.9,0C17.1,42,16.9,42,16.7,42c-0.2,0-0.4,0.2-0.4-0.1
		C16.4,41.9,16.4,41.9,16.5,41.9z"/>
	<path class="st110" d="M16.3,41.9c0.1,0.2,0.3,0.1,0.4,0.1c-0.1,0.1-0.3,0.1-0.5,0.1C16.2,42,16.2,41.9,16.3,41.9z"/>
	<path class="st113" d="M25.3,41.3c0,0,0.1,0.1,0.1,0.1c0.2,0.5-0.2,0.8-0.2,1.2c0.1-0.3,0.2-0.6,0.3-1c0.1-0.2,0.1-0.4,0.4-0.4
		c0,0,0.1,0.1,0.1,0.1c0.1,0.8-0.3,1.4-0.5,2.1c-0.1,0.1-0.2,0.1-0.4,0c-0.2,0-0.2,0.3-0.3,0.4c0,0-0.1,0.1-0.1,0.1
		c-0.1-0.1-0.1-0.2-0.1-0.3c0,0,0-0.1,0-0.1c0.1-0.1,0-0.3,0.1-0.4c0,0,0-0.1,0-0.1c0.1-0.6,0-1.2,0.4-1.8
		C25.2,41.2,25.3,41.2,25.3,41.3z"/>
	<path class="st114" d="M23.8,46.5c0-0.2,0-0.4,0.1-0.5c0.2,0,0.4,0.1,0.6,0c0.1,0.1,0.1,0.1,0.1,0.2c0,0.1-0.1,0.3-0.1,0.4
		c0,0.1-0.1,0.1-0.2,0.2c-0.1,0-0.2-0.1-0.3,0C23.9,46.8,23.9,46.6,23.8,46.5z"/>
	<path class="st115" d="M24.1,45.6c0-0.3,0.1-0.6,0.2-0.9c0,0,0.1,0,0.1,0c0.3,0.3,0,0.6,0.2,0.9c0,0.1,0,0.2-0.1,0.2
		C24.2,46,24,45.9,24.1,45.6z"/>
	<path class="st116" d="M23.8,48c-0.4-0.1,0-0.5-0.3-0.7c0-0.1,0-0.1,0-0.2c0.2-0.3,0.3-0.1,0.4,0.1c0,0.1,0.1,0.2,0.1,0.3
		c0,0.1,0,0.1,0,0.2C24,47.9,24,48,23.8,48z"/>
	<path class="st115" d="M24.6,43.6c0,0.1,0.1,0.2,0.1,0.2c0.2,0.4,0.1,0.7-0.3,0.9c0,0,0,0-0.1,0C24.3,44.4,24.5,44,24.6,43.6z"/>
	<path class="st117" d="M24.1,45.6c0.1,0.2,0.2,0.3,0.4,0.3c0,0,0.1,0,0.1,0c0,0,0,0.1,0,0.1c0,0,0,0.1,0,0.1
		c-0.2,0.1-0.5,0.5-0.7,0C23.9,45.9,24,45.7,24.1,45.6z"/>
	<path class="st118" d="M23.9,47.3c-0.1-0.1-0.2-0.3-0.3-0.1c0-0.2,0.2-0.4,0.2-0.6c0.1,0.1,0.2,0.2,0.2,0.3
		C24.2,47,24.1,47.1,23.9,47.3z"/>
	<path class="st119" d="M72,43.5c-0.1,0-0.1-0.2-0.2-0.3c0-0.2,0.1-0.4,0.2-0.6c0.5-0.7,0.9-1.3,1.4-1.9c0.1-0.2,0.3-0.5,0.6-0.2
		c0,0,0,0.1,0,0.1C73.4,41.6,72.7,42.6,72,43.5z"/>
	<path class="st120" d="M74.6,39.8c0,0.2-0.2,0.3-0.3,0.5c-0.2,0-0.2,0-0.3-0.2c0-0.3,0.1-0.5,0.5-0.5
		C74.6,39.6,74.7,39.7,74.6,39.8z"/>
	<path class="st121" d="M74.6,39.8c-0.1-0.1-0.1-0.1-0.2-0.2c-0.1-0.3,0-0.5,0.4-0.4c0,0.1,0,0.1,0,0.2
		C74.8,39.6,74.7,39.7,74.6,39.8z"/>
	<path class="st122" d="M74.1,40.1c0.1,0,0.2,0.1,0.3,0.1c-0.1,0.1-0.2,0.3-0.2,0.4c0,0,0,0-0.1-0.1C74,40.5,73.7,40.3,74.1,40.1z"
		/>
	<path class="st123" d="M69,47c-0.1-0.1-0.2-0.1-0.3-0.1c0-0.1,0-0.1,0-0.2c0-0.2,0.1-0.3,0.3-0.4c0.1,0,0.1,0,0.2,0
		c0.1,0,0.2,0,0.3,0.1C69.4,46.7,69.3,47,69,47z"/>
	<path class="st124" d="M69.9,45.6c-0.2,0.1-0.4,0.2-0.5,0.4c-0.2,0-0.3-0.1-0.3-0.3c0.6-0.8,1.1-1.7,2-2.3c0.2,0.1,0.2,0.3,0.1,0.4
		c0,0,0,0,0,0c-0.3,0.3-0.5,0.7-0.8,1C70.2,45.1,70,45.3,69.9,45.6z"/>
	<path class="st125" d="M69.2,45.8c0.1,0.1,0.2,0.2,0.2,0.2c-0.1,0.1-0.2,0.2-0.2,0.4c0,0-0.1,0-0.1,0c-0.2,0-0.3,0-0.3-0.2
		C68.9,46,68.9,45.8,69.2,45.8z"/>
	<path class="st126" d="M71.2,43.9c0-0.1,0-0.3-0.1-0.4c-0.1-0.3,0.1-0.4,0.2-0.5c0.2-0.3,0.4-0.6,0.6-0.9c0.2-0.1,0.3-0.3,0.4-0.5
		c0,0,0.1-0.1,0.1-0.1c0.1-0.2,0.2-0.3,0.3-0.5c0.1-0.1,0.2-0.3,0.3-0.4c0.4-0.5,0.8-1,1.1-1.5c0.1-0.2,0.3-0.5,0.6-0.6
		c0.1,0,0.2,0,0.3,0.2c0,0.2-0.3,0.3-0.1,0.5c-0.2,0-0.3,0.1-0.4,0.4c-0.2,0.1-0.3,0.3-0.4,0.5c-0.2,0.1,0.1,0.3,0,0.5
		c-0.3-0.2-0.3,0.1-0.5,0.2c-0.6,0.8-1.2,1.6-1.8,2.4C71.6,43.5,71.4,43.7,71.2,43.9z"/>
	<path class="st47" d="M19.2,41.2c-0.2,0.1-0.4,0.1-0.5,0.1C18.8,40.7,19.1,41.3,19.2,41.2z"/>
	<path class="st127" d="M16.5,65.6c0-0.1,0-0.2,0-0.3c0.4-0.4,0.9-0.2,1.3-0.5c0.8-0.1,1.6-0.3,2.4-0.6c0.7-0.2,1.4-0.4,2.2-0.7
		c0.1,0,0.2,0,0.3,0.1c0.3,0,0.6,0.1,0.9,0.2c-0.5,0.2-0.9,0.3-1.4,0.5c-0.5,0.5-1.3,0.5-1.9,0.7c-0.7,0.2-1.5,0.4-2.2,0.6
		c-0.3,0.1-0.6,0.1-0.9,0.1c-0.1,0-0.2,0-0.3,0C16.7,65.8,16.5,65.8,16.5,65.6z"/>
	<path class="st127" d="M16.5,65.6c0-0.1,0-0.2,0-0.3c0.4-0.4,0.9-0.2,1.3-0.5c0.8-0.1,1.6-0.3,2.4-0.6c0.7-0.2,1.4-0.4,2.2-0.7
		c0.1,0,0.2,0,0.3,0.1c0.3,0,0.6,0.1,0.9,0.2c-0.5,0.2-0.9,0.3-1.4,0.5c-0.5,0.5-1.3,0.5-1.9,0.7c-0.7,0.2-1.5,0.4-2.2,0.6
		c-0.3,0.1-0.6,0.1-0.9,0.1c-0.1,0-0.2,0-0.3,0C16.7,65.8,16.5,65.8,16.5,65.6z"/>
	<path class="st128" d="M16.5,65.6c0.1,0,0.2,0,0.2,0.1c-0.2,0.1-0.3,0.1-0.5,0c-0.1,0-0.3,0-0.4-0.1C16,65.7,16.2,65.6,16.5,65.6z"
		/>
	<path class="st128" d="M16.5,65.6c0.1,0,0.2,0,0.2,0.1c-0.2,0.1-0.3,0.1-0.5,0c-0.1,0-0.3,0-0.4-0.1C16,65.7,16.2,65.6,16.5,65.6z"
		/>
	<path class="st129" d="M16.2,65.8c0.2,0,0.3,0,0.5,0c0.1,0,0.2,0,0.3,0c0,0,0,0.1-0.1,0.1C16.7,65.8,16.4,65.9,16.2,65.8z"/>
	<path class="st129" d="M16.2,65.8c0.2,0,0.3,0,0.5,0c0.1,0,0.2,0,0.3,0c0,0,0,0.1-0.1,0.1C16.7,65.8,16.4,65.9,16.2,65.8z"/>
	<path class="st130" d="M22.6,63.8c-0.1,0-0.2,0-0.2,0c-0.2,0-0.3,0-0.4-0.2c0.4-0.1,0.8-0.1,1.2-0.2c0.2,0,0.3-0.1,0.5,0
		C23.3,63.6,22.9,63.5,22.6,63.8z"/>
	<path class="st26" d="M25.4,62.9c0.3-0.2,0.6-0.2,0.9-0.2c0.1,0.2-0.2,0.1-0.2,0.3c-0.2,0-0.3,0-0.5,0C25.5,63,25.5,62.9,25.4,62.9
		z"/>
	<path class="st131" d="M24.2,63.1c0.2-0.2,0.5-0.2,0.8-0.2c0.1,0.1,0.1,0.1,0,0.2C24.7,63.1,24.4,63.1,24.2,63.1z"/>
	<path class="st132" d="M23.6,63.4c-0.2,0-0.3,0-0.5,0c0.3-0.1,0.5-0.3,0.8-0.1C23.9,63.4,23.7,63.4,23.6,63.4z"/>
	<path class="st133" d="M25,63.1c0-0.1,0-0.1,0-0.2c0.2,0,0.3,0,0.5-0.1c0,0,0.1,0,0.1,0C25.4,63.1,25.1,63,25,63.1z"/>
	<path class="st134" d="M38.2,59.8c-0.2,0.1-0.4,0.2-0.5,0.2c-0.2,0.3-0.5,0.2-0.8,0.2c-0.2,0-0.4,0.1-0.6,0.2
		c-0.2,0.2-0.5,0.3-0.8,0.3c-0.2,0-0.5-0.1-0.7-0.3c0-0.2,0.1-0.3,0.3-0.3c0.8-0.2,1.6-0.5,2.4-0.6C37.8,59.5,38.1,59.5,38.2,59.8z"
		/>
	<path class="st135" d="M29.7,61.4c0.7-0.3,1.5-0.5,2.3-0.6c0.1,0,0.3-0.1,0.4,0c0.1,0.1,0,0.2-0.1,0.2c-0.3,0.2-0.7,0.1-1,0.4
		c-0.1,0-0.2,0-0.2,0c-0.2,0.1-0.4,0.1-0.5,0.2c-0.1,0-0.2,0-0.3,0C30,61.5,29.8,61.5,29.7,61.4z"/>
	<path class="st136" d="M32.2,61c0.2-0.4-0.3-0.1-0.3-0.2c0.6-0.2,1.2-0.4,1.8-0.5c0.2,0,0.2,0.1,0.2,0.3c-0.3,0.2-0.7,0.1-0.9,0.3
		C32.8,60.9,32.5,61,32.2,61z"/>
	<path class="st137" d="M34,60.5c0-0.1,0-0.2-0.2-0.3c1.4-0.4,2.8-0.8,4.2-1.2c0.1-0.1,0.2-0.1,0.4-0.1c0.4,0.3,0,0.4-0.2,0.5
		c-0.2,0.1-0.4,0.1-0.6,0.2c-0.9,0.2-1.8,0.3-2.6,0.7c-0.1,0.2-0.3,0.1-0.5,0.1C34.3,60.5,34.1,60.5,34,60.5z"/>
	<path class="st138" d="M34.5,60.4c0.2,0,0.3,0,0.5-0.1c0.2,0.1,0.5,0.1,0.7,0.2c-0.1,0.1-0.3,0.1-0.5,0.1
		C34.9,60.6,34.6,60.8,34.5,60.4z"/>
	<path class="st139" d="M29.7,61.4c0.1,0.1,0.5-0.2,0.4,0.2c0,0-0.1,0-0.1,0c-0.1,0-0.2,0-0.3,0c-0.1,0-0.2-0.1-0.2-0.3
		C29.5,61.4,29.6,61.4,29.7,61.4z"/>
	<path class="st140" d="M30.4,61.6c0.2-0.1,0.3-0.2,0.5-0.2c0,0.1,0,0.1,0,0.2C30.8,61.6,30.6,61.6,30.4,61.6z"/>
	<path class="st141" d="M69.3,55.9c1.1-0.4,2.1-0.9,3.2-1.1c0.2-0.1,0.4,0,0.4,0.2c0,0.1-0.1,0.2-0.3,0.3c-0.1,0-0.2,0.1-0.3,0.1
		c-0.4,0.1-0.8,0.4-1.2,0.5c-0.7,0.2-1.4,0.5-2,0.8c-0.1,0-0.2,0.1-0.2,0.1c-0.1,0.1-0.3,0.1-0.4,0.2c0,0-0.1,0.1-0.1,0.1
		c-0.1,0.1-0.2,0.1-0.4,0.2c0,0-0.1,0-0.1,0.1c-0.1,0-0.2,0.1-0.4,0.1c-0.1,0.1-0.3,0.1-0.4,0.1c-0.2-0.1-0.4-0.1-0.6-0.3
		C67.5,56.8,68.5,56.5,69.3,55.9z"/>
	<path class="st142" d="M67.8,47.9c0.2,0.1,0,0.3,0.1,0.4c-0.2,0.4-0.6,0.5-0.7,0.9c-0.5,0.5-1,1-1.5,1.6c0,0.2-0.1,0.3-0.3,0.3
		c-0.2,0.2-0.3,0.3-0.5,0.5c-0.1,0.2-0.3,0.4-0.6,0.5c-0.1,0-0.2-0.1-0.2-0.2c0-0.1,0-0.3,0-0.4c0-0.1,0.2-0.2,0.3-0.3
		c0.1-0.1,0.1-0.1,0.2-0.1c0.4-0.3,0.8-0.6,1-1c0.1-0.1,0.2-0.2,0.4-0.3c0.2-0.1,0.3-0.2,0.4-0.4c0.1-0.2,0.2-0.3,0.3-0.4
		c0.2-0.2,0.3-0.3,0.5-0.5c0.1-0.1,0.2-0.2,0.3-0.3C67.5,48,67.6,47.8,67.8,47.9z"/>
	<path class="st143" d="M66.6,57.1c0.2,0,0.4,0.1,0.6,0.2c-0.1,0.2-0.2,0.2-0.3,0.3c-0.1,0-0.2,0.1-0.2,0.1
		c-0.2,0.1-0.4,0.1-0.5,0.1c-0.4,0.1-0.7,0.1-1.1,0.1c-0.2,0-0.4,0-0.6-0.1c-0.1-0.1-0.3-0.1-0.3-0.3c0-0.1,0-0.2,0.1-0.2
		c0.2,0,0.4,0,0.6,0c0.5,0.1,1.1-0.1,1.6-0.2C66.4,57.2,66.5,57.2,66.6,57.1z"/>
	<path class="st144" d="M67.8,47.9c-0.1,0.1-0.2,0.2-0.4,0.2c-0.1-0.1-0.1-0.2-0.2-0.3c0-0.2,0.1-0.3,0.2-0.4
		c0.1-0.1,0.1-0.1,0.2-0.2c0.2-0.1,0.3-0.4,0.6-0.2c0,0.1,0,0.2,0,0.3C68.1,47.5,67.9,47.7,67.8,47.9z"/>
	<path class="st145" d="M68.2,47.4c0-0.1,0-0.3,0-0.4c-0.1-0.2,0.1-0.4,0.2-0.5c0.1,0,0.1,0,0.2,0c0.1,0,0.2,0.2,0.3,0.3
		c0,0,0,0.1,0,0.1C68.5,47,68.4,47.2,68.2,47.4z"/>
	<path class="st146" d="M53.4,54.9c-0.4,0.1-0.8,0.3-1.2,0.4c-0.3,0-0.3-0.2-0.3-0.4c0.3-0.3,0.7-0.4,1-0.6c0.4-0.1,0.7-0.3,1.1-0.4
		c0.4,0.1,0.8-0.2,1.1-0.3c0.1,0,0.1,0,0.2,0c0.1,0.1,0.3,0.2,0.3,0.3c-0.2,0.4-0.6,0.4-0.9,0.6C54.3,54.7,53.9,54.8,53.4,54.9z"/>
	<path class="st147" d="M44.3,58c-0.3,0.1-0.7,0.2-1,0.2c-0.1,0-0.2,0.1-0.3,0C43,58,43.3,58,43.4,57.8c0.2-0.1,0.3-0.3,0.6-0.3
		c0.2,0,0.4-0.1,0.5-0.2c0.1-0.1,0.2-0.1,0.3-0.1c0.2,0,0.4-0.2,0.7-0.2c0.2,0.1,0.5,0.1,0.6,0.3C45.5,57.6,44.9,57.8,44.3,58z"/>
	<path class="st148" d="M46.1,57.4c-0.2,0-0.5-0.1-0.7-0.3c0.1-0.2,0.3-0.3,0.5-0.4c0.6-0.1,1.1-0.4,1.7-0.4c0.2,0,0.3,0.1,0.4,0.2
		C47.5,57.1,46.8,57.2,46.1,57.4z"/>
	<path class="st149" d="M50.5,55.9c-0.6,0.4-1.3,0.5-2,0.7c-0.1-0.2-0.4-0.1-0.4-0.3c0.7-0.5,1.4-0.7,2.2-0.8
		C50.4,55.6,50.6,55.7,50.5,55.9z"/>
	<path class="st150" d="M50.5,55.9c0-0.2-0.1-0.3-0.3-0.3c0.4-0.6,1.1-0.7,1.8-0.7c0.1,0.1,0.2,0.3,0.3,0.4
		C51.6,55.6,51.1,55.8,50.5,55.9z"/>
	<path class="st151" d="M48.1,56.4c0.2,0,0.4,0,0.4,0.2c-0.1,0-0.2,0-0.3,0c-0.1,0-0.3,0-0.4-0.1C47.7,56.3,47.9,56.3,48.1,56.4z"/>
	<path class="st152" d="M58.5,55.5C58.4,55.6,58.4,55.6,58.5,55.5c-0.6,0.2-1.2,0.3-1.8,0c-0.2,0-0.3-0.2-0.4-0.4l0,0
		c-0.1-0.2-0.2-0.3-0.2-0.5c-0.1-0.2,0.2-0.6-0.3-0.7c-0.1,0-0.2,0-0.2-0.1c-0.2,0-0.3-0.1-0.3-0.3c0,0,0-0.1,0.1-0.1
		c0.3-0.2,0.5-0.2,0.8-0.1c0.1,0,0.2,0.1,0.2,0.2c0.1,0.2,0,0.5,0.1,0.8c0,0.1,0.1,0.1,0.1,0.2c0,0,0.1,0.1,0.1,0.1
		c0.1,0.2,0.3,0.2,0.4,0.3c0.1,0,0.1,0.1,0.1,0.2c0.2,0.1,0.5,0,0.8,0.1C58.2,55.3,58.4,55.4,58.5,55.5z"/>
	<path class="st153" d="M37.6,59.6c0.2-0.1,0.4-0.2,0.5-0.3c0.3,0,0.5-0.3,0.8-0.3c0.2,0.1,0.4,0.2,0.4,0.4
		c-0.1,0.1-0.2,0.1-0.3,0.1c-0.3,0.1-0.5,0.1-0.8,0.2C38,59.7,37.8,59.6,37.6,59.6z"/>
	<path class="st154" d="M42.4,58.5c0,0,0,0.1,0,0.1c-0.6,0.2-1.3,0.3-1.9,0.5c0-0.2-0.3-0.2-0.3-0.3c0.4-0.4,0.9-0.5,1.4-0.5
		c0.2,0.1,0.4-0.1,0.6,0C42.3,58.4,42.3,58.4,42.4,58.5z"/>
	<path class="st155" d="M39.8,59.4c-0.2,0-0.3,0.1-0.5,0.1c-0.1-0.1-0.4-0.1-0.4-0.3c0.2-0.2,0.5-0.3,0.8-0.3
		c0.2,0.1,0.5,0.1,0.7,0.3C40.2,59.2,40.1,59.3,39.8,59.4C39.9,59.4,39.9,59.4,39.8,59.4L39.8,59.4z"/>
	<path class="st156" d="M40.4,59.2c-0.2-0.1-0.6,0.1-0.7-0.2c0.1-0.2,0.3-0.2,0.5-0.1C40.3,58.9,40.6,58.8,40.4,59.2
		C40.5,59.2,40.4,59.2,40.4,59.2L40.4,59.2z"/>
	<path class="st157" d="M42.4,58.5c-0.1,0-0.1-0.1-0.2-0.1c-0.1-0.1-0.1-0.2,0-0.3c0.3-0.2,0.6-0.3,1-0.3c0.1,0,0.2,0,0.3,0.1
		c0.1,0.2-0.5,0.1-0.1,0.4C43,58.4,42.7,58.5,42.4,58.5z"/>
	<path class="st158" d="M69.1,56.6c0.7-0.4,1.4-0.7,2.1-0.9c0.2,0.2,0.5,0,0.6,0.2c-0.5,0.2-0.9,0.4-1.4,0.6
		c-0.3,0.1-0.5,0.2-0.8,0.3c-0.1,0-0.2,0-0.2,0C69.3,56.8,69.1,56.8,69.1,56.6z"/>
	<path class="st159" d="M71.8,55.9c-0.2-0.1-0.5,0.1-0.6-0.2c0.5,0,0.8-0.4,1.2-0.5c0.2,0.1,0.4,0.1,0.5,0.4
		C72.6,55.7,72.2,55.8,71.8,55.9z"/>
	<path class="st160" d="M73,55.5c-0.2-0.1-0.5-0.1-0.5-0.4c0.1,0,0.2,0,0.2,0c0.2-0.1,0.4-0.1,0.6-0.2c0.2,0,0.4,0.1,0.5,0.3
		C73.6,55.4,73.3,55.5,73,55.5z"/>
	<path class="st161" d="M73.9,55.3c-0.2-0.1-0.3-0.2-0.5-0.1c0.1-0.3,0.3-0.3,0.5-0.1c0.2,0,0.4,0.1,0.5,0.1
		C74.2,55.3,74,55.3,73.9,55.3z"/>
	<path class="st162" d="M76,54.9c0.2-0.4,0.6-0.2,0.9-0.2C76.5,54.8,76.2,54.8,76,54.9z"/>
	<path class="st163" d="M79.1,54.7c0.1-0.1,0.3-0.1,0.4-0.1c0,0,0.1,0,0.1,0.1c0,0-0.1,0-0.2,0.1C79.3,54.8,79.2,54.8,79.1,54.7z"/>
	<path class="st164" d="M66.1,58.4c-0.1,0.1-0.2,0.1-0.4,0.1c-0.2,0.2-0.5-0.1-0.8,0.1c-1.2,0.1-1.9-0.4-2.4-1.7
		c-0.1-0.2,0-0.4,0.1-0.6c0,0,0.1-0.1,0.2,0c0.4,0.6,0.6,1.3,1.3,1.7c0.3,0.1,0.6,0.2,0.9,0.2c0.3,0.1,0.6,0.1,0.9,0.2
		C66,58.3,66,58.3,66.1,58.4z"/>
	<path class="st165" d="M68.7,57.2c-0.4,0.2-0.8,0.4-1.2,0.6c-0.1-0.1-0.3-0.1-0.3-0.3c0.1-0.2,0.2-0.2,0.4-0.3
		c0.1-0.1,0.3-0.1,0.4-0.2l0,0c0.2-0.1,0.4-0.1,0.5-0.2C68.7,57,68.8,57,68.7,57.2z"/>
	<path class="st166" d="M67.2,57.6c0.1,0,0.2,0.1,0.3,0.2c0,0-0.1,0-0.1,0c-0.2,0-0.3,0.1-0.4,0.2c-0.1,0-0.2,0.1-0.3,0.1
		c-0.2-0.1-0.3,0.1-0.5,0c-0.1,0-0.1-0.1-0.2-0.2c0-0.1,0-0.1,0-0.2c0.2-0.1,0.4-0.1,0.6-0.2c0,0,0.1-0.1,0.1-0.1
		C67,57.4,67.1,57.5,67.2,57.6z"/>
	<path class="st167" d="M68.7,57.2c0-0.2-0.1-0.2-0.2-0.2c0,0,0-0.1,0-0.1c0,0,0,0,0,0l0,0c0.2-0.1,0.4-0.1,0.5-0.3
		c0,0,0.1,0,0.1-0.1c0.1,0.1,0.4,0.1,0.4,0.3C69.2,57,68.9,57.1,68.7,57.2z"/>
	<path class="st168" d="M62.3,56c0-0.2,0-0.3,0-0.5c0.1-0.1,0-0.3,0.1-0.4c0.1,0,0.1,0,0.2,0c0.1,0.1,0.1,0.3,0.2,0.5
		c0,0.1,0,0.2,0,0.3c-0.2,0.1-0.2,0.3-0.3,0.4C62.4,56.3,62.4,56.2,62.3,56z"/>
	<path class="st169" d="M62.4,56.4c0.1-0.1-0.2-0.5,0.2-0.4c0.1,0.1,0.1,0.1,0,0.2c0,0.2-0.1,0.4-0.1,0.7
		C62.4,56.8,62.4,56.6,62.4,56.4z"/>
	<path class="st170" d="M65,58.7c0.2-0.5,0.5,0,0.8-0.1C65.5,58.7,65.2,58.7,65,58.7z"/>
	<path class="st171" d="M66.2,58.1c0.2,0,0.4,0,0.5,0.1c-0.2,0.1-0.4,0.2-0.6,0.2c0,0-0.1,0-0.1,0C65.9,58.2,66.1,58.2,66.2,58.1z"
		/>
	<path class="st172" d="M66.9,58.1c0.1-0.2,0.1-0.3,0.4-0.2C67.2,58,67.1,58.1,66.9,58.1z"/>
	<path class="st173" d="M81.1,54.1c-0.1,0.1,0,0.4-0.3,0.3c-0.4,0.2-0.7-0.1-1.1-0.1c-0.2-0.1-0.5,0-0.7-0.1c-0.2-0.1-0.3-0.1-0.5,0
		c-0.2,0-0.5,0-0.7,0c-0.3,0-0.5,0-0.8,0c-0.1,0.1-0.3,0.1-0.4,0c-0.1-0.1,0-0.2,0.1-0.2C78.2,53.7,79.7,53.7,81.1,54.1z"/>
	<path class="st174" d="M72.9,55c-0.1-0.2-0.2-0.2-0.4-0.2c0.6-0.3,1.3-0.4,2-0.5c0.2,0,0.4,0,0.5,0.1c0.1,0.3-0.2,0.2-0.3,0.3
		c-0.2,0-0.4,0-0.6,0.2C73.8,54.8,73.4,55.1,72.9,55z"/>
	<path class="st175" d="M79.7,54.2c0.4,0.1,0.7,0.1,1.1,0.2c0,0,0.1,0.1,0.1,0.1c0,0.2-0.1,0.2-0.3,0.2c-0.4-0.1-0.8-0.3-1.2-0.4
		c0,0,0-0.1,0-0.1c0,0,0,0,0,0C79.5,54.2,79.6,54.2,79.7,54.2z"/>
	<path class="st176" d="M80.7,54.8c0.1-0.1,0.2-0.2,0.3-0.2c0.3-0.1,0.5,0.4,0.9,0.3C81.4,55.3,81.1,55,80.7,54.8z"/>
	<path class="st177" d="M72.9,55c0.4-0.1,0.8-0.3,1.2-0.2c-0.1,0.1-0.2,0.2-0.4,0.2c-0.2,0-0.4-0.1-0.5,0.1c-0.2,0-0.4,0-0.6,0
		C72.8,55.1,72.9,55,72.9,55z"/>
	<path class="st178" d="M76.8,53.9c-0.1,0.3,0.1,0.2,0.3,0.3c-0.2,0.2-0.4,0.3-0.6,0.1c0,0,0,0-0.1,0c-0.1-0.1-0.3-0.1-0.4-0.3
		C76.3,53.9,76.5,53.9,76.8,53.9z"/>
	<path class="st161" d="M74.8,54.6c0.1-0.1,0.2-0.2,0.3-0.2c0.2-0.2,0.4-0.2,0.7-0.1c0.1,0,0.1,0.1,0.2,0.1
		C75.6,54.7,75.2,54.7,74.8,54.6z"/>
	<path class="st179" d="M79.4,54.3c0,0,0,0.1,0,0.1c-0.3,0-0.6-0.1-0.9-0.1c0,0-0.1,0,0-0.1c0,0,0,0,0,0c0.2,0,0.3,0,0.5,0
		C79.2,54.2,79.3,54.2,79.4,54.3z"/>
	<path class="st180" d="M78.6,54.2C78.6,54.2,78.6,54.2,78.6,54.2c-0.2,0.1-0.5,0.2-0.7,0C78.1,54.2,78.3,54.2,78.6,54.2z"/>
	<path class="st178" d="M75.9,54.4c0,0-0.1,0-0.1,0c0.1-0.4,0.4-0.2,0.6-0.1c0,0,0,0,0,0C76.3,54.4,76.1,54.4,75.9,54.4z"/>
	<path class="st181" d="M76.4,54.3c-0.2,0-0.4-0.1-0.6,0.1c-0.2,0-0.5,0-0.7,0c-0.2,0-0.4-0.1-0.6-0.2c0.5-0.1,1-0.3,1.5-0.3
		C76.2,54,76.4,54,76.4,54.3z"/>
	<path class="st182" d="M62.2,43.2c0.3,0.1,0.5,0.2,0.7,0.5c-0.2,0.1-0.5,0.2-0.5,0.5c-0.1,0.1-0.2,0.1-0.2,0.1
		c-0.5-0.3-1-0.7-1.4-1c-0.5-0.4-1.1-0.5-1.6-1c0-0.1,0-0.1,0.1-0.2c1,0.1,1.9,0.5,2.8,1C62,43.3,62.1,43.2,62.2,43.2z"/>
	<path class="st183" d="M62.4,44.2c-0.3-0.7,0.2-0.5,0.5-0.5c0,0,0,0,0,0c0.1,0.1,0.2,0.2,0.4,0.3c0,0,0.1,0,0.1,0
		c0.1,0,0.1,0.1,0.1,0.2c-0.2,0.4,0.1,0.1,0.2,0.2c0.3,0.2,0.4,0.5,0.5,0.8c-0.2,0.2-0.3,0.5-0.2,0.8c-0.1,0.1-0.2,0.1-0.3,0.1
		c0,0-0.1-0.1-0.1-0.1c-0.1-0.1-0.2-0.3-0.3-0.4c-0.2-0.3-0.3-0.7-0.7-0.9C62.6,44.5,62.5,44.4,62.4,44.2
		C62.4,44.2,62.4,44.2,62.4,44.2z"/>
	<path class="st184" d="M63.5,44.1c0-0.1,0-0.2,0-0.2c0.2,0,0.3,0,0.5,0c0.5,0.5,0.8,1,1.1,1.6c0,0.2-0.1,0.3-0.3,0.3
		c-0.3-0.1-0.4-0.4-0.5-0.7c-0.2-0.2-0.2-0.6-0.5-0.7C63.6,44.3,63.5,44.2,63.5,44.1z"/>
	<path class="st185" d="M59.2,42.1c0,0,0,0.1,0,0.1c0.1,0.2,0,0.3-0.1,0.4c-0.5-0.1-1-0.2-1.4-0.7c-0.2-0.3,0.2-0.2,0.2-0.3
		C58.4,41.7,58.8,41.9,59.2,42.1z"/>
	<path class="st186" d="M62.2,43.2c0,0.2-0.1,0.2-0.3,0.2c-0.1,0-0.2-0.1-0.1-0.1c0-0.1,0.1-0.1,0.2-0.1
		C62,43.1,62.1,43.2,62.2,43.2z"/>
	<path class="st187" d="M63.3,43.9c-0.2,0-0.4,0-0.4-0.3C63.1,43.7,63.2,43.7,63.3,43.9z"/>
	<path class="st188" d="M27,35.9c0.1-0.1,0.2-0.3,0.4-0.2c0.1,0.1,0,0.3,0,0.4c-0.1,0.3-0.2,0.5-0.3,0.8c-0.1,0.2-0.2,0.5-0.3,0.7
		c-0.3,0-0.3-0.2-0.3-0.4C26.7,36.8,26.8,36.3,27,35.9z"/>
	<path class="st189" d="M26.6,37.2c0.1,0.1,0.2,0.3,0.3,0.4c-0.2,0.5-0.3,0.9-0.5,1.5c-0.1-0.4,0-0.7-0.1-0.9
		C26.2,37.9,26.4,37.6,26.6,37.2z"/>
	<path class="st190" d="M28,37.4c0.1,0.3,0.4,0.3,0.4,0.1c0-0.9,0.5-0.4,0.9-0.4c0,0.1,0.1,0.3-0.1,0.4c-0.2,0-0.1-0.3-0.3-0.3
		c0,0.3-0.6,0.7,0.1,1c0.1,0,0,0.2-0.1,0.2c-0.4,0-0.5,0.3-0.6,0.6c-0.1,0.1-0.3,0.2,0,0.4c0.1,0.1,0.1,0.2,0,0.2
		c-0.3,0-0.7,0-0.9-0.2c-0.3-0.4-0.3-0.1-0.4,0.1c-0.2-0.5,0-1.1,0.4-1.3c0.2-0.1,0.3-0.2,0.3-0.3c0-0.1,0-0.2,0.1-0.3
		c0.1,0,0.1,0.2,0.1,0.2C27.8,37.6,27.9,37.5,28,37.4z"/>
	<path class="st191" d="M26,41.3c-0.5,0.4-0.4,1.2-0.8,1.7c0.1-0.6,0.2-1.1,0.3-1.6c0,0,0,0,0,0c0.1-0.1,0.1-0.3,0.4-0.3
		C25.9,41.2,25.9,41.2,26,41.3z"/>
	<path class="st113" d="M25.8,41.1c-0.1,0.1-0.3,0.2-0.4,0.3c0-0.2,0.1-0.3,0.3-0.4C25.8,41,25.8,41.1,25.8,41.1z"/>
	<path class="st192" d="M26.3,40.9c0.1,0.2,0.2,0,0.3,0c0.1,0.1,0.1,0.2,0,0.2c-0.1,0-0.2,0-0.3,0C26.2,41,26.2,41,26.3,40.9z"/>
	<path class="st193" d="M24.7,40.8c-0.1,0-0.1,0-0.2,0c0-0.2,0.1-0.2,0.2-0.2C24.9,40.6,24.7,40.7,24.7,40.8z"/>
	<path class="st194" d="M27.7,43c0,0.1,0,0.3-0.1,0.3c-0.4,0.4-0.2,1-0.5,1.4c-0.1,0.2-0.1,0.5-0.4,0.4c-0.1-0.2-0.1-0.4-0.1-0.6
		c0.1-0.4,0.2-0.8,0.3-1.1c0.2-0.3,0.1-0.7,0.4-1c0,0,0.1,0,0.1,0c0.1,0,0.2,0,0.3-0.1l0,0c0.1,0,0.2,0.1,0.2,0.2
		C27.8,42.6,27.8,42.8,27.7,43z"/>
	<path class="st195" d="M27.7,42.4c0,0-0.1-0.1-0.1-0.1c0.3-0.3,0.1-0.6,0.1-0.9l0,0c0.4,0.1,0.4-0.3,0.5-0.5
		c0.1,0.1,0.1,0.2,0.2,0.3c-0.1,0.4-0.3,0.8-0.5,1.2C27.8,42.2,27.8,42.5,27.7,42.4z"/>
	<path class="st196" d="M27.2,41.1c0,0.4,0,0.8-0.1,1.3c0,0-0.1,0-0.1,0c-0.1,0-0.1-0.1-0.1-0.1c-0.1-0.2-0.1-0.4,0-0.7
		C26.9,41.5,26.9,41.2,27.2,41.1z"/>
	<path class="st197" d="M27.2,42.4c0,0.4,0.1,0.7-0.3,1c0,0,0,0-0.1-0.1c-0.1-0.4-0.1-0.7,0.2-0.9c0,0,0,0,0,0
		C27.1,42.4,27.2,42.4,27.2,42.4z"/>
	<path class="st198" d="M27.2,41.1c-0.2,0.1-0.1,0.4-0.2,0.5c-0.1,0-0.2-0.1-0.2-0.2c-0.1-0.2,0-0.4,0.2-0.6c0,0,0.1,0,0.1,0
		C27.2,40.9,27.2,41,27.2,41.1z"/>
	<path class="st195" d="M27.7,41.4c-0.5,0-0.2-0.3-0.2-0.5C27.8,41.1,27.7,41.2,27.7,41.4C27.7,41.4,27.7,41.4,27.7,41.4z"/>
	<path class="st195" d="M27.6,42.3c0,0.1,0,0.3-0.1,0.3c-0.1,0,0-0.2-0.2-0.2C27.3,42.2,27.4,42.2,27.6,42.3z"/>
	<path class="st60" d="M31.6,40c0,0-0.1,0-0.1,0c-0.3,0.1-0.6,0.1-0.9,0c0.3-0.2,0.6-0.1,0.9-0.1C31.5,39.9,31.5,40,31.6,40z"/>
	<path class="st199" d="M28.2,35.6c0.3,0.1,0.6,0.2,0.9,0.3c-0.1,0.2,0.4,0.7-0.2,0.7c-0.2,0-0.7,0.3-0.5-0.4
		C28.4,36.2,28.4,35.8,28.2,35.6z"/>
	<path class="st15" d="M82.3,22.1c0.1,0,0.1,0.1,0.1,0.2c0,0-0.1,0.1-0.1,0c-0.1,0-0.2,0-0.4,0C81.9,22.1,82.3,22.4,82.3,22.1z"/>
	<path class="st200" d="M64.7,45.8c0.1-0.1,0.2-0.2,0.3-0.3c0.4-0.2,0.3-0.7,0.5-1c0.2,0,0.2-0.3,0.4-0.2c0.1,0.1,0,0.3,0,0.4
		c-0.1,0.4-0.3,0.7-0.3,1.1c-0.2,0.3-0.5,0.3-0.9,0.2C64.7,45.9,64.7,45.8,64.7,45.8z"/>
	<path class="st201" d="M66,43.4c0.1,0.1,0.2,0.2,0.3,0.3c0.1,0.1,0,0.2-0.1,0.3c-0.1,0.1-0.3,0.2-0.5,0.1c0-0.1,0-0.2,0-0.2
		C65.8,43.7,65.9,43.6,66,43.4z"/>
	<path class="st202" d="M65.7,44.1c0.1-0.1,0.3-0.2,0.4-0.2c0,0.1,0,0.2,0,0.2c0,0.1-0.1,0.1-0.2,0.1c-0.1,0.1-0.3,0.1-0.4,0.2
		C65.6,44.4,65.6,44.3,65.7,44.1z"/>
	<path class="st203" d="M66.3,43.5c0.1,0,0.1,0.1,0.2,0.1c0.1,0.1,0.1,0.1,0.1,0.2c0,0.1-0.1,0.3-0.1,0.4c0,0-0.1,0.1-0.1,0.1
		c-0.1-0.1-0.3,0.1-0.3-0.2c0-0.1,0-0.2,0-0.2c0-0.1,0.1-0.2,0.1-0.2C66.3,43.6,66.3,43.6,66.3,43.5z"/>
	<path class="st204" d="M82.5,23.7c0-0.2,0-0.3,0-0.5c0-0.4-0.1-0.6-0.5-0.5c0-0.2,0.3-0.2,0.4-0.4c0,0,0.1,0,0.1,0
		c0.1,0,0.2,0.1,0.2,0.1c0,0,0.1,0.1,0.1,0.1c0,0.2,0,0.3,0,0.5c-0.1,0.2-0.1,0.4-0.2,0.6C82.6,23.8,82.5,23.8,82.5,23.7z"/>
	<path class="st205" d="M82,25.7c0.1-0.1,0.2-0.3,0.2-0.4c0.2-0.1,0.1-0.4,0.3-0.5c0.1,0,0.1,0,0.1,0.1c0,0.2,0.1,0.3,0.3,0.3
		c-0.1,0.2-0.2,0.5-0.3,0.7c-0.5,0.9-1,1.8-1.5,2.8c-0.1,0.2-0.2,0.3-0.3,0.5c-0.3,0.2-0.3,0.2-0.4,0c0.3-0.7,0.6-1.4,0.9-2.1
		C81.5,26.5,81.6,26.1,82,25.7z"/>
	<path class="st84" d="M82.9,25.1c-0.2,0-0.2,0.2-0.3,0.3c0-0.2,0-0.4,0-0.6c-0.2,0.2-0.1,0.5-0.3,0.6c0,0,0,0,0,0c0,0,0-0.1,0-0.1
		c0-0.1,0-0.2,0-0.3c0.2-0.4,0.2-0.8,0.3-1.2c0,0,0,0,0.1,0c0.4,0.2,0.6,0.4,0.4,0.7c0,0,0-0.2,0.3-0.1c0,0,0,0,0,0
		C83.2,24.7,83.1,24.9,82.9,25.1z"/>
	<path class="st206" d="M83.2,24.4c-0.3,0-0.2,0.3-0.4,0.5c0-0.5,0.1-0.9-0.3-1.2c0.1-0.2,0-0.4,0.1-0.6c0.2-0.2,0.2-0.3,0-0.5
		c0,0,0-0.1,0-0.1c0.1-0.1,0.2-0.3,0.3-0.4c0,0.3,0.6,0.3,0.5,0.7C83.4,23.4,83.1,23.9,83.2,24.4z"/>
	<path class="st207" d="M76.4,35.9c0.6-0.9,1.2-1.8,1.7-2.7c0.2,0.2,0.1,0.4,0,0.6c0,0.1-0.1,0.2-0.1,0.4c0,0.1-0.1,0.2-0.1,0.3
		c-0.3,0.3-0.5,0.6-0.6,1c-0.6,0.6-0.9,1.3-1.4,2c-0.4,0.4-0.7,0.9-1,1.4c-0.1,0-0.2-0.1-0.3-0.1c-0.1-0.2,0-0.3,0-0.4
		C75.3,37.4,75.7,36.6,76.4,35.9z"/>
	<path class="st208" d="M78.2,33.8c0-0.2,0-0.4,0-0.6c0.5-0.8,0.9-1.6,1.4-2.3c0.3,0.1,0.2,0.2,0.1,0.4C79.2,32.1,78.8,33,78.2,33.8
		z"/>
	<path class="st209" d="M79.7,31.3c0-0.1,0-0.3-0.1-0.4c0.2-0.4,0.3-0.7,0.6-1.1c0.2,0.2,0.1,0.4,0,0.6c0,0,0,0.1,0,0.1
		C80,30.8,80,31.1,79.7,31.3z"/>
	<path class="st210" d="M80.2,30.4c0-0.2,0-0.4,0-0.6c0.1-0.3,0.2-0.5,0.4-0.7c0.1,0.2,0.3,0,0.4,0C80.7,29.6,80.5,30,80.2,30.4z"/>
	<path class="st211" d="M22.3,54.1c0.2-0.6,0.3-1.2,0.5-1.8c0.2,0.1,0.2,0.2,0.3,0.4c0,0.3,0.1,0.5-0.1,0.7c-0.3,0.1,0,0.4-0.1,0.6
		c-0.1,0.5-0.2,1.1-0.4,1.6c-0.1,0.1-0.2,0.3-0.5,0.3c-0.1-0.1-0.1-0.2,0-0.3C22.1,55.1,22.2,54.6,22.3,54.1z"/>
	<path class="st212" d="M21.6,56.8c0,0.4-0.2,0.7-0.3,1.1c0,0-0.1,0-0.1,0c0.1-0.4,0-0.9,0.4-1.3C21.6,56.7,21.6,56.7,21.6,56.8
		C21.6,56.8,21.6,56.8,21.6,56.8z"/>
	<path class="st211" d="M21.6,56.8c0,0,0-0.1,0-0.1c0-0.1,0-0.1,0-0.2c0.1-0.1,0.2-0.1,0.3-0.1c0.2,0.1,0.2,0.3,0.2,0.5
		c0,0.2,0,0.4-0.3,0.5C21.8,57.1,21.8,56.9,21.6,56.8z"/>
	<path class="st213" d="M21.2,57.9c0,0,0.1,0,0.1,0c0,0.4-0.1,0.8-0.4,1.1c-0.1-0.1,0-0.3,0-0.5c0.1-0.1,0.1-0.4,0.2-0.5
		C21.1,58,21.2,57.9,21.2,57.9z"/>
	<path class="st214" d="M21,58.5c0,0.2,0,0.3,0,0.5c0,0,0,0,0,0c-0.1,0.1,0.1,0.4-0.3,0.4c0,0,0-0.1,0-0.1c0,0,0-0.1,0-0.1
		c0-0.1,0-0.2,0-0.4C20.8,58.8,20.8,58.6,21,58.5C20.9,58.5,20.9,58.5,21,58.5z"/>
	<path class="st215" d="M21.8,56.4c-0.1,0-0.1,0-0.2,0c0-0.2,0.1-0.4,0.1-0.6c0.1,0,0.2,0.1,0.2,0.2C22,56.1,22,56.3,21.8,56.4z"/>
	<path class="st216" d="M21.9,55.9c0,0-0.1-0.1-0.1-0.1c0-0.1,0-0.2,0-0.3c0.1,0,0.1,0.1,0.2,0.1C21.9,55.7,21.9,55.8,21.9,55.9
		L21.9,55.9L21.9,55.9z"/>
	<path class="st217" d="M21,58.5C20.9,58.5,20.9,58.5,21,58.5c0-0.2-0.1-0.4,0.1-0.5C21.1,58.2,21.1,58.4,21,58.5z"/>
	<path class="st218" d="M23,52.8c0-0.1-0.1-0.3-0.1-0.4c0-0.2,0.1-0.5,0.1-0.7c-0.1-0.6,0.3-1.1,0.4-1.7c0-0.2,0.1-0.3,0.2-0.5
		c0.1-0.2,0.2-0.4,0.2-0.6c0-0.1,0-0.1,0-0.2c0.1-0.3,0.2-0.6,0.3-0.8c0.1,0,0.1,0,0.2,0c0.1,0.1,0.2,0.3,0.2,0.4
		c-0.1,0.9-0.4,1.6-0.6,2.5c-0.2,0.5-0.3,1-0.4,1.5C23.3,52.5,23.3,52.8,23,52.8z"/>
	<path class="st219" d="M23.5,49.9c-0.1,0.6-0.3,1.2-0.5,1.8c-0.2-0.1-0.1-0.3-0.1-0.4c0.1-0.5,0.2-0.9,0.4-1.4c0,0,0,0,0.1,0
		c0,0,0.1,0,0.1,0C23.4,49.8,23.4,49.9,23.5,49.9z"/>
	<path class="st220" d="M23.2,49.9c-0.2,0-0.2-0.1-0.2-0.3c0-0.2,0-0.3,0.1-0.5c0,0.1,0.1,0.2,0.1,0.3
		C23.3,49.6,23.3,49.7,23.2,49.9L23.2,49.9z"/>
	<path class="st221" d="M24.1,47.9c-0.1,0.3-0.2,0.6-0.3,0.9c-0.3,0-0.2-0.2-0.2-0.3c0-0.1,0-0.2,0.1-0.3c0,0,0.1-0.1,0.1-0.1
		c0-0.1,0.1-0.2,0.1-0.2C24.1,47.7,24.1,47.8,24.1,47.9z"/>
	<path class="st222" d="M23.8,48.9c0,0.2-0.1,0.3-0.2,0.5c0,0-0.1,0.1-0.1,0.1c-0.1,0-0.1,0-0.1-0.1c0-0.2-0.1-0.4,0.1-0.5
		c0.1,0,0.1-0.1,0.2-0.1C23.7,48.8,23.8,48.8,23.8,48.9z"/>
	<path class="st223" d="M23.6,48.9c-0.1,0.1-0.1,0-0.1,0c0-0.3-0.1-0.6,0.3-0.7c0,0.1,0.1,0.2,0.1,0.3
		C23.5,48.5,23.7,48.8,23.6,48.9z"/>
	<path class="st224" d="M23.3,49.4c0,0,0.1,0,0.1,0c0.2,0.2,0,0.3-0.1,0.5c0,0-0.1,0-0.1,0c0-0.2,0-0.3,0-0.5
		C23.3,49.4,23.3,49.4,23.3,49.4z"/>
	<path class="st225" d="M20.7,59.3c0,0,0,0.1,0,0.1c0.1,0.2,0.1,0.3,0,0.5c0,0-0.1-0.1-0.1-0.1C20.6,59.6,20.5,59.4,20.7,59.3z"/>
	<path class="st226" d="M21,60.5c0-0.2-0.2-0.4,0.2-0.5C21.1,60.1,21.1,60.3,21,60.5z"/>
	<path class="st227" d="M17.3,63.5c0.1,0.1,0,0.3,0.2,0.4c0,0.2,0.2,0.3,0.4,0.4c0,0,0.1,0.1,0.1,0.2c-0.3,0.7-0.7,0.8-1.3,0.4
		c-0.2-0.2-0.7-0.1-0.5-0.6c0.2-0.5,0.5-0.6,1-0.6C17.2,63.5,17.2,63.5,17.3,63.5z"/>
	<path class="st227" d="M17.3,63.5c0.1,0.1,0,0.3,0.2,0.4c0,0.2,0.2,0.3,0.4,0.4c0,0,0.1,0.1,0.1,0.2c-0.3,0.7-0.7,0.8-1.3,0.4
		c-0.2-0.2-0.7-0.1-0.5-0.6c0.2-0.5,0.5-0.6,1-0.6C17.2,63.5,17.2,63.5,17.3,63.5z"/>
	<path class="st228" d="M22,63.6c0.1,0.1,0.3,0.1,0.4,0.2c-0.7,0.4-1.4,0.5-2.1,0.7c-0.3-0.2-0.1-0.4,0-0.5c0,0,0-0.1,0-0.1
		c0.2-0.2,0.4,0.1,0.6-0.1C21.2,63.6,21.6,63.7,22,63.6z"/>
	<path class="st229" d="M20.2,64c-0.1,0.2-0.1,0.4,0,0.5c-0.8,0.2-1.5,0.6-2.4,0.5c-0.1-0.2,0-0.3,0.2-0.4c0.5-0.1,1.1-0.3,1.5-0.5
		C19.8,64,20,64,20.2,64z"/>
	<path class="st229" d="M20.2,64c-0.1,0.2-0.1,0.4,0,0.5c-0.8,0.2-1.5,0.6-2.4,0.5c-0.1-0.2,0-0.3,0.2-0.4c0.5-0.1,1.1-0.3,1.5-0.5
		C19.8,64,20,64,20.2,64z"/>
	<path class="st230" d="M19.6,64c0,0.1,0.1,0.3,0,0.3c-0.5,0-0.9,0.2-1.3,0.4c0,0-0.1-0.1-0.2-0.1c-0.1-0.1,0-0.2,0.1-0.3
		c0.1,0,0.1-0.1,0-0.1C18.6,64.2,19.1,63.9,19.6,64z"/>
	<path class="st230" d="M19.6,64c0,0.1,0.1,0.3,0,0.3c-0.5,0-0.9,0.2-1.3,0.4c0,0-0.1-0.1-0.2-0.1c-0.1-0.1,0-0.2,0.1-0.3
		c0.1,0,0.1-0.1,0-0.1C18.6,64.2,19.1,63.9,19.6,64z"/>
	<path class="st231" d="M20.8,63.8c-0.1,0.3-0.4,0.1-0.6,0.1C20.4,63.7,20.6,63.8,20.8,63.8z"/>
	<path class="st232" d="M18.2,64.2c0.1,0,0.1,0.1,0.2,0.1c0,0-0.1,0-0.1,0.1c-0.1,0.1-0.2,0.1-0.4,0c0,0,0-0.1,0-0.1
		C17.9,64.3,18.1,64.3,18.2,64.2z"/>
	<path class="st213" d="M20.7,59.9c0-0.2,0-0.3,0-0.5c0.1-0.1,0.2-0.2,0.3-0.4c0,0.3-0.1,0.6-0.2,0.9C20.8,59.9,20.8,59.9,20.7,59.9
		C20.7,59.9,20.7,59.9,20.7,59.9z"/>
	<path class="st233" d="M17.8,64.4c0.1,0,0.2,0,0.4,0c0,0.1-0.1,0.2-0.1,0.2c-0.2,0.1-0.2,0.2-0.3,0.4c-0.4,0.4-0.9,0.2-1.4,0.4
		c-0.2,0-0.4,0-0.5-0.2c-0.1-0.3-0.6-0.3-0.4-0.7c0.2,0,0.2,0,0.1-0.4c0.1-0.3,0.3-0.5,0.5-0.7c0.2-0.1,0.5-0.2,0.4-0.6
		c0,0,0.1-0.1,0.2,0c0,0,0.1,0,0.1,0c0.2,0.2,0.4,0.4,0.4,0.7c-0.2,0.2-0.5,0.2-0.8,0.3c-0.3,0.1-0.2,0.4-0.3,0.5
		c0,0.1,0.1,0.3,0.4,0.2c0.2-0.1,0.1,0.3,0.4,0.4C17.4,64.9,17.6,64.7,17.8,64.4z"/>
	<path class="st233" d="M17.8,64.4c0.1,0,0.2,0,0.4,0c0,0.1-0.1,0.2-0.1,0.2c-0.2,0.1-0.2,0.2-0.3,0.4c-0.4,0.4-0.9,0.2-1.4,0.4
		c-0.2,0-0.4,0-0.5-0.2c-0.1-0.3-0.6-0.3-0.4-0.7c0.2,0,0.2,0,0.1-0.4c0.1-0.3,0.3-0.5,0.5-0.7c0.2-0.1,0.5-0.2,0.4-0.6
		c0,0,0.1-0.1,0.2,0c0,0,0.1,0,0.1,0c0.2,0.2,0.4,0.4,0.4,0.7c-0.2,0.2-0.5,0.2-0.8,0.3c-0.3,0.1-0.2,0.4-0.3,0.5
		c0,0.1,0.1,0.3,0.4,0.2c0.2-0.1,0.1,0.3,0.4,0.4C17.4,64.9,17.6,64.7,17.8,64.4z"/>
	<path class="st234" d="M16.8,62.8c0,0.1,0.1,0.3,0.1,0.4c-0.6,0-0.9,0.4-1.3,0.8c0-0.2-0.1-0.4-0.1-0.5c0-0.1-0.1-0.2-0.1-0.2
		c0.2-0.1,0.4-0.4,0.5-0.6C16.2,62.7,16.5,62.6,16.8,62.8z"/>
	<path class="st235" d="M15.6,64.4c0,0.3,0.4,0.4,0.4,0.7c-0.4-0.1-0.5-0.4-0.6-0.7C15.4,64.4,15.5,64.4,15.6,64.4z"/>
	<path class="st235" d="M15.6,64.4c0,0.3,0.4,0.4,0.4,0.7c-0.4-0.1-0.5-0.4-0.6-0.7C15.4,64.4,15.5,64.4,15.6,64.4z"/>
	<path class="st236" d="M25.4,43.5c0,0,0,0.1,0,0.1c0,0.1,0,0.3,0,0.4c0,0.1-0.1,0.1-0.2,0.2c-0.2,0.2-0.1,0.4-0.2,0.6
		c0,0.1,0,0.1-0.1,0.2c-0.2,0.3-0.2,0.7-0.5,0.9c0,0-0.1,0-0.1,0c0-0.1,0-0.2,0-0.3c0-0.6,0.3-1.1,0.4-1.7c0.1-0.2,0.1-0.5,0.3-0.7
		C25.3,43.4,25.4,43.4,25.4,43.5z"/>
	<path class="st237" d="M25,43.9c-0.2,0.6-0.3,1.2-0.5,1.7c-0.3-0.3,0.2-0.6-0.1-0.9c0.3-0.2,0.4-0.5,0.3-0.9c0,0,0.1,0,0.1,0
		C24.9,43.8,24.9,43.8,25,43.9z"/>
	<path class="st238" d="M25,43.9c0,0-0.1,0-0.1,0c0.1-0.2,0-0.6,0.4-0.6C25.1,43.5,25,43.7,25,43.9z"/>
	<path class="st239" d="M24.6,46.3c0-0.1,0-0.2,0-0.2c0,0,0,0,0,0c0.2-0.3,0.1-0.7,0.5-0.8c0.1,0,0.1,0,0.2,0.1
		c0.1,0.1,0.1,0.2,0.1,0.3c-0.2,0.4-0.1,0.8-0.4,1.1c-0.1,0-0.1,0-0.2,0C24.9,46.4,24.5,46.4,24.6,46.3z"/>
	<path class="st240" d="M23.9,47.3c0-0.2,0.1-0.3,0.1-0.5c0.1-0.1,0.2,0,0.2,0c0.1,0.2,0,0.4,0,0.6c-0.1,0.2-0.2,0.3-0.3,0.3
		C23.9,47.6,23.9,47.4,23.9,47.3z"/>
	<path class="st241" d="M24.2,47.4c0-0.2,0.1-0.4,0.1-0.6c0,0,0.1-0.1,0.1-0.1c0.1,0,0.1,0.1,0.1,0.1C24.6,47.1,24.6,47.3,24.2,47.4
		C24.2,47.4,24.2,47.4,24.2,47.4z"/>
	<path class="st242" d="M24.5,46.8c0-0.1,0-0.1,0-0.2c0-0.1,0-0.3,0.1-0.4c0,0.1,0.3,0,0.2,0.3c-0.1,0.1-0.1,0.2-0.2,0.3
		C24.6,46.8,24.5,46.8,24.5,46.8z"/>
	<path class="st243" d="M23.9,47.7c0.1-0.1,0.2-0.2,0.3-0.3c0,0,0,0,0,0c0.1,0.2,0.1,0.3,0,0.5c0,0-0.1,0-0.1,0
		C24,47.9,24,47.8,23.9,47.7C23.9,47.8,23.9,47.7,23.9,47.7z"/>
	<path class="st244" d="M25.1,45.2c-0.3,0.2-0.2,0.6-0.5,0.8c0,0,0-0.1,0-0.1c0.1-0.4,0.1-0.7,0.4-1C25.1,45,25.2,45.1,25.1,45.2z"
		/>
	<path class="st245" d="M68.6,46.5c0.1-0.1,0.2-0.2,0.2-0.3c0,0.2,0.2,0,0.3,0.2c-0.1,0.1-0.2,0.2-0.3,0.3
		C68.7,46.7,68.6,46.6,68.6,46.5z"/>
	<path class="st246" d="M39.3,58.6c1.2-0.3,2.4-0.7,3.6-1c0.1,0,0.3-0.1,0.4-0.1c0.1,0,0.2,0,0.2,0.1c0,0.2-0.1,0.2-0.3,0.3
		c-0.3,0.1-0.7,0.2-1,0.3c-0.1,0.2-0.3,0.2-0.5,0.2c-0.5,0.1-1,0.2-1.5,0.5c-0.2,0-0.3,0-0.5,0.1c-0.3,0.1-0.5,0.2-0.8,0.2
		c-0.3,0.1-0.6,0.2-0.9,0.2c0-0.2,0.4-0.1,0.2-0.4c0,0,0-0.1,0.1-0.1C38.6,58.7,39,58.7,39.3,58.6z"/>
	<path class="st247" d="M63.7,54c0,0.7,0,1.3,0.1,2c-0.1,0.1-0.3,0-0.4,0c-0.4-0.3-0.2-0.7-0.1-1c0-0.1,0.1-0.1,0.1-0.2
		C63.5,54.6,63.2,54.2,63.7,54z"/>
	<path class="st248" d="M64.2,57.4c0,0-0.1,0.1-0.1,0.1c-0.5-0.1-0.8-0.5-0.7-1.2c0.2-0.2,0.3,0,0.4,0.1c0.2,0.3,0.2,0.7,0.6,0.8
		C64.3,57.3,64.3,57.3,64.2,57.4z"/>
	<path class="st249" d="M63.7,54c-0.2,0.3,0.1,0.7-0.2,1c-0.3-0.5-0.1-1-0.2-1.6c0-0.3-0.1-0.6,0.3-0.8c0.3,0.1,0.3,0.3,0.2,0.6
		c0,0.2,0,0.5,0,0.7C63.7,53.9,63.7,54,63.7,54z"/>
	<path class="st250" d="M63.8,56.4c-0.1,0-0.2-0.1-0.4-0.1c0,0,0,0-0.1-0.1c0-0.1,0-0.1,0-0.2c0.1-0.1,0.2,0,0.3,0
		C63.9,56.1,63.8,56.3,63.8,56.4z"/>
	<path class="st251" d="M64.2,57.4c0.1,0,0.1-0.1,0.2-0.1c0.1,0,0.2,0.1,0.3,0.1C64.5,57.4,64.4,57.5,64.2,57.4z"/>
	<path class="st252" d="M67.2,57.6c-0.1,0-0.3-0.1-0.4-0.1c0.1-0.2,0.3-0.1,0.4-0.2c0.1,0,0.3-0.1,0.4-0.1c0,0,0,0.1,0,0.1
		c0,0,0,0,0,0C67.4,57.5,67.3,57.6,67.2,57.6z"/>
	<path class="st253" d="M68.4,56.9c0,0,0,0.1,0,0.1c-0.1,0.2-0.3,0.1-0.5,0.1C68.1,57,68.2,56.9,68.4,56.9z"/>
	<path class="st253" d="M68.9,56.6c0,0.3-0.3,0.2-0.5,0.3C68.6,56.7,68.8,56.7,68.9,56.6z"/>
	<path class="st253" d="M67.6,57.4c0,0,0-0.1,0-0.1c0.1-0.1,0.2-0.1,0.4-0.1C67.9,57.4,67.8,57.4,67.6,57.4z"/>
	<path class="st254" d="M64.4,51.1c-0.1,0.1-0.1,0.2-0.2,0.3c-0.2,0.3-0.4,0.5-0.7,0.7c-0.2,0-0.5,0.2-0.7-0.1c0-0.1,0-0.2,0.1-0.3
		c0.4-0.2,0.5-0.6,0.6-1c0,0,0.1-0.1,0.2-0.1c0.2,0,0.3,0,0.4,0.2C64.1,51.1,64.4,51,64.4,51.1z"/>
	<path class="st255" d="M65.7,49.9c-0.2,0.6-0.6,0.9-1.1,1.1c-0.3,0,0-0.2-0.2-0.3c0.2-0.4,0.6-0.6,1-0.9
		C65.5,49.9,65.6,49.8,65.7,49.9z"/>
	<path class="st256" d="M65.7,49.9c-0.1,0-0.2,0.1-0.3,0c0.1-0.6,0.6-0.7,0.9-1.2c0.1-0.1,0.1-0.1,0.2-0.1c0.1,0.1,0.1,0.2,0.1,0.3
		c-0.1,0.1-0.2,0.2-0.3,0.4c-0.1,0.2-0.2,0.3-0.4,0.4C66,49.7,65.8,49.8,65.7,49.9z"/>
	<path class="st257" d="M63.7,53.2c0-0.2-0.1-0.4-0.1-0.6c-0.1-0.1-0.1-0.2-0.1-0.3c0.2-0.3,0.3-0.6,0.7-0.6c0,0.1,0,0.2,0.1,0.3
		C64,52.3,63.8,52.7,63.7,53.2z"/>
	<path class="st258" d="M64.2,51.6c-0.3,0.1-0.4,0.4-0.6,0.6c0,0-0.1,0-0.1,0c-0.1-0.1,0-0.2,0.1-0.3c0.2-0.3,0.4-0.5,0.7-0.6
		C64.2,51.5,64.2,51.6,64.2,51.6z"/>
	<path class="st259" d="M66.7,48.9c-0.1,0-0.1-0.1-0.1-0.2c0-0.2,0.1-0.3,0.3-0.4c0.1,0,0.1,0,0.2,0c0.1,0,0.1,0.1,0.2,0.2
		C67.1,48.6,66.9,48.8,66.7,48.9z"/>
	<path class="st260" d="M67.2,48.4c0-0.1-0.1-0.1-0.1-0.2c0-0.2,0.1-0.3,0.3-0.3c0,0.1,0.1,0.2,0.1,0.2
		C67.4,48.3,67.3,48.4,67.2,48.4z"/>
	<path class="st261" d="M64.4,50.8c0,0.1,0.1,0.2,0.1,0.3c0,0-0.1,0.1-0.1,0.1c-0.1,0-0.4,0.1-0.2-0.2c0-0.1,0-0.1,0.1-0.2
		C64.4,50.7,64.4,50.7,64.4,50.8z"/>
	<path class="st262" d="M66.1,49.6c0.1-0.2,0.2-0.3,0.4-0.4C66.5,49.6,66.3,49.6,66.1,49.6z"/>
	<path class="st263" d="M63.5,56.3c0,0.5,0.2,1,0.6,1.3c0.1,0.1,0.2,0.2,0.3,0.2c0,0.1,0,0.3-0.2,0.3c-0.8-0.3-1.1-0.9-1.3-1.7
		c0.1-0.1,0.2-0.2,0.3-0.2C63.2,56.1,63.3,56.2,63.5,56.3L63.5,56.3z"/>
	<path class="st264" d="M66.1,57.9C66.1,58,66.1,58,66.1,57.9c-0.4,0.5-0.8,0.3-1.2,0.2c-0.1-0.1-0.1-0.2,0-0.3
		c0.4-0.1,0.8,0,1.1-0.2C66.2,57.8,66.1,57.8,66.1,57.9z"/>
	<path class="st265" d="M65,57.9c0,0.1,0,0.2,0,0.3c0,0.1,0,0.1,0,0.1c-0.3,0-0.6,0-0.8-0.2c0.1-0.1,0.2-0.2,0.2-0.3
		C64.5,57.8,64.8,57.7,65,57.9z"/>
	<path class="st266" d="M66.1,57.9c0-0.1,0-0.2,0-0.3c0.2,0,0.4,0,0.6,0C66.6,57.9,66.3,57.9,66.1,57.9z"/>
	<path class="st267" d="M46.1,56.6c1.5-0.5,3-1.1,4.5-1.6c0.8-0.3,1.6-0.6,2.4-0.9c0.1,0.1,0.1,0.2,0,0.3c-0.3,0.3-0.7,0.3-1,0.5
		c-0.6,0.3-1.2,0.4-1.8,0.7c-0.7,0.2-1.4,0.4-2.1,0.7c-0.1,0-0.3,0-0.4,0.1c-0.6,0.1-1.1,0.4-1.7,0.4C45.9,56.8,46,56.7,46.1,56.6z"
		/>
	<path class="st268" d="M53,54.4c0-0.1,0-0.2,0-0.3c0.2-0.1,0.5-0.3,0.7-0.4c0.2-0.3,0.6-0.2,0.9-0.4l0,0c0.5-0.4,1-0.6,1.6-0.8
		c0.3,0,0.6-0.2,0.9,0.1c-0.1,0.4-0.5,0.5-0.7,0.7c-0.1,0-0.2,0-0.3,0c-0.3,0-0.6,0.1-0.8,0.3c0,0,0,0,0,0c0,0-0.1,0-0.1,0
		c-0.4,0.1-0.7,0.4-1.1,0.4C53.7,54.1,53.4,54.4,53,54.4z"/>
	<path class="st269" d="M54.1,54.1c0.4-0.1,0.7-0.4,1.1-0.4C54.9,53.9,54.5,54.2,54.1,54.1z"/>
	<path class="st270" d="M43.2,57.9c0-0.1,0.3-0.2,0.1-0.4c0.5-0.2,1.1-0.4,1.6-0.5c0.4,0.3,0.1,0.3-0.1,0.4c-0.1,0-0.2,0-0.4,0
		c-0.1,0.2-0.3,0.1-0.5,0.2c-0.2,0.1-0.3,0.2-0.5,0.3C43.4,57.9,43.3,57.9,43.2,57.9z"/>
	<path class="st271" d="M44.8,57.4c0.1-0.1,0.3-0.2,0.1-0.4c0.4-0.2,0.7-0.3,1.1-0.3c0,0.1-0.1,0.2-0.1,0.3
		c-0.1,0.2-0.3,0.2-0.5,0.3C45.3,57.3,45.1,57.5,44.8,57.4z"/>
	<path class="st272" d="M44,57.6c0.2-0.1,0.3-0.2,0.5-0.2C44.4,57.7,44.2,57.6,44,57.6z"/>
	<path class="st273" d="M58.5,55.5c-0.2,0-0.3-0.1-0.5-0.1c0,0,0-0.1,0-0.1c0,0,0-0.1,0-0.1c0.2-0.2,0.4-0.3,0.6-0.3
		c0.2,0,0.4-0.1,0.7-0.2c0.1,0,0.1,0,0.2,0c0.2,0,0.5,0,0.7,0.2C59.6,55.2,59,55.4,58.5,55.5z"/>
	<path class="st274" d="M61.8,53.9c-0.2,0.1-0.3,0.2-0.5,0.4c-0.3,0.1-0.6,0.3-0.9,0.4c-0.1-0.1-0.2-0.2-0.3-0.3
		c0-0.1,0-0.2,0.1-0.2c0.2-0.2,0.6-0.2,0.7-0.5c0.1-0.1,0.3-0.1,0.4-0.1C61.5,53.7,61.7,53.7,61.8,53.9z"/>
	<path class="st275" d="M60.2,54.4c0.2,0,0.3,0.1,0.3,0.3c-0.1,0.1-0.2,0.1-0.4,0.2c-0.3,0-0.5-0.1-0.8-0.1
		C59.5,54.4,59.8,54.3,60.2,54.4z"/>
	<path class="st276" d="M57.2,55.3c0,0-0.1-0.1-0.1-0.1c-0.1-0.2-0.1-0.5-0.2-0.7c0-0.1,0.1-0.1,0.1-0.1c0.1-0.1,0.3-0.1,0.5,0
		c0.2,0,0.5,0.1,0.7,0.2c0.4,0.1,0.5,0.3,0.1,0.6c-0.2,0.1-0.4,0.2-0.5,0.3C57.6,55.3,57.4,55.4,57.2,55.3z"/>
	<path class="st277" d="M56.9,54.4c0.3,0.2,0.3,0.5,0.1,0.7c-0.2-0.1-0.4-0.1-0.5-0.4C56.7,54.6,56.7,54.4,56.9,54.4z"/>
	<path class="st278" d="M56.1,53.3c0.1,0,0.1,0,0.2,0c0.4,0,0.6,0.2,0.5,0.6c-0.1,0.2-0.1,0.4-0.4,0.5c-0.1-0.2,0-0.5-0.1-0.7
		c0,0-0.1-0.1-0.1-0.1C56.1,53.5,56,53.4,56.1,53.3z"/>
	<path class="st279" d="M56.4,54.3c0.1-0.1,0.2-0.3,0.2-0.4c0,0,0.1,0,0.1,0c0.2,0,0.3-0.1,0.5,0c0.1,0.1,0.1,0.1,0.1,0.2
		c0,0.1,0,0.1-0.1,0.1c-0.1,0-0.2,0.1-0.2,0.1c-0.3,0-0.3,0.3-0.5,0.4c0,0-0.1-0.1-0.1-0.1C56.4,54.4,56.4,54.4,56.4,54.3z"/>
	<path class="st276" d="M56.6,54.6c0-0.3,0.1-0.5,0.5-0.5c0.1,0.1-0.1,0.2-0.1,0.2c0,0,0,0,0,0c-0.1,0.1-0.2,0.2-0.3,0.4
		C56.6,54.7,56.6,54.7,56.6,54.6z"/>
	<path class="st280" d="M56.1,53.3c0,0.1,0.1,0.1,0.1,0.2c-0.3,0-0.6,0.1-0.9,0.1C55.5,53.3,55.8,53.3,56.1,53.3z"/>
	<path class="st280" d="M56.2,54.7c-0.3-0.2,0.2-0.7-0.4-0.8c0.2-0.2,0.3-0.1,0.4,0.2C56.2,54.2,56.2,54.5,56.2,54.7z"/>
	<path class="st281" d="M57.2,55.3c0.2,0,0.4,0,0.6,0c0,0,0.1,0,0.1,0c0,0,0,0.1,0,0.1c-0.3,0-0.6,0-0.8,0c0,0,0,0,0,0
		C57.1,55.3,57.2,55.3,57.2,55.3z"/>
	<path class="st280" d="M56.4,54.3c0,0.1,0,0.2,0,0.2c-0.2-0.3-0.1-0.6-0.1-0.9C56.5,53.8,56.4,54.1,56.4,54.3z"/>
	<path class="st282" d="M41.7,58.4c0.2-0.1,0.3-0.1,0.5-0.2c0,0.1,0,0.1,0,0.2C42,58.3,41.9,58.5,41.7,58.4z"/>
	<path class="st170" d="M64.9,58.3C64.9,58.2,64.9,58.2,64.9,58.3c0.4,0,0.8-0.2,1.2-0.2c0,0,0.1,0.1,0.1,0.1
		c-0.1,0.1-0.2,0.2-0.3,0.3C65.6,58.4,65.3,58.3,64.9,58.3z"/>
	<path class="st283" d="M63.1,56.2c-0.1,0.1-0.2,0.1-0.3,0.1c0,0-0.1,0-0.1,0c0-0.1,0-0.2,0-0.2c0-0.1,0-0.2,0-0.4c0,0,0,0,0.1-0.1
		C63.2,55.6,63,55.9,63.1,56.2z"/>
	<path class="st284" d="M62.5,55.2c0-0.3,0.1-0.6,0.1-0.9c0.3,0.1,0.2,0.3,0.3,0.5c0,0.1,0,0.1-0.1,0.2
		C62.7,55.1,62.7,55.1,62.5,55.2C62.5,55.2,62.5,55.2,62.5,55.2z"/>
	<path class="st283" d="M62.6,55.2c0,0,0.1-0.1,0.1-0.1c0.1,0.1,0.2,0.2,0.2,0.4c0,0.1-0.1,0.2-0.2,0.3c0,0,0,0,0,0
		C62.5,55.5,62.6,55.3,62.6,55.2z"/>
	<path class="st33" d="M79.4,54.3c-0.1,0-0.3,0-0.4-0.1c0.2,0,0.4-0.1,0.6,0.1C79.6,54.2,79.5,54.3,79.4,54.3z"/>
	<path class="st285" d="M60.8,43.2L60.8,43.2L60.8,43.2c-0.4,0.2-0.7-0.1-1-0.1c-0.2,0-0.3-0.1-0.4-0.2c-0.1-0.1-0.3-0.2-0.4-0.3
		c0-0.1,0.1-0.3,0.1-0.4C59.7,42.6,60.3,42.7,60.8,43.2z"/>
	<path class="st286" d="M62.3,44.5c0-0.1-0.3-0.2-0.1-0.4c0.1,0,0.1,0,0.2,0c0,0,0,0,0,0c0.1,0.1,0.2,0.2,0.2,0.3
		C62.5,44.6,62.4,44.6,62.3,44.5z"/>
	<path class="st287" d="M63.7,46c0.1,0,0.2-0.1,0.2-0.1c0.1-0.1,0.3-0.1,0.5-0.1c0.1,0.1,0.2,0.2,0.1,0.3c-0.2,0.5-0.2,1,0,1.5
		c0.1,0.1,0,0.3-0.1,0.4c-0.2,0.1-0.3,0-0.5,0c-0.1,0-0.2-0.1-0.3-0.1c-0.1-0.1-0.2-0.3-0.2-0.4C63.6,47,63.5,46.5,63.7,46z"/>
	<path class="st288" d="M64.4,45.9c-0.2,0-0.3,0-0.5,0c0-0.1,0.1-0.1,0-0.2c-0.2-0.4-0.2-0.4,0.2-0.5c0,0,0-0.1,0.1-0.1
		c0.3,0.1,0.3,0.5,0.5,0.6c0,0,0,0.1,0,0.1C64.6,46,64.5,46,64.4,45.9z"/>
	<path class="st289" d="M62.7,44.6c0.5,0,0.5,0.5,0.8,0.9c-0.2,0.1-0.3,0-0.4-0.1c-0.1-0.2-0.2-0.2-0.3-0.1
		c-0.2-0.1-0.4-0.3-0.4-0.6C62.5,44.6,62.6,44.5,62.7,44.6z"/>
	<path class="st290" d="M62.9,45.3c0.1-0.1,0.1-0.3,0.3,0c0.1,0.1,0.1,0.3,0.3,0.3c0.2,0.1,0.2,0.2,0.2,0.4
		c-0.1-0.1-0.3-0.2-0.5-0.2C63,45.7,62.7,45.6,62.9,45.3z"/>
	<path class="st291" d="M63.5,44.1c0.2,0,0.2,0.1,0.3,0.3c-0.2-0.1-0.3,0.4-0.5,0.1C63.1,44.3,63.4,44.2,63.5,44.1z"/>
	<path class="st292" d="M62.7,44.6c-0.1,0-0.2,0-0.3,0.1c-0.1,0.1-0.2,0-0.2-0.1c0,0,0.1-0.1,0.1-0.1c0.4,0,0.2-0.2,0.1-0.3
		C62.8,44.2,62.7,44.4,62.7,44.6z"/>
	<path class="st293" d="M25.7,43.8c0,0.1-0.1,0.2-0.1,0.4c-0.1,0.1-0.2,0-0.2-0.1c0-0.1,0.1-0.2,0.1-0.4
		C25.5,43.7,25.6,43.7,25.7,43.8z"/>
	<path class="st294" d="M26,45.7c0.1-0.4,0.3-0.8,0.4-1.2c0.1-0.1,0.2-0.1,0.2,0c0.1,0.4-0.1,0.7-0.1,1c0.1-0.1,0.1-0.3,0.2-0.3
		c0,0,0,0,0.1-0.1c0.3-0.4,0.3-0.9,0.5-1.3c0.1-0.2,0-0.5,0.4-0.6c-0.1,0.2-0.1,0.4-0.2,0.6c-0.1,0.1,0,0.3,0,0.4
		c-0.1,0.4-0.3,0.8-0.4,1.2c-0.1,0.2-0.2,0.5-0.3,0.6c-0.1,0-0.1,0.1-0.2,0.1c-0.1,0-0.2,0-0.3,0c-0.1,0-0.2-0.1-0.3-0.2
		C25.9,45.9,25.9,45.8,26,45.7z"/>
	<path class="st295" d="M27.3,44.3c0-0.1,0-0.3,0.1-0.4c0.1,0.1,0.1,0.3,0.2,0.4c-0.1,0.2-0.2,0.4-0.2,0.7
		C27.2,44.7,27.3,44.5,27.3,44.3z"/>
	<path class="st296" d="M27.7,42.4c0.1,0,0.1-0.3,0.3-0.1c0,0.2-0.1,0.5-0.3,0.7C27.7,42.8,27.7,42.6,27.7,42.4z"/>
	<path class="st197" d="M26.6,44.5c-0.1,0-0.1,0-0.2,0c0.1-0.4,0.2-0.8,0.2-1.2c0,0,0,0,0.1,0c0.1,0,0.1,0.4,0.3,0.1c0,0,0,0,0,0
		c0,0.4,0,0.8-0.2,1.1C26.7,44.5,26.6,44.5,26.6,44.5z"/>
	<path class="st297" d="M26.6,44.5c0-0.1,0.1-0.1,0.1,0c0,0.2,0,0.4,0,0.6c0,0,0,0,0,0c-0.1,0.2-0.1,0.4-0.3,0.6
		c-0.2-0.1-0.3-0.2-0.2-0.4C26.5,45.1,26.5,44.8,26.6,44.5z"/>
	<path class="st195" d="M27,43.4c-0.2,0.3-0.2-0.1-0.3-0.1c0-0.4,0.1-0.8,0.2-1.2c0.1,0.1,0,0.2,0.1,0.3c0,0,0.1,0,0.1,0
		C27,42.7,26.9,43.1,27,43.4z"/>
	<path class="st298" d="M27,42.4c-0.2,0-0.1-0.2-0.1-0.3c0-0.2,0-0.4,0-0.6c0,0,0.1,0.1,0.1,0.1C27,41.9,27,42.1,27,42.4z"/>
	<path class="st299" d="M64.4,45.9c0.1,0,0.2,0,0.3,0c0.3,0,0.7,0.1,0.8-0.2c0.1,0,0.1,0,0.2,0c0,0.1,0.1,0.2,0,0.2
		c-0.2,0.3-0.5,0.5-0.6,0.8c-0.1,0.2-0.2,0.4-0.2,0.7c-0.2,0.6-0.3,1.2-0.7,1.7c-0.2,0.1-0.3,0-0.4-0.1c-0.1-0.1-0.3-0.1-0.4-0.2
		c-0.2-0.3,0.1-0.6,0.2-0.8c0,0,0,0,0.1-0.1c0.1,0,0.2,0,0.3,0c0.1,0.1,0.1,0.5,0.4,0.1c0.4-0.3-0.1-0.5-0.1-0.8
		C64.2,46.8,64.3,46.3,64.4,45.9z"/>
	<path class="st202" d="M65.7,45.7c-0.1,0-0.1,0-0.2,0c-0.1-0.4,0.2-0.7,0.3-1c0.1,0,0.2,0,0.3,0.1c0,0.1,0,0.2,0,0.3
		c0,0.2,0,0.4-0.2,0.5C65.8,45.7,65.8,45.7,65.7,45.7z"/>
	<path class="st201" d="M66.1,44.8c-0.1,0-0.2,0-0.3-0.1c0-0.1,0.1-0.2,0.1-0.4c0,0,0.1-0.1,0.1-0.1c0.1,0,0.2,0.1,0.2,0.1
		C66.3,44.5,66.2,44.6,66.1,44.8z"/>
	<path class="st300" d="M82.7,22.6c0.3,0.2,0.3,0.3,0,0.5C82.7,23,82.7,22.8,82.7,22.6z"/>
	<path class="st100" d="M22.3,55.6c-0.1,0.2-0.1,0.3-0.2,0.5c0,0.2,0,0.3-0.1,0.5c0,0,0,0.1,0,0.1c0,0-0.1,0-0.1,0.1
		c0-0.2,0-0.3-0.2-0.4c0-0.2,0-0.3,0-0.5c0,0,0.1,0,0.1,0C22.1,55.8,22.1,55.6,22.3,55.6z"/>
	<path class="st301" d="M22.8,53.6c0,0.2,0,0.3-0.1,0.5C22.8,53.9,22.6,53.7,22.8,53.6z"/>
	<path class="st302" d="M24.7,46.9c-0.2,0.4-0.2,0.9-0.4,1.4c0-0.1-0.1-0.3-0.1-0.4c0-0.2,0-0.3,0-0.5c0.2-0.2,0.3-0.4,0.3-0.6
		c0,0,0.1,0,0.1,0C24.7,46.7,24.8,46.8,24.7,46.9z"/>
	<path class="st303" d="M23.6,48.9c0-0.2-0.1-0.5,0.2-0.5c0,0.1-0.2,0.2,0,0.3c0,0,0,0.1,0,0.1C23.7,48.9,23.7,48.9,23.6,48.9z"/>
	<path class="st304" d="M23.3,49.9c0-0.2,0.1-0.3,0.1-0.5c0.1,0,0.1,0,0.2,0c-0.1,0.2-0.1,0.3-0.2,0.5
		C23.4,49.9,23.4,49.9,23.3,49.9z"/>
	<path class="st305" d="M27,46.4c0,0-0.1,0-0.1,0c-0.2,0-0.3,0-0.3-0.3c0.1-0.2,0.2-0.4,0.3-0.6c0.1-0.1,0.2,0,0.2,0.1
		c0,0.2-0.1,0.4-0.1,0.6C27,46.3,27,46.4,27,46.4z"/>
	<path class="st306" d="M25.3,44.9c0,0.1,0,0.3-0.1,0.4c0,0-0.1,0-0.1,0c0-0.1-0.1-0.2-0.1-0.4c0,0,0-0.1,0-0.1
		c0.1-0.1,0.1-0.2,0.2-0.2C25.3,44.7,25.3,44.8,25.3,44.9z"/>
	<path class="st307" d="M25.2,44.6c-0.1,0-0.2,0.1-0.3,0.1c0-0.2,0-0.5,0.3-0.6c0.1,0.1,0.1,0.2,0.1,0.2
		C25.3,44.5,25.3,44.6,25.2,44.6z"/>
	<path class="st308" d="M25.2,44.4c0-0.1,0-0.2,0-0.2c0,0,0.1-0.1,0.1-0.1c0.1,0,0.2,0.1,0.2,0.1c0,0.1-0.1,0.2-0.1,0.3
		C25.4,44.4,25.3,44.5,25.2,44.4z"/>
	<path class="st309" d="M24.8,46.6c0,0,0,0.1,0,0.1c0,0.1-0.1,0.1-0.1,0.2c-0.1-0.1-0.1-0.1-0.2-0.2c0-0.1,0.1-0.2,0.2-0.2
		C24.8,46.6,24.8,46.6,24.8,46.6z"/>
	<path class="st310" d="M63.4,53.4c0,0.5,0,1.1,0,1.6c0,0-0.1,0-0.1,0c0,0,0,0,0,0c-0.3-0.5-0.2-1-0.1-1.6
		C63.3,53.4,63.3,53.4,63.4,53.4z"/>
	<path class="st311" d="M63.4,53.4C63.4,53.4,63.4,53.4,63.4,53.4c-0.2,0-0.2,0-0.3-0.1c-0.1-0.2-0.2-0.4-0.2-0.6
		c0.1-0.2,0.2-0.4,0.5-0.5c0,0,0.1,0,0.1,0c0,0.1,0,0.2,0,0.3C63.4,52.8,63.5,53.1,63.4,53.4z"/>
	<path class="st35" d="M62.2,52.5c0.3-0.1,0.5-0.3,0.7-0.5c0.2,0.2,0.4,0,0.6,0c0,0.1-0.1,0.2-0.1,0.3c-0.2,0.2-0.3,0.3-0.5,0.5
		c0,0.2-0.2,0.2-0.3,0.3c-0.1,0.1-0.2,0.1-0.3,0.1c-0.3,0.1-0.6,0.2-0.8,0.4c-0.1,0.1-0.2,0.1-0.2,0.1c-0.1,0-0.1-0.1-0.2,0
		c-0.1,0.2-0.4,0.3-0.6,0.3c-0.2,0-0.4-0.1-0.5-0.3c0.5-0.6,1.2-0.7,1.8-1.1C61.8,52.6,62,52.5,62.2,52.5z"/>
	<path class="st312" d="M63.1,51.8c0.3-0.7,0.6-1.4,0.6-2.2c0.2-0.1,0.2,0.2,0.4,0.1c0.2,0.5-0.2,0.8-0.3,1.2
		C63.7,51.2,63.6,51.7,63.1,51.8z"/>
	<path class="st313" d="M63.7,50.8c-0.1-0.4,0.4-0.7,0.2-1.2c-0.1-0.1-0.1-0.2,0-0.3c0.1-0.1,0.2,0,0.3,0.1c0.1,0.1,0.1,0.3,0.2,0.4
		c0.1,0.2,0,0.5-0.1,0.7C64.2,50.7,64,50.6,63.7,50.8C63.8,50.8,63.8,50.8,63.7,50.8z"/>
	<path class="st312" d="M63.8,50.8c0.1-0.2,0.2-0.2,0.4-0.3c0.1,0.1,0.1,0.2,0.1,0.3c0,0-0.1,0.1-0.1,0.1
		C64.1,50.9,64,50.8,63.8,50.8z"/>
	<path class="st314" d="M56.7,53.9c0.1-0.3-0.1-0.5-0.4-0.6c0.3-0.2,0.5-0.3,0.8-0.5c0.1,0,0.1,0,0.2,0c0.1,0.2,0.2,0.4,0.3,0.5
		c0,0.1,0,0.2,0,0.2c-0.1,0.1-0.3,0.1-0.4,0.2C57,53.8,56.9,54,56.7,53.9L56.7,53.9z"/>
	<path class="st315" d="M57.2,52.8c0,0-0.1,0-0.1,0c-0.3-0.2-0.6,0.1-0.9,0c0.2-0.2,0.5-0.3,0.8-0.4c0.2,0,0.4,0,0.4,0.3
		C57.4,52.7,57.3,52.8,57.2,52.8z"/>
	<path class="st316" d="M62.7,54.9c0-0.2,0.1-0.4-0.1-0.6c0-0.2,0-0.5,0-0.7c0.1-0.1,0.1,0,0.2,0c0.1,0,0.2-0.3,0.4-0.1
		c0.2,0.3,0.1,0.6,0.1,0.9C63,54.5,63,54.9,62.7,54.9z"/>
	<path class="st317" d="M62.7,53.6c-0.1,0-0.1-0.1-0.2-0.1c-0.2,0-0.3,0.1-0.5,0.1c-0.2,0.1-0.3,0.1-0.5,0.1c0-0.5,0.5-0.4,0.7-0.6
		c0.1,0,0.1-0.1,0.2-0.1c0.2,0,0.3,0.1,0.4,0.3C62.8,53.4,63,53.6,62.7,53.6z"/>
	<path class="st318" d="M61.6,53.6c0.2,0,0.4,0,0.5,0c0,0.1-0.1,0.2-0.3,0.2c-0.2,0-0.3,0-0.5-0.1c0,0,0.1-0.1,0.1-0.1
		C61.5,53.6,61.5,53.6,61.6,53.6z"/>
	<path class="st319" d="M57.9,55.3c0,0-0.1,0-0.1,0c0.1-0.1,0.3-0.3,0.4-0.4c0.5-0.3-0.2-0.1-0.1-0.3c0.1-0.2,0.3-0.2,0.5-0.1
		c0.1,0,0.2,0.1,0.2,0.2c0.1,0.3-0.2,0.3-0.4,0.4C58.4,55.1,58.2,55.2,57.9,55.3z"/>
	<path class="st320" d="M58.9,54.6c0,0-0.1-0.1-0.1-0.1c0.2-0.2,0.5-0.3,0.8-0.4c0.2,0,0.4-0.1,0.5-0.1c0.1,0,0.2,0.1,0.1,0.2
		c0,0-0.1,0.1-0.1,0.1c-0.3,0.1-0.6,0.3-0.9,0.4c0,0-0.1,0-0.1,0C59.1,54.8,59,54.7,58.9,54.6z"/>
	<path class="st321" d="M58.9,54.6c0.1,0,0.2,0,0.3,0.1C59,54.9,58.8,55,58.6,55C58.7,54.9,58.8,54.8,58.9,54.6z"/>
	<path class="st322" d="M60.3,54.3c0,0-0.1-0.1-0.1-0.1c0-0.2,0.1-0.2,0.2-0.2c0.2-0.1,0.4-0.2,0.6-0.3C61,54.1,60.6,54.1,60.3,54.3
		z"/>
	<path class="st323" d="M59.7,54.3c-0.3,0.2-0.6,0.2-0.9,0.3c-0.2,0-0.4,0-0.6,0c-0.2-0.1-0.5-0.1-0.7-0.2c-0.1-0.1-0.2-0.1-0.1-0.2
		l0,0c0.1-0.2,0.3-0.2,0.4-0.2c0.1,0,0.1,0,0.2,0c0.3,0,0.7,0,1-0.1c0.1,0,0.2,0,0.4,0C59.5,54,59.7,54,59.7,54.3z"/>
	<path class="st324" d="M57.8,54c-0.1,0.1-0.3,0.2-0.5,0.2c-0.1-0.1-0.1-0.2-0.2-0.3c-0.1-0.1-0.2-0.1-0.1-0.3c0-0.4,0.2,0,0.4-0.1
		C57.7,53.5,57.9,53.7,57.8,54z"/>
	<path class="st325" d="M57.1,53.6c0,0.1,0.1,0.2,0.1,0.3c-0.2-0.1-0.3,0.2-0.5,0C56.8,53.8,56.9,53.6,57.1,53.6z"/>
	<path class="st326" d="M62.7,54.9c0.2-0.1,0-0.5,0.4-0.5c0.1,0.2,0.1,0.4-0.1,0.6c-0.1,0.1-0.1,0.2-0.1,0.4
		c-0.1-0.1-0.1-0.2-0.1-0.3C62.7,55,62.7,54.9,62.7,54.9z"/>
	<path class="st327" d="M60.6,43.4c-0.3,0-0.5-0.3-0.7-0.4c0.3-0.3,0.6,0.3,0.9,0.1C60.7,43.2,60.6,43.3,60.6,43.4z"/>
	<path class="st328" d="M64.3,48c-0.1,0.2-0.1,0.4-0.2,0.6c-0.3-0.3-0.1-0.5-0.2-0.8C64.1,47.9,64.2,48,64.3,48z"/>
	<path class="st329" d="M63.4,47.9c0.1-0.1,0.1-0.2,0.2-0.4c0.1,0.1,0.1,0.2,0.1,0.4c0,0,0,0,0,0C63.6,48,63.5,48,63.4,47.9z"/>
	<path class="st330" d="M62.3,48.9c0.2-0.1,0.3-0.3,0.5-0.5c0.3,0,0.4-0.2,0.5-0.4c0.4,0.2-0.1,0.4-0.1,0.5
		c-0.1,0.1-0.2,0.2-0.3,0.3c-0.1,0.1-0.3,0.2-0.4,0.3c-0.1,0.1-0.3,0.1-0.4,0C62.2,49,62.3,49,62.3,48.9z"/>
	<path class="st331" d="M63.2,48.5c0-0.2,0.4-0.3,0.2-0.5c0,0,0.1-0.1,0.1-0.1c0.1,0,0.2,0,0.3,0c0.1,0.4-0.3,0.5-0.3,0.9
		c0,0.1,0,0.1-0.1,0.1c-0.1,0-0.2-0.1-0.2-0.2C63.1,48.6,63.2,48.6,63.2,48.5z"/>
	<path class="st332" d="M27.1,45.6c-0.1,0-0.2-0.1-0.2-0.1c0.2-0.4,0.3-0.8,0.5-1.3c0,0.2,0,0.4,0,0.7
		C27.3,45.2,27.2,45.4,27.1,45.6z"/>
	<path class="st333" d="M25.2,44.4c0.1,0,0.2-0.1,0.3,0c0,0.2,0,0.3-0.2,0.5c0-0.1-0.1-0.2-0.1-0.2C25.2,44.6,25.2,44.5,25.2,44.4z"
		/>
	<path class="st334" d="M26,46.4c0-0.1,0-0.2,0-0.4c0.1,0,0.2,0.1,0.3,0.1c0,0.2,0.1,0.1,0.2,0c0,0,0.1,0,0.1,0
		c0.1,0.1,0.2,0.2,0.3,0.3C26.5,46.8,26.3,46.7,26,46.4z"/>
	<path class="st335" d="M26.4,45.8c0-0.2,0.1-0.5,0.3-0.6C26.7,45.4,26.7,45.6,26.4,45.8z"/>
	<path class="st305" d="M26.5,46.2c0,0.1,0,0.2-0.2,0.2c-0.1,0-0.1-0.1,0-0.2C26.3,46.1,26.4,46.1,26.5,46.2z"/>
	<path class="st336" d="M65.1,47.6c-0.1,0.5-0.3,0.9-0.4,1.4c0,0.2-0.1,0.5-0.2,0.6c0,0.1-0.1,0.2-0.1,0.3c-0.1-0.1-0.1-0.2-0.1-0.3
		c0,0-0.1-0.1-0.1-0.1c-0.1,0-0.1,0.1-0.1,0.2c-0.2,0.2-0.1-0.2-0.3-0.1c0,0-0.1,0-0.1,0c-0.2-0.1-0.2-0.2-0.2-0.4
		c0-0.2,0.1-0.3,0.3-0.3c0.2,0,0.3,0.3,0.5,0.1c0.2-0.5,0.4-1.1,0.6-1.6c0.1-0.1,0.2-0.2,0.3-0.1C65.2,47.4,65.1,47.5,65.1,47.6z"/>
	<path class="st337" d="M65.1,46.6c0.3,0.1,0.3,0.3,0.2,0.5c-0.1,0.1-0.1,0.4-0.2,0.5c0-0.2,0-0.3-0.3-0.2
		C64.8,47.1,64.8,46.8,65.1,46.6z"/>
	<path class="st338" d="M63.7,48.9c-0.1,0-0.2,0.1-0.3,0.2c0,0.1-0.1,0.1-0.2,0.1c-0.1,0-0.1-0.1-0.1-0.1c-0.1-0.2-0.1-0.3,0.1-0.4
		c0.1,0,0.1,0.3,0.2,0.1c0.1,0,0.3,0,0.4,0.1C63.8,48.9,63.8,49,63.7,48.9z"/>
	<path class="st339" d="M63.7,48.9c0,0,0.1,0,0.1,0c0.1,0,0.3,0.1,0.4,0.1C64.1,49.2,64.1,49.2,63.7,48.9z"/>
	<path class="st340" d="M62.1,49.1c0.2,0,0.3,0,0.4-0.1c0.1,0,0.3,0,0.4,0.1c0,0,0,0.1,0,0.2c-0.1,0.2-0.4,0.3-0.6,0.5
		c-0.2,0.2-0.5,0.3-0.6,0.5c0,0-0.1,0-0.2,0.1c-0.3,0-0.5,0.2-0.7,0.4c-0.1,0.1-0.2,0.1-0.3,0.2c-0.1,0.1-0.3,0.2-0.4,0.3
		c0,0-0.1,0-0.1,0c-0.1,0-0.1,0-0.2,0c-0.2,0-0.4,0.2-0.5,0.4c-0.1,0.1-0.2,0.1-0.3,0.1c-0.3-0.1-0.3-0.2-0.2-0.4
		C60,50.6,61.1,49.9,62.1,49.1z"/>
	<path class="st341" d="M58.9,51.3c0,0.2,0,0.4,0.3,0.4c0.1,0,0.1,0.1,0.2,0.2c-0.1,0.2-0.3,0.2-0.5,0.3c-0.3,0-0.5,0.2-0.7,0.2
		c-0.1,0-0.1,0-0.2,0c-0.1-0.1-0.4-0.1-0.3-0.3C58.1,51.7,58.5,51.5,58.9,51.3z"/>
	<path class="st342" d="M57.7,52c0.1,0.2,0.3,0.1,0.4,0.3c0,0.2-0.2,0.3-0.3,0.4c-0.1,0.1-0.1,0.1-0.2,0.1c-0.1,0-0.2,0-0.2-0.1
		c-0.1-0.1-0.3-0.2-0.4-0.3C57.2,52.2,57.4,52.1,57.7,52z"/>
	<path class="st343" d="M62.9,55c0-0.2,0.1-0.4,0.1-0.6c0-0.3,0.1-0.7-0.1-1c-0.1,0-0.1-0.1-0.1-0.1c-0.1-0.1-0.2-0.2-0.3-0.3
		c0.1-0.1,0.3-0.2,0.4-0.2c0.2,0.1,0.1,0.3,0.3,0.5c0.1,0.6,0.1,1.2,0,1.7C63.1,55.2,63,55,62.9,55z"/>
	<path class="st344" d="M63.2,55c0-0.6,0-1.2,0-1.7c0,0,0.1,0.1,0.1,0.1c0,0.5,0,1.1,0,1.6C63.3,55,63.3,55,63.2,55L63.2,55z"/>
	<path class="st345" d="M61.2,51.3c-0.8,0.4-1.5,0.8-2.3,1.2c-0.3,0.3-0.7,0.5-1.2,0.6c-0.3-0.1-0.3-0.3-0.2-0.5
		c0,0,0.1-0.1,0.1-0.1c0.2-0.1,0.4-0.1,0.6-0.3c0.2-0.1,0.3-0.2,0.5-0.2c0.2-0.1,0.3-0.2,0.5-0.2c0.1-0.4,0.5-0.4,0.8-0.6l0,0
		c0.3,0,0.5-0.2,0.8-0.4c0.2-0.1,0.3-0.2,0.5-0.2c0.1,0,0.1,0,0.1,0.1c0.1,0.1,0.1,0.2,0.1,0.3c-0.1,0.1-0.1,0.1-0.2,0.2
		C61.4,51.2,61.3,51.2,61.2,51.3z"/>
	<path class="st346" d="M63.3,49.1c0,0,0.1,0,0.1,0c0,0.1,0.1,0.3,0.1,0.4c-0.3,0.3-0.6,0.6-1,0.8c-0.1,0-0.2-0.1-0.2-0.2
		c0-0.1,0-0.2,0-0.2c0-0.1,0.1-0.1,0.1-0.1c0,0,0.1-0.1,0.1-0.1c0.1-0.1,0.3-0.2,0.4-0.3C63.1,49.2,63.2,49.2,63.3,49.1z"/>
	<path class="st347" d="M62.4,50c0,0.1,0.1,0.2,0.1,0.3c-0.3,0.3-0.6,0.5-0.9,0.6c-0.1-0.1-0.2-0.2-0.3-0.2l0,0
		c0-0.2,0.3-0.2,0.3-0.4c0-0.1,0.1-0.1,0.2-0.2C62.1,50.1,62.3,49.9,62.4,50z"/>
	<path class="st348" d="M61.4,50.6c0.2,0,0.2,0.1,0.3,0.2c0,0-0.1,0.1-0.1,0.1C61.5,50.9,61.5,50.8,61.4,50.6z"/>
	<path class="st349" d="M59.3,53.9c0.2,0,0.4-0.1,0.6-0.1c0.2,0,0.4,0.1,0.5,0.2c-0.1,0.1-0.2,0.1-0.2,0.2c-0.2,0-0.3,0.1-0.5,0.1
		C59.6,54.2,59.4,54.1,59.3,53.9C59.3,54,59.3,53.9,59.3,53.9z"/>
	<path class="st350" d="M61.6,53.6c0,0-0.1,0-0.1,0c0.2-0.4,0.5-0.5,0.9-0.5C62.1,53.3,61.8,53.5,61.6,53.6z"/>
	<path class="st351" d="M57.7,53c-0.1,0.1-0.2,0.2-0.3,0.2c-0.4,0-0.2-0.3-0.2-0.5c0,0,0.1-0.1,0.1-0.1c0.1,0,0.2,0,0.3,0
		C57.6,52.8,57.7,52.9,57.7,53z"/>
	<path class="st352" d="M62.8,53.3c0,0,0.1,0.1,0.1,0.1c0,0.2,0,0.4-0.2,0.4c-0.1,0-0.1-0.1-0.1-0.2C62.8,53.5,62.8,53.4,62.8,53.3z
		"/>
	<path class="st324" d="M57.8,54c0.4,0,0.7,0,1.1,0C58.6,54.2,58.2,54.2,57.8,54z"/>
	<path class="st353" d="M63.2,48.7c0,0.2,0,0.3,0,0.5c-0.1,0.1-0.2,0.1-0.2,0l0,0c-0.1-0.1-0.1-0.3,0-0.4c0.1-0.1,0.2-0.2,0.2-0.2
		C63.2,48.6,63.2,48.6,63.2,48.7z"/>
	<path class="st354" d="M62.9,48.8c0,0.1,0,0.3,0,0.4c-0.1,0-0.3,0-0.4-0.1C62.7,48.9,62.8,48.8,62.9,48.8z"/>
	<path class="st355" d="M63,49.1c0.1,0,0.2,0,0.2,0c0,0,0.1,0,0.1,0c-0.1,0.1-0.2,0.2-0.3,0.3c-0.2,0.1-0.3,0.3-0.5,0.4
		c0,0-0.1,0-0.1,0c-0.1,0-0.1-0.1-0.1-0.1C62.5,49.5,62.7,49.3,63,49.1z"/>
	<path class="st356" d="M60.1,51.1c0,0.5-0.5,0.4-0.8,0.6c0,0-0.1-0.1-0.1-0.1c0,0,0.1-0.1,0.1-0.1C59.5,51.3,59.8,51.3,60.1,51.1
		C60,51.2,60.1,51.2,60.1,51.1z"/>
	<path class="st357" d="M61.8,50.3c0,0.2-0.3,0.2-0.4,0.4c-0.2,0.1-0.3,0.2-0.5,0.2c0,0-0.1-0.1-0.1-0.2c0-0.1,0-0.1,0.1-0.1
		c0.2-0.2,0.4-0.3,0.6-0.3c0,0,0.1,0,0.1,0C61.7,50.2,61.8,50.2,61.8,50.3z"/>
	<path class="st358" d="M61.6,50.3c-0.2,0.1-0.4,0.2-0.6,0.4c0,0-0.1,0-0.1,0C61,50.4,61.2,50.1,61.6,50.3z"/>
	<path class="st359" d="M60.9,50.7c0,0,0,0.1,0,0.1c-0.3,0.1-0.5,0.4-0.9,0.3c0.1-0.1,0.3-0.2,0.4-0.2
		C60.6,50.8,60.7,50.7,60.9,50.7z"/>
	<path class="st360" d="M61.8,50.3L61.8,50.3c-0.1,0-0.1,0-0.1,0c0-0.4,0.4-0.4,0.6-0.6c0,0,0.1,0.1,0.1,0.1c0,0,0,0.1,0,0.1
		c-0.1,0.2-0.3,0.3-0.5,0.3C61.9,50.2,61.9,50.2,61.8,50.3z"/>
	<path class="st361" d="M60,51.2c-0.2,0.2-0.4,0.3-0.7,0.4C59.4,51.2,59.7,51.1,60,51.2z"/>
	<path class="st362" d="M60.9,50.7c-0.2,0.1-0.3,0.1-0.5,0.2c0-0.3,0.2-0.3,0.4-0.3C60.9,50.6,60.9,50.6,60.9,50.7
		C60.9,50.7,60.9,50.7,60.9,50.7z"/>
	<path class="st363" d="M58.8,52c-0.1,0.2-0.3,0.2-0.5,0.3c-0.1,0-0.1,0-0.1,0C58.4,52.1,58.5,51.9,58.8,52z"/>
	<path class="st364" d="M58.2,52.3c0,0,0.1,0,0.1,0c-0.2,0.2-0.4,0.3-0.6,0.3c0.1-0.2,0.2-0.2,0.4-0.3
		C58.1,52.3,58.1,52.3,58.2,52.3z"/>
	<path class="st365" d="M61.9,50.1c0.2-0.1,0.3-0.2,0.5-0.3c0,0.1,0,0.1,0,0.2C62.3,50,62.2,50.3,61.9,50.1z"/>
	<path class="st366" d="M62.6,49.8c0.1-0.2,0.3-0.3,0.5-0.4C63,49.6,62.8,49.8,62.6,49.8z"/>
</g>
</svg>
