<?xml version="1.0" encoding="utf-8"?>
<!-- Generator: Adobe Illustrator 28.1.0, SVG Export Plug-In . SVG Version: 6.00 Build 0)  -->
<svg version="1.1" id="Layer_1" xmlns="http://www.w3.org/2000/svg" xmlns:xlink="http://www.w3.org/1999/xlink" x="0px" y="0px"
	 viewBox="0 0 157 35" style="enable-background:new 0 0 157 35;" xml:space="preserve">
<style type="text/css">
	.st0{fill:#FFFFFF;}
</style>
<path class="st0" d="M21.4,16.9c0.9-0.9,1.3-1.9,1.3-3.1c0-0.6-0.1-1.2-0.3-1.7c-0.2-0.5-0.5-1-0.9-1.4c-0.4-0.4-0.9-0.7-1.4-1
	c-0.5-0.2-1.1-0.3-1.7-0.3h-1.6l-1.8,2.5h3.4c0.2,0,0.5,0,0.7,0.1c0.2,0.1,0.4,0.2,0.6,0.4c0.2,0.2,0.3,0.4,0.4,0.6
	c0.1,0.2,0.1,0.5,0.1,0.7c0,0.3-0.1,0.5-0.1,0.7c-0.1,0.2-0.2,0.4-0.4,0.6c-0.2,0.2-0.4,0.3-0.6,0.4c-0.2,0.1-0.5,0.1-0.7,0.1h-5.6
	l-1.9,2.5h1.9h5.6c0.3,0,0.5,0.1,0.7,0.1c0.2,0.1,0.4,0.2,0.6,0.4s0.3,0.4,0.4,0.6c0.1,0.2,0.1,0.5,0.1,0.7c0,0.2-0.1,0.5-0.1,0.7
	c-0.1,0.2-0.2,0.4-0.4,0.6c-0.2,0.2-0.4,0.3-0.6,0.4c-0.2,0.1-0.5,0.1-0.7,0.1h-3.6h-2H6l8.7-12.5H3.9l-2.1,2.5h2.1h5.6L0.9,24.3
	h17.5c0.6,0,1.2-0.1,1.7-0.3c0.5-0.2,1-0.5,1.4-1c0.4-0.4,0.7-0.8,0.9-1.4c0.2-0.5,0.3-1.1,0.3-1.7C22.7,18.8,22.3,17.7,21.4,16.9z"
	/>
<g>
	<path class="st0" d="M39.1,21.4v2.7H28.8V9.2h2.9v12.2H39.1z"/>
	<path class="st0" d="M40.1,9.2h3v14.9h-3V9.2z"/>
	<path class="st0" d="M47.8,11.8v3.7h6.8v2.6h-6.8v5.9h-2.9V9.2h10.9v2.7H47.8z"/>
	<path class="st0" d="M59.3,11.8v3.4h7v2.6h-7v3.7h8.1v2.6h-11V9.2h11v2.6H59.3z"/>
	<path class="st0" d="M74.4,24.4c-1.7,0-3.2-0.4-4.4-1.3c-1.2-0.9-2-1.9-2.5-3.2l2.8-0.8c0.3,0.8,0.8,1.5,1.6,2
		c0.7,0.5,1.6,0.8,2.7,0.8c0.8,0,1.5-0.2,2.1-0.6c0.5-0.4,0.8-0.8,0.8-1.3c0-0.4-0.1-0.7-0.4-1c-0.3-0.3-0.8-0.6-1.5-0.8L71.7,17
		c-1-0.3-1.9-0.8-2.5-1.5c-0.6-0.6-0.9-1.4-0.9-2.4c0-1.2,0.5-2.2,1.5-3c1-0.8,2.3-1.2,3.8-1.2c1.6,0,2.9,0.4,4.1,1.1
		c1.2,0.7,1.9,1.6,2.4,2.7l-2.7,0.8c-0.3-0.6-0.8-1.1-1.5-1.5c-0.7-0.4-1.4-0.6-2.2-0.6c-0.7,0-1.3,0.2-1.7,0.5
		c-0.4,0.3-0.7,0.7-0.7,1.1c0,0.7,0.5,1.1,1.4,1.4l3.7,1.2c1.3,0.4,2.3,0.9,3,1.5c0.7,0.6,1,1.5,1,2.6c0,1.3-0.6,2.4-1.7,3.3
		C77.7,23.9,76.2,24.4,74.4,24.4L74.4,24.4z"/>
	<path class="st0" d="M92.6,11.8h-5v12.3h-2.9V11.8h-5V9.2h12.9V11.8z"/>
	<path class="st0" d="M106.3,9.2l-5.6,9.4v5.5h-3v-5.5L92,9.2h3.3l3.8,6.6l3.8-6.6H106.3z"/>
	<path class="st0" d="M117.2,21.4v2.7h-10.4V9.2h2.9v12.2H117.2z"/>
	<path class="st0" d="M120.9,11.8v3.4h7v2.6h-7v3.7h8.1v2.6h-11V9.2h11v2.6H120.9z"/>
</g>
</svg>
