<svg width="107" height="42" viewBox="0 0 107 42" fill="none" xmlns="http://www.w3.org/2000/svg">
<g clip-path="url(#clip0_1_2)">
<path d="M17.4414 0.347704C17.4414 0.268978 17.418 0.226336 17.3344 0.223055L10.2856 3.09193e-09C10.2629 -4.2741e-06 10.2404 0.0044291 10.2195 0.0130407C10.1986 0.0216522 10.1797 0.034269 10.1638 0.0501525C10.1479 0.0660361 10.1354 0.0848674 10.1271 0.105544C10.1187 0.126221 10.1146 0.148328 10.115 0.170572C10.1396 3.69791 10.29 7.21103 10.5665 10.7099C10.9978 16.1125 11.0346 21.1903 11.2653 26.455C11.2727 27.0227 11.2223 27.5897 11.1149 28.1476C10.844 29.3974 10.7805 30.8571 10.0816 31.992C10.0346 32.0677 9.96076 32.1238 9.87429 32.1495C8.91348 32.4119 8.27035 32.0697 7.94488 31.1228C7.46694 29.6806 7.3896 28.1396 7.72084 26.6584C8.09892 24.1112 8.64625 21.591 9.35933 19.1139C9.36823 19.0851 9.36938 19.0546 9.36268 19.0253C9.35682 18.9788 9.33242 18.9365 9.29482 18.9076C9.25722 18.8787 9.20947 18.8656 9.16204 18.8711L1.47118 19.7568C1.35966 19.77 1.25587 19.8195 1.17645 19.8974C1.09702 19.9753 1.04656 20.0771 1.03313 20.1865L0.160386 27.5703C-0.108332 30.2253 -0.0398156 32.9028 0.364362 35.5412C0.939505 39.2807 3.37383 41.6884 7.44999 41.4456C9.79069 41.298 14.3751 42.5904 15.7862 39.9072C17.2341 37.1453 17.1238 34.9213 17.0502 31.2933C17.0168 29.931 16.9789 28.5653 16.9365 27.1963C16.8128 25.1331 16.4383 23.0337 16.4249 21.059C16.3915 16.716 16.5854 13.3079 16.6489 9.79803C16.7047 6.63444 16.9694 3.47771 17.4414 0.347704ZM0.855908 27.298C0.849284 27.3172 0.849284 27.3379 0.855908 27.3571C0.848435 27.3381 0.848435 27.317 0.855908 27.298Z" fill="white"/>
<path d="M107.003 0.898791C106.994 0.865036 106.978 0.833473 106.956 0.806046C106.934 0.778619 106.907 0.755909 106.875 0.739315C106.844 0.72272 106.809 0.712593 106.774 0.709557C106.738 0.70652 106.703 0.710639 106.669 0.721658C103.463 1.60532 100.16 2.10536 96.8313 2.21088C96.8077 2.20944 96.784 2.21295 96.7618 2.22118C96.7397 2.22941 96.7195 2.24216 96.7028 2.2586C96.686 2.27504 96.673 2.29479 96.6646 2.31654C96.6562 2.33828 96.6526 2.36153 96.6541 2.38473C96.5797 3.78233 96.393 5.17199 96.0957 6.54078C95.496 9.31803 94.9142 12.1029 94.3502 14.8955C94.3486 14.9078 94.3433 14.9194 94.335 14.9288C94.3266 14.9381 94.3156 14.9448 94.3034 14.948C94.2857 14.952 94.2671 14.9491 94.2515 14.9399C94.2359 14.9308 94.2245 14.916 94.2198 14.8988C93.502 11.8372 92.9369 8.7593 92.5245 5.66496C92.5242 5.64536 92.5197 5.62604 92.5112 5.6083C92.5027 5.59056 92.4904 5.5748 92.4752 5.56207C92.4601 5.54934 92.4423 5.53993 92.4231 5.53448C92.4039 5.52904 92.3837 5.52767 92.364 5.53047L87.609 5.63215C87.5354 5.63215 87.5087 5.66824 87.5221 5.7404C88.6803 10.9059 90.1066 16.01 91.7955 21.0328C92.3259 22.596 92.5936 24.2335 92.588 25.881L90.8458 41.8229C90.8426 41.8413 90.8426 41.8602 90.8458 41.8786C90.8509 41.899 90.8601 41.9182 90.8728 41.935C90.8855 41.9519 90.9015 41.966 90.9199 41.9767C90.9383 41.9874 90.9586 41.9944 90.9798 41.9973C91.001 42.0001 91.0225 41.9988 91.0431 41.9934C93.859 41.2621 96.7403 40.7997 99.6469 40.6125C99.6684 40.6137 99.69 40.6102 99.71 40.6022C99.73 40.5942 99.7479 40.5818 99.7624 40.566C99.7769 40.5503 99.7875 40.5315 99.7936 40.5112C99.7996 40.4908 99.8009 40.4694 99.7973 40.4485L99.3626 26.619C99.1112 24.8845 99.1542 23.121 99.4897 21.4002C99.6101 20.7944 100.105 19.1467 100.974 16.4569C102.665 11.2192 104.664 6.08239 106.963 1.07264C106.998 1.02165 107.013 0.959624 107.003 0.898791Z" fill="white"/>
<path d="M84.5661 4.59231C83.3155 3.17853 81.8475 2.62418 80.0452 2.15182C79.4288 1.99475 78.796 1.90779 78.1593 1.89269C75.0094 1.81396 72.5884 2.0895 71.7123 5.54358C71.2385 7.41948 70.9816 9.34179 70.9466 11.2741L70.7994 11.5792V17.5492C70.7994 17.5492 70.3213 22.7385 71.4682 27.1471C71.5522 27.4604 71.6561 27.7683 71.7792 28.0689C71.9965 28.6331 72.2941 29.1415 72.6018 29.814C72.9362 30.5455 73.4277 30.798 73.9962 31.3097C74.3428 31.6292 74.7679 31.8553 75.23 31.9658C77.0247 32.3781 78.8844 32.4417 80.7039 32.1528C84.9774 31.477 85.6261 28.082 85.8869 24.4508C86.2962 19.2165 86.2649 13.9579 85.7933 8.72867C85.6027 6.79006 85.6562 5.84208 84.5661 4.59231ZM78.8815 6.4358C78.9852 6.92783 79.3062 7.37722 79.4032 7.85941C80.1054 11.3146 80.4398 14.0601 80.4063 16.0961C80.3729 18.7202 80.3406 21.3444 80.3094 23.9686C80.3315 25.4229 79.9276 26.8528 79.1457 28.0886C79.1156 28.135 79.0972 28.1879 79.0922 28.2427L78.9183 28.2952C78.91 28.2564 78.8909 28.2205 78.8632 28.1916C78.8355 28.1627 78.8002 28.1418 78.7612 28.1312C78.5431 28.0785 78.3435 27.9695 78.1829 27.8154C78.0224 27.6614 77.9069 27.468 77.8483 27.2554C77.3979 25.7633 77.1528 24.2189 77.1193 22.6631C77.0725 20.4544 77.0257 18.2424 76.9789 16.0272C76.9209 13.1342 77.0796 10.2409 77.4537 7.37066C77.4537 7.2985 77.4537 7.26241 77.4069 7.24929L77.4938 7.03608C77.5567 6.9912 77.6016 6.92624 77.6209 6.85239L77.758 6.39971C77.794 6.27819 77.8705 6.17205 77.9754 6.09835C78.0802 6.02465 78.2073 5.98766 78.3362 5.99334C78.465 5.99902 78.5882 6.04703 78.6859 6.12965C78.7836 6.21228 78.8501 6.32472 78.8748 6.44892L78.8815 6.4358ZM76.6111 24.3655C76.6325 24.387 76.6445 24.4158 76.6445 24.4459C76.6445 24.4759 76.6325 24.5048 76.6111 24.5262V24.3655Z" fill="white"/>
<path d="M42.5004 14.456C41.727 11.55 41.1892 8.58855 40.892 5.59936C40.8946 5.5741 40.8906 5.54861 40.8805 5.52524C40.8704 5.50188 40.8544 5.4814 40.8341 5.4657C40.8137 5.45001 40.7897 5.43959 40.7642 5.43543C40.7386 5.43127 40.7124 5.4335 40.688 5.4419C39.1101 5.66933 37.5095 5.70349 35.923 5.54359C35.7291 5.52391 35.6589 5.60592 35.7124 5.79289C36.7289 9.24369 37.6474 12.7163 38.4677 16.2109C38.655 17.0091 39.1844 18.2457 40.056 19.9208C40.102 20.0029 40.114 20.0993 40.0895 20.1898C40.0403 20.3267 40.0311 20.4744 40.0627 20.6162C40.2935 21.6364 40.5476 22.6532 40.8251 23.6603C40.9817 24.2071 41.0283 24.7787 40.9622 25.343C40.7393 27.3112 40.5364 29.2924 40.3536 31.2868L39.2535 41.7212C39.2469 41.7515 39.2469 41.7828 39.2535 41.813C39.2715 41.8773 39.3147 41.9319 39.3735 41.9651C39.4324 41.9982 39.5022 42.0073 39.5678 41.9902C42.3828 41.1898 45.2865 40.7283 48.215 40.6158H48.2418C48.2683 40.6118 48.2937 40.6027 48.3166 40.5889C48.3394 40.5751 48.3592 40.557 48.3748 40.5356C48.3904 40.5142 48.4015 40.4899 48.4073 40.4643C48.4132 40.4386 48.4138 40.412 48.409 40.3861C48.2908 39.6907 48.2006 38.9724 48.1381 38.231C48.108 37.8374 47.8974 37.4963 47.9676 37.0502C48.0802 36.4115 48.0881 35.7592 47.991 35.1181C47.933 34.4489 47.9085 33.3129 47.9174 31.7099C47.9308 29.1711 47.7971 26.1653 47.5162 22.6926C47.504 22.0803 47.6343 21.4734 47.8974 20.918C48.1417 20.3747 48.3484 19.8158 48.516 19.2451C49.3743 16.0354 50.4421 12.8832 51.7127 9.80788C51.9802 9.16824 51.8532 8.39411 52.2043 7.81023C52.2337 7.74498 52.2878 7.69349 52.3551 7.66657C52.4225 7.63965 52.4979 7.63941 52.5654 7.6659C52.5898 7.6701 52.6129 7.67978 52.6328 7.69418C52.6528 7.70858 52.669 7.72732 52.6804 7.74892C52.6917 7.77052 52.6978 7.79441 52.6981 7.8187C52.6985 7.84299 52.6931 7.86704 52.6824 7.88895C52.5957 8.06716 52.5512 8.26226 52.552 8.45971C52.7081 11.6875 52.8574 14.9174 53.0001 18.1495C53.0069 18.2529 53.0366 18.3537 53.087 18.4447C53.3646 18.9203 53.1372 19.3894 53.1606 19.7568L52.7894 34.895C52.6691 36.8041 52.4974 38.7723 52.2745 40.7994C52.2606 40.8578 52.2601 40.9185 52.273 40.9771C52.2858 41.0356 52.3117 41.0907 52.3487 41.1384C52.3858 41.186 52.4331 41.225 52.4873 41.2526C52.5416 41.2802 52.6013 41.2957 52.6624 41.298C54.5751 41.5965 56.0765 41.0422 58.1062 41.0356C59.3166 41.0356 61.2639 40.6343 63.9479 39.8318C64.4694 39.6766 64.978 39.4825 65.4693 39.2512L65.5061 39.2282C66.8783 38.6157 67.9956 37.5612 68.6727 36.2399C69.1309 35.5817 69.4388 34.8343 69.5756 34.0487C70.0471 31.0014 69.5756 28.7315 69.4385 27.4883C69.3014 26.2451 68.2146 24.0047 68.2146 24.0047C67.6362 22.5122 66.0846 21.7446 64.61 21.3379C64.5614 21.3231 64.5098 21.3207 64.46 21.3311C64.4103 21.3414 64.364 21.3641 64.3257 21.3969C64.2104 21.5098 64.057 21.5774 63.8944 21.5872C63.7004 21.5872 63.5098 21.5609 63.3192 21.5576C63.8891 21.1814 64.412 20.7411 64.8775 20.2456L64.7136 20.4424C64.6962 20.4606 64.6866 20.4846 64.6866 20.5096C64.6866 20.5346 64.6962 20.5586 64.7136 20.5769C64.7318 20.5947 64.7565 20.6047 64.7822 20.6047C64.8079 20.6047 64.8325 20.5947 64.8507 20.5769C66.1883 19.7021 67.1123 18.8274 67.6228 17.9527C68.024 17.2748 68.5111 15.9769 69.084 14.0591C69.4398 12.8365 69.4628 11.5438 69.1509 10.3098C68.0006 5.47799 62.7675 4.33647 58.4807 4.46112C56.7452 4.5136 55.401 4.98923 53.8662 5.69448C53.8226 5.71397 53.7753 5.72406 53.7274 5.72406C53.6795 5.72406 53.6322 5.71397 53.5886 5.69448C53.508 5.65868 53.4452 5.59302 53.4139 5.51186C53.3825 5.43071 53.3852 5.34068 53.4214 5.26149L55.2371 1.27602C55.4378 0.839749 55.2973 0.672457 54.8225 0.767584C51.5388 1.42363 48.4926 2.09607 45.1253 2.19776C45.1039 2.1963 45.0823 2.19938 45.0622 2.20678C45.042 2.21417 45.0237 2.22572 45.0085 2.24064C44.9933 2.25557 44.9816 2.27351 44.974 2.29328C44.9665 2.31304 44.9633 2.33416 44.9648 2.35521C44.7107 6.56046 43.4701 10.6411 42.7345 14.761C42.7269 14.8153 42.7042 14.8664 42.6688 14.9087C42.6333 14.9509 42.5866 14.9827 42.5338 15.0005M45.453 38.195C45.4867 38.224 45.5252 38.2473 45.5667 38.2638C45.5247 38.2453 45.4862 38.2198 45.453 38.1884V38.195ZM64.8273 29.0103C64.8394 29.3508 64.8718 29.6904 64.9243 30.0272C65.0714 30.8899 63.0818 32.9335 61.3832 34.5014C61.235 34.5687 61.0957 34.6536 60.9685 34.754C60.777 34.9106 60.6142 35.098 60.487 35.3084C59.8884 35.8365 59.4103 36.2399 59.1963 36.4171H59.0792L59.3701 31.2114C59.3701 31.1523 59.3701 31.0933 59.3701 31.0342C59.4445 30.4444 59.5778 29.8632 59.7681 29.299C60.0425 28.4259 60.1178 27.5042 59.9888 26.5994C59.9819 26.5452 59.9964 26.4906 60.0294 26.4466C60.0624 26.4027 60.1112 26.3728 60.166 26.3632C62.1957 26.0319 64.3425 27.075 64.8273 29.0136V29.0103ZM60.3666 12.9667C61.1154 13.0532 61.8376 13.2923 62.4866 13.6687C62.5364 13.6954 62.5736 13.7401 62.5903 13.7934L63.2223 15.4532C63.2387 15.491 63.2472 15.5317 63.2472 15.5729C63.2472 15.614 63.2387 15.6548 63.2223 15.6926C62.4666 17.359 61.9483 18.6842 59.7714 18.8318C59.7377 18.8388 59.7028 18.8378 59.6696 18.8289C59.6363 18.8201 59.6057 18.8036 59.5802 18.7808C59.5547 18.7581 59.5351 18.7297 59.523 18.6981C59.5109 18.6665 59.5067 18.6325 59.5106 18.5989C59.4571 16.9653 59.4047 15.3132 59.3534 13.6425L60.3666 12.9667Z" fill="white"/>
<path d="M32.6996 4.59231C31.449 3.19166 29.981 2.62418 28.1787 2.16495C27.5621 2.00838 26.9294 1.92144 26.2927 1.90581C23.1428 1.82708 20.7219 2.10262 19.8458 5.5567C19.3687 7.432 19.1117 9.35468 19.08 11.2873L18.9296 11.5923V17.5623C18.9296 17.5623 18.4547 22.7516 19.5983 27.1603C19.6823 27.4736 19.7862 27.7814 19.9093 28.082C20.13 28.6462 20.4243 29.1546 20.7352 29.8271C21.0696 30.5586 21.5612 30.8112 22.1296 31.3229C22.4754 31.6436 22.9008 31.8698 23.3635 31.9789C25.1582 32.3913 27.0178 32.4549 28.8374 32.1659C33.1042 31.4902 33.7729 28.1017 34.0271 24.4705C34.4347 19.2361 34.4034 13.9777 33.9334 8.74836C33.7462 6.79006 33.7897 5.84208 32.6996 4.59231ZM27.015 6.4358C27.1187 6.92783 27.4397 7.37722 27.5366 7.85942C28.2366 11.3146 28.571 14.0601 28.5398 16.0961C28.5064 18.7202 28.474 21.3444 28.4428 23.9686C28.4618 25.4225 28.0582 26.8516 27.2792 28.0886C27.2481 28.1348 27.2286 28.1877 27.2223 28.2427L27.0518 28.2952C27.0421 28.2569 27.0226 28.2218 26.9951 28.193C26.9676 28.1643 26.933 28.143 26.8946 28.1312C26.6766 28.0785 26.4769 27.9695 26.3164 27.8154C26.1559 27.6614 26.0403 27.468 25.9818 27.2554C25.5298 25.7636 25.2846 24.219 25.2528 22.6631C25.2037 20.4566 25.1569 18.2446 25.1123 16.0272C25.0527 13.1341 25.2114 10.2407 25.5872 7.37066C25.5872 7.2985 25.5872 7.26242 25.537 7.24929L25.624 7.03608C25.6898 6.99351 25.7365 6.92775 25.7544 6.85239L25.8915 6.39972C25.9274 6.27819 26.004 6.17205 26.1088 6.09835C26.2137 6.02465 26.3408 5.98766 26.4696 5.99334C26.5985 5.99902 26.7217 6.04703 26.8194 6.12965C26.9171 6.21228 26.9836 6.32472 27.0083 6.44892L27.015 6.4358ZM24.7445 24.3786C24.766 24.4001 24.778 24.4289 24.778 24.459C24.778 24.489 24.766 24.5179 24.7445 24.5394V24.3786Z" fill="white"/>
</g>
<defs>
<clipPath id="clip0_1_2">
<rect width="107" height="42" fill="white"/>
</clipPath>
</defs>
</svg>
