<?xml version="1.0" encoding="utf-8"?>
<!-- Generator: Adobe Illustrator 27.3.1, SVG Export Plug-In . SVG Version: 6.00 Build 0)  -->
<svg version="1.0" id="Layer_1" xmlns="http://www.w3.org/2000/svg" xmlns:xlink="http://www.w3.org/1999/xlink" x="0px" y="0px"
	 viewBox="0 0 800 800" style="enable-background:new 0 0 800 800;" xml:space="preserve">
<style type="text/css">
	.st0{fill:#FFFFFF;}
</style>
<g>
	<path class="st0" d="M184.31,213.07c-1.43,2.21-2.74,4.78-1.15,7.42c1.37,2.28,3.87,1.98,5.69,1.01
		c18.84-10.06,39.89-11.41,60.27-14.38c24.37-3.55,48.6-7.97,73.55-8.55c16.69-0.38,39.47,9.57,48.77-17.81
		c-1.52,15.3,7.22,16.97,18.22,15.96c19.34-1.78,40.01-3.86,57.92-1.02c29.47,4.68,59.36,0.48,88.53,8.03
		c12.92,3.35,26.75,4.89,40.2,7.09c15.13,2.47,30.43,3.93,46.61,9.24c-6.59-12.16-12.14-25.03-19.93-36.36
		C556.9,116.63,492.32,81.25,411.53,78.2c-79.39-3-145.61,26.98-196.54,88.32C203.19,180.74,194.4,197.46,184.31,213.07z
		 M523.57,157.49c-7.58-3.93-16.55-5.59-24-14.62C512.51,142.86,518.28,149.78,523.57,157.49z"/>
	<path class="st0" d="M305.32,624.89c3.35,3.28,6.92,9.43,11.34,7.31c7.99-3.82,6.46-13.8,9.62-20.89c2.14-4.8-0.19-7.92-4.86-10.01
		c-10.85-4.85-19.66-12.42-27.37-21.37c-1.66-1.93-2.89-5.01-6.13-3.99c-4.19,1.31-2.61,5.18-3.07,8.48
		C288.14,599.48,293.83,613.65,305.32,624.89z"/>
	<path class="st0" d="M385.93,575.99c-9.92-1.51-19.93-2.47-29.89-3.76c-4.85-0.63-7.57,1.21-9.86,5.74
		c-9.95,19.7-7.82,24.4,13.82,28.41c5.2,0.96,10.59,1.18,15.63,2.63c13.92,4.02,20.58-0.03,17.22-18.79
		C391.96,587.49,397.55,577.76,385.93,575.99z"/>
	<path class="st0" d="M330.65,565.89c-9.94-3.69-19.93-7.24-29.78-11.14c-5.93-2.35-9.26-1.38-9.1,5.57
		c2.8,15.1,17.67,19.86,25.91,30.26c2.26,2.85,7.29,6.55,11.19,3.14c5.81-5.08,6.22-13.23,8.2-20.26
		C338.37,568.89,334.25,567.22,330.65,565.89z"/>
	<path class="st0" d="M333.68,613.78c-12.11,19.04-9.33,29.18,11.66,37.31c8.89,3.44,18.17,6.07,27.46,8.21
		c21.03,4.83,22.44,3.49,22.4-19.34c-0.69-5.9,2.71-13.97-1.99-19.24c-5.26-5.9-12.16-5.03-16.77,2.51c-0.66-0.77-1.22-1.66-2-2.29
		c-8.72-7.08-19.89-7.5-29.98-10.83C340.32,608.74,336.71,609.01,333.68,613.78z"/>
	<path class="st0" d="M518.17,612.72c-29.01,39.55-68.98,56.72-116.02,56.86c-47.6,0.14-88.21-16.74-118.79-60.7
		c0.84,32.4,8.85,55.14,38,65.39c-4.46-1.21-8.93-2.42-13.39-3.63c-0.75,1.32-1.51,2.65-2.26,3.97
		c25.02,32.98,58.27,50.23,100.6,48.74c38.43-1.35,67.72-19.52,91.18-49.37c-7.36-6.16-12.23,2.86-19.26-2.12
		C510.64,664.5,517.56,641.03,518.17,612.72z"/>
	<path class="st0" d="M412.18,609.45c8.23-0.28,22.23,1.7,25.3-14.74c1.26,8.09,4.43,12.67,12.92,9.99c4.1-1.29,8.2-2.01,8.44-7.81
		c0.66-15.69-9.47-24.74-25.55-22.57c-4.22,0.57-8.51,1.52-12.7,1.24c-11.87-0.79-17.03,4.42-14.92,16.07
		C406.86,598.12,401.14,609.82,412.18,609.45z"/>
	<path class="st0" d="M644.01,313.64c-0.75-11.92-5.43-17.98-16.08-22.62c-10.69-4.65-12.51,4.81-17.82,10.16
		c-1.91-18.72-4.72-20.4-18.26-11.97c-2.35,1.46-4.04,4.43-4.69-0.92c-1.23-10.21-9.85-8.25-16.09-9.19
		c-35.53-5.33-71.48-4.81-107.16-7.26c-44.74-3.07-89.25-1.49-133.85-1.32c-19.68,0.07-39.79,0.46-58.9,4.52
		c-17.2,3.65-38.81-5.52-51.3,15.12c-0.89,1.46-2.41-2.28-3.76-3.44c-9.65-8.25-19.38-1.69-28.13,1.29
		c-9.61,3.27-2.9,11.07-0.79,16.12c3.97,9.5,0.38,16.19-5.98,23.3c-2.41-6.72,2.48-13.36-1.11-19.17
		c-3.02-4.89-1.22-14.57-10.63-13.34c-7.94,1.04-8.93,8.29-9.02,14.9c-0.24,18.64-1.15,37.22,1.88,55.85
		c7.67,47.19,29.71,87.47,60.94,122.36c11.45,12.8,20.63,31.99,43.07,30.61c-2.19,11.85,11.82,1.21,11.03,7.23
		c-1.15,8.78,5.2,9.81,9.84,12.29c36.44,19.53,75.37,28.43,116.76,28.48C542.5,566.82,652.35,446.86,644.01,313.64z M328.17,478.91
		c11.53-9.02,22.15-18.71,27.54-32.94c-7.03-3.45-8.75,2.1-11.65,4.36c-31.62,24.64-75.53,22.58-106.68-2.09
		c-13.71-10.86-26.1-20.34-27.59-38.97c-1.82-22.71-0.65-44.83,11.3-65.11c21.4-36.32,59.83-49.31,102.49-34.67
		c1.94,0.67,3.97,1.08,6.81,1.83c0.73-6.5-5.56-6.38-5.89-10.47c7.84-3.72,31.84,18.85,39.98,39.66
		C384.53,391.76,380.63,459.7,328.17,478.91z M400.71,512.91c-16.41,0.53-29.4-12.12-29.43-28.67
		c-0.03-15.81,12.41-28.14,28.28-28.04c15.65,0.09,27.2,11.4,27.5,26.93C427.38,499.9,416.32,512.4,400.71,512.91z M478.86,481.68
		c-40.15-17.88-53.69-45.99-51.06-98.99c2.15-43.35,22.73-74,58.24-85.7c-3.26,5.96-11.77,5.25-13.48,13.6
		c47.63-15.99,86.84-7.43,111.28,39.08c14.06,26.76,14.29,80.73-1.97,88.37c-21.32,10.01-37.81,29.79-64.34,30.3
		c-25.77,0.49-47.37-7.88-69.37-26.07C451.48,462.09,464.84,469.6,478.86,481.68z"/>
	<path class="st0" d="M481.96,601.71c-6.22,3.76-11.32,5.08-8.11,13.24c2.49,6.34,2.76,13.61,7.61,18.96
		c1.68,1.85,3.82,1.08,5.86,0.3c15.88-6.09,32.87-42.75,27.61-62.14C505.72,584.79,494.32,594.25,481.96,601.71z"/>
	<path class="st0" d="M503.25,554.8c-11.43,4.19-22.78,8.63-34.37,12.35c-7.55,2.43-6.69,7.39-4.52,12.51
		c2.47,5.82,1.37,14,7.82,16.16c12-0.2,12.11-15.22,24.57-14.16c4.79,0.41,9.81-8.79,12.44-15.37c0.59-1.47,1.02-3.01,1.35-4.56
		C511.85,555.53,510.45,552.16,503.25,554.8z"/>
	<path class="st0" d="M403.73,636.76c0.05,26.81,1.37,28.1,25.51,22.49c11.31-2.63,22.32-6.6,33.41-10.16
		c17.39-5.58,8.35-16.93,5.9-27.01c-2.41-9.9-6.63-14.43-17.89-10.41c-8.33,2.98-17.63,4.1-26.55,4.4
		C408.46,616.62,399.4,621.77,403.73,636.76z"/>
	<path class="st0" d="M747.48,286.62c-14.85-12.37-34.25-13.36-50.42-22.24h-0.07c0.11,0.06,0.21,0.14,0.32,0.2
		c-85.85-17.25-172.78-23.62-260.11-25.76c-74.77-1.83-149.38,0.85-223.76,8.97c-4.03,0.44-10.06-1.15-11.03,8.35
		c78.61-8.34,156.74-13.75,235.23-8.85c-2.31,1.84-4.74,2.76-7.18,2.8c-73.65,1.24-147.26,3.51-220.7,9.54
		c-4.19,0.34-9.8,1.48-12.15-2.12c-5.97-9.13-13.48-6.05-21.32-4.54c-7.82,1.51-15.75,2.5-23.66,3.51
		c-32.45,4.15-64.18,11.33-93.78,25.5c-17.57,8.41-18.17,18.03-3.17,28.83c3.43,2.47,7.41,4.27,11.34,5.91
		c20.26,8.47,41.82,12.5,62.96,17.89c4.03,1.03,9.95,5.47,12.88-0.39c2.73-5.47-5.69-7.03-8.72-12.76
		c12.24,2.31,17.31-2.17,16.56-12.54c-1.09-15.05,7.74-22.13,20.43-26.66c21.75-7.76,44.33-11.79,67.11-14.34
		c102.15-11.44,204.47-12.92,306.77-2.51c30.18,3.07,60.48,6.58,89.3,17.4c11.55,4.33,19.84,11.19,19.5,24.27
		c-0.37,14.17,6.71,17.45,18.98,15.12c1.38-0.26,3.34-0.05,3.06,2.17c-0.64,4.95-10.56,0.67-7.99,10.61
		c17.05-4.17,33.96-8.12,50.76-12.5c10.36-2.7,20.41-6.51,29.07-12.97C759.64,300.6,758.77,296.03,747.48,286.62z M101.76,280.89
		c-8.03,2.71-15.91,5.96-23.58,9.55c-3.67,1.71-8.05,3.93-7.34,9.27c0.59,4.42,4.33,5.2,7.97,6.55c3.88,1.44,7.29,4.17,10.88,6.39
		c0.37,0.23,0.71,0.84,0.68,1.25c-0.02,0.33-0.61,0.63-1.27,1.25c-9.55-3.13-23.25-3-24.01-16.2c-0.69-12,12.17-14.83,21.19-18.55
		c16.06-6.63,32.61-11.91,50.85-10.39C125.32,273.61,113.44,276.95,101.76,280.89z M512.33,253.35c30.81-2.56,60.99,1.04,90.7,9.35
		C572.79,259.58,542.56,256.47,512.33,253.35z M689.46,307.34c11.69-17.19-9.86-11.92-12.26-20.5c8.94,0.47,18.23,2.13,22.1,10.8
		C701.89,303.43,694.81,305.69,689.46,307.34z M724.84,314.27c-0.94-4.86,3.26-5.06,5.28-6.51c9.3-6.66,6.89-11.77-1.76-16.36
		c-13.32-7.05-28.03-9.76-42.39-13.52c-7.41-1.94-14.85-3.78-22.28-5.66c21.88-1.48,42.09,3.88,61.84,11.16
		c7.59,2.8,15.85,6.16,16.07,15.56C741.82,308.97,732.28,310.45,724.84,314.27z"/>
</g>
<g>
</g>
<g>
</g>
<g>
</g>
<g>
</g>
<g>
</g>
<g>
</g>
<g>
</g>
<g>
</g>
<g>
</g>
<g>
</g>
<g>
</g>
<g>
</g>
<g>
</g>
<g>
</g>
<g>
</g>
</svg>
