<?xml version="1.0" encoding="utf-8"?>
<!-- Generator: Adobe Illustrator 28.1.0, SVG Export Plug-In . SVG Version: 6.00 Build 0)  -->
<svg version="1.1" id="Layer_1" xmlns="http://www.w3.org/2000/svg" xmlns:xlink="http://www.w3.org/1999/xlink" x="0px" y="0px"
	 viewBox="0 0 157 35" style="enable-background:new 0 0 157 35;" xml:space="preserve">
<style type="text/css">
	.st0{fill:#FFFFFF;}
	.st1{fill:#CAAE6D;}
</style>
<g>
	<g>
		<path class="st0" d="M8,23.5L6.7,27H6.5l-1.3-3.3L4,27H3.9l-1.3-3.5h0.1l1.3,3.3l1.3-3.3h0.1l1.3,3.3l1.3-3.3H8z"/>
		<path class="st0" d="M11.8,25v2h-0.1v-2c0-0.9-0.5-1.3-1.2-1.3c-0.9,0-1.5,0.6-1.5,1.5V27H8.8v-5H9v2.4c0.2-0.6,0.7-0.9,1.4-0.9
			C11.3,23.5,11.8,24,11.8,25z"/>
		<path class="st0" d="M16.1,25.3H13c0,0.9,0.7,1.6,1.6,1.6c0.5,0,0.9-0.2,1.2-0.5l0.1,0.1c-0.3,0.4-0.8,0.6-1.3,0.6
			c-1,0-1.7-0.7-1.7-1.7c0-1,0.7-1.7,1.6-1.7C15.4,23.5,16.1,24.2,16.1,25.3C16.1,25.2,16.1,25.3,16.1,25.3z M13,25.1H16
			c0-0.9-0.7-1.5-1.5-1.5C13.7,23.6,13.1,24.3,13,25.1z"/>
		<path class="st0" d="M18.7,23.5v0.1h0c-0.8,0-1.3,0.6-1.3,1.5V27h-0.1v-3.5h0.1v0.9C17.5,23.9,18,23.5,18.7,23.5z"/>
		<path class="st0" d="M22.5,25.3h-3.1c0,0.9,0.7,1.6,1.6,1.6c0.5,0,0.9-0.2,1.2-0.5l0.1,0.1C22,26.8,21.5,27,21,27
			c-1,0-1.7-0.7-1.7-1.7c0-1,0.7-1.7,1.6-1.7C21.8,23.5,22.5,24.2,22.5,25.3L22.5,25.3L22.5,25.3z M19.4,25.1h2.9
			c0-0.9-0.7-1.5-1.5-1.5S19.4,24.3,19.4,25.1z"/>
		<path class="st0" d="M30,23.5L28.7,27h-0.1l-1.3-3.3L26,27h-0.1l-1.3-3.5h0.1l1.3,3.3l1.3-3.3h0.1l1.3,3.3l1.3-3.3H30z"/>
		<path class="st0" d="M30.4,25.3c0-1,0.7-1.7,1.7-1.7c1,0,1.7,0.7,1.7,1.7c0,1-0.7,1.7-1.7,1.7C31.1,27,30.4,26.3,30.4,25.3z
			 M33.6,25.3c0-1-0.7-1.6-1.5-1.6c-0.9,0-1.6,0.7-1.6,1.6c0,0.9,0.7,1.6,1.6,1.6C32.9,26.9,33.6,26.2,33.6,25.3z"/>
		<path class="st0" d="M36.3,23.5v0.1h0c-0.8,0-1.3,0.6-1.3,1.5V27h-0.1v-3.5H35v0.9C35.2,23.9,35.6,23.5,36.3,23.5z"/>
		<path class="st0" d="M40.2,22v5h-0.1v-1.1c-0.2,0.7-0.8,1.1-1.6,1.1c-0.9,0-1.7-0.7-1.7-1.7c0-1,0.7-1.7,1.7-1.7
			c0.7,0,1.3,0.4,1.6,1.1V22H40.2z M40.1,25.3c0-1-0.7-1.6-1.6-1.6c-0.9,0-1.5,0.7-1.5,1.6c0,0.9,0.7,1.6,1.5,1.6
			C39.5,26.9,40.1,26.2,40.1,25.3z"/>
		<path class="st0" d="M41.2,26.5l0.1-0.1c0.2,0.2,0.7,0.5,1.3,0.5c0.8,0,1.1-0.3,1.1-0.8c0-1.2-2.4-0.4-2.4-1.7
			c0-0.5,0.4-0.9,1.2-0.9c0.4,0,0.9,0.1,1.1,0.4L43.6,24c-0.3-0.2-0.7-0.3-1.1-0.3c-0.8,0-1.1,0.3-1.1,0.8c0,1.2,2.4,0.4,2.4,1.7
			c0,0.5-0.4,0.9-1.3,0.9C42,27,41.5,26.8,41.2,26.5z"/>
		<path class="st0" d="M46.1,25.3c0-1,0.7-1.7,1.7-1.7c0.5,0,0.9,0.2,1.2,0.6L49,24.2c-0.3-0.4-0.7-0.5-1.2-0.5
			c-0.9,0-1.6,0.7-1.6,1.6c0,1,0.7,1.6,1.6,1.6c0.5,0,0.9-0.2,1.2-0.5l0.1,0.1c-0.3,0.4-0.7,0.6-1.2,0.6
			C46.8,27,46.1,26.3,46.1,25.3z"/>
		<path class="st0" d="M49.7,25.3c0-1,0.7-1.7,1.7-1.7c1,0,1.7,0.7,1.7,1.7c0,1-0.7,1.7-1.7,1.7C50.4,27,49.7,26.3,49.7,25.3z
			 M52.9,25.3c0-1-0.7-1.6-1.5-1.6c-0.9,0-1.6,0.7-1.6,1.6c0,0.9,0.7,1.6,1.6,1.6C52.3,26.9,52.9,26.2,52.9,25.3z"/>
		<path class="st0" d="M57.2,25v2H57v-2c0-0.9-0.5-1.3-1.2-1.3c-0.9,0-1.5,0.6-1.5,1.5V27h-0.1v-3.5h0.1v0.9
			c0.2-0.6,0.7-0.9,1.4-0.9C56.6,23.5,57.2,24,57.2,25z"/>
		<path class="st0" d="M61.6,25v2h-0.1v-2c0-0.9-0.5-1.3-1.2-1.3c-0.9,0-1.5,0.6-1.5,1.5V27h-0.1v-3.5h0.1v0.9
			c0.2-0.6,0.7-0.9,1.4-0.9C61.1,23.5,61.6,24,61.6,25z"/>
		<path class="st0" d="M65.9,25.3h-3.1c0,0.9,0.7,1.6,1.6,1.6c0.5,0,0.9-0.2,1.2-0.5l0.1,0.1c-0.3,0.4-0.8,0.6-1.3,0.6
			c-1,0-1.7-0.7-1.7-1.7c0-1,0.7-1.7,1.6-1.7C65.2,23.5,65.9,24.2,65.9,25.3L65.9,25.3z M62.8,25.1h2.9c-0.1-0.9-0.7-1.5-1.5-1.5
			C63.5,23.6,62.9,24.3,62.8,25.1z"/>
		<path class="st0" d="M66.6,25.3c0-1,0.7-1.7,1.7-1.7c0.5,0,0.9,0.2,1.2,0.6l-0.1,0.1c-0.3-0.4-0.7-0.5-1.1-0.5
			c-0.9,0-1.6,0.7-1.6,1.6c0,1,0.7,1.6,1.6,1.6c0.5,0,0.9-0.2,1.1-0.5l0.1,0.1c-0.3,0.4-0.7,0.6-1.2,0.6
			C67.3,27,66.6,26.3,66.6,25.3z"/>
		<path class="st0" d="M72.3,26.8c-0.2,0.2-0.4,0.2-0.7,0.2c-0.5,0-0.8-0.3-0.8-0.8v-2.5h-0.7v-0.1h0.7v-0.8h0.1v0.8h1.2v0.1h-1.2
			v2.5c0,0.5,0.2,0.8,0.7,0.8C71.8,26.9,72,26.8,72.3,26.8L72.3,26.8z"/>
		<path class="st0" d="M79.7,23.5L78.4,27h-0.1L77,23.7L75.7,27h-0.1l-1.3-3.5h0.1l1.2,3.3l1.3-3.3h0.1l1.3,3.3l1.3-3.3H79.7z"/>
		<path class="st0" d="M80.1,25.3c0-1,0.7-1.7,1.7-1.7c1,0,1.7,0.7,1.7,1.7c0,1-0.7,1.7-1.7,1.7C80.8,27,80.1,26.3,80.1,25.3z
			 M83.3,25.3c0-1-0.7-1.6-1.6-1.6c-0.9,0-1.5,0.7-1.5,1.6c0,0.9,0.7,1.6,1.5,1.6C82.6,26.9,83.3,26.2,83.3,25.3z"/>
		<path class="st0" d="M86,23.5v0.1h0c-0.8,0-1.3,0.6-1.3,1.5V27h-0.1v-3.5h0.1v0.9C84.9,23.9,85.3,23.5,86,23.5z"/>
		<path class="st0" d="M87,22h0.1v5H87V22z"/>
		<path class="st0" d="M91.7,22v5h-0.1v-1.1C91.3,26.6,90.7,27,90,27c-0.9,0-1.7-0.7-1.7-1.7c0-1,0.7-1.7,1.7-1.7
			c0.7,0,1.3,0.4,1.6,1.1V22H91.7z M91.5,25.3c0-1-0.7-1.6-1.6-1.6c-0.9,0-1.5,0.7-1.5,1.6c0,0.9,0.7,1.6,1.5,1.6
			C90.9,26.9,91.5,26.2,91.5,25.3z"/>
		<path class="st0" d="M92.5,26.5l0.1-0.1c0.3,0.2,0.7,0.5,1.3,0.5c0.8,0,1.2-0.3,1.2-0.8c0-1.2-2.4-0.4-2.4-1.7
			c0-0.5,0.4-0.9,1.2-0.9c0.4,0,0.9,0.1,1.1,0.4L94.9,24c-0.3-0.2-0.7-0.3-1.1-0.3c-0.8,0-1.1,0.3-1.1,0.8c0,1.2,2.4,0.4,2.4,1.7
			c0,0.5-0.4,0.9-1.3,0.9C93.3,27,92.8,26.8,92.5,26.5z"/>
	</g>
	<g>
		<polygon class="st1" points="83.3,7.3 83.7,7.8 83.7,5.3 81.7,5.3 81.7,7.3 81.8,7.3 		"/>
		<rect x="81.7" y="8.4" class="st1" width="2" height="11.4"/>
		<path class="st1" d="M86.5,14.1L86.5,14.1L86.5,14.1c0-2,1.7-3.7,3.7-3.7c2,0,3.7,1.7,3.7,3.7l0,0h0v5.7h2v-5.7
			c0-3.2-2.6-5.7-5.7-5.7s-5.7,2.6-5.7,5.7v5.7h2L86.5,14.1L86.5,14.1z"/>
		<path class="st0" d="M1.8,14.1c0,3.2,2.6,5.7,5.7,5.7h3.8v-2H7.5v0l0,0c-2,0-3.7-1.7-3.7-3.7s1.7-3.7,3.7-3.7l0,0v0h3.8v-2H7.5
			C4.4,8.4,1.8,11,1.8,14.1z"/>
		<path class="st0" d="M54.5,14.1c0,3.2,2.6,5.7,5.7,5.7h3.8v-2h-3.8v0l0,0c-2,0-3.7-1.7-3.7-3.7s1.7-3.7,3.7-3.7l0,0v0h3.8v-2h-3.8
			C57.1,8.4,54.5,11,54.5,14.1z"/>
		<path class="st0" d="M64.8,14.1c0,3.2,2.6,5.7,5.7,5.7h3.8v-2h-3.8v0l0,0c-2,0-3.7-1.7-3.7-3.7s1.7-3.7,3.7-3.7l0,0v0h3.8v-2h-3.8
			C67.3,8.4,64.8,11,64.8,14.1z"/>
		<path class="st0" d="M35.7,8.4c-3.2,0-5.7,2.6-5.7,5.7v5.7h2v-5.7h0l0,0c0-2,1.7-3.7,3.7-3.7c2,0,3.7,1.7,3.7,3.7l0,0h0v5.7h2
			v-5.7C41.4,11,38.8,8.4,35.7,8.4z"/>
		<path class="st0" d="M47.9,8.4c-3.2,0-5.7,2.6-5.7,5.7v5.7h2v-5.7h0l0,0c0-2,1.7-3.7,3.7-3.7c2,0,3.7,1.7,3.7,3.7l0,0h0v5.7h2
			v-5.7C53.6,11,51,8.4,47.9,8.4z"/>
		<rect x="59.3" y="13.1" class="st0" width="4.8" height="2"/>
		<polygon class="st0" points="80,10.4 80,8.4 78.8,8.4 78.8,5.3 76.8,5.3 76.8,8.4 74.7,8.4 74.7,10.4 76.8,10.4 76.8,19.8 
			78.8,19.8 78.8,10.4 		"/>
		<path class="st0" d="M23.4,8.4h-5.7c-1.7,0-3.2,0.7-4.2,1.8c-0.9,1-1.5,2.4-1.5,3.9s0.6,2.9,1.5,3.9c1,1.1,2.5,1.8,4.2,1.8h5.7
			c1.7,0,3.2-0.7,4.2-1.8c0.9-1,1.5-2.4,1.5-3.9s-0.6-2.9-1.5-3.9C26.6,9.1,25.1,8.4,23.4,8.4z M23.8,17.8l-1.1,1.4l0.3-1.4h-5.3v0
			l0,0c-2,0-3.7-1.7-3.7-3.7c0-2,1.6-3.7,3.7-3.7l0,0v0h5.7v0l0,0c2,0,3.7,1.7,3.7,3.7C27.1,16,25.7,17.6,23.8,17.8z"/>
	</g>
</g>
</svg>
