<?xml version="1.0" encoding="utf-8"?>
<!-- Generator: Adobe Illustrator 28.1.0, SVG Export Plug-In . SVG Version: 6.00 Build 0)  -->
<svg version="1.1" id="Layer_1" xmlns="http://www.w3.org/2000/svg" xmlns:xlink="http://www.w3.org/1999/xlink" x="0px" y="0px"
	 viewBox="0 0 157 35" style="enable-background:new 0 0 157 35;" xml:space="preserve">
<style type="text/css">
	.st0{fill-rule:evenodd;clip-rule:evenodd;fill:#FFFFFF;}
</style>
<g>
	<path class="st0" d="M25.1,22.1l0-7.8c0-0.2,0.2-0.4,0.4-0.4h2.1c0.2,0,0.3-0.2,0.3-0.3v-2.2c0-0.2-0.2-0.3-0.3-0.3h-2.1
		c-0.2,0-0.4-0.2-0.4-0.4V7.4C25.1,7.2,25,7,24.8,7h-2.2c-0.2,0-0.3,0.2-0.3,0.3v15.3c0,1.4,1.1,2.5,2.5,2.5h2.9
		c0.2,0,0.3-0.2,0.3-0.3v-2.2c0-0.2-0.2-0.3-0.3-0.3h-2.3C25.2,22.3,25.1,22.2,25.1,22.1"/>
	<path class="st0" d="M34.7,14.8c0-0.1,0-0.1,0-0.2c0-0.4,0.4-0.8,0.8-0.8h7.2c0.1,0,0.2-0.1,0.2-0.2v-2.6c0-0.1-0.1-0.2-0.2-0.2
		h-7.3c-1.3,0-2.6,0.8-3.2,2c-0.2,0.3-0.3,0.6-0.3,0.9c-0.1,0.4-0.1,0.7-0.1,1.1c0.1,0.9,0.4,1.6,1,2.2c0.3,0.3,0.7,0.6,1.1,0.8
		l6.2,2.8c0.2,0.1,0.4,0.3,0.4,0.5c0,0.1,0,0.2,0,0.3c-0.1,0.3-0.4,0.6-0.8,0.6h-7.3c-0.1,0-0.2,0.1-0.2,0.2V25
		c0,0.1,0.1,0.2,0.2,0.2h7.3c1.3,0,2.6-0.8,3.2-2c0.2-0.3,0.3-0.6,0.3-0.9c0.1-0.4,0.1-0.7,0.1-1.1c-0.1-0.9-0.4-1.6-1.1-2.2
		c-0.3-0.3-0.7-0.6-1.1-0.8l-6.2-2.8C34.9,15.3,34.7,15.1,34.7,14.8"/>
	<path class="st0" d="M98.2,7.2c-0.1,0-0.1,0.1-0.1,0.1V24c0,0.8,0.7,1.4,1.4,1.4s1.4-0.7,1.4-1.4V8.6c0-0.8-0.7-1.4-1.4-1.4H98.2z"
		/>
	<path class="st0" d="M1.9,6.9C1.8,6.9,1.7,7,1.7,7.1v16.6c0,0.8,0.7,1.4,1.4,1.4s1.4-0.7,1.4-1.4V8.4c0-0.8-0.7-1.4-1.4-1.4H1.9z"
		/>
	<path class="st0" d="M56.7,10.8c-3.7,0.5-6.4,3.6-6.4,7.3s2.7,6.8,6.4,7.3c0.3,0,0.6,0.1,0.9,0.1c0.3,0,0.6,0,0.9-0.1
		c3.7-0.5,6.4-3.6,6.4-7.3V7.4c0-0.3-0.2-0.5-0.5-0.5h-1.9c-0.3,0-0.5,0.2-0.5,0.5v10.7c0,2.2-1.6,4-3.7,4.3c-0.2,0-0.5,0.1-0.7,0.1
		c-0.2,0-0.5,0-0.7-0.1l-0.1,0c-2.1-0.4-3.6-2.2-3.6-4.3c0-2.2,1.6-4,3.7-4.3c0.2,0,0.5-0.1,0.7-0.1c0.2,0,0.5,0,0.7,0.1l0.1,0
		c0.7,0.1,1.3,0.4,1.9,0.8c0,0,0.1,0,0.2,0c0.1,0,0.1-0.1,0.1-0.1v-2.7c0-0.2-0.1-0.4-0.3-0.5c-0.5-0.2-1.1-0.3-1.7-0.4
		c-0.3,0-0.6-0.1-0.9-0.1C57.3,10.8,57,10.8,56.7,10.8"/>
	<path class="st0" d="M88.3,10.8c-3.7,0.5-6.4,3.6-6.4,7.3s2.7,6.8,6.4,7.3c0.3,0,0.6,0.1,0.9,0.1c0.3,0,0.6,0,0.9-0.1
		c0.3,0,0.6-0.1,0.9-0.2c0.6-0.2,1.1-0.7,1.1-1.4v-2c0-0.1,0-0.1-0.1-0.1c-0.1,0-0.1,0-0.2,0c-0.6,0.4-1.2,0.7-1.9,0.8
		c-0.2,0-0.5,0.1-0.7,0.1c-0.2,0-0.5,0-0.7-0.1l-0.1,0c-2.1-0.4-3.6-2.2-3.6-4.3c0-2.2,1.6-4,3.7-4.3c0.2,0,0.5-0.1,0.7-0.1
		c0.2,0,0.5,0,0.7,0.1l0.1,0c2.1,0.4,3.6,2.2,3.6,4.3l0,5.6c0,0.8,0.7,1.4,1.4,1.4c0.8,0,1.4-0.7,1.4-1.4v-5.6
		c0-3.7-2.7-6.8-6.4-7.3c-0.3,0-0.6-0.1-0.9-0.1C88.9,10.8,88.6,10.8,88.3,10.8"/>
	<path class="st0" d="M16.4,21.2c-0.5,0.5-1.1,0.8-1.7,1.1c0,0,0,0,0,0c-0.4,0.1-0.9,0.2-1.4,0.2c-1,0-2-0.4-2.7-1
		c-0.6-0.5-1-1.1-1.3-1.8c0,0,0,0,0,0c-0.2-0.5-0.3-1.1-0.3-1.7c0-0.6,0.1-1.2,0.3-1.7c0,0,0,0,0,0c0.3-0.7,0.7-1.3,1.3-1.8
		c0,0,0,0,0,0c0.8-0.6,1.7-1,2.8-1c1,0,2,0.4,2.8,1c0.6,0.5,1,1.1,1.3,1.8c0,0,0,0,0,0c0,0.1,0.1,0.1,0.1,0.2h-3.5h-3.3h0h-0.2
		c-0.2,0.5-0.2,0.9-0.2,1.4c0,0.5,0.1,1,0.2,1.4h0.2h0h1.7h5.1h0.5h2.4c0.1,0,0.1-0.1,0.1-0.1l0.1-0.4c0-0.3,0.1-0.6,0.1-0.9
		c0-0.3,0-0.6-0.1-0.9c-0.5-3.7-3.6-6.4-7.3-6.4c-3.7,0-6.8,2.7-7.3,6.4C6,17.4,6,17.7,6,18.1C6,18.4,6,18.7,6,19
		c0.5,3.7,3.6,6.4,7.3,6.4c1.9,0,3.8-0.8,5.2-2.1l0.3-0.3c0.1-0.1,0.1-0.2,0-0.2l-1.8-1.8c-0.1-0.1-0.2-0.1-0.2,0L16.4,21.2z"/>
	<path class="st0" d="M76.7,21.2c-0.5,0.5-1.1,0.8-1.7,1.1c0,0,0,0,0,0c-0.4,0.1-0.9,0.2-1.4,0.2c-1,0-2-0.4-2.7-1
		c-0.6-0.5-1-1.1-1.3-1.8c0,0,0,0,0,0c-0.2-0.5-0.3-1.1-0.3-1.7s0.1-1.2,0.3-1.7c0,0,0,0,0,0c0.3-0.7,0.7-1.3,1.3-1.8c0,0,0,0,0,0
		c0.8-0.6,1.7-1,2.8-1c1,0,2,0.4,2.8,1c0.6,0.5,1,1.1,1.3,1.8c0,0,0,0,0,0c0,0.1,0.1,0.1,0.1,0.2h-3.5h-3.3h0h-0.2
		c-0.2,0.5-0.2,0.9-0.2,1.4c0,0.5,0.1,1,0.2,1.4h0.2h0h1.7h5.1h0.5h2.4c0.1,0,0.1-0.1,0.1-0.1l0.1-0.4c0-0.3,0.1-0.6,0.1-0.9
		c0-0.3,0-0.6-0.1-0.9c-0.5-3.7-3.6-6.4-7.3-6.4c-3.7,0-6.8,2.7-7.3,6.4c0,0.3-0.1,0.6-0.1,0.9c0,0.3,0,0.6,0.1,0.9
		c0.5,3.7,3.6,6.4,7.3,6.4c1.9,0,3.8-0.8,5.2-2.1l0.3-0.3c0.1-0.1,0.1-0.2,0-0.2l-1.8-1.8c-0.1-0.1-0.2-0.1-0.2,0L76.7,21.2z"/>
	<path class="st0" d="M30.7,8.1c-1,0-1.8,0.8-1.8,1.8s0.8,1.8,1.8,1.8c1,0,1.8-0.8,1.8-1.8C32.5,8.9,31.7,8.1,30.7,8.1"/>
</g>
</svg>
