<svg width="125" height="89" viewBox="0 0 125 89" fill="none" xmlns="http://www.w3.org/2000/svg">
<path d="M56.7303 20H53.1359V26.7666H56.7303V20Z" fill="#E5E5E4"/>
<path d="M62.8914 20H59.297V26.7666H62.8914V20Z" fill="#E5E5E4"/>
<path d="M77.4908 45.6014C74.3583 45.5928 71.2276 45.5842 68.0915 45.5737C68.3631 46.9696 67.7958 48.3915 66.6161 49.2597C65.6648 49.9568 64.435 50.2076 63.2726 49.9706C63.2554 49.9706 63.2397 49.9673 63.2242 49.9654V57.8772C63.2346 57.8772 63.2449 57.8736 63.2571 57.8736C63.2657 57.8736 63.2726 57.8755 63.2812 57.8755C64.4558 57.8789 65.9467 57.8027 67.6402 57.5139C69.9718 57.1161 72.5905 56.6663 74.5174 55.1442C78.2831 52.1622 77.6067 46.4629 77.4908 45.5997V45.6014Z" fill="#E5E5E4"/>
<path d="M44.3713 37.0167C44.4613 37.8885 45.1341 38.6496 46.0924 38.9574H52.8139V45.3107C51.6915 45.3452 50.2021 45.354 48.4638 45.2605C43.036 44.9664 40.2564 44.816 37.8192 43.0257C35.7435 41.5053 34.1591 38.9782 34.128 36.1606C34.0969 33.4259 35.5412 31.5059 35.9494 30.9784C39.0663 26.955 44.6879 26.7873 45.378 26.7769C47.8566 26.7682 50.3371 26.7596 52.8139 26.7527V34.6488H46.0924C44.9698 35.0206 44.2675 36.0048 44.3713 37.0167Z" fill="#E5E5E4"/>
<path d="M63.2242 38.8855L80.8706 38.9528L77.5738 44.8962H63.2242V38.8855Z" fill="#E5E5E4"/>
<path d="M53.1127 26.7858H53.085V26.7876H53.1127V26.7858Z" fill="#E5E5E4"/>
<path d="M62.8967 57.9202L53.1359 67.5097V26.7527H62.8967V57.9202Z" fill="#E5E5E4"/>
<path d="M84.6176 28.2279H83.4465V29.3989H84.6176V28.2279Z" fill="#E5E5E4"/>
<path d="M82.3734 30.5536H81.2024V31.7246H82.3734V30.5536Z" fill="#E5E5E4"/>
<path d="M84.133 29.8523H82.962V31.0233H84.133V29.8523Z" fill="#E5E5E4"/>
<path d="M83.4445 27.0574H82.2735V28.2284H83.4445V27.0574Z" fill="#E5E5E4"/>
<path d="M82.3734 35.2202H81.2024V36.3913H82.3734V35.2202Z" fill="#E5E5E4"/>
<path d="M83.5465 31.7114H82.3755V32.8824H83.5465V31.7114Z" fill="#E5E5E4"/>
<path d="M83.5465 34.0523H82.3755V35.2234H83.5465V34.0523Z" fill="#E5E5E4"/>
<path d="M78.9339 27.009H76.5868V28.2059H78.9339V27.009Z" fill="#E5E5E4"/>
<path d="M83.4445 24.7183H82.2735V25.8893H83.4445V24.7183Z" fill="#E5E5E4"/>
<path d="M82.3734 32.8806H81.2024V34.0516H82.3734V32.8806Z" fill="#E5E5E4"/>
<path d="M82.2715 25.8882H81.1004V27.0575H82.2715V25.8882Z" fill="#E5E5E4"/>
<path d="M81.0984 27.0574H79.9274V28.2284H81.0984V27.0574Z" fill="#E5E5E4"/>
<path d="M80.1114 34.1901H81.1094V34.7297H63.2242V26.5984H79.9159V27.0308H78.942V28.2018H77.771V27.0308H76.6018V28.2018H77.771V29.3711H78.942V30.5421H80.1114V31.7114H78.942V32.8824H80.1114V34.1901Z" fill="#E5E5E4"/>
<path d="M34 57.944L52.8139 57.8749V49.9701H40.8254L34 57.944Z" fill="#E5E5E4"/>
<path d="M81.2004 31.7114H80.0294V32.8824H81.2004V31.7114Z" fill="#E5E5E4"/>
<path d="M81.2769 29.3704H80.1059V30.5414H81.2769V29.3704Z" fill="#E5E5E4"/>
<path d="M85 30.5077H83.8291V31.6787H85V30.5077Z" fill="#E5E5E4"/>
</svg>
