<svg width="125" height="89" viewBox="0 0 125 89" fill="none" xmlns="http://www.w3.org/2000/svg">
<g clip-path="url(#clip0_1_98)">
<path d="M18.4178 48.637L16.967 52.4005H16.8344L15.4538 48.8398L14.0732 52.4005H13.9445L12.4976 48.637H12.6419L14.003 52.225L15.3836 48.637H15.5201L16.8968 52.225L18.2618 48.637H18.4178Z" fill="#E5E2E1"/>
<path d="M22.5674 50.1814V52.4005H22.4231V50.1814C22.4231 49.2454 21.9161 48.7579 21.0776 48.7579C20.0909 48.7579 19.4825 49.3975 19.4825 50.353V52.3966H19.3382V46.999H19.4825V49.6393C19.7126 49.0114 20.2586 48.6136 21.0581 48.6136C21.9902 48.6175 22.5674 49.1596 22.5674 50.1814Z" fill="#E5E2E1"/>
<path d="M27.2357 50.5168H23.8895C23.8895 51.5503 24.6305 52.2874 25.625 52.2874C26.1281 52.2874 26.6117 52.0924 26.9042 51.7024L27.0017 51.8038C26.6819 52.2094 26.171 52.42 25.625 52.42C24.5447 52.42 23.7491 51.6283 23.7491 50.5168C23.7491 49.3975 24.4979 48.6175 25.4885 48.6175C26.4752 48.6175 27.2357 49.3897 27.2357 50.4778V50.5168ZM23.8895 50.3764H27.0914C27.0407 49.4443 26.3777 48.7579 25.4885 48.7579C24.6032 48.7579 23.9402 49.4404 23.8895 50.3764Z" fill="#E5E2E1"/>
<path d="M30.0866 48.6175V48.7657H30.0359C29.135 48.7657 28.6046 49.3819 28.6046 50.3764V52.4005H28.4525V48.637H28.6046V49.612C28.8113 48.9802 29.3222 48.6175 30.0866 48.6175Z" fill="#E5E2E1"/>
<path d="M34.1738 50.5168H30.8393C30.8393 51.5503 31.5725 52.2874 32.5709 52.2874C33.0701 52.2874 33.5498 52.0924 33.8579 51.7024L33.9593 51.8038C33.6161 52.2094 33.1052 52.42 32.5709 52.42C31.4906 52.42 30.695 51.6283 30.695 50.5168C30.695 49.3975 31.436 48.6175 32.4344 48.6175C33.4211 48.6175 34.1777 49.3897 34.1777 50.4778V50.5168H34.1738ZM30.8393 50.3764H34.0412C33.9905 49.4443 33.3197 48.7579 32.4344 48.7579C31.5491 48.7579 30.8783 49.4404 30.8393 50.3764Z" fill="#E5E2E1"/>
<path d="M42.3911 48.637L40.9442 52.4005H40.8155L39.431 48.8398L38.0504 52.4005H37.9217L36.4865 48.637H36.6191L37.9841 52.225L39.3608 48.637H39.4973L40.8779 52.225L42.239 48.637H42.3911Z" fill="#E5E2E1"/>
<path d="M42.7655 50.5168C42.7655 49.3975 43.5416 48.6175 44.5907 48.6175C45.6281 48.6175 46.412 49.4014 46.412 50.5168C46.412 51.6283 45.6281 52.42 44.5907 52.42C43.5416 52.42 42.7655 51.6283 42.7655 50.5168ZM46.2677 50.5168C46.2677 49.4794 45.5423 48.7579 44.5907 48.7579C43.6274 48.7579 42.902 49.4794 42.902 50.5168C42.902 51.5503 43.6235 52.2874 44.5907 52.2874C45.5423 52.2835 46.2677 51.5503 46.2677 50.5168Z" fill="#E5E2E1"/>
<path d="M49.259 48.6175V48.7657H49.2161C48.3191 48.7657 47.7848 49.3819 47.7848 50.3764V52.4005H47.6405V48.637H47.7848V49.612C47.9954 48.9802 48.5063 48.6175 49.259 48.6175Z" fill="#E5E2E1"/>
<path d="M53.5178 46.999V52.3966H53.3813V51.25C53.1239 51.9637 52.4765 52.42 51.6926 52.42C50.663 52.42 49.8713 51.6283 49.8713 50.5168C49.8713 49.3975 50.663 48.6175 51.6926 48.6175C52.4765 48.6175 53.1239 49.0738 53.3813 49.7797V46.999H53.5178ZM53.3813 50.5168C53.3813 49.4794 52.6559 48.7579 51.6926 48.7579C50.741 48.7579 50.0156 49.4794 50.0156 50.5168C50.0156 51.5503 50.741 52.2874 51.6926 52.2874C52.6559 52.2835 53.3813 51.5503 53.3813 50.5168Z" fill="#E5E2E1"/>
<path d="M54.5864 51.9052L54.6761 51.7843C54.9452 52.0495 55.46 52.2835 56.0567 52.2835C56.9576 52.2835 57.3047 51.9364 57.3047 51.4411C57.3047 50.1814 54.7307 51.0394 54.7307 49.5808C54.7307 49.0777 55.1324 48.6136 56.0606 48.6136C56.5286 48.6136 57.0239 48.7696 57.3047 48.9958L57.2189 49.1167C56.9225 48.871 56.4779 48.754 56.0606 48.754C55.2377 48.754 54.8789 49.1167 54.8789 49.5769C54.8789 50.8717 57.449 50.0254 57.449 51.4372C57.449 52.0066 56.9927 52.4122 56.0528 52.4122C55.4444 52.42 54.8711 52.2016 54.5864 51.9052Z" fill="#E5E2E1"/>
<path d="M59.9333 50.5168C59.9333 49.3975 60.7055 48.6175 61.7819 48.6175C62.3162 48.6175 62.8154 48.8203 63.1274 49.2259L63.0338 49.339C62.7374 48.9451 62.285 48.7579 61.7819 48.7579C60.7952 48.7579 60.0776 49.4794 60.0776 50.5168C60.0776 51.562 60.7952 52.2874 61.7819 52.2874C62.285 52.2874 62.7335 52.0924 63.0338 51.7024L63.1274 51.8077C62.8154 52.2211 62.3162 52.42 61.7819 52.42C60.7055 52.42 59.9333 51.6361 59.9333 50.5168Z" fill="#E5E2E1"/>
<path d="M63.8255 50.5168C63.8255 49.3975 64.6016 48.6175 65.6468 48.6175C66.692 48.6175 67.4681 49.4014 67.4681 50.5168C67.4681 51.6283 66.692 52.42 65.6468 52.42C64.6016 52.42 63.8255 51.6283 63.8255 50.5168ZM67.3277 50.5168C67.3277 49.4794 66.6023 48.7579 65.6468 48.7579C64.6913 48.7579 63.9581 49.4794 63.9581 50.5168C63.9581 51.5503 64.6913 52.2874 65.6468 52.2874C66.6023 52.2835 67.3277 51.5503 67.3277 50.5168Z" fill="#E5E2E1"/>
<path d="M71.9258 50.1814V52.4005H71.7854V50.1814C71.7854 49.2454 71.294 48.7579 70.4321 48.7579C69.4415 48.7579 68.8526 49.3975 68.8526 50.353V52.3966H68.7005V48.637H68.8526V49.6432C69.071 49.0153 69.6209 48.6175 70.4243 48.6175C71.3486 48.6175 71.9258 49.1596 71.9258 50.1814Z" fill="#E5E2E1"/>
<path d="M76.793 50.1814V52.4005H76.637V50.1814C76.637 49.2454 76.1339 48.7579 75.2876 48.7579C74.2931 48.7579 73.7042 49.3975 73.7042 50.353V52.3966H73.5521V48.637H73.7042V49.6432C73.9265 49.0153 74.4803 48.6175 75.2681 48.6175C76.2119 48.6175 76.793 49.1596 76.793 50.1814Z" fill="#E5E2E1"/>
<path d="M81.4496 50.5168H78.1034C78.1034 51.5503 78.8444 52.2874 79.8389 52.2874C80.342 52.2874 80.8256 52.0924 81.1181 51.7024L81.2195 51.8038C80.888 52.2094 80.3849 52.42 79.8389 52.42C78.7586 52.42 77.963 51.6283 77.963 50.5168C77.963 49.3975 78.7079 48.6175 79.7024 48.6175C80.693 48.6175 81.4496 49.3897 81.4496 50.4778V50.5168ZM78.1034 50.3764H81.3131C81.2546 49.4443 80.5916 48.7579 79.7024 48.7579C78.8171 48.7579 78.1541 49.4404 78.1034 50.3764Z" fill="#E5E2E1"/>
<path d="M82.2335 50.5168C82.2335 49.3975 83.0057 48.6175 84.0821 48.6175C84.6203 48.6175 85.1117 48.8203 85.4276 49.2259L85.3301 49.339C85.0415 48.9451 84.5891 48.7579 84.0821 48.7579C83.0954 48.7579 82.3778 49.4794 82.3778 50.5168C82.3778 51.562 83.0915 52.2874 84.0821 52.2874C84.5852 52.2874 85.0376 52.0924 85.3301 51.7024L85.4276 51.8077C85.1117 52.2211 84.6203 52.42 84.0821 52.42C83.0096 52.42 82.2335 51.6361 82.2335 50.5168Z" fill="#E5E2E1"/>
<path d="M88.376 52.1509C88.2083 52.3342 87.9197 52.42 87.6428 52.42C87.05 52.42 86.7341 52.0495 86.7341 51.4957V48.7774H86.0087V48.637H86.7341V47.818H86.8784V48.637H88.1576V48.7774H86.8784V51.4606C86.8784 51.9949 87.1436 52.2835 87.6545 52.2835C87.8924 52.2835 88.1186 52.1977 88.2746 52.0495L88.376 52.1509Z" fill="#E5E2E1"/>
<path d="M96.4802 48.637L95.0372 52.4005H94.9085L93.5279 48.8398L92.1317 52.4005H92.0108L90.5639 48.637H90.7043L92.0615 52.225L93.4499 48.637H93.5825L94.9631 52.225L96.3281 48.637H96.4802Z" fill="#E5E2E1"/>
<path d="M96.8546 50.5168C96.8546 49.3975 97.6385 48.6175 98.6759 48.6175C99.725 48.6175 100.497 49.4014 100.497 50.5168C100.497 51.6283 99.725 52.42 98.6759 52.42C97.6385 52.42 96.8546 51.6283 96.8546 50.5168ZM100.365 50.5168C100.365 49.4794 99.6392 48.7579 98.6759 48.7579C97.7243 48.7579 96.995 49.4794 96.995 50.5168C96.995 51.5503 97.7204 52.2874 98.6759 52.2874C99.6392 52.2835 100.365 51.5503 100.365 50.5168Z" fill="#E5E2E1"/>
<path d="M103.352 48.6175V48.7657H103.309C102.408 48.7657 101.878 49.3819 101.878 50.3764V52.4005H101.73V48.637H101.878V49.612C102.084 48.9802 102.599 48.6175 103.352 48.6175Z" fill="#E5E2E1"/>
<path d="M104.436 46.999H104.588V52.3966H104.436V46.999Z" fill="#E5E2E1"/>
<path d="M109.471 46.999V52.3966H109.327V51.25C109.069 51.9637 108.422 52.42 107.638 52.42C106.608 52.42 105.817 51.6283 105.817 50.5168C105.817 49.3975 106.608 48.6175 107.638 48.6175C108.422 48.6175 109.069 49.0738 109.327 49.7797V46.999H109.471ZM109.327 50.5168C109.327 49.4794 108.605 48.7579 107.638 48.7579C106.683 48.7579 105.973 49.4794 105.973 50.5168C105.973 51.5503 106.686 52.2874 107.638 52.2874C108.605 52.2835 109.327 51.5503 109.327 50.5168Z" fill="#E5E2E1"/>
<path d="M110.415 51.8935L110.501 51.7726C110.774 52.0378 111.285 52.2718 111.881 52.2718C112.786 52.2718 113.137 51.9247 113.137 51.4333C113.137 50.1697 110.563 51.0316 110.563 49.5691C110.563 49.0699 110.965 48.6058 111.893 48.6058C112.361 48.6058 112.856 48.7579 113.137 48.988L113.047 49.1089C112.751 48.8632 112.306 48.7462 111.893 48.7462C111.066 48.7462 110.707 49.1089 110.707 49.573C110.707 50.8717 113.281 50.0215 113.281 51.4372C113.281 52.0027 112.821 52.4122 111.885 52.4122C111.269 52.4122 110.696 52.1899 110.415 51.8935Z" fill="#E5E2E1"/>
<path d="M100.337 30.9661L100.856 31.5511V28.7899H98.6603V30.9661H98.7149H100.337Z" fill="#E5E5E4"/>
<path d="M100.856 32.1634H98.6603V44.6044H100.856V32.1634Z" fill="#E5E5E4"/>
<path d="M103.851 38.3839H103.859C103.859 36.1687 105.657 34.3708 107.876 34.3708C110.091 34.3708 111.889 36.1687 111.889 38.3839H111.897V44.6044H114.096V38.3839C114.096 34.948 111.312 32.1634 107.876 32.1634C104.44 32.1634 101.655 34.948 101.655 38.3839V44.6044H103.855V38.3839H103.851Z" fill="#E5E5E4"/>
<path d="M11.6825 38.3839C11.6825 41.8198 14.4671 44.6044 17.903 44.6044H22.0838V42.4048H17.903V42.4009C15.6878 42.4009 13.8899 40.5991 13.8899 38.3839C13.8899 36.1687 15.6878 34.3708 17.903 34.3708V34.363H22.0838V32.1673H17.903C14.4671 32.1634 11.6825 34.948 11.6825 38.3839Z" fill="#E5E2E1"/>
<path d="M69.0671 38.3839C69.0671 41.8198 71.8517 44.6044 75.2876 44.6044H79.4684V42.4048H75.2876V42.4009C73.0685 42.4009 71.2745 40.5991 71.2745 38.3839C71.2745 36.1687 73.0724 34.3708 75.2876 34.3708V34.363H79.4684V32.1673H75.2876C71.8517 32.1634 69.0671 34.948 69.0671 38.3839Z" fill="#E5E2E1"/>
<path d="M80.2289 38.3839C80.2289 41.8198 83.0135 44.6044 86.4494 44.6044H90.6302V42.4048H86.4494V42.4009C84.2342 42.4009 82.4363 40.5991 82.4363 38.3839C82.4363 36.1687 84.2342 34.3708 86.4494 34.3708V34.363H90.6302V32.1673H86.4494C83.0135 32.1634 80.2289 34.948 80.2289 38.3839Z" fill="#E5E2E1"/>
<path d="M48.5375 32.1634C45.1016 32.1634 42.317 34.948 42.317 38.3839V44.6044H44.5127V38.3839H44.5205C44.5205 36.1687 46.3184 34.3708 48.5375 34.3708C50.7527 34.3708 52.5506 36.1687 52.5506 38.3839H52.5584V44.6044H54.7541V38.3839C54.758 34.948 51.9734 32.1634 48.5375 32.1634Z" fill="#E5E2E1"/>
<path d="M61.8365 32.1634C58.4006 32.1634 55.616 34.948 55.616 38.3839V44.6044H57.8117V38.3839H57.8195C57.8195 36.1687 59.6174 34.3708 61.8365 34.3708C64.0517 34.3708 65.8457 36.1687 65.8457 38.3839H65.8574V44.6044H68.0531V38.3839C68.057 34.948 65.2724 32.1634 61.8365 32.1634Z" fill="#E5E2E1"/>
<path d="M79.4645 37.2841H74.2658V39.4798H79.4645V37.2841Z" fill="#E5E2E1"/>
<path d="M96.8078 34.3591V32.1634H95.5013V28.7899H93.2978V32.1634H91.028V34.363H93.2978V44.6044H95.5013V34.3591H96.8078Z" fill="#E5E2E1"/>
<path d="M35.2385 32.1634H29.0375C27.2318 32.1634 25.6055 32.9395 24.4706 34.1719C23.4488 35.2795 22.8209 36.7576 22.8209 38.3839C22.8209 40.0102 23.4488 41.4883 24.4706 42.5959C25.6094 43.8283 27.2318 44.6044 29.0375 44.6044H35.2385C37.0481 44.6044 38.6705 43.8283 39.8054 42.5959C40.8272 41.4883 41.459 40.0102 41.459 38.3839C41.459 36.7576 40.8272 35.2795 39.8054 34.1719C38.6744 32.9395 37.0481 32.1634 35.2385 32.1634ZM35.5778 42.3814L34.4 43.9531L34.7783 42.4048H29.0375V42.4009C26.8223 42.4009 25.0244 40.603 25.0244 38.3839C25.0244 36.1687 26.8184 34.3708 29.0375 34.3708V34.363H35.2385V34.3708C37.4576 34.3708 39.2516 36.1687 39.2516 38.3839C39.2516 40.4899 37.637 42.2098 35.5778 42.3814Z" fill="#E5E2E1"/>
</g>
<defs>
<clipPath id="clip0_1_98">
<rect width="125" height="89" fill="white"/>
</clipPath>
</defs>
</svg>
