<svg width="125" height="89" viewBox="0 0 125 89" fill="none" xmlns="http://www.w3.org/2000/svg">
<mask id="mask0_1_245" style="mask-type:luminance" maskUnits="userSpaceOnUse" x="25" y="23" width="80" height="36">
<path d="M105 23H25V58.5264H105V23Z" fill="white"/>
</mask>
<g mask="url(#mask0_1_245)">
<path d="M104.506 49.5189H100.969L104.636 38.1813C104.74 37.8431 104.557 37.6092 104.22 37.6092H96.6014C96.2875 37.6092 96.107 37.7913 96.107 38.1036V40.0295C96.107 40.3434 96.2891 40.5231 96.6014 40.5231H99.7217L96.0333 51.8606C95.9289 52.1988 96.1117 52.4327 96.4751 52.4327H104.51C104.824 52.4327 105.004 52.2506 105.004 51.9383V50.0125C105 49.7009 104.818 49.5189 104.506 49.5189Z" fill="#D9D9D9"/>
<path d="M94.9636 50.1169V38.1036C94.9636 37.7897 94.7815 37.6092 94.4692 37.6092H91.531C91.1928 37.6092 91.0107 37.7913 91.0107 38.1036V39.1435H90.7251C90.4645 38.0511 89.6845 37.4272 88.2546 37.4272C86.0965 37.4272 84.8746 38.8311 84.8746 43.4864V46.5807C84.8746 51.2352 86.0706 52.6132 88.2546 52.6132C89.8148 52.6132 90.6733 51.885 90.9071 50.5328H91.221L91.5593 51.9885C91.6378 52.275 91.819 52.4312 92.1086 52.4312H94.8388C95.203 52.4312 95.3332 52.1957 95.2807 51.8818L94.9636 50.1169ZM91.0107 47.3608C91.0107 49.2842 90.6968 49.7009 89.945 49.7009C89.2168 49.7009 88.9044 49.2842 88.9044 47.3867V42.4976C88.9044 40.5733 89.2426 40.1574 89.945 40.1574C90.6992 40.1574 91.0107 40.5733 91.0107 42.5242V47.3608Z" fill="#D9D9D9"/>
<path d="M83.6001 37.6351L80.7664 39.6638H80.5843V38.1036C80.5843 37.7897 80.4022 37.6092 80.0899 37.6092H77.3079C76.994 37.6092 76.8135 37.7913 76.8135 38.1036V51.9367C76.8135 52.2506 76.9955 52.4311 77.3079 52.4311H80.272C80.6102 52.4311 80.7664 52.2491 80.7664 51.9367V43.6394L83.8866 41.4036C84.122 41.2215 84.2005 41.0653 84.2005 40.8056V37.9475C84.1981 37.5574 83.9125 37.4013 83.6001 37.6351Z" fill="#D9D9D9"/>
<path d="M75.3577 50.1169V38.1036C75.3577 37.7897 75.1757 37.6092 74.8633 37.6092H71.9291C71.5909 37.6092 71.4088 37.7913 71.4088 38.1036V39.1435H71.1231C70.8634 38.0511 70.0833 37.4272 68.6527 37.4272C66.4946 37.4272 65.2727 38.8311 65.2727 43.4864V46.5807C65.2727 51.2352 66.4687 52.6132 68.6527 52.6132C70.2128 52.6132 71.0714 51.885 71.3052 50.5328H71.6191L71.9566 51.9885C72.035 52.275 72.2171 52.4312 72.5059 52.4312H75.2251C75.5893 52.4312 75.7195 52.1957 75.6669 51.8818L75.3577 50.1169ZM71.4049 47.3608C71.4049 49.2842 71.091 49.7009 70.3392 49.7009C69.6109 49.7009 69.2993 49.2842 69.2993 47.3867V42.4976C69.2993 40.5733 69.6368 40.1574 70.3392 40.1574C71.0933 40.1574 71.4049 40.5733 71.4049 42.5242V47.3608Z" fill="#D9D9D9"/>
<path d="M57.8582 32.6691H53.5938C53.2556 32.6691 53.0994 32.8512 53.0994 33.1627V51.9367C53.0994 52.2506 53.2564 52.4311 53.5938 52.4311H57.8582C62.096 52.4311 64.0469 50.5069 64.0469 43.8497V41.2498C64.0469 34.4113 61.9665 32.6691 57.8582 32.6691ZM59.8861 45.6703C59.8861 48.5826 59.3368 49.1547 57.9618 49.1547H57.1818V35.8702H57.9603C59.3383 35.8702 59.8845 36.3646 59.8845 39.3545L59.8861 45.6703Z" fill="#D9D9D9"/>
<path d="M45.2038 28.2658L36.3109 23.1436C35.7913 22.8297 35.3754 23.0392 35.3754 23.6631V34.5847L44.2158 39.681C44.7361 39.9949 44.7361 40.4611 44.2158 40.7734L36.3109 45.3251C35.7913 45.639 35.3754 45.4294 35.3754 44.8055V34.5847L25.5493 40.2531C25.157 40.4885 25 40.7475 25 41.1893V52.0584C25 52.5002 25.157 52.7647 25.5493 52.9946L34.8324 58.3514C35.2247 58.5868 35.5339 58.5868 35.924 58.3514L45.207 52.9946C45.5994 52.7592 45.7563 52.5002 45.7563 52.0584V29.1997C45.75 28.7602 45.5939 28.4996 45.2038 28.2658Z" fill="#D9D9D9"/>
</g>
</svg>
