<?xml version="1.0" encoding="utf-8"?>
<!-- Generator: Adobe Illustrator 28.1.0, SVG Export Plug-In . SVG Version: 6.00 Build 0)  -->
<svg version="1.1" id="Layer_1" xmlns="http://www.w3.org/2000/svg" xmlns:xlink="http://www.w3.org/1999/xlink" x="0px" y="0px"
	 viewBox="0 0 157 35" style="enable-background:new 0 0 157 35;" xml:space="preserve">
<style type="text/css">
	.st0{fill:#FEFEFE;}
	.st1{fill:#FDFCFC;}
	.st2{fill:#FBF9F9;}
	.st3{fill:#575757;}
	.st4{fill:#700707;}
	.st5{fill:#F9F4F4;}
	.st6{fill:#FBF8F8;}
	.st7{fill:#781919;}
	.st8{fill:#D72B2A;}
	.st9{fill:#D32A29;}
	.st10{fill:#D02828;}
	.st11{fill:#660000;}
	.st12{fill:#B6201F;}
	.st13{fill:#680404;}
	.st14{fill:#7B0B0B;}
	.st15{fill:#E26968;}
	.st16{fill:#D42A29;}
	.st17{fill:#DC2C2B;}
	.st18{fill:#DC4B4A;}
	.st19{fill:#DE6665;}
	.st20{fill:#D96160;}
	.st21{fill:#D42827;}
	.st22{fill:#CE2827;}
	.st23{fill:#D96261;}
	.st24{fill:#DB6463;}
	.st25{fill:#D33C3B;}
	.st26{fill:#EBA5A5;}
	.st27{fill:#E8A1A1;}
	.st28{fill:#E9A2A2;}
	.st29{fill:#E49C9C;}
	.st30{fill:#E19898;}
	.st31{fill:#E59D9D;}
	.st32{fill:#E7A0A0;}
	.st33{fill:#CF302F;}
	.st34{fill:#CD2221;}
	.st35{fill:#CB1D1C;}
	.st36{fill:#CC2726;}
	.st37{fill:#D6605F;}
	.st38{fill:#CF3130;}
	.st39{fill:#D43939;}
	.st40{fill:#DB5352;}
	.st41{fill:#E69191;}
	.st42{fill:#E58686;}
	.st43{fill:#DE6160;}
	.st44{fill:#E1706F;}
	.st45{fill:#D53534;}
	.st46{fill:#E59595;}
	.st47{fill:#E19999;}
	.st48{fill:#EBD1D1;}
	.st49{fill:#DE8787;}
	.st50{fill:#E19090;}
	.st51{fill:#E18E8E;}
	.st52{fill:#D02827;}
	.st53{fill:#ECD3D3;}
	.st54{fill:#D55F5E;}
	.st55{fill:#F4E0E0;}
	.st56{fill:#EFD7D7;}
	.st57{fill:#F2DCDC;}
	.st58{fill:#D24949;}
	.st59{fill:#F3DDDD;}
	.st60{fill:#E27776;}
	.st61{fill:#EED5D5;}
	.st62{fill:#F1DADA;}
	.st63{fill:#D64847;}
	.st64{fill:#6E6E6E;}
	.st65{fill:#B3B3B3;}
	.st66{fill:#ADADAD;}
	.st67{fill:#545454;}
	.st68{fill:#8E8E8E;}
	.st69{fill:#565656;}
	.st70{fill:#A3A3A3;}
	.st71{fill:#A0A0A0;}
	.st72{fill:#9D9D9D;}
	.st73{fill:#AEAEAE;}
	.st74{fill:#737373;}
	.st75{fill:#ACACAC;}
	.st76{fill:#9E9E9E;}
	.st77{fill:#BEBEBE;}
	.st78{fill:#B7B7B7;}
	.st79{fill:#B5B5B5;}
	.st80{fill:#656565;}
	.st81{fill:#B1B1B1;}
	.st82{fill:#5D5D5D;}
	.st83{fill:#919191;}
	.st84{fill:#717171;}
	.st85{fill:#616161;}
	.st86{fill:#B2B2B2;}
	.st87{fill:#686868;}
	.st88{fill:#A7A7A7;}
	.st89{fill:#666666;}
	.st90{fill:#A5A5A5;}
	.st91{fill:#6A6A6A;}
	.st92{fill:#6B6B6B;}
	.st93{fill:#949494;}
	.st94{fill:#929292;}
	.st95{fill:#A6A6A6;}
	.st96{fill:#A9A9A9;}
	.st97{fill:#5C5C5C;}
	.st98{fill:#585858;}
	.st99{fill:#969696;}
	.st100{fill:#707070;}
	.st101{fill:#989898;}
	.st102{fill:#9F9F9F;}
	.st103{fill:#939393;}
	.st104{fill:#696969;}
</style>
<path class="st0" d="M59.2,28.1c-0.9-0.4-1.4-1.1-1.4-2.1c-0.1-0.6,0.1-1.2,0.3-1.8c1.2-3.5,2.3-7.1,3.5-10.6c0.5-1.7,1-3.4,1.7-5
	c0.8-1.9,2.3-3,4.3-3.4c0.2,0,0.4,0,0.6,0c8.6,0,17.2,0,25.7,0c0.7,0,1.4,0.1,2,0.7c0.7,0.7,1,1.6,0.7,2.5c-0.2,0.7-0.4,1.4-0.7,2.1
	c-0.2,0.4-0.3,0.9-0.5,1.4c-0.3,0.8-0.5,1.5-0.8,2.3c-0.2,0.7-0.5,1.5-0.7,2.2c-0.2,0.7-0.4,1.4-0.7,2c0,0.1,0,0.1-0.1,0.1
	c-0.1,0-0.1,0-0.1-0.1c-0.1-0.1-0.1-0.2-0.1-0.3c0-0.3-0.1-0.6-0.1-0.9c0,0,0-0.1-0.1-0.1c-0.1,0.1-0.1,0.2-0.1,0.3
	c-0.3,0.8-0.5,1.7-0.8,2.5c-0.2,0.5-0.3,1-0.6,1.5c0,0.1,0,0.2-0.1,0.2c-0.1,0-0.1-0.2-0.1-0.2c0.2-0.5,0.3-1,0.5-1.4
	c0.2-0.5,0.3-1,0.5-1.5c0.3-0.9,0.6-1.9,0.9-2.8c0.1-0.4,0.3-0.8,0.4-1.3c0-0.1,0.1-0.2,0-0.3c0.1-0.5,0.3-1,0.5-1.5
	c0.3-1,0.7-2,1-3c0.3-0.8,0.3-1.6-0.2-2.4c-0.3-0.4-0.7-0.7-1.1-0.8c-0.4-0.1-0.7-0.2-1.1-0.2c-7.8,0-15.7,0-23.5,0
	c-0.8,0-1.6,0.2-2.3,0.5c-1,0.5-1.7,1.2-2.3,2.2c-0.3,0.6-0.5,1.3-0.7,2c-0.4,1.3-0.9,2.6-1.3,3.9c-0.4,1.2-0.8,2.5-1.2,3.7
	c-0.5,1.5-1,3.1-1.5,4.6c-0.1,0.4-0.3,0.9-0.4,1.4c-0.2,0.9-0.1,1.8,0.6,2.5c0.1,0.1,0.1,0.1,0.1,0.2c0.4,0.3,0.8,0.5,1.3,0.5
	c5.1,0,10.2,0,15.2,0c2.6,0,5.2,0,7.8,0c0.4,0,0.9-0.1,1.3-0.1c0.2,0,0.3,0,0.5,0.1c0,0,0.1,0,0.1,0.1c0,0.1,0,0.1-0.1,0.1
	c-0.1,0-0.1,0-0.2,0c-0.3,0-0.7,0-1,0c-2,0-4,0-6,0c-0.4,0-0.9,0-1.3,0c-1.2,0-2.3,0-3.5,0c0.2,0.2,0.4,0.4,0.7,0.4
	c1.1,0,2.1,0,3.2,0c0.2,0,0.4,0,0.7,0c1.7,0,3.4,0,5.2,0c0.9,0,1.8,0,2.7,0c0,0,0.1,0,0.1,0.1c0,0.1-0.1,0.1-0.2,0.1
	c-0.1,0-0.2,0-0.3,0c-8.4,0-16.9,0-25.3,0C60.4,28.4,59.8,28.3,59.2,28.1z"/>
<path class="st1" d="M93.6,14.1c0,0.3-0.1,0.5-0.2,0.7c-0.3,1.1-0.7,2.2-1.1,3.3c-0.2,0.7-0.5,1.4-0.7,2.1c-0.1,0.4-0.3,0.8-0.4,1.2
	c0,0.1-0.1,0.1,0,0.2c0.2-0.5,0.2-1,0.5-1.4c0.2-0.5,0.4-1,0.5-1.4c0.2-0.5,0.4-1.1,0.6-1.7c0-0.1,0-0.2,0.1-0.1
	c0.1,0,0.1,0.1,0.1,0.2c0,0.3,0.1,0.6,0.1,0.9c0,0.1,0,0.1,0,0.2c0,0.1,0,0.3,0.1,0.3c0.1,0,0.1-0.2,0.1-0.2
	c0.2-0.7,0.5-1.4,0.7-2.1c0.1-0.5,0.3-0.9,0.4-1.4c0.2-0.5,0.3-1,0.5-1.6c0.2-0.6,0.4-1.2,0.6-1.8c0.1-0.3,0.1-0.6,0.3-0.9
	c-0.2,0.7-0.4,1.4-0.7,2.1c-1,3.1-2.1,6.3-3.1,9.4c-0.3,0.9-0.6,1.8-0.9,2.7c-0.4,1.3-1.3,2.2-2.4,2.9c0,0,0,0-0.1,0
	c-0.2,0.1-0.3,0.1-0.5,0.2l0,0c-0.2-0.1-0.1-0.2,0-0.2c0.1-0.2,0.2-0.3,0.4-0.5c0.2-0.3,0.3-0.6,0.5-0.8c0-0.1,0.1-0.2,0-0.2
	c0,0,0,0,0-0.1c0-0.2,0.2-0.3,0.2-0.4c0.7-1,1-2.2,1.4-3.3c0.4-1.2,0.8-2.5,1.2-3.7c0.5-1.4,0.9-2.8,1.4-4.1
	C93.5,14.2,93.5,14.1,93.6,14.1z"/>
<path class="st2" d="M89.2,26c0.1,0,0.1-0.1,0.2,0c0,0.1,0,0.2,0,0.2c-0.3,0.5-0.5,1-0.9,1.4c-0.1,0.1-0.2,0.1-0.1,0.3
	c-0.5,0.3-1.1,0.4-1.6,0.5c-0.1,0-0.2,0-0.3,0c-8.7,0-17.5,0-26.2,0c-0.2,0-0.4,0-0.6-0.1c-0.2-0.1-0.4-0.1-0.5-0.2
	c0.3,0,0.6,0.2,0.9,0.2c0.1,0,0.2,0,0.3,0c8.7,0,17.4,0,26,0c0.1,0,0.1,0,0.2,0c0,0,0,0,0,0c-0.9,0-1.8,0-2.8,0
	c0-0.1,0.1-0.1,0.2-0.2c0.3-0.2,0.6-0.3,0.9-0.4c0.4,0,0.9,0,1.3,0c-0.5-0.1-1-0.1-1.4-0.1c-0.1,0-0.2,0-0.2,0c-2.3,0-4.5,0-6.8,0
	c-5.5-0.1-11,0-16.5,0c-0.5,0-1-0.2-1.3-0.6c0.1,0,0.2,0,0.3,0.1c0.4,0.2,0.8,0.4,1.3,0.4c8.1,0,16.2,0,24.3,0
	c0.9,0,1.7-0.4,2.4-0.8c0.4-0.2,0.7-0.5,1-0.9c0.1-0.1,0.2-0.2,0.3-0.2C89.5,25.8,89.2,25.8,89.2,26z"/>
<path class="st3" d="M59.7,28.3c3.5,0.1,7,0,10.5,0.1c5.5,0,11,0,16.5,0c0,0,0.1,0,0.1,0c-0.1,0.1-0.3,0-0.4,0c-4.5,0-9.1,0-13.6,0
	c-4.1,0-8.2,0-12.3,0C60.2,28.4,60,28.4,59.7,28.3z"/>
<path class="st2" d="M88.4,27.9c0.1-0.2,0.3-0.2,0.5-0.2C88.7,27.7,88.6,27.8,88.4,27.9z"/>
<path class="st4" d="M89.5,25.6c-0.5,0.6-1.1,1.1-1.8,1.5c-0.7,0.3-1.4,0.5-2.1,0.5c-7.9,0-15.8,0-23.6,0c-0.7,0-1.4-0.1-2-0.5
	c-1-0.9-0.9-2-0.6-3.2c1.3-3.9,2.5-7.7,3.8-11.6c0.3-1,0.6-2.1,1-3.1c0.5-1.2,1.3-2,2.4-2.6c0.9-0.4,1.8-0.6,2.7-0.6
	c7.6,0,15.2,0,22.8,0c0.5,0,1,0.1,1.5,0.2c0.9,0.2,1.5,1.1,1.5,2c0,0.6-0.2,1.2-0.4,1.8c-0.4,1.3-0.9,2.7-1.3,4
	c-0.3,0.9-0.6,1.8-0.9,2.7c-0.8,2.5-1.6,5-2.5,7.5C90.1,24.7,89.8,25.2,89.5,25.6z"/>
<path class="st5" d="M85,27.7c-0.2,0.2-0.5,0.2-0.7,0.3c-0.1,0.1-0.3,0.1-0.4,0.2c-1.7,0-3.4,0-5.2,0c-0.3-0.1-0.6-0.2-0.9-0.3
	c-0.1,0-0.2-0.1-0.2-0.2C80.1,27.7,82.6,27.7,85,27.7z"/>
<path class="st6" d="M77.6,27.7c0.2,0.2,0.6,0.3,0.9,0.4c0.1,0,0.2,0.1,0.2,0.2c-1.3,0-2.6,0-4,0c-0.4,0-0.5-0.3-0.8-0.4
	c-0.1,0,0-0.1,0-0.1c0.1,0,0.1,0,0.2,0C75.4,27.7,76.5,27.7,77.6,27.7z"/>
<path class="st7" d="M93.7,6.3c-2.8-0.3-5.5-0.1-8.3-0.1c-2.8,0-5.5,0-8.3,0s-5.5,0-8.3,0c-0.7,0-1.3,0.1-1.9,0.5
	c-0.1,0-0.2,0.1-0.3,0.1c0.5-0.3,1.1-0.5,1.8-0.6c0.2,0,0.3,0,0.5,0c7.9,0,15.8,0,23.7,0C93,6.1,93.4,6.1,93.7,6.3z"/>
<path class="st1" d="M88.7,26.5c-0.1,0.1-0.2,0.3-0.4,0.3C88.4,26.7,88.5,26.6,88.7,26.5z"/>
<path class="st1" d="M88.7,26.5c0.1-0.1,0.2-0.2,0.3-0.2C88.9,26.4,88.9,26.4,88.7,26.5z"/>
<path class="st1" d="M89.2,26c0,0.1,0,0.1-0.1,0.1C89.1,26.1,89.2,26.1,89.2,26z"/>
<path class="st8" d="M92,7.2c0.9,0.2,1.6,1,1.6,1.8c0,0.6-0.1,1.2-0.3,1.8c-0.7,2-1.3,4-2,6.1c-0.5,1.4-0.9,2.8-1.4,4.2
	c0,0.1,0,0.2-0.1,0.3c0,0,0,0.1-0.1,0.1c0,0,0,0-0.1-0.1c0-0.1,0-0.2,0-0.3c0.2-0.6,0.3-1.3,0.6-1.9c0.2-0.4,0.1-0.8,0-1.3
	c-0.2-0.8-0.4-1.7-0.8-2.5c-0.3-0.7-0.7-1.4-1.2-1.9c-0.8-0.9-1.8-1.6-2.9-2c-0.5-0.2-1.1-0.4-1.6-0.5c-0.6-0.1-1.2-0.2-1.7-0.3
	c-0.3-0.1-0.7,0-0.9-0.1c0.1,0.1,0.4,0.1,0.4,0.3c-0.1,0.1-0.2-0.1-0.3-0.1c-0.7-0.4-1.5-0.7-2.3-0.9c-1.1-0.2-2.2-0.2-3.2,0.1
	c-2.7,0.8-4.4,2.6-5.1,5.3C70,17,70.2,18.6,71,20.1c0,0.1,0.1,0.1,0.1,0.2c0,0.1,0.1,0.2,0.1,0.3c0.1,0.1,0.2,0.2,0.2,0.4
	c-0.1,0.2,0,0.5,0,0.7c0.2,1.3,0.5,2.6,1.1,3.8c0.1,0.2,0.3,0.4,0.4,0.6c0.1,0.2,0.2,0.2,0.4,0.2c0.8,0,1.5,0,2.3,0
	c0.9,0,1.8,0,2.7,0c0.7,0,1.4,0,2.1,0c0.1,0,0.3,0,0.4,0.1c0,0.2-0.2,0.1-0.3,0.1c-1.1,0-2.2,0-3.4,0c-0.1,0-0.2,0-0.3,0
	c-2.4,0-4.8,0-7.2,0c-1.9,0-3.8,0-5.7,0c-0.5,0-1,0-1.4-0.2c-0.7-0.2-1.3-1-1.3-1.8c0-0.5,0.1-1,0.3-1.5c0.6-1.9,1.2-3.8,1.9-5.8
	c0.5-1.4,0.9-2.8,1.4-4.2c0.3-1,0.6-2,1-3c0.4-1.1,1.1-1.8,2.1-2.4c0.4-0.2,0.8-0.4,1.3-0.5c0.2,0,0.4-0.2,0.6-0.1
	c0.1,0.1,0.2,0.1,0.3,0.1c7.1,0,14.2,0,21.3,0c0.1,0,0.2,0,0.3-0.1C91.6,7,91.8,7.2,92,7.2z"/>
<path class="st9" d="M89.6,21.5c0,0,0.1,0,0.1-0.1c-0.1,0.6-0.4,1.1-0.5,1.7c-0.2,0.6-0.4,1.1-0.8,1.6c-0.4,0.5-0.9,1-1.5,1.2
	c-0.2,0.1-0.3,0.2-0.5,0.2c-0.2,0-0.5,0.1-0.7,0.2c-0.6,0.1-1.2,0.2-1.9,0.1c-0.1-0.2,0.1-0.2,0.1-0.3c0.3-0.2,0.6-0.4,0.9-0.6
	c0.8-0.6,1.4-1.3,1.8-2.2c0.3-0.5,0.5-1.1,0.6-1.7c0.1-0.6,0.2-1.2,0.1-1.9c-0.1-0.7-0.3-1.3-0.6-1.9c-0.3-0.6-0.7-1.2-1.2-1.8
	c-0.3-0.4-0.8-0.8-1.2-1.1c-0.1,0-0.1-0.1-0.2-0.2c0,0.1,0.1,0.2,0,0.3c-0.2,0-0.1-0.2-0.2-0.3c-0.2-0.7-0.6-1.4-1-2
	c-0.1-0.1-0.1-0.2-0.1-0.2c0-0.1-0.1-0.2-0.2-0.3c0,0-0.1-0.1-0.1-0.1c-0.2-0.3-0.4-0.5-0.7-0.7c0,0-0.1,0-0.1-0.1
	c-0.1-0.1-0.1-0.1-0.2-0.2c0,0,0,0-0.1,0c-0.1-0.1-0.2-0.1-0.3-0.2c0,0,0,0,0,0c-0.1-0.2-0.3-0.2-0.5-0.4c0.4,0.2,0.9,0.1,1.3,0.2
	c0.2,0.1,0.3,0,0.5,0.1c0.8,0.2,1.5,0.3,2.3,0.6c0.7,0.2,1.4,0.6,2,1c0.7,0.5,1.3,1.1,1.8,1.8c0.2,0.3,0.4,0.7,0.6,1
	c0.3,0.5,0.4,1,0.6,1.5c0.1,0.4,0.3,0.8,0.4,1.3c0.1,0.3,0.1,0.5,0.1,0.8c0,0.2-0.1,0.4-0.2,0.6c-0.1,0.2-0.1,0.5-0.2,0.7
	c-0.1,0.2-0.1,0.4-0.2,0.6C89.7,21,89.6,21.2,89.6,21.5c0,0.1-0.1,0.2-0.1,0.3C89.6,21.7,89.6,21.6,89.6,21.5z"/>
<path class="st10" d="M86.5,26.2c0.1-0.1,0.3-0.2,0.5-0.2c-0.5,0.3-1,0.5-1.5,0.5c-0.4,0.1-0.9,0-1.3,0c-6.9,0-13.8,0-20.7,0
	c-0.3,0-0.7,0-1-0.2c2.2,0.3,4.4,0.1,6.6,0.1c2.6,0,5.1,0,7.7,0c0.1,0,0.1,0,0.2,0c0.2,0,0.4,0,0.6,0c1.9,0,3.7-0.1,5.6,0
	c0.4,0,0.8,0,1.2,0c0.7,0,1.3,0,2-0.3C86.4,26.1,86.4,26.1,86.5,26.2z"/>
<path class="st11" d="M85.9,27.5c-8.1,0-16.3,0-24.4,0c0,0,0,0,0,0C69.6,27.5,77.7,27.5,85.9,27.5C85.9,27.5,85.9,27.5,85.9,27.5z"
	/>
<path class="st12" d="M69.5,7.2c-0.2,0-0.4,0.1-0.6,0c0.1,0,0.2-0.1,0.3-0.1c0.1-0.1,0.2,0,0.3,0c7.3,0,14.6,0,21.9,0
	c0.1,0,0.2,0,0.3,0c0.1,0,0.2,0,0.3,0.1c-0.2,0-0.4-0.1-0.5,0c-0.1,0.1-0.2,0-0.3,0c-7.1,0-14.2,0-21.3,0
	C69.7,7.2,69.6,7.2,69.5,7.2z"/>
<path class="st13" d="M69.2,7.1c0.1-0.1,0.2,0,0.2,0c7.2,0,14.4,0,21.7,0c0.2,0,0.5,0,0.7,0c0,0.1-0.1,0-0.1,0c-0.1,0-0.2,0-0.3,0
	c-7.3,0-14.6,0-22,0C69.4,7.1,69.3,7.1,69.2,7.1z"/>
<path class="st14" d="M69.2,7.1c7.5,0,15,0,22.5,0c0,0,0,0,0,0C84.2,7.1,76.7,7.1,69.2,7.1C69.2,7.1,69.2,7.1,69.2,7.1z"/>
<path class="st15" d="M71,20.3c-0.4-0.7-0.6-1.5-0.7-2.2c-0.1-0.8-0.1-1.6,0-2.3c0.2-1.1,0.6-2.2,1.4-3.1c1.1-1.4,2.5-2.3,4.2-2.7
	c1.4-0.3,2.7-0.2,4,0.3c0.5,0.2,0.9,0.4,1.3,0.7c0,0,0.1,0,0.1,0.1c0,0,0,0,0,0c0.1,0.1,0.2,0.2,0.3,0.3l0,0
	c0.1,0.1,0.2,0.1,0.2,0.2c0.2,0.2,0.4,0.4,0.6,0.6c0,0,0.1,0.1,0.1,0.2c0,0.1-0.1,0-0.2,0c0,0-0.1,0-0.1-0.1
	c-0.5-0.5-1.2-0.3-1.8-0.4c-0.1,0-0.2,0-0.1,0.2c0,0.1,0.1,0.1,0,0.2c-0.1,0.1-0.2,0-0.2,0c-0.3-0.2-0.7-0.4-1-0.4
	c-0.4,0-0.8-0.2-1.1-0.2c-1-0.1-2,0.1-2.9,0.5c-1.3,0.6-2.2,1.6-2.7,2.8c0,0.1-0.1,0.2-0.1,0.2c-0.2,0.4-0.3,0.7-0.3,1.1
	c-0.1,0.5-0.1,1.1,0,1.7c0.1,0.6,0.3,1.2,0.6,1.8c0.1,0.1,0.1,0.2,0.2,0.3c0.1,0.1,0.1,0.2,0,0.4c-0.1,0.1-0.1,0.3,0,0.4
	c0.1,0.5,0.1,1.1,0.3,1.6c0,0.1,0,0.2-0.1,0.2c0,0-0.1,0-0.1,0c-0.3-0.3-0.5-0.6-0.8-0.8c-0.1,0-0.1-0.1-0.2-0.2c0,0,0,0,0-0.1
	c0-0.1-0.1-0.1-0.2-0.2c-0.1-0.1-0.2-0.2-0.2-0.4c0-0.2-0.2-0.2-0.2-0.4C71.1,20.5,71,20.4,71,20.3z"/>
<path class="st10" d="M84.3,15.2c0-0.2-0.1-0.3,0-0.5c0.2,0.2,0.4,0.4,0.6,0.5c0.6,0.4,1,1,1.5,1.6c0.4,0.6,0.7,1.3,1,2
	c0.1,0.3,0.2,0.7,0.2,1c0,0.7,0,1.4-0.2,2c-0.1,0.5-0.3,1-0.5,1.4c-0.3,0.5-0.6,0.9-0.9,1.3c-0.3,0.4-0.7,0.7-1.1,1
	c-0.3,0.3-0.7,0.4-1,0.7c-0.1,0.1-0.2,0-0.2,0c-0.9,0-1.8,0-2.7,0c-0.1,0-0.2,0-0.2,0c-0.8,0-1.7,0-2.5,0c-0.4-0.1-0.7-0.4-1-0.6
	c-0.4-0.3-0.7-0.6-1.1-1c-0.3-0.3-0.7-0.6-1.1-0.8c-0.1,0-0.2-0.1-0.1-0.2c0-0.1,0.1-0.1,0.2,0c0.4,0.1,0.8,0.2,1.2,0.3
	c0.2,0.1,0.4,0.1,0.6,0.1c0.3,0.1,0.6,0.1,0.8,0.1c0.3,0,0.5,0.1,0.7,0.2c0.3,0.2,0.6,0.4,0.9,0.5c0.7,0.4,1.5,0.5,2.3,0.3
	c0.1,0,0.3,0,0.4-0.1c0.8-0.2,1.4-0.5,2-1c0.7-0.5,1.2-1.2,1.6-2c0.4-0.8,0.5-1.7,0.4-2.6c-0.1-0.4-0.2-0.8-0.4-1.2
	c-0.2-0.4-0.5-0.8-0.8-1.1c-0.1-0.2-0.2-0.4-0.2-0.6c0-0.1,0-0.3,0-0.4c0-0.1-0.1-0.2-0.1-0.3C84.4,15.7,84.4,15.5,84.3,15.2
	C84.3,15.2,84.3,15.2,84.3,15.2z"/>
<path class="st16" d="M76.2,24.2c-0.5,0-0.9-0.2-1.3-0.2c0.2,0.1,0.3,0.2,0.5,0.3c0.1,0,0.2,0.1,0.3,0.2c0.3,0.3,0.6,0.6,0.8,0.8
	c0.3,0.3,0.6,0.5,1,0.8c0.2,0.1,0.4,0.3,0.6,0.4c-1.7,0-3.3,0-5,0c-0.2,0-0.3,0-0.4-0.2c-0.3-0.5-0.6-1.1-0.8-1.7
	c-0.2-0.6-0.4-1.1-0.5-1.7c-0.1-0.6-0.3-1.2-0.3-1.9c0,0,0.1,0,0.1,0.1c0.1,0.1,0.1,0.3,0.2,0.3c0,0.1,0.1,0.1,0.2,0.2l0,0
	c0.1,0.1,0.1,0.2,0.2,0.2c0,0,0,0,0.1,0.1c0.1,0.2,0.3,0.4,0.5,0.5c0,0,0.1,0.1,0.1,0.1c0.1,0.1,0.2,0.1,0.3,0.2
	c0.8,0.6,1.7,1,2.7,1.3C75.8,24,76,24,76.2,24.2C76.2,24.1,76.2,24.2,76.2,24.2z"/>
<path class="st17" d="M69.5,7.2c7.3,0,14.6,0,21.9,0c0,0,0,0.1,0,0.1c-0.1,0-0.1,0-0.2,0c-7.1,0-14.2,0-21.4,0
	C69.7,7.2,69.6,7.3,69.5,7.2z"/>
<path class="st16" d="M80.6,26.4c1.1,0,2.1,0,3.2,0c0.3,0,0.7,0,1,0c0.4,0,0.9-0.1,1.3-0.2c0.1,0,0.2-0.1,0.3,0
	c-0.1,0-0.2,0.1-0.3,0.1c-0.6,0.2-1.2,0.2-1.8,0.2c-2.5,0-5.1,0-7.6,0c0.1-0.1,0.2,0,0.3,0c1.1,0,2.2,0,3.4,0
	C80.4,26.5,80.5,26.5,80.6,26.4z"/>
<path class="st18" d="M71,20.3c0.1,0.1,0.1,0.1,0.1,0.3C71,20.5,71,20.4,71,20.3z"/>
<path class="st19" d="M79.1,11.6c0.4,0.1,0.8,0.3,1.2,0.5c0-0.1-0.1-0.1-0.1-0.2c0-0.1-0.2-0.1-0.1-0.2c0.1-0.1,0.2,0,0.3,0
	c0.4,0,0.8,0.1,1.3,0.1c0.1,0,0.3,0.1,0.4,0.2c0.2,0.1,0.3,0.2,0.5,0.3c-0.2-0.3-0.5-0.5-0.7-0.7c0,0,0.1,0,0.1,0c0,0,0,0,0,0
	c0.3,0.2,0.5,0.4,0.7,0.7c0,0,0.1,0.1,0.1,0.1c0.1,0.1,0.2,0.2,0.2,0.3c0.3,0.5,0.7,1,0.9,1.6c0.1,0.2,0.2,0.5,0.2,0.7
	c0,0.1,0.1,0.3,0.1,0.4c0,0.1,0,0.2-0.1,0.1c-0.1-0.2-0.3-0.3-0.5-0.4c-0.3-0.2-0.7-0.3-1.1-0.5c0,0.2,0.1,0.3,0.2,0.5
	c0,0,0,0.1,0,0.1c-0.1,0-0.1,0-0.1-0.1c-0.1-0.1-0.1-0.2-0.2-0.3c-0.2-0.3-0.3-0.5-0.5-0.8c-0.6-0.9-1.5-1.6-2.5-2.1
	C79.3,11.8,79.1,11.8,79.1,11.6z"/>
<path class="st20" d="M84.2,15.3c0-0.2-0.1-0.3,0-0.4C84.3,15,84.2,15.1,84.2,15.3C84.3,15.2,84.3,15.2,84.2,15.3
	c0.2,0.1,0.2,0.4,0.2,0.6c-0.1,0-0.1-0.1-0.2-0.2C84.2,15.6,84.2,15.4,84.2,15.3z"/>
<path class="st8" d="M82.7,12.2c-0.2-0.2-0.5-0.5-0.7-0.7C82.3,11.7,82.6,11.9,82.7,12.2z"/>
<path class="st8" d="M89.4,22.4c-0.1-0.1,0-0.2,0.1-0.4C89.6,22.2,89.3,22.2,89.4,22.4z"/>
<path class="st8" d="M89.6,21.5c0,0.1-0.1,0.3-0.1,0.4C89.5,21.7,89.5,21.7,89.6,21.5z"/>
<path class="st8" d="M81.7,11.3c-0.1,0-0.3-0.1-0.3-0.3C81.5,11.1,81.6,11.1,81.7,11.3z"/>
<path class="st8" d="M82,11.5C81.9,11.5,81.9,11.5,82,11.5c-0.1-0.1-0.2-0.1-0.2-0.2C81.9,11.3,81.9,11.4,82,11.5z"/>
<path class="st8" d="M83,12.6c-0.1-0.1-0.2-0.1-0.2-0.3C82.9,12.4,83,12.4,83,12.6z"/>
<path class="st19" d="M75.6,24c-0.3,0-0.7-0.2-1-0.3c-0.6-0.3-1.2-0.5-1.7-1c0,0-0.1-0.1-0.1-0.1c0.1,0,0.1-0.1,0.1-0.2
	c-0.2-0.5-0.2-1.1-0.4-1.6c0-0.1-0.1-0.3,0-0.4c0.1-0.2,0.1-0.3,0-0.4c-0.4-0.6-0.6-1.2-0.7-1.9c-0.1-0.5-0.1-1,0-1.5
	c0.1-0.4,0.1-0.8,0.3-1.2c0-0.1,0-0.1,0.1-0.2c0.1,0.1,0,0.3,0,0.4c-0.2,0.5-0.3,1.1-0.2,1.6c0,0.9,0.2,1.8,0.6,2.6
	c0.7,1.3,1.7,2.2,3.1,2.7c0,0,0.1,0,0.1,0.1c0,0,0.1,0,0.1,0.1c0.1,0.1,0.2,0.1,0.2,0.3c0,0.2,0.2,0.4,0.3,0.5
	c0.2,0.2,0.3,0.4,0.5,0.6c0.1,0.1,0.1,0.1,0.1,0.2c-0.1,0.1-0.2,0.1-0.2,0.1C76.2,24.1,75.9,24,75.6,24z"/>
<path class="st21" d="M75.6,22.4c-1.4-0.5-2.4-1.3-3.1-2.6c-0.4-0.8-0.7-1.6-0.7-2.4c-0.1-0.8,0.1-1.5,0.3-2.2c0,0,0-0.1,0-0.1
	c0.2-0.5,0.5-1,0.8-1.4c0.8-1,1.8-1.6,3-2c1-0.3,2-0.3,3,0c0.1,0,0.1,0,0.2,0c0.4,0.2,0.8,0.3,1.2,0.6c0.9,0.6,1.6,1.3,2.1,2.3
	c0,0.1,0.1,0.1,0.1,0.2c0.2,0.4,0.4,0.8,0.4,1.2c0,0.1,0,0.3,0,0.4c0,0.1,0,0.1-0.1,0.1c-0.1-0.1-0.1-0.2-0.2-0.3
	c0-0.1,0-0.2-0.1-0.3c-0.1-0.2-0.1-0.4-0.2-0.5c-0.1-0.2-0.1-0.4-0.2-0.6c-0.2-0.3-0.4-0.7-0.6-1c0,0,0,0,0-0.1
	c-0.2-0.3-0.5-0.5-0.7-0.7c-0.4-0.4-0.9-0.6-1.4-0.8c0,0,0,0-0.1,0c-1.1-0.4-2.1-0.5-3.2-0.2c-1.6,0.4-2.8,1.4-3.6,2.9
	c-0.4,0.9-0.6,1.8-0.5,2.8c0.1,1,0.5,1.9,1.1,2.7c0.6,0.8,1.4,1.4,2.4,1.7c0.2,0.1,0.3,0.1,0.5,0.2c0.1,0,0.2,0.1,0.2,0.1
	c0,0,0.1,0.1,0,0.1c-0.1,0.1-0.2,0-0.3,0c0,0,0,0-0.1,0C75.8,22.5,75.7,22.4,75.6,22.4z"/>
<path class="st19" d="M72,21.8C72,21.8,71.9,21.8,72,21.8c-0.1-0.1-0.1-0.1-0.1-0.1c0.3,0.2,0.6,0.5,0.8,0.8c0,0-0.1,0-0.1,0
	c0,0-0.1-0.1-0.1-0.1C72.3,22.2,72.1,22,72,21.8z"/>
<path class="st8" d="M71.9,21.7C71.9,21.7,71.9,21.7,71.9,21.7c-0.1,0-0.2,0-0.2-0.2C71.8,21.6,71.9,21.6,71.9,21.7z"/>
<path class="st8" d="M72.6,22.5C72.7,22.5,72.7,22.5,72.6,22.5c0.1,0,0.1,0,0.1,0.1c0,0,0.1,0.1,0.1,0.1
	C72.7,22.7,72.7,22.6,72.6,22.5z"/>
<path class="st8" d="M71.7,21.5c-0.1,0-0.1-0.1-0.2-0.2C71.7,21.4,71.7,21.4,71.7,21.5z"/>
<path class="st22" d="M84.6,16.3c0.1,0.1,0.1,0.3,0,0.4c0,0.3,0.1,0.6,0.3,0.8c0.4,0.5,0.8,1.1,1,1.8c0.4,1.3,0.1,2.5-0.6,3.7
	c-0.2,0.4-0.5,0.7-0.8,1c-0.5,0.5-1,0.9-1.7,1.1c-0.6,0.3-1.3,0.4-2,0.4c-0.7,0-1.4-0.2-2-0.6c-0.2-0.1-0.4-0.3-0.6-0.4
	c-0.4-0.2-0.8-0.1-1.2-0.1c-0.1,0-0.2,0.1-0.2-0.1c0.1-0.1,0.2-0.1,0.3-0.1c0.4,0,0.7,0,1.1,0c0,0,0.1,0,0.1,0c0.1,0,0.1,0,0.2,0.1
	c0.1,0,0,0,0,0c0.2-0.1,0.4-0.1,0.6-0.1c0.1,0,0.2,0,0.2-0.1c0,0,0.1,0,0.1,0c0.2,0,0.3-0.1,0.5,0c0,0,0,0,0,0.1
	c0.1,0.2,0.1,0.4,0.2,0.5c0.1,0.1,0.1,0.2,0.2,0.3c0.1,0.1,0.2,0.1,0.2,0c0,0,0-0.1,0.1-0.1c0.1-0.1,0.1-0.3,0.2-0.4
	c0-0.2,0.1-0.2,0.3-0.2c0.6-0.1,1.1-0.3,1.6-0.6c0.1-0.1,0.2,0,0.4,0c0.2,0.1,0.5,0.2,0.7,0c0.2-0.2,0.3-0.4,0.2-0.7
	c-0.3-0.4-0.6-0.7-1-1c-0.2-0.3-0.3-0.3,0-0.5c0.2-0.2,0.3-0.5,0.5-0.7c0.4-0.2,0.9-0.3,1.4-0.4c0,0,0,0,0,0c0.1,0,0.3,0,0.3-0.2
	c0-0.2-0.2-0.2-0.3-0.2c-0.2-0.1-0.4-0.1-0.5-0.3c-0.1,0-0.2-0.1-0.2-0.1c-0.1-0.1-0.1-0.1-0.1-0.3c0.1-0.4,0.2-0.8,0.3-1.1
	c0.1-0.1,0.1-0.3,0.1-0.4c0-0.3,0-0.7,0-1C84.5,16.4,84.5,16.3,84.6,16.3z"/>
<path class="st16" d="M78.3,24.2c-0.5,0.1-1,0-1.5,0.1c-0.2,0-0.4,0-0.6-0.1c0,0,0,0,0,0c0.3,0,0.7,0,1,0c0.3,0,0.6,0,0.9,0
	C78.2,24.1,78.2,24.1,78.3,24.2C78.3,24.2,78.4,24.2,78.3,24.2z"/>
<path class="st9" d="M84.6,16.3c0,0.5,0,0.9,0,1.4c0,0.1,0,0.3-0.1,0.4c-0.1-0.1-0.1-0.2-0.1-0.3c0.1-0.5,0.1-1,0-1.5
	c0-0.1,0-0.1,0-0.2c0,0,0,0,0,0C84.5,16.1,84.5,16.2,84.6,16.3z"/>
<path class="st9" d="M84.4,15.9c0-0.2-0.1-0.5-0.1-0.7C84.5,15.5,84.4,15.7,84.4,15.9c0.1,0.1,0,0.1,0,0.1
	C84.4,16,84.4,16,84.4,15.9C84.4,16,84.4,15.9,84.4,15.9z"/>
<path class="st23" d="M78.3,24.2c-0.7,0.1-1.4,0.1-2.1,0c-0.2-0.1-0.5,0-0.7-0.2c0.2,0,0.5,0,0.7,0.1c0.2,0.1,0.3,0,0.5,0
	c-0.1-0.3-0.4-0.4-0.5-0.7c-0.1-0.2-0.2-0.4-0.4-0.6c0,0-0.1-0.1-0.1-0.1c0-0.2-0.1-0.2-0.2-0.3c0.1,0,0.2,0,0.3,0l0,0
	c0.2,0.1,0.5,0.1,0.7,0.1c0.7,0.1,1.5,0,2.2-0.2c0.1,0,0.3-0.1,0.4-0.2c0.1,0,0.1,0,0.1,0.1c0.2,0.5,0.4,1,0.6,1.5c0,0,0,0,0,0.1
	c0,0,0,0-0.1,0c-0.1,0-0.1,0-0.1,0c-0.4,0.1-0.9,0.2-1.3,0.3C78.4,24.2,78.4,24.2,78.3,24.2z"/>
<path class="st8" d="M72,21.8c0.2,0.2,0.4,0.3,0.5,0.5C72.3,22.3,72.1,22.1,72,21.8z"/>
<path class="st24" d="M84.4,15.9C84.4,15.9,84.4,16,84.4,15.9c0.1,0.5,0.1,1,0.1,1.5c0,0.1,0,0.1,0,0.1c0,0.1,0,0.1-0.1,0.1
	c-0.1,0-0.1,0-0.1-0.1c-0.2-0.5-0.6-0.7-0.9-1c0,0-0.1-0.1-0.1-0.1c-0.3,0-0.3-0.2-0.4-0.4c0-0.1,0-0.1,0-0.2c0,0,0,0,0-0.1
	c0-0.4-0.2-0.8-0.4-1.2c0.2,0.1,0.1,0.3,0.2,0.4c0-0.2-0.1-0.4-0.2-0.6c0.1-0.1,0.2,0,0.2,0c0.4,0.2,0.9,0.4,1.3,0.7
	c0.1,0.1,0.1,0.1,0.1,0.2c0,0,0,0,0,0c0,0,0,0,0-0.1c0.1,0.1,0.1,0.2,0.1,0.3C84.3,15.8,84.3,15.8,84.4,15.9z"/>
<path class="st25" d="M76,22.5c-0.1,0-0.2,0-0.3,0c0,0,0,0-0.1,0C75.7,22.4,75.9,22.4,76,22.5z"/>
<path class="st15" d="M72.6,20.3c0.1,0,0.1,0.1,0.1,0.2C72.7,20.4,72.6,20.4,72.6,20.3z"/>
<path class="st26" d="M73.1,20.4c-0.5-0.6-0.8-1.3-1-2.1c-0.7-2.8,1.1-5.7,3.9-6.4c0,0,0,0,0.1,0c0.5-0.1,1-0.2,1.5-0.1
	c0.6,0.1,1.2,0.2,1.8,0.4l0,0c0.1,0.1,0.3,0.1,0.5,0.2c0,0,0.1,0.1,0.1,0.1c0,0.1-0.1,0.1-0.1,0c0,0,0,0-0.1,0
	c-0.2-0.1-0.5-0.1-0.8-0.1c-0.3,0.1-0.6,0.1-0.9,0.2c-0.3,0.1-0.6,0.2-1,0.4c0.2,0,0.4,0,0.5,0c0.1,0,0.2,0,0.2,0.2
	c-0.2,0.1-0.3,0-0.5,0c-0.1,0-0.3,0-0.4,0.1c-0.4,0-0.8,0.2-1.2,0.3c-0.3,0.2-0.5,0.3-0.8,0.5c-0.4,0.3-0.6,0.6-0.8,1
	c-0.2,0.5-0.4,0.9-0.5,1.5c0,0.1,0,0.1,0,0.2c-0.1,0.3,0,0.5,0,0.8c0,0.1,0,0.2,0,0.3c0,0.1,0,0.1,0,0.2c0,0.1,0,0.2,0,0.2
	c0,0,0,0,0,0.1c-0.1,0.1-0.1,0.2-0.1,0.3c-0.1,0.6-0.2,1.1,0,1.7c0,0.1,0,0.2,0,0.3C73.2,20.6,73.2,20.4,73.1,20.4z"/>
<path class="st27" d="M73.6,18.2c0-0.1,0-0.2,0-0.3c0.1,0,0.1,0.1,0.1,0.2c0.3,0.9,0.8,1.5,1.5,2c0.1,0.1,0.2,0.1,0.2,0.2
	c0,0.1,0,0.1-0.1,0.1c-0.1,0-0.1,0.1-0.1,0.2c0.1,0.4,0.2,0.9,0.4,1.2c0.1,0.2,0,0.2-0.1,0.1c-1-0.3-1.8-0.9-2.4-1.7
	c0.1,0,0.1,0.1,0.2,0.1c0-0.4-0.1-0.7-0.1-1.1c0-0.3,0.1-0.7,0.1-1C73.4,18.3,73.4,18.2,73.6,18.2c0.1,0.1,0,0.2,0.1,0.2
	C73.6,18.4,73.6,18.3,73.6,18.2z"/>
<path class="st28" d="M77.8,13.1c-0.1-0.2-0.3-0.1-0.5-0.1C77.2,13,77,13.1,77,13c0-0.1,0.2-0.1,0.3-0.2c0.6-0.3,1.2-0.4,1.8-0.5
	c0.3-0.1,0.5,0.1,0.8,0.2c-0.2-0.2-0.4-0.2-0.5-0.4c0.5,0.2,1,0.5,1.4,0.8c0.3,0.3,0.5,0.5,0.7,0.8l0,0c0,0.1,0,0.1-0.1,0.1
	c-0.2,0-0.4,0-0.6,0c-0.3-0.1-0.7-0.1-1,0c-0.1,0-0.2,0-0.2,0c-0.2,0-0.3-0.1-0.5-0.2c-0.1-0.1-0.3-0.2-0.4-0.2
	c-0.2-0.1-0.5-0.2-0.7-0.2C77.9,13.3,77.8,13.2,77.8,13.1z"/>
<path class="st29" d="M75.5,22.1c0,0,0.2,0,0.1-0.1c-0.2-0.3-0.2-0.6-0.3-0.9c0-0.1-0.1-0.2-0.1-0.4c-0.1-0.2,0-0.3,0.2-0.2
	c0.1,0,0-0.1,0-0.1c0.1,0,0.1,0,0.2,0c0.3,0.1,0.6,0.2,0.9,0.4c0.3,0.1,0.7,0.2,1,0.2c0.1,0,0.2,0,0.2,0.1c0,0.1-0.1,0.1-0.2,0.1
	c-0.4,0-0.4,0-0.3,0.4c0.2,0.5,0.3,0.6,0.8,0.6c0.1,0,0.3,0,0.3,0.1c0,0.1-0.2,0.1-0.3,0.1c-0.5,0.2-1,0-1.6,0
	c-0.2,0-0.3-0.1-0.5-0.1C75.8,22.2,75.7,22.2,75.5,22.1z"/>
<path class="st30" d="M82.4,15.3c0.1,0.1,0.1,0.3,0.2,0.5c0.2,0.8,0.3,1.6,0.1,2.5c-0.1,0.1-0.1,0.3-0.1,0.4c-0.1,0-0.1,0-0.2,0
	c-0.4-0.2-0.9-0.3-1.3-0.6c0,0,0-0.1,0-0.1c0.1-0.1,0.1-0.3,0.2-0.5c0-0.3,0.1-0.6,0-0.9c0-0.1,0-0.1,0-0.2c0.1-0.3,0.1-0.3,0.4-0.2
	c0.2,0,0.4,0.1,0.6,0.2c0.3,0.1,0.5,0.3,0.5,0.6c-0.1-0.4-0.1-0.8-0.2-1.3C82.4,15.6,82.3,15.4,82.4,15.3z"/>
<path class="st31" d="M82.4,15.3c0.1,0.5,0.2,1,0.3,1.5c0,0.2,0,0.4,0,0.6c-0.1-0.1-0.1-0.2-0.1-0.3c0-0.3-0.2-0.5-0.4-0.6
	c-0.2-0.1-0.4-0.1-0.7-0.2c-0.2,0-0.3-0.1-0.3,0.2c0,0,0,0,0,0c0,0,0,0,0,0c-0.1-0.2-0.1-0.4-0.2-0.6c0-0.1,0-0.3-0.1-0.4
	c-0.1-0.2-0.2-0.3-0.3-0.5c-0.1-0.1-0.1-0.2-0.1-0.3c0.1-0.1,0.2-0.2,0.3-0.1c0.4,0.1,0.8,0.1,1.2,0.2c0.1,0,0.2,0,0.2,0.2
	c0-0.1-0.1-0.2,0-0.3C82.3,14.8,82.4,15,82.4,15.3z"/>
<path class="st32" d="M82.2,14.7c0,0.2,0.1,0.3,0.1,0.5c-0.2-0.4-0.6-0.4-1-0.4c-0.2,0-0.3,0-0.5-0.1c-0.1-0.1-0.2,0-0.3,0.1
	c-0.1,0-0.1,0-0.1,0c-0.2-0.3-0.6-0.5-0.8-0.8c0,0-0.1-0.1,0-0.1c0.4-0.2,0.9-0.2,1.3-0.1c0.2,0.1,0.4,0,0.6,0c0,0,0-0.1,0-0.1
	C81.8,13.9,82,14.3,82.2,14.7z"/>
<path class="st33" d="M82.6,18.2c0.2-0.8,0.2-1.5,0-2.3c0-0.1,0-0.1,0-0.2c0.1,0.1,0.1,0.3,0.1,0.4c0,0.1,0,0.2,0.1,0.2
	c0.1,0.3,0,0.7,0,1c0,0.1,0,0.2,0,0.3c0,0,0,0,0,0c0,0,0,0,0,0c0-0.5,0-1,0-1.4c0-0.1-0.1-0.3,0-0.5c0,0,0,0,0,0
	c0.2,0.9,0.2,1.7,0,2.6c0,0,0,0.1,0,0.1c0,0.1-0.1,0.1-0.2,0.1c-0.1,0-0.1-0.1-0.1-0.2C82.6,18.4,82.6,18.3,82.6,18.2z"/>
<path class="st28" d="M79.4,12.1c-0.4,0-0.7-0.2-1-0.3c-0.5,0-1-0.2-1.6,0c-0.2,0.1-0.5,0-0.7,0.1c0.7-0.2,1.3-0.2,2-0.1
	C78.5,11.8,79,11.8,79.4,12.1z"/>
<path class="st34" d="M76.3,22.5C76.2,22.5,76.2,22.5,76.3,22.5c0.2-0.2,0.5-0.1,0.7-0.1c0.3,0,0.6,0,0.8,0c0.1,0,0.3,0,0.4,0.1
	c-0.5,0.1-1,0.1-1.5,0C76.5,22.6,76.4,22.6,76.3,22.5z"/>
<path class="st25" d="M77.8,22.5c-0.5,0-1.1,0-1.6-0.1c-0.1,0-0.2,0-0.2-0.1c0.2,0,0.3,0,0.5,0.1C76.9,22.4,77.3,22.5,77.8,22.5
	C77.8,22.5,77.8,22.5,77.8,22.5z"/>
<path class="st35" d="M82.9,16.3c0,0.5,0,1,0,1.4c0,0,0,0,0,0C82.8,17.3,82.8,16.9,82.9,16.3C82.8,16.4,82.8,16.3,82.9,16.3z"/>
<path class="st32" d="M81.5,13.7c-0.3-0.2-0.5-0.5-0.7-0.8C81.1,13.1,81.3,13.4,81.5,13.7z"/>
<path class="st25" d="M76.3,22.5c0.1,0,0.3,0,0.4,0.1c0,0,0,0,0,0c0,0,0,0,0,0c-0.2,0-0.5,0-0.7-0.1C76.1,22.5,76.2,22.5,76.3,22.5z
	"/>
<path class="st0" d="M81,18.1c0.5,0.1,0.9,0.4,1.4,0.5c0,0,0.1,0,0.1,0c0.7,0.2,1.3,0.5,2,0.8c0.2,0.1,0.4,0.2,0.6,0.3
	c0.1,0,0.2,0.1,0.2,0.2c0,0.2-0.1,0.2-0.3,0.2c-0.5,0.1-1,0.3-1.5,0.4c-0.3,0.2-0.6,0.2-1,0.3c-0.2,0.1-0.2,0.1-0.1,0.2
	c0.4,0.5,0.9,0.9,1.3,1.4c0.1,0.1,0.2,0.2,0.2,0.3c0,0.3-0.1,0.5-0.3,0.6c-0.3,0.1-0.5,0-0.7-0.2c-0.2-0.1-0.3-0.3-0.4-0.4
	c-0.3-0.3-0.6-0.6-0.9-0.9c-0.1-0.1-0.2-0.1-0.2,0c-0.2,0.6-0.4,1.2-0.5,1.8c0,0.1,0,0.1-0.1,0.2c-0.1,0.1-0.1,0.3-0.1,0.4
	c0,0.1-0.1,0.2-0.3,0.2c-0.1,0-0.2-0.1-0.3-0.2c-0.1-0.2-0.3-0.4-0.3-0.7c-0.2-0.4-0.3-0.8-0.5-1.1c-0.1-0.2-0.2-0.4-0.2-0.6
	c-0.1,0-0.1,0-0.1-0.1c-0.2-0.5-0.4-1-0.6-1.5c-0.2-0.5-0.5-1-0.6-1.5c0,0,0-0.1-0.1-0.1c0-0.1-0.1-0.1-0.1-0.2
	c-0.2-0.5-0.4-1-0.6-1.6c-0.1-0.1-0.1-0.3-0.1-0.4c0-0.2,0.1-0.4,0.3-0.3c0.6,0.2,1.2,0.4,1.7,0.7c0.1,0.1,0.2,0.1,0.4,0.2
	c0.5,0.1,0.9,0.3,1.3,0.5C80.9,17.9,81,18,81,18.1z"/>
<path class="st20" d="M84.5,19.4c-0.5-0.2-1-0.4-1.5-0.6c-0.2-0.1-0.3-0.1-0.5-0.2c0-0.1,0-0.3,0.1-0.4c0,0.1,0,0.2,0,0.3
	c0,0.1,0,0.1,0.1,0.1c0.1,0,0.1,0,0.1-0.1c0.1-0.7,0.3-1.3,0.2-2c0-0.2,0-0.5-0.1-0.7c0.2,0.2,0,0.5,0.2,0.5c0.2,0,0.4,0.1,0.5,0.2
	c0.2,0.2,0.4,0.4,0.6,0.6c0.1,0.1,0.2,0.2,0.2,0.4c0.2-0.5,0-1.1,0.1-1.6c0,0,0,0,0,0c0.1,0.7,0.1,1.4,0,2c-0.1,0.4-0.1,0.7-0.3,1.1
	c0,0.1,0,0.2,0.1,0.2C84.4,19.4,84.5,19.4,84.5,19.4z"/>
<path class="st36" d="M80.9,24.1c0-0.1,0-0.1,0-0.2c0-0.1,0.1-0.2,0.1-0.3c0.1-0.4,0.2-0.7,0.6-0.9c0.1-0.1,0.2-0.2,0.3-0.3
	c0.1-0.1,0.3-0.1,0.4,0c0.1,0.1,0.2,0.2,0.3,0.4c0.1,0.1,0.3,0.3,0.4,0.4c0.2,0.2,0.5,0.3,0.8,0.2c0,0,0.1,0,0.1,0
	c-0.2,0.2-0.6,0.2-0.8,0.1c-0.1-0.1-0.2-0.1-0.4,0c-0.5,0.3-1,0.5-1.5,0.5c-0.3,0-0.3,0.3-0.4,0.5c0,0.1,0,0.2-0.1,0.2
	C80.7,24.5,80.9,24.3,80.9,24.1z"/>
<path class="st37" d="M84.1,22.9c-0.1-0.3-0.4-0.5-0.6-0.7c-0.4-0.4-0.7-0.7-1.1-1.1c-0.1-0.1-0.1-0.2,0-0.2
	c0.4-0.1,0.7-0.2,1.1-0.3c-0.3,0.2-0.4,0.6-0.6,0.8c-0.1,0.1,0,0.1,0.1,0.2c0.3,0.3,0.6,0.6,0.8,0.8c0.1,0.1,0.1,0.2,0.2,0.2
	C84.2,22.8,84.1,22.8,84.1,22.9z"/>
<path class="st10" d="M84.1,22.9c0-0.1,0-0.1,0-0.2c0.1,0.3,0,0.5-0.1,0.7c-0.5,0.2-0.7,0.1-1-0.2c-0.1-0.1-0.2-0.3-0.4-0.4
	c0,0,0,0,0,0c0.1,0.1,0.3,0.3,0.4,0.4c0.2,0.2,0.4,0.3,0.7,0.2C84,23.4,84.1,23.2,84.1,22.9z"/>
<path class="st10" d="M80.9,24.1c0,0.2-0.1,0.4-0.1,0.7c0,0,0,0,0,0c-0.1,0.1-0.2,0.1-0.3,0c-0.1-0.1-0.2-0.2-0.2-0.3
	c-0.1-0.2-0.2-0.4-0.2-0.5c0,0,0-0.1,0-0.1c0,0,0,0,0.1,0c0.1,0.2,0.2,0.4,0.3,0.6c0.1,0.1,0.1,0.3,0.3,0.3c0.2,0,0.2-0.2,0.2-0.3
	C80.8,24.4,80.8,24.2,80.9,24.1z"/>
<path class="st10" d="M78.3,24.2c0.5-0.1,1-0.2,1.5-0.4c0,0,0.1,0,0.1,0C79.8,24,79.6,24,79.4,24c0,0,0,0,0,0c-0.1,0-0.2,0.1-0.2,0
	c-0.2,0.1-0.4,0-0.6,0.1C78.5,24.3,78.4,24.3,78.3,24.2L78.3,24.2C78.3,24.2,78.3,24.2,78.3,24.2z"/>
<path class="st36" d="M79.4,24c0.2,0,0.3-0.1,0.4-0.1c0,0,0,0.1,0.1,0.1c0,0,0,0.1,0,0.1C79.8,23.9,79.6,24.1,79.4,24z"/>
<path class="st36" d="M79.9,24c0.1,0.2,0.2,0.4,0.2,0.5c-0.2,0.1-0.1-0.1-0.1-0.2C80,24.3,79.9,24.2,79.9,24z"/>
<path class="st36" d="M80.4,24.8c0.1,0,0.2,0,0.3,0C80.6,25,80.4,25,80.4,24.8z"/>
<path class="st36" d="M79.1,24.1c0.1,0,0.2-0.1,0.2,0C79.3,24.1,79.2,24.2,79.1,24.1z"/>
<path class="st36" d="M78.3,24.2c0.1,0,0.1,0,0.2,0C78.5,24.3,78.4,24.3,78.3,24.2z"/>
<path class="st38" d="M79.2,22.1C79.3,22.2,79.3,22.2,79.2,22.1c0.1,0.2,0,0.2-0.1,0.3c-0.8,0.2-1.6,0.4-2.4,0.2c0,0-0.1,0-0.1,0
	c0,0,0,0,0,0c0.5,0,1,0,1.4-0.1c-0.1,0-0.2,0-0.3,0c0,0,0,0,0-0.1c0,0,0.1-0.1,0.1-0.1c0.4,0,0.7-0.2,1.1-0.3
	C79.1,22.1,79.2,22.1,79.2,22.1z"/>
<path class="st39" d="M76.4,20.8c-0.3-0.1-0.7-0.3-1-0.4c-0.9-0.6-1.5-1.4-1.8-2.4c0,0,0-0.1,0-0.1c-0.1-0.1,0-0.2,0-0.3
	c0-0.3-0.1-0.5,0-0.8c0.1,0.1,0,0.3,0.1,0.5c0,0.1,0,0.1,0,0.2c0,0,0,0,0,0.1c0,0.1,0,0.2,0.1,0.3c0,0,0,0.1,0,0.1
	c0.1,0.3,0.2,0.7,0.4,1c0,0,0,0,0,0.1c0,0.1,0.1,0.2,0.1,0.2c0.1,0.1,0.1,0.1,0.2,0.2c0.3,0.3,0.5,0.6,0.9,0.8
	c0.2,0.2,0.5,0.3,0.7,0.4c0.2,0.1,0.4,0.1,0.6,0.2c0.4,0.1,0.8,0.1,1.1,0.1c0,0,0,0,0.1,0c0.1,0,0.2,0,0.3,0c0,0,0.1,0,0.1,0
	c0,0,0.1,0,0.1,0.1c0,0.1-0.1,0.1-0.2,0.1c-0.4,0.1-0.8,0.1-1.2,0C76.8,20.9,76.6,20.9,76.4,20.8z"/>
<path class="st40" d="M73.6,17.4c-0.1,0-0.1-0.1-0.1-0.1c-0.1-0.2,0-0.5,0-0.7c0-0.5,0.2-1,0.5-1.5c0.1,0,0.1,0.1,0.1,0.1
	C73.8,15.9,73.6,16.6,73.6,17.4C73.7,17.4,73.6,17.4,73.6,17.4z"/>
<path class="st41" d="M77.8,13.1C77.8,13.2,77.9,13.2,77.8,13.1c0.4,0.1,0.7,0.2,0.9,0.2c0,0,0,0.1,0,0.1c0,0-0.1,0-0.1,0
	c-0.1,0-0.3,0-0.4-0.1c0,0,0,0-0.1,0c-0.2,0-0.4-0.1-0.7-0.1c-0.1,0-0.2,0-0.3,0c-0.1-0.1,0-0.1,0-0.1c0.1,0,0.2,0,0.3,0
	c-0.1,0-0.2,0-0.3,0c-0.1,0,0,0.1-0.1,0.1c-0.1,0.1-0.2,0.1-0.3,0.1c-0.1-0.1,0-0.1,0-0.1c0.1-0.2,0.3-0.1,0.5-0.1
	C77.5,13.1,77.6,13.1,77.8,13.1z"/>
<path class="st42" d="M76.8,13.2C76.8,13.3,76.8,13.3,76.8,13.2c-0.4,0.2-0.8,0.4-1.1,0.4c-0.1,0-0.1,0-0.1-0.1
	C76,13.4,76.4,13.2,76.8,13.2z"/>
<path class="st43" d="M74.1,15.2c0,0,0-0.1-0.1-0.1c0.2-0.4,0.5-0.7,0.8-1c0,0,0.1,0,0.1,0.1C74.7,14.5,74.4,14.8,74.1,15.2
	C74.1,15.2,74.1,15.2,74.1,15.2z"/>
<path class="st44" d="M74.9,14.2C74.9,14.1,74.9,14.1,74.9,14.2c0.1-0.3,0.4-0.4,0.7-0.6c0,0,0.1,0,0.1,0.1
	C75.5,13.9,75.2,14.1,74.9,14.2z"/>
<path class="st45" d="M73.5,16.6c0.1,0.2,0,0.5,0,0.7c-0.1-0.2,0-0.4-0.1-0.6C73.5,16.7,73.5,16.7,73.5,16.6z"/>
<path class="st40" d="M73.5,17.6c0.1,0.1,0,0.2,0,0.3C73.5,17.8,73.5,17.7,73.5,17.6z"/>
<path class="st26" d="M73.6,18.3c0,0.1,0.1,0.2,0.1,0.4C73.6,18.5,73.6,18.5,73.6,18.3z"/>
<path class="st26" d="M73.5,20.8C73.5,20.8,73.5,20.8,73.5,20.8c-0.1-0.1,0-0.1,0-0.1C73.5,20.7,73.6,20.8,73.5,20.8
	C73.6,20.8,73.6,20.8,73.5,20.8z"/>
<path class="st46" d="M78.7,13.5C78.7,13.4,78.7,13.4,78.7,13.5c0.3,0,0.5,0.2,0.8,0.3c0.3,0.3,0.7,0.6,1,0.9
	c0.1,0.3,0.3,0.5,0.4,0.7c0,0.1-0.1,0.1-0.1,0.1c-0.1-0.1-0.1-0.2-0.2-0.3c-0.2-0.3-0.4-0.6-0.7-0.9c-0.3-0.3-0.7-0.5-1-0.7
	C78.8,13.6,78.7,13.5,78.7,13.5z"/>
<path class="st26" d="M78.2,13.1c-0.1,0-0.1,0-0.2,0C78,13.1,78.1,13.1,78.2,13.1z"/>
<path class="st47" d="M76.4,20.8c0.5,0.1,1,0.2,1.5,0.1c0.1,0,0.2,0,0.3-0.1c0.1,0,0.3-0.1,0.4-0.2c0,0,0,0,0.1,0
	c0.2,0.5,0.4,1,0.6,1.5c-0.5,0.2-1,0.3-1.4,0.3c-0.4,0-0.9,0-1.3-0.1c0.2,0,0.5,0,0.7,0c0.4,0.1,0.7-0.1,1.1-0.1
	c-0.2-0.1-0.4,0-0.6-0.1c-0.2,0-0.3-0.2-0.4-0.4c-0.1-0.2-0.1-0.4-0.2-0.6c-0.1-0.1,0-0.2,0.1-0.2c0.2,0,0.3,0,0.5,0
	c-0.3,0-0.6-0.1-0.9-0.1C76.6,20.9,76.5,20.9,76.4,20.8z"/>
<path class="st48" d="M81,18.1c-0.5-0.2-1-0.5-1.5-0.6c-0.1,0-0.3-0.1-0.4-0.2c0,0,0.1,0,0.1,0c0.3,0.1,0.4,0,0.4-0.3
	c0-0.3-0.1-0.6-0.2-0.9c0-0.1-0.1-0.1,0-0.2c0,0,0,0,0.1,0c0.1,0,0.1,0.1,0.2,0.2c0.2,0.3,0.3,0.7,0.2,1.1c0-0.4,0-0.4,0.4-0.5
	c0.2,0,0.4-0.1,0.6,0c0.2,0,0.2,0,0.2-0.2c0-0.1,0-0.2,0.1-0.2c0.2,0.2,0.1,0.4,0.1,0.6c0,0.2,0,0.4,0,0.6
	C81.1,17.6,81.2,17.8,81,18.1C81,18.1,81,18.1,81,18.1z"/>
<path class="st49" d="M81,18c0-0.2,0.1-0.4,0.1-0.6c0.1-0.2,0-0.4,0-0.6c0-0.1-0.1-0.2,0.1-0.2c0.1,0.3,0.1,0.6,0,0.9
	c0,0.1,0,0.2,0,0.4C81.2,17.9,81.2,18,81,18z"/>
<path class="st50" d="M81.2,16.6c-0.1,0.2,0,0.4-0.1,0.5c0,0.1,0,0.2-0.1,0.3c0-0.4,0-0.8-0.1-1.2c-0.1-0.1-0.1-0.2-0.1-0.3
	c0,0,0,0,0.1,0c0.2,0.2,0.2,0.4,0.2,0.6C81.1,16.5,81.2,16.6,81.2,16.6z"/>
<path class="st51" d="M81,15.9C81,15.9,81,15.9,81,15.9c-0.2-0.1-0.2-0.2-0.2-0.3c0,0,0.1,0,0.1-0.1C81,15.6,81,15.7,81,15.9z"/>
<path class="st24" d="M79.2,17.3C79.2,17.3,79.1,17.3,79.2,17.3c-0.7-0.2-1.2-0.5-1.8-0.7c-0.1,0-0.2-0.1-0.3,0
	c-0.1,0.1-0.1,0.2,0,0.3c0.2,0.4,0.3,0.8,0.5,1.2c0.1,0.2,0.2,0.4,0.3,0.7c-0.5,0-1,0.1-1.4-0.2c-0.6-0.4-1-1.1-0.9-1.9
	c0.1-0.7,0.7-1.3,1.4-1.5c0.4-0.1,0.7-0.1,1.1,0.1c0.1,0,0.2,0.1,0.2,0.1C78.9,15.7,79.4,16.7,79.2,17.3z"/>
<path class="st52" d="M79.2,17.3c0-0.4,0-0.8-0.3-1.2c-0.2-0.3-0.4-0.5-0.7-0.7c-0.1-0.1-0.1-0.1-0.2-0.1c-1.1-0.5-2.2,0.3-2.4,1.3
	c-0.2,1,0.6,2.1,1.7,2.1c0.2,0,0.4-0.1,0.6,0c0,0.1,0.1,0.1,0.1,0.2c0.1,0.2,0,0.2-0.2,0.3c-0.6,0.1-1.1,0-1.6-0.3
	c-0.3-0.2-0.5-0.4-0.7-0.7c-0.6-0.8-0.6-1.9,0.2-2.8c0.1-0.1,0.2-0.2,0.3-0.2c0.8-0.7,2-0.7,2.8-0.1c0.2,0.2,0.5,0.4,0.6,0.7
	c0.2,0.4,0.4,0.9,0.3,1.3c0,0.3,0,0.3-0.3,0.2C79.3,17.3,79.2,17.3,79.2,17.3z"/>
<path class="st53" d="M76.2,18.9c0.5,0.3,1,0.4,1.6,0.3c0.1,0,0.2-0.1,0.2-0.2c0.2,0.2,0.1,0.5,0.3,0.7c0.2,0.3,0.3,0.6,0.4,0.9
	c0,0,0,0,0,0c-0.1,0.1-0.3,0-0.5,0.1l0,0l0,0c-0.1,0.1-0.2,0-0.3,0l0,0c-0.4,0.1-0.8,0.1-1.2,0c-0.2-0.1-0.4-0.1-0.6-0.2
	c0.1-0.1,0.2,0,0.3,0c0.2,0,0.4,0.2,0.6,0.1c-0.2,0-0.2-0.1-0.3-0.3c-0.1-0.3-0.1-0.5,0-0.8c0.1-0.1,0.1-0.2,0.2-0.2c0.1,0,0,0,0,0
	c0,0,0,0,0,0c-0.2,0-0.4-0.1-0.6-0.2C76.2,19.1,76.2,19,76.2,18.9z"/>
<path class="st54" d="M82.7,22.9C82.7,22.9,82.6,22.9,82.7,22.9c-0.2-0.1-0.3-0.2-0.4-0.3c-0.1-0.2-0.2-0.2-0.4,0
	c-0.1,0.1-0.2,0.2-0.3,0.2c-0.4,0.2-0.6,0.5-0.6,1c0,0.1,0,0.1-0.1,0.2c0-0.4,0.2-0.8,0.3-1.2c0.1-0.2,0.1-0.5,0.2-0.7
	c0-0.1,0.1-0.2,0.2-0.1C82,22.2,82.4,22.5,82.7,22.9z"/>
<path class="st55" d="M74.9,14.2c0.3-0.2,0.5-0.4,0.8-0.5c0.2-0.1,0.5-0.1,0.7-0.2c0.1,0,0.2-0.1,0.3-0.1c0.1,0,0.2,0,0.3-0.1
	c0,0,0,0,0.1,0c0.1,0,0.2,0,0.3,0c0.2,0.1,0.5,0.1,0.7,0.1l0,0c0.1,0.1,0.2,0.1,0.3,0.1c0,0.1,0,0.1-0.1,0.1
	c-0.6,0.1-1.1,0.5-1.7,0.8c-0.4,0.2-0.7,0.5-1,0.9c-0.6,0.7-1.2,1.5-1.6,2.4C74,17.9,74,18.1,74,18.4c0,0,0,0-0.1,0
	c-0.2-0.2-0.1-0.4-0.2-0.6c0,0,0,0,0-0.1c-0.1-0.1,0-0.2-0.1-0.3c0,0,0,0,0,0c0-0.8,0.1-1.5,0.4-2.2C74.3,14.8,74.6,14.5,74.9,14.2z
	"/>
<path class="st56" d="M76.2,18.9c0.2,0.3,0.5,0.3,0.8,0.4c-0.4,0.1-0.5,0.5-0.4,0.9c0,0,0.1,0.1,0.1,0.1c0,0.2,0.1,0.3,0.3,0.3
	c0,0,0.1,0,0.1,0.1c-0.2,0-0.3,0.1-0.5,0c-0.2-0.1-0.3-0.1-0.5-0.1c-0.3-0.1-0.5-0.2-0.8-0.4c0,0,0.1,0,0.1,0
	c0.1,0.1,0.2,0.1,0.3,0.2c-0.1-0.1-0.2-0.1-0.3-0.2c-0.2-0.1-0.2-0.2-0.2-0.3c0-0.4,0-0.8,0.2-1.2c0-0.1,0.1-0.2,0.2-0.2
	c0,0,0,0,0,0c0,0,0,0,0.1,0.1c0,0,0,0,0-0.1c0,0,0-0.1,0-0.1C75.8,18.5,76,18.8,76.2,18.9z"/>
<path class="st57" d="M75.6,18.4c-0.3,0.1-0.2,0.4-0.3,0.7c-0.1,0.2,0,0.3-0.1,0.5c-0.1,0.2,0.1,0.4,0.2,0.5c0,0-0.1,0-0.1,0
	c-0.4-0.2-0.7-0.5-0.9-0.8c0,0,0.1-0.1,0.1-0.1c0.1-0.4,0.1-0.8,0.3-1.2c0.1-0.2,0.1-0.3,0.3-0.4c0,0,0.1-0.1,0-0.1
	c-0.2-0.5,0-1,0.2-1.5c0,0,0,0,0-0.1c0,0,0.1-0.1,0.1-0.1c0,0,0,0,0-0.1c0-0.1,0.1-0.1,0.1-0.2c0,0,0,0,0,0c0.1,0,0.1-0.1,0.2-0.1
	c-0.2,0.3-0.4,0.7-0.5,1.1c-0.1,0.6,0,1.2,0.4,1.7C75.6,18.4,75.6,18.4,75.6,18.4z"/>
<path class="st55" d="M74.5,19.2c0,0.1-0.1,0.1-0.1,0.1c-0.1,0-0.1-0.1-0.1-0.2c0-0.1-0.1-0.2-0.2-0.3l0,0c0-0.2-0.2-0.3-0.1-0.5
	c0.1,0,0.1,0,0.1,0C74.2,18.7,74.4,19,74.5,19.2z"/>
<path class="st57" d="M74,18.4c0,0.2,0.2,0.3,0.1,0.5c-0.2-0.3-0.3-0.7-0.4-1.1C73.9,18,73.8,18.2,74,18.4z"/>
<path class="st58" d="M76.7,20.7c0.4,0.1,0.8,0.1,1.2,0C77.5,20.9,77.1,20.9,76.7,20.7z"/>
<path class="st58" d="M78.2,20.7c0.1-0.1,0.3-0.1,0.5-0.1c-0.1,0.2-0.3,0.2-0.4,0.2c0,0,0.1-0.1,0.1-0.1
	C78.3,20.7,78.2,20.7,78.2,20.7z"/>
<path class="st57" d="M74.1,18.8c0.1,0,0.1,0.1,0.2,0.3C74.2,19,74.1,19,74.1,18.8z"/>
<path class="st40" d="M73.6,17.4c0.1,0.1,0.1,0.2,0.1,0.3C73.6,17.7,73.6,17.6,73.6,17.4z"/>
<path class="st58" d="M77.9,20.8c0.1-0.1,0.2-0.1,0.3,0C78.1,20.8,78,20.8,77.9,20.8z"/>
<path class="st59" d="M74.5,19.2c-0.2-0.2-0.3-0.4-0.4-0.7c0-0.1,0-0.2-0.1-0.2c-0.1-0.6,0.3-1.1,0.5-1.6c0.3-0.5,0.7-1,1.1-1.5
	c0.4-0.5,0.9-0.8,1.4-1.1c0.3-0.2,0.5-0.3,0.8-0.5c0.2-0.1,0.4-0.2,0.7-0.2c-0.1-0.1-0.2,0-0.2-0.1c0.1,0,0.3,0.1,0.4,0.1
	c0.1,0,0.1,0,0.2,0.1c0.4,0.2,0.8,0.4,1,0.7c0,0,0.1,0.1,0.1,0.1c0,0,0.1,0.1,0,0.1c0,0-0.1,0-0.1,0c-0.4-0.4-0.8,0-1.2,0.1
	c-0.1,0-0.2,0.1-0.3,0.1c-0.1,0-0.1,0.1-0.1,0.2c0,0,0,0-0.1,0c-0.4-0.1-0.8-0.2-1.1-0.1c-0.2,0-0.4,0-0.5,0.1c0,0,0,0-0.1,0
	c-0.1,0-0.1,0.1-0.2,0.1c-0.1,0.1-0.3,0.2-0.4,0.3c-0.2,0-0.3,0.2-0.4,0.4c-0.1,0-0.1,0.1-0.1,0.2c-0.1,0-0.1,0.1-0.1,0.1
	c-0.2,0.4-0.3,0.8-0.3,1.2c0,0.2,0.1,0.3,0.1,0.5c-0.2,0-0.3,0.1-0.3,0.3c-0.1,0.4-0.2,0.7-0.2,1.1C74.6,19.2,74.5,19.2,74.5,19.2z"
	/>
<path class="st59" d="M78.2,13.4c-0.2,0-0.5,0-0.7-0.1C77.7,13.3,78,13.3,78.2,13.4z"/>
<path class="st60" d="M77.2,13.3C77.1,13.3,77.1,13.3,77.2,13.3C77.1,13.2,77,13.2,77.2,13.3c0.1-0.1,0.3-0.1,0.5-0.1
	C77.4,13.3,77.3,13.2,77.2,13.3z"/>
<path class="st28" d="M78.8,13.6c-0.1,0-0.1,0-0.2-0.1C78.7,13.5,78.7,13.5,78.8,13.6C78.8,13.5,78.8,13.5,78.8,13.6z"/>
<path class="st61" d="M80.8,15.5c0,0.1,0.1,0.2,0.1,0.4c0,0.1,0,0.2,0.1,0.3c0,0.5,0,0.4-0.4,0.4c-0.2,0-0.5,0-0.7,0.1
	c-0.1,0-0.1,0.1-0.1,0.2c0,0.1,0,0.3,0,0.4c0-0.5-0.1-0.9-0.3-1.3c0-0.1-0.2-0.2-0.2-0.3c-0.1-0.2-0.1-0.2,0.1-0.3
	c0.4-0.2,0.8-0.2,1.2-0.1c0,0,0.1,0,0.1,0C80.7,15.3,80.8,15.4,80.8,15.5z"/>
<path class="st62" d="M80.6,15.2C80.6,15.2,80.7,15.3,80.6,15.2c-0.2,0-0.3,0.1-0.5,0c-0.4,0-0.7,0.1-1,0.2c0.1,0.2,0.3,0.3,0.3,0.5
	c0,0-0.1-0.1-0.1-0.1c-0.2-0.2-0.4-0.5-0.6-0.6c-0.5-0.3-1-0.5-1.6-0.4c-0.5,0-0.8,0.3-1.2,0.5c0-0.1,0-0.1,0-0.1
	c0.1-0.1,0.3-0.2,0.4-0.2c0,0,0.1-0.1,0.1-0.1c0.2,0,0.3-0.2,0.5-0.1c0.3-0.1,0.7,0,1,0.1c0.1,0,0.2,0.1,0.2,0
	c-0.1-0.1-0.1-0.2,0.1-0.2c0.4-0.2,0.8-0.3,1.2-0.4c0.1,0,0.2,0,0.3,0.1c0,0,0.1,0.1,0.2,0.1c0-0.1-0.1-0.1-0.1-0.2
	C80.2,14.5,80.5,14.8,80.6,15.2z"/>
<path class="st61" d="M78.7,15.2c0.3,0.1,0.4,0.4,0.6,0.6c0,0,0,0-0.1,0C79.1,15.6,78.9,15.4,78.7,15.2z"/>
<path class="st63" d="M78,15.4c0.1,0,0.2,0,0.2,0.1C78.2,15.5,78.1,15.4,78,15.4z"/>
<path class="st55" d="M76,15.2c0,0,0,0.1,0,0.1c0,0.1-0.1,0.1-0.2,0.2c-0.1,0-0.1,0.1-0.2,0.1C75.6,15.4,75.7,15.2,76,15.2z"/>
<path class="st57" d="M75.4,20.1c0.2,0,0.3,0.1,0.4,0.2C75.6,20.3,75.5,20.2,75.4,20.1z"/>
<path class="st57" d="M75.6,18.4c0.1,0,0.1,0.1,0.2,0.2C75.6,18.6,75.6,18.5,75.6,18.4z"/>
<path class="st55" d="M75.1,17.7c-0.2-0.6-0.2-1.2,0.2-1.7c0,0.2-0.1,0.5-0.2,0.7c-0.1,0.3-0.1,0.5,0,0.8
	C75.2,17.5,75.2,17.6,75.1,17.7z"/>
<path class="st55" d="M75.4,15.8c0-0.1,0-0.2,0.1-0.2C75.5,15.7,75.5,15.7,75.4,15.8z"/>
<path class="st55" d="M75.3,16c0-0.1,0-0.1,0.1-0.1C75.4,15.9,75.4,15.9,75.3,16z"/>
<path class="st55" d="M77,14.8c-0.2,0-0.4,0.1-0.5,0.1C76.7,14.7,76.8,14.6,77,14.8z"/>
<path class="st55" d="M76.5,14.9c0,0.1-0.1,0.1-0.1,0.1C76.4,14.9,76.4,14.9,76.5,14.9z"/>
<path class="st59" d="M78.3,14.9c0,0,0.1,0,0.1,0C78.4,15,78.4,14.9,78.3,14.9C78.3,14.9,78.3,14.9,78.3,14.9z"/>
<path class="st64" d="M40.2,27.5c0.1-0.3,0.2-0.6,0.4-0.9C40.5,26.9,40.4,27.2,40.2,27.5C40.2,27.5,40.2,27.5,40.2,27.5z"/>
<polygon class="st0" points="16.7,22.8 16.7,22.8 16.7,22.8 "/>
<path class="st0" d="M18.1,19.9L18.1,19.9C18.1,19.9,18.1,19.9,18.1,19.9C18.1,19.9,18.1,19.9,18.1,19.9
	C18.1,19.9,18.1,19.9,18.1,19.9C18.1,19.9,18.1,19.9,18.1,19.9z"/>
<path class="st0" d="M25.4,18.3c-0.5-0.7-1.2-0.9-2.1-0.9c-1.6,0-3.2,0-4.8,0c-0.8,0-1.5,0.1-2.2,0.7c0,0,0,0-0.1,0
	c-0.4,0.3-0.7,0.7-0.9,1.2c-0.2,0.6-0.5,1.1-0.7,1.7c-0.1,0.3-0.3,0.7-0.4,1h0c-0.1,0.3-0.2,0.6-0.4,0.9c-0.3,0.7-0.6,1.4-0.9,2.1
	c-0.2,0.6-0.3,1.1-0.1,1.7c0.3,0.7,0.9,1.1,1.7,1.1c2,0,3.9,0,5.9,0c0.5,0,1-0.2,1.4-0.5c0.9-0.6,1.2-1.6,1.6-2.5
	c0.2-0.4,0.4-0.8,0.5-1.2l0,0c0.2-0.5,0.4-0.9,0.6-1.4c0.3-0.7,0.6-1.4,0.9-2.1C25.8,19.5,25.8,18.9,25.4,18.3
	C25.5,18.3,25.4,18.3,25.4,18.3z M22.8,20.2c-0.7,1.7-1.4,3.3-2.1,5c0,0,0,0.1-0.1,0.1c-0.1,0.2-0.2,0.2-0.4,0.2c-1.3,0-2.7,0-4,0
	c-0.4,0-0.5-0.2-0.4-0.6c0.3-0.7,0.6-1.4,0.9-2.1c0,0,0,0,0,0c0,0,0,0,0,0c0.4-0.9,0.8-1.8,1.2-2.7c0.1-0.2,0.3-0.3,0.5-0.3
	c1.4,0,2.7,0,4.1,0c0.1,0,0.2,0,0.3,0.1C22.8,19.9,22.8,20.1,22.8,20.2z"/>
<path class="st0" d="M16.5,9.3c0,0.1,0,0.2-0.1,0.2c-0.1,0.5-0.4,0.9-0.5,1.3c-0.2,0.6-0.6,1.2-0.7,1.9c-0.1,0.5-0.1,1,0.2,1.4
	c0,0,0,0.1,0.1,0.1l0,0h0c0.3,0.5,0.8,0.7,1.3,0.7c0.1,0,0.1,0,0.2,0c1.9,0,3.7,0,5.6,0c1.1,0,1.9-0.5,2.5-1.4
	c0.2-0.5,0.4-0.9,0.6-1.4c0.2-0.5,0.5-1.1,0.7-1.6c0-0.1,0.1-0.2,0.1-0.3c0.4-0.9,0.7-1.7,1.1-2.6C28,7,28.2,6.3,27.8,5.5
	c-0.1-0.1-0.2-0.3-0.3-0.4c-0.3-0.2-0.7-0.4-1.1-0.5c-0.2,0-0.4,0-0.5,0c-1.7,0-3.5,0-5.2,0c-0.3,0-0.7,0.1-1,0.1
	c-0.4,0.1-0.7,0.3-1,0.5c-0.2,0.2-0.5,0.5-0.6,0.7C17.5,7.1,17.1,8.2,16.5,9.3C16.6,9.3,16.6,9.3,16.5,9.3z M18,12.2
	c0.2-0.5,0.5-1.1,0.7-1.6c0,0,0,0,0,0c0.3-0.8,0.7-1.6,1-2.4c0.1-0.3,0.2-0.6,0.4-0.9c0,0,0.1-0.1,0.1-0.1C20.4,6.9,20.5,7,20.7,7
	c1.3,0,2.7,0,4,0c0.4,0,0.5,0.2,0.4,0.5c-0.3,0.6-0.5,1.2-0.8,1.7c-0.3,0.6-0.5,1.3-0.8,1.9c0,0,0,0.1-0.1,0.1
	c-0.2,0.4-0.3,0.8-0.5,1.1c-0.1,0.2-0.2,0.2-0.4,0.2c-1.4,0-2.8,0-4.1,0C18,12.7,17.9,12.5,18,12.2z"/>
<path class="st0" d="M55.6,17.4c-0.9,0-1.9,0-2.8,0c-0.2,0-0.3,0.1-0.4,0.2c-1,0.8-1.9,1.7-2.9,2.5c0,0.1-0.1,0.2-0.2,0.2
	c-0.1,0-0.1-0.1-0.1-0.2c-0.2-0.8-0.5-1.6-0.7-2.4c0-0.2-0.1-0.2-0.3-0.2c-0.9,0-1.9,0-2.8,0c-0.2,0-0.2,0.1-0.2,0.2
	c0.4,1.2,0.7,2.3,1.1,3.5c0.1,0.4,0.3,0.8,0.4,1.3c0,0.1,0,0.3-0.1,0.3c-1.9,1.7-3.9,3.4-5.8,5c0.1,0.1,0.2,0.1,0.3,0.1
	c0.9,0,1.9,0,2.8,0c0.2,0,0.3,0,0.4-0.2c0.3-0.2,0.5-0.5,0.8-0.7c0.7-0.7,1.5-1.3,2.2-2c0.1-0.2,0.2-0.1,0.2,0
	c0.2,0.8,0.4,1.5,0.7,2.3c0,0.1,0.1,0.2,0.1,0.4c0,0.1,0.1,0.1,0.2,0.1c0.9,0,1.9,0,2.8,0c0.2,0,0.2-0.1,0.2-0.2
	c-0.2-0.8-0.5-1.5-0.7-2.3c-0.3-0.8-0.5-1.7-0.8-2.5c0-0.1,0-0.2,0-0.2c0.1-0.1,0.2-0.3,0.4-0.3c0,0,0,0,0,0
	c1.8-1.5,3.6-3.1,5.3-4.6c0,0,0.1-0.1,0.1-0.1C55.8,17.4,55.7,17.4,55.6,17.4z"/>
<path class="st0" d="M48.9,8.9C48.9,8.9,48.9,8.9,48.9,8.9L48.9,8.9c-0.2,0.5-0.4,0.9-0.6,1.4c0,0,0,0,0,0l0,0
	c-0.1,0.3-0.3,0.7-0.4,1c-0.3,0.7-0.6,1.4-0.9,2.1c-0.2,0.4-0.4,0.9-0.5,1.3c0,0.1,0,0.2-0.1,0.2c-0.1,0.2,0,0.2,0.1,0.2
	c0.7,0,1.4,0,2.1,0c0.1,0,0.2,0,0.2,0c0.1-0.3,0.2-0.6,0.3-0.9c0.3-0.8,0.7-1.7,1.1-2.5c0.1-0.2,0.1-0.4,0.3-0.4
	c0.1-0.1,0.3-0.1,0.5-0.1c1.2,0,2.5,0,3.7,0c0.2,0,0.3,0,0.2,0.2c-0.1,0.2-0.2,0.4-0.3,0.7c0,0,0,0,0,0c0,0,0,0,0,0
	c-0.3,0.8-0.7,1.6-1,2.4c-0.1,0.2-0.2,0.4-0.3,0.6c0.8,0.1,1.6,0,2.2-0.6c0,0,0.1-0.1,0.1-0.1c0.2-0.2,0.4-0.4,0.5-0.6
	c0-0.2,0.2-0.4,0.3-0.6c0.1-0.4,0.3-0.8,0.5-1.2l0,0l0,0c0.1-0.2,0.1-0.4,0.3-0.5c0.5-1.1,1-2.2,1.4-3.3c0.4-0.9,0.7-1.8,1.1-2.7
	C59.9,5.2,60,5,60,4.8c0-0.1,0-0.2-0.2-0.2c-0.7,0-1.4,0-2.1,0c-0.2,0-0.2,0.1-0.2,0.2c-0.4,0.9-0.7,1.8-1.1,2.6
	c-0.1,0.3-0.2,0.5-0.4,0.8c0,0,0,0,0,0c0,0,0,0,0,0c-0.1,0.2-0.4,0.4-0.7,0.4c-1.2,0-2.5,0-3.7,0c-0.3,0-0.3,0-0.2-0.3
	c0.2-0.4,0.4-0.9,0.6-1.3h0l0,0c0.3-0.7,0.6-1.4,0.9-2.2c0.1-0.3,0.1-0.3-0.2-0.3c-0.6,0-1.2,0.1-1.7,0.4c-0.3,0.2-0.6,0.5-0.8,0.8
	c-0.3,0.6-0.6,1.3-0.9,1.9C49.2,8.1,49.1,8.5,48.9,8.9z"/>
<path class="st0" d="M27.1,11.8c-0.3,0.9-0.8,1.8-1.1,2.7c-0.1,0.2-0.2,0.3-0.2,0.5v0c2.4,0,4.9,0,7.3,0c0.2,0,0.3,0,0.5,0v0
	c0.4,0,0.7-0.3,1.1-0.4c0.4-0.3,0.8-0.7,1-1.2c0.4-0.9,0.8-1.8,1.2-2.8c0.1-0.4,0.3-0.7,0.4-1.1c0.7-1.6,1.3-3.1,2-4.7
	c0.1-0.1,0-0.2-0.1-0.2c-0.7,0-1.4,0-2.1,0c-0.2,0-0.2,0.1-0.3,0.2c-0.2,0.5-0.5,1.1-0.7,1.6c0,0,0,0,0,0c-0.6,1.5-1.2,3-1.9,4.5
	c-0.2,0.5-0.4,1-0.6,1.4c-0.1,0.2-0.2,0.2-0.4,0.2c-1.3,0-2.6,0-3.8,0c-0.1,0-0.3,0-0.2-0.2c0.5-1.1,1-2.3,1.5-3.5
	c0.4-0.9,0.8-1.8,1.2-2.7c0,0,0,0,0,0c0.2-0.5,0.4-0.9,0.6-1.4c0.1-0.2,0-0.2-0.1-0.2c-0.7,0-1.3,0.1-1.8,0.4
	c-0.3,0.2-0.5,0.4-0.7,0.6c-0.4,0.5-0.6,1.2-0.9,1.8c-0.1,0.2-0.1,0.5-0.3,0.6l0,0c-0.1,0.4-0.3,0.7-0.4,1
	C27.9,10,27.5,10.9,27.1,11.8z"/>
<path class="st0" d="M37.4,12.3c-0.3,0.6-0.3,1.3,0.1,1.9c0,0,0,0.1,0,0.1c0.4,0.5,1,0.7,1.6,0.7c2,0,4,0,5.9,0c0.1,0,0.2,0,0.2,0
	c0.1-0.4,0.2-0.7,0.5-1c0-0.3,0.2-0.6,0.4-0.9c0.1-0.3,0.1-0.3-0.2-0.3c-1.8,0-3.7,0-5.5,0c-0.1,0-0.2,0-0.3-0.1
	c-0.2-0.1-0.2-0.2-0.1-0.4c0.7-1.7,1.4-3.4,2.1-5C42.2,7,42.4,7,42.6,7c1.9,0,3.8,0,5.8,0c0.2,0,0.3,0,0.4-0.2
	c0.2-0.5,0.4-1.1,0.7-1.6c0.2-0.5,0.2-0.5-0.4-0.5c-2,0-4,0-5.9,0c-0.9,0-1.7,0.1-2.5,0.6c-0.3,0.3-0.5,0.6-0.7,0.9
	c-0.3,0.7-0.6,1.4-0.9,2.1C38.5,9.7,38,11,37.4,12.3z"/>
<path class="st0" d="M31.3,24.6c0.1-0.2,0.2-0.4,0.3-0.6c0.1-0.2,0.2-0.2,0.4-0.2c1.2,0,2.5,0,3.7,0c0.1,0,0.2,0,0.3-0.1l0,0
	c0.3-0.7,0.5-1.3,0.8-2c0.1-0.2,0.1-0.2-0.2-0.2c-1.2,0-2.5,0-3.7,0c-0.3,0-0.3,0-0.2-0.3c0.1-0.3,0.2-0.6,0.4-0.9
	c0-0.1,0.1-0.2,0.2-0.3c0.1-0.2,0.3-0.2,0.5-0.2c1.9,0,3.9,0,5.8,0c0.2,0,0.3,0,0.3-0.2c0-0.1,0.1-0.1,0.1-0.2
	c0.2-0.6,0.4-1.1,0.7-1.6c0.1-0.3,0.1-0.3-0.2-0.3c-1.9,0-3.8,0-5.7,0c-0.8,0-1.7-0.1-2.5,0.3c-0.4,0.2-0.7,0.6-0.9,0.9
	c-1,2-1.7,4-2.6,6.1c0,0,0,0.1-0.1,0.1c0,0.3-0.2,0.5-0.3,0.7c-0.1,0.4-0.3,0.8-0.5,1.2c0,0,0-0.1,0-0.1c0,0,0,0.1-0.1,0.1
	c-0.1,0.3-0.3,0.6-0.4,1c0,0,0,0,0.1,0c0.8,0,1.6,0,2.4,0c0.1,0,0.2-0.1,0.2-0.2c0.1-0.3,0.3-0.6,0.4-1c0,0,0,0,0,0
	C30.7,26,31,25.3,31.3,24.6z"/>
<path class="st0" d="M8.6,11.3c0,0.1,0,0.1-0.1,0.1c0,0.1-0.1,0.2-0.1,0.2c-0.1,0.4-0.3,0.8-0.5,1.3c-0.3,0.6-0.6,1.3-0.8,1.9
	c0,0.1-0.1,0.1,0,0.2c0.7,0,1.4,0,2.1,0c0.1,0,0.2,0,0.3,0c0.1-0.4,0.3-0.8,0.5-1.2c0.5-1.2,1.1-2.4,1.6-3.7c0,0,0,0,0-0.1
	c0.4-1,0.9-2,1.3-3c0-0.1,0-0.1,0.1-0.1l0,0c0.1-0.1,0.2,0,0.3,0c1,0,2.1,0,3.1,0c0.1-0.2,0.2-0.5,0.3-0.7c0.2-0.5,0.4-0.9,0.6-1.4
	c0.1-0.3,0.1-0.3-0.2-0.3c-2.9,0-5.9,0-8.8,0C8,4.6,7.9,4.7,7.9,4.8C7.6,5.5,7.4,6.1,7.1,6.7C7,7,7,7,7.3,7c1,0,1.9,0,2.9,0
	c0.2,0,0.3,0.1,0.2,0.2C10.2,7.5,10.1,7.8,10,8C9.8,8.5,9.6,9,9.4,9.5C9.1,10.1,8.9,10.7,8.6,11.3z"/>
<path class="st0" d="M10.1,20.8c0-0.1,0-0.1,0.1-0.2c0-0.1,0.1-0.2,0.1-0.4c0.1-0.2,0.1-0.4,0.3-0.5c0,0,0,0,0,0c0,0,0,0,0,0
	c0.1-0.1,0.2,0,0.3,0c1,0,2.1,0,3.1,0l0,0c0.3-0.7,0.6-1.4,0.9-2c0-0.1,0.1-0.1,0-0.2c0,0,0,0,0,0c-3,0-5.9,0-8.9,0
	c-0.2,0-0.3,0.1-0.4,0.3c-0.2,0.4-0.3,0.8-0.5,1.2c0,0,0,0,0,0c0,0,0,0,0,0c-0.1,0.2-0.2,0.5-0.3,0.7c0,0.2,0.1,0.1,0.2,0.1
	c1,0,1.9,0,2.9,0c0.3,0,0.3,0,0.2,0.3c-0.1,0.2-0.2,0.5-0.3,0.7c-0.1,0.3-0.2,0.6-0.3,0.8c-0.2,0.5-0.4,1-0.7,1.5h0
	C6.4,24,6,24.9,5.6,25.7c-0.2,0.4-0.3,0.8-0.5,1.1c0,0,0,0,0,0c0,0,0,0,0,0.1c-0.1,0.2-0.2,0.5-0.3,0.8c-0.1,0.2-0.1,0.2,0.1,0.2
	c0.7,0,1.4,0,2.1,0c0.1,0,0.2-0.1,0.2-0.2c0.1-0.3,0.3-0.6,0.4-0.9c0.6-1.3,1.1-2.6,1.7-3.9c0-0.2,0.1-0.4,0.2-0.6
	C9.7,21.7,9.9,21.3,10.1,20.8z"/>
<path class="st0" d="M44.4,17.6c0-0.1,0.1-0.2-0.1-0.2c-0.4,0-0.9,0-1.3,0.1c-0.7,0.2-1.2,0.7-1.6,1.3c-0.3,0.7-0.6,1.5-1,2.2
	c-0.1,0.4-0.3,0.8-0.5,1.3c0,0,0,0,0,0c-0.5,1.1-0.9,2.2-1.4,3.2c0,0,0,0.1-0.1,0.1c-0.3,0.7-0.6,1.4-0.9,2c-0.1,0.2,0,0.2,0.1,0.2
	c0.6,0,1.2,0,1.9,0c0.2,0,0.3,0,0.5,0c0-0.1,0.1-0.2,0.1-0.3c0.1-0.3,0.2-0.6,0.4-0.9c1-2.3,2-4.7,3-7
	C43.8,18.9,44.1,18.3,44.4,17.6z"/>
<path class="st65" d="M50,22.5C50,22.6,50,22.7,50,22.8c0.3,1,0.6,1.9,0.9,2.8c0.2,0.7,0.4,1.3,0.6,2c0,0.2,0,0.2-0.1,0.2
	c-1,0-2,0-2.9,0c-0.1,0-0.2,0-0.2-0.2c-0.3-0.8-0.5-1.7-0.7-2.5c0-0.1-0.1-0.2-0.2-0.1c0.2,0,0.2,0.1,0.2,0.2
	c0.2,0.8,0.5,1.6,0.7,2.5c0,0.1,0.1,0.2,0.2,0.2c1,0,2,0,3,0c0.1,0,0.2,0,0.1-0.2c-0.5-1.5-0.9-3-1.3-4.4c-0.1-0.4-0.2-0.7,0.2-0.9
	c0,0,0,0,0,0C50.2,22.3,50.1,22.4,50,22.5z"/>
<path class="st65" d="M50,22.5c-0.1,0.1-0.1,0.1,0,0.2c0.3,0.8,0.5,1.7,0.8,2.5c0.2,0.8,0.5,1.5,0.7,2.3c0.1,0.2,0,0.2-0.2,0.2
	c-0.9,0-1.9,0-2.8,0c-0.1,0-0.2,0-0.2-0.1c0-0.1-0.1-0.2-0.1-0.4c-0.2-0.8-0.4-1.5-0.7-2.3c0-0.1-0.1-0.2-0.2,0
	c0.1-0.1,0.2,0,0.2,0.1c0.3,0.8,0.5,1.7,0.7,2.5c0,0.1,0.1,0.2,0.2,0.2c1,0,2,0,2.9,0c0.1,0,0.2,0,0.1-0.2c-0.2-0.7-0.4-1.3-0.6-2
	c-0.3-0.9-0.6-1.9-0.9-2.8C50,22.7,50,22.6,50,22.5c0.2-0.1,0.3-0.2,0.4-0.3C50.2,22.3,50.1,22.4,50,22.5z"/>
<path class="st66" d="M36.2,6.5c0.2-0.6,0.5-1.1,0.7-1.7c0.1-0.1,0.1-0.2,0.3-0.2c0.7,0,1.4,0,2,0c0.2,0,0.2,0.1,0.1,0.2
	c-0.6,1.3-1.1,2.7-1.7,4c-0.2,0.6-0.5,1.1-0.7,1.7c0.2-0.3,0.3-0.7,0.4-1c0.7-1.6,1.3-3.2,2-4.7c0.1-0.1,0.1-0.3-0.1-0.3
	c-0.7,0-1.4,0-2.2,0c-0.1,0-0.2,0-0.2,0.1C36.6,5.3,36.4,5.9,36.2,6.5C36.2,6.4,36.2,6.4,36.2,6.5L36.2,6.5
	C36.2,6.5,36.2,6.5,36.2,6.5z"/>
<path class="st66" d="M39.3,4.9c0.1-0.2,0.1-0.2-0.1-0.2c-0.7,0-1.4,0-2,0c-0.1,0-0.2,0.1-0.3,0.2c-0.2,0.6-0.5,1.1-0.7,1.7
	c0,0,0,0,0,0c0,0,0,0,0,0c0,0,0,0,0,0c0.2-0.5,0.5-1.1,0.7-1.6c0-0.1,0.1-0.2,0.3-0.2c0.7,0,1.4,0,2.1,0C39.3,4.7,39.4,4.7,39.3,4.9
	c-0.7,1.5-1.4,3.1-2,4.6c-0.1,0.4-0.4,0.7-0.4,1.1c0.2-0.6,0.5-1.1,0.7-1.7C38.2,7.6,38.8,6.2,39.3,4.9z"/>
<path class="st67" d="M46.6,22.4c-0.3-0.8-0.5-1.7-0.8-2.5c-0.2-0.7-0.5-1.5-0.7-2.2c-0.1-0.2-0.1-0.2,0.2-0.2c1,0,1.9,0,2.9,0
	c0.2,0,0.2,0,0.3,0.2c0.2,0.8,0.5,1.6,0.7,2.4c0.1,0.2,0.1,0.2,0.3,0c-0.2,0.1-0.3,0-0.3-0.2c-0.2-0.8-0.5-1.5-0.7-2.3
	c-0.1-0.2-0.1-0.2-0.3-0.2c-1,0-1.9,0-2.9,0c-0.3,0-0.3,0-0.2,0.3C45.5,19.2,46,20.8,46.6,22.4c0,0.1,0,0.2-0.1,0.3
	C46.6,22.7,46.6,22.5,46.6,22.4z"/>
<path class="st67" d="M46.6,22.4c-0.1-0.4-0.3-0.8-0.4-1.3c-0.4-1.2-0.7-2.3-1.1-3.5c-0.1-0.2,0-0.2,0.2-0.2c0.9,0,1.9,0,2.8,0
	c0.2,0,0.2,0,0.3,0.2c0.2,0.8,0.5,1.6,0.7,2.4c0,0.1,0,0.2,0.1,0.2c0.1,0,0.2-0.1,0.2-0.2c-0.2,0.2-0.3,0.2-0.3,0
	c-0.2-0.8-0.5-1.6-0.7-2.4c0-0.2-0.1-0.2-0.3-0.2c-1,0-1.9,0-2.9,0c-0.2,0-0.3,0-0.2,0.2c0.2,0.7,0.5,1.5,0.7,2.2
	C46,20.7,46.3,21.6,46.6,22.4c0,0.1,0,0.2-0.1,0.3C46.6,22.7,46.7,22.6,46.6,22.4z"/>
<path class="st68" d="M35.6,23.8c-1.2,0-2.5,0-3.7,0c-0.2,0-0.3,0-0.4,0.2c-0.4,0.9-0.7,1.7-1.1,2.6c0,0,0,0,0,0c0,0,0,0,0,0
	c0.4-0.9,0.7-1.7,1.1-2.6c0.1-0.2,0.2-0.2,0.4-0.2C33.2,23.9,34.4,23.9,35.6,23.8c0.1,0,0.3,0.1,0.3,0c0,0,0,0,0,0
	C35.9,23.8,35.8,23.8,35.6,23.8z"/>
<path class="st68" d="M31.6,24c0.1-0.2,0.2-0.2,0.4-0.2c1.2,0,2.5,0,3.7,0c0.1,0,0.2,0,0.3-0.1c0,0,0,0,0,0v0l0,0
	c-0.1,0.1-0.2,0.1-0.3,0.1c-1.2,0-2.5,0-3.7,0C31.7,23.8,31.6,23.8,31.6,24c-0.1,0.2-0.2,0.4-0.3,0.6c-0.3,0.7-0.6,1.3-0.8,2
	c0,0,0,0,0,0c0,0,0,0,0,0C30.8,25.8,31.2,24.9,31.6,24z"/>
<path class="st64" d="M40.6,17.4c0.3,0,0.3,0,0.2,0.3c-0.2,0.5-0.5,1.1-0.7,1.7c0,0,0.1,0,0.1-0.1c0.2-0.6,0.5-1.1,0.7-1.7
	c0.1-0.2,0-0.2-0.2-0.2c-0.9,0-1.9,0-2.8,0c-1.4,0-2.9,0-4.3,0c-0.4,0-0.9,0.1-1.2,0.4c0.4-0.3,0.9-0.4,1.3-0.4
	C35.9,17.4,38.3,17.4,40.6,17.4z"/>
<path class="st64" d="M34.8,17.5c1.9,0,3.8,0,5.7,0c0.3,0,0.3,0,0.2,0.3c-0.2,0.5-0.5,1.1-0.7,1.6c0.3-0.5,0.5-1.1,0.7-1.7
	c0.1-0.3,0.1-0.3-0.2-0.3c-2.3,0-4.6,0-6.9,0c-0.5,0-0.9,0.1-1.3,0.4C33.1,17.4,33.9,17.5,34.8,17.5z"/>
<path class="st69" d="M37.2,13.4c0,0.3,0.1,0.6,0.4,0.8c-0.5-0.7-0.4-1.4-0.1-2.1c0.7-1.6,1.3-3.1,2-4.7c0.2-0.4,0.3-0.9,0.6-1.3
	c-0.1,0-0.1,0.1-0.2,0.2c-0.8,1.8-1.5,3.6-2.3,5.4C37.3,12.4,37.1,12.9,37.2,13.4z"/>
<path class="st69" d="M37.4,12.2c-0.3,0.7-0.3,1.4,0.1,2.1c0,0,0-0.1,0-0.1c-0.3-0.6-0.4-1.2-0.1-1.9c0.6-1.3,1.1-2.6,1.7-4
	c0.3-0.7,0.6-1.4,0.9-2.1c-0.2,0.4-0.4,0.9-0.6,1.3C38.7,9.1,38.1,10.6,37.4,12.2z"/>
<path class="st70" d="M23.5,17.4c0.2,0,0.5,0,0.7,0.1c0.5,0.1,1,0.4,1.3,0.9c0-0.1,0-0.1-0.1-0.2c-0.4-0.5-0.9-0.8-1.5-0.8
	c-2,0-3.9,0-5.9,0c-0.6,0-1.2,0.2-1.7,0.7c0.6-0.5,1.4-0.7,2.2-0.7C20.1,17.4,21.8,17.4,23.5,17.4z"/>
<path class="st70" d="M18.6,17.5c1.6,0,3.2,0,4.8,0c0.8,0,1.6,0.1,2.1,0.9c0,0,0,0,0,0c-0.3-0.5-0.7-0.7-1.3-0.9
	c-0.2,0-0.5-0.1-0.7-0.1C21.8,17.4,20.1,17.4,18.6,17.5c-0.9,0-1.6,0.1-2.2,0.7c0,0,0.1,0,0.1,0C17,17.6,17.8,17.5,18.6,17.5z"/>
<path class="st71" d="M5.1,18.9C5.1,18.9,5.1,18.8,5.1,18.9c0.2-0.4,0.3-0.8,0.5-1.1c0.1-0.2,0.2-0.3,0.4-0.3c3,0,5.9,0,8.9,0
	c0,0,0.1,0,0.1,0c0,0,0,0,0,0c0-0.1-0.1,0-0.2,0c-3,0-6,0-8.9,0c-0.1,0-0.2,0.1-0.3,0.2C5.4,18,5.2,18.4,5.1,18.9
	C5.1,18.8,5.1,18.8,5.1,18.9C5.1,18.8,5.1,18.8,5.1,18.9C5.1,18.8,5.1,18.8,5.1,18.9z"/>
<path class="st71" d="M14.9,17.5C14.9,17.4,14.9,17.4,14.9,17.5c-3,0-6,0-9,0c-0.2,0-0.3,0.1-0.4,0.3c-0.1,0.4-0.3,0.7-0.5,1.1
	c0,0,0,0,0,0c0,0,0,0,0,0c0,0,0,0,0,0c0.2-0.4,0.4-0.8,0.5-1.2c0.1-0.2,0.2-0.3,0.4-0.3C9,17.5,11.9,17.5,14.9,17.5
	C14.9,17.5,14.9,17.5,14.9,17.5C14.9,17.5,14.9,17.5,14.9,17.5C14.9,17.5,14.9,17.5,14.9,17.5z"/>
<path class="st72" d="M30.8,9.1c-0.3,0.7-0.6,1.3-0.9,2c-0.2,0.4-0.4,0.9-0.5,1.3c-0.1,0.2-0.1,0.3,0.2,0.3c1.3,0,2.5,0,3.8,0
	c0.2,0,0.3,0,0.4-0.2c0,0,0,0,0-0.1c0,0,0,0,0,0c-0.1,0.2-0.3,0.2-0.5,0.2c-1.2,0-2.4,0-3.7,0c-0.2,0-0.3,0-0.2-0.2
	C29.8,11.3,30.3,10.2,30.8,9.1L30.8,9.1L30.8,9.1C30.8,9.1,30.8,9.1,30.8,9.1z"/>
<path class="st72" d="M33.7,12.4c-0.1,0.2-0.2,0.2-0.4,0.2c-1.3,0-2.5,0-3.8,0c-0.2,0-0.3,0-0.2-0.3c0.2-0.4,0.4-0.8,0.5-1.3
	c0.3-0.7,0.6-1.4,0.9-2c0,0,0,0,0-0.1c-0.5,1.1-1,2.3-1.5,3.5c-0.1,0.2,0.1,0.2,0.2,0.2c1.3,0,2.6,0,3.8,0
	C33.5,12.6,33.6,12.6,33.7,12.4C33.7,12.4,33.7,12.4,33.7,12.4C33.7,12.4,33.7,12.4,33.7,12.4z"/>
<path class="st73" d="M54.6,11.8c0.1-0.2,0.2-0.4,0.3-0.6c0.1-0.2,0-0.2-0.1-0.2c-0.4,0-0.8,0-1.2,0c-0.8,0-1.7,0-2.5,0
	c-0.2,0-0.3,0-0.4,0.1c0,0,0,0,0,0c0,0,0,0,0,0c0.1,0,0.2-0.1,0.3-0.1c1.3,0,2.5,0,3.8,0c0.2,0,0.2,0.1,0.1,0.2
	C54.7,11.5,54.6,11.7,54.6,11.8C54.5,11.9,54.5,11.9,54.6,11.8C54.6,11.9,54.6,11.9,54.6,11.8z"/>
<path class="st73" d="M50.5,11.1C50.7,11,50.8,11,51,11c0.8,0,1.7,0,2.5,0c0.4,0,0.8,0,1.2,0c0.2,0,0.2,0,0.1,0.2
	c-0.1,0.2-0.2,0.4-0.3,0.6c0,0,0,0,0,0c0,0,0,0,0,0c0,0,0,0,0,0c0.1-0.2,0.2-0.4,0.3-0.7c0.1-0.2,0-0.2-0.2-0.2c-1.2,0-2.5,0-3.7,0
	C50.8,11,50.6,11,50.5,11.1C50.5,11.1,50.5,11.1,50.5,11.1C50.5,11.1,50.5,11.1,50.5,11.1z"/>
<path class="st74" d="M36.6,21.4c-1.2,0-2.4,0-3.7,0c-0.2,0-0.2-0.1-0.2-0.2c0.2-0.4,0.3-0.8,0.5-1.2c-0.2,0.4-0.4,0.8-0.6,1.3
	c-0.1,0.2,0,0.2,0.2,0.2c0.9,0,1.8,0,2.6,0C36,21.5,36.3,21.5,36.6,21.4c0.2,0,0.3,0.1,0.2,0.3c-0.3,0.7-0.6,1.4-0.9,2.1
	c0,0,0,0,0,0c0,0,0,0,0,0c0-0.1,0.1-0.1,0.1-0.2c0.3-0.6,0.5-1.2,0.8-1.8C37,21.4,37,21.4,36.6,21.4z"/>
<path class="st74" d="M33.1,20.3c-0.1,0.3-0.3,0.6-0.4,0.9c-0.1,0.3-0.1,0.3,0.2,0.3c1.2,0,2.5,0,3.7,0c0.2,0,0.2,0,0.2,0.2
	c-0.3,0.7-0.6,1.3-0.8,2c0,0,0,0,0,0c0,0,0,0,0,0c0.3-0.7,0.6-1.4,0.9-2.1c0.1-0.2,0.1-0.2-0.1-0.2c-0.4,0-0.7,0-1.1,0
	c-0.9,0-1.8,0-2.6,0c-0.1,0-0.3,0-0.2-0.2c0.2-0.4,0.3-0.9,0.6-1.3C33.2,20,33.2,20.2,33.1,20.3z"/>
<path class="st74" d="M36,23.7C36,23.7,36,23.7,36,23.7C36,23.8,36,23.8,36,23.7C36,23.8,36,23.7,36,23.7z"/>
<path class="st74" d="M36,23.7C36,23.7,36,23.7,36,23.7C36,23.7,36,23.7,36,23.7C36,23.7,36,23.7,36,23.7L36,23.7z"/>
<path class="st75" d="M33.7,12.3c0.3-0.7,0.6-1.4,0.9-2.1c0.4-0.9,0.8-1.8,1.1-2.7c0.1-0.3,0.3-0.7,0.4-1c0,0,0,0,0-0.1
	c0,0-0.1,0.1-0.1,0.2c-0.4,0.9-0.7,1.8-1.1,2.6C34.5,10.3,34.1,11.3,33.7,12.3L33.7,12.3L33.7,12.3C33.7,12.3,33.7,12.3,33.7,12.3z"
	/>
<path class="st75" d="M35.7,7.5c-0.4,0.9-0.8,1.8-1.1,2.7c-0.3,0.7-0.6,1.4-0.9,2.1c0,0,0,0,0,0.1c0.2-0.5,0.4-0.9,0.6-1.4
	c0.6-1.5,1.2-3,1.9-4.5c0,0,0,0,0,0C36,6.9,35.9,7.2,35.7,7.5z"/>
<path class="st75" d="M33.7,12.3C33.7,12.3,33.7,12.3,33.7,12.3L33.7,12.3C33.7,12.3,33.7,12.3,33.7,12.3
	C33.7,12.3,33.7,12.3,33.7,12.3z"/>
<path class="st75" d="M33.7,12.3C33.7,12.3,33.7,12.3,33.7,12.3C33.7,12.4,33.7,12.4,33.7,12.3C33.7,12.4,33.7,12.4,33.7,12.3z"/>
<path class="st76" d="M46.2,12.7c0.1,0,0,0.1-0.1,0.3c-0.1,0.3-0.3,0.6-0.4,0.9c0,0,0,0,0,0C46,13.6,46.1,13.1,46.2,12.7L46.2,12.7
	L46.2,12.7C46.3,12.7,46.3,12.7,46.2,12.7z"/>
<path class="st76" d="M45.8,13.9c0.1-0.3,0.3-0.6,0.4-0.9c0.1-0.2,0.1-0.3,0.1-0.3c-0.1,0-0.2,0-0.2,0c-1.9,0-3.7,0-5.6,0
	c-0.1,0-0.2,0-0.3,0c0.1,0.1,0.2,0.1,0.3,0.1c1.8,0,3.7,0,5.5,0c0.3,0,0.3,0,0.2,0.3C46,13.3,45.8,13.6,45.8,13.9
	C45.8,13.9,45.8,13.9,45.8,13.9C45.8,13.9,45.8,13.9,45.8,13.9z"/>
<path class="st76" d="M46,12.6c0.1,0,0.1,0,0.2,0c0,0,0.1,0,0.1,0.1v0C46.3,12.6,46.1,12.6,46,12.6z"/>
<path class="st76" d="M42.3,12.6c-0.6,0-1.1,0-1.7,0C41.2,12.6,41.7,12.6,42.3,12.6z"/>
<path class="st76" d="M40.4,12.7c1.9,0,3.7,0,5.6,0c0.1,0,0.2,0,0.2,0c0,0-0.1,0-0.2,0c0,0,0,0,0,0c-1.2,0-2.5,0-3.7,0
	c-0.6,0-1.1,0-1.7,0c-0.2,0-0.3,0-0.5,0C40.2,12.7,40.3,12.7,40.4,12.7z"/>
<path class="st77" d="M33.6,15c-2.5,0-5.1,0-7.6,0c0,0-0.1,0-0.1,0c0,0,0,0,0,0c0.9,0,1.8,0,2.8,0C30.3,15,31.9,15,33.6,15
	C33.6,15,33.6,15,33.6,15C33.6,15,33.6,15,33.6,15z"/>
<path class="st77" d="M25.9,15c2.5,0,5.1,0,7.6,0c0,0,0.1,0,0.1,0c0,0,0,0,0,0c-0.2,0-0.3,0-0.5,0C30.7,15,28.3,15,25.9,15
	C25.8,15,25.8,15,25.9,15C25.8,15,25.9,15,25.9,15z"/>
<path class="st78" d="M51.6,8.4c-0.1,0.2-0.1,0.3,0.2,0.3c1.2,0,2.5,0,3.7,0c0.3,0,0.5-0.1,0.6-0.3c0,0,0,0,0,0
	c-0.2,0.2-0.4,0.3-0.6,0.3c-1.2,0-2.5,0-3.7,0C51.5,8.6,51.5,8.5,51.6,8.4c0.2-0.4,0.4-0.8,0.5-1.2c0,0,0,0,0,0
	C51.9,7.5,51.7,8,51.6,8.4z"/>
<path class="st78" d="M56,8.3c-0.2,0.2-0.4,0.3-0.6,0.3c-1.2,0-2.5,0-3.7,0c-0.2,0-0.3,0-0.2-0.3c0.2-0.4,0.3-0.8,0.5-1.2
	c0,0,0,0,0-0.1h0c-0.2,0.4-0.4,0.9-0.6,1.3c-0.1,0.2-0.1,0.3,0.2,0.3c1.2,0,2.5,0,3.7,0C55.7,8.7,55.9,8.6,56,8.3
	C56.1,8.3,56.1,8.3,56,8.3C56.1,8.3,56,8.3,56,8.3z"/>
<path class="st79" d="M10.5,12.6c-0.3,0.8-0.7,1.6-1,2.4c0.1,0,0.1-0.1,0.1-0.2c0.7-1.5,1.3-3.1,2-4.6c0,0,0,0,0-0.1
	C11.2,11,10.8,11.8,10.5,12.6z"/>
<path class="st79" d="M11.5,10.2C11.5,10.2,11.5,10.1,11.5,10.2C11.5,10.1,11.5,10.1,11.5,10.2c-0.6,1.2-1.1,2.4-1.6,3.6
	c-0.2,0.4-0.4,0.8-0.5,1.2c0.3-0.8,0.7-1.6,1-2.4C10.8,11.8,11.2,11,11.5,10.2z"/>
<path class="st80" d="M27.8,7.4c-0.4,1-0.8,1.9-1.2,2.9c0,0,0,0,0,0.1c0,0,0,0,0,0c0,0,0-0.1,0.1-0.1c0.4-0.9,0.8-1.8,1.2-2.7
	c0.2-0.4,0.3-0.8,0.3-1.2c0-0.3-0.1-0.6-0.3-0.9C28.2,6.1,28.1,6.8,27.8,7.4z"/>
<path class="st80" d="M27.7,7.7c-0.4,0.9-0.7,1.7-1.1,2.6c0,0,0,0,0,0.1c0,0,0,0,0-0.1c0.4-1,0.8-1.9,1.2-2.9
	c0.3-0.6,0.3-1.2-0.1-1.8C28.2,6.3,28,7,27.7,7.7z"/>
<path class="st81" d="M15.1,13c0-0.4,0.2-0.7,0.3-1.1c0.3-0.8,0.7-1.6,1-2.4c0,0,0,0,0,0l0,0l0,0c-0.4,0.9-0.8,1.8-1.2,2.8
	C15,13,15,13.6,15.4,14.2c0,0,0,0,0,0C15.2,13.9,15.1,13.4,15.1,13z"/>
<path class="st81" d="M16.4,9.6c-0.3,0.8-0.7,1.6-1,2.4c-0.1,0.3-0.3,0.7-0.3,1.1c0,0.5,0.1,0.9,0.3,1.3c0,0,0,0,0,0l0,0
	c0,0,0-0.1-0.1-0.1c-0.3-0.4-0.4-0.9-0.2-1.4c0.2-0.6,0.5-1.2,0.7-1.9C16.1,10.4,16.3,10,16.4,9.6L16.4,9.6
	C16.4,9.6,16.4,9.6,16.4,9.6z"/>
<path class="st82" d="M23.3,25.5c-0.3,0.7-0.7,1.4-1.3,1.8c0,0,0,0,0,0c0.5-0.3,0.9-0.8,1.1-1.3c0.4-0.8,0.7-1.6,1-2.4c0,0,0,0,0,0
	C23.8,24.2,23.5,24.9,23.3,25.5z"/>
<path class="st82" d="M22,27.3c0.6-0.5,1-1.1,1.3-1.8c0.2-0.6,0.5-1.3,0.8-1.9c0,0,0,0,0,0v0l0,0c-0.2,0.4-0.4,0.8-0.5,1.2
	C23.1,25.8,22.8,26.7,22,27.3C22,27.3,22,27.3,22,27.3z"/>
<path class="st83" d="M50.5,11.2c-0.3,0.2-0.4,0.6-0.5,0.9c-0.4,1-0.8,1.9-1.2,2.9c0.1,0,0.1-0.1,0.1-0.2c0.4-1,0.9-2,1.3-3.1
	C50.3,11.5,50.4,11.3,50.5,11.2C50.5,11.2,50.5,11.2,50.5,11.2z"/>
<path class="st83" d="M50.5,11.2C50.5,11.1,50.5,11.1,50.5,11.2c-0.2,0.1-0.3,0.3-0.3,0.4c-0.4,0.8-0.7,1.7-1.1,2.5
	c-0.1,0.3-0.3,0.6-0.3,0.9c0.4-1,0.8-1.9,1.2-2.9C50.1,11.7,50.2,11.4,50.5,11.2z"/>
<path class="st83" d="M50.5,11.2C50.5,11.2,50.5,11.2,50.5,11.2C50.5,11.1,50.5,11.1,50.5,11.2C50.5,11.1,50.5,11.1,50.5,11.2z"/>
<path class="st83" d="M50.5,11.1C50.5,11.1,50.5,11.1,50.5,11.1C50.5,11.1,50.5,11.1,50.5,11.1C50.5,11.1,50.5,11.1,50.5,11.1z"/>
<path class="st65" d="M6.7,23.2c-0.5,1.2-1,2.4-1.5,3.5c0,0,0,0,0,0.1C5.6,25.6,6.2,24.4,6.7,23.2L6.7,23.2z"/>
<path class="st65" d="M5.6,25.7C6,24.9,6.4,24,6.7,23.2l0,0l0,0c-0.5,1.2-1,2.4-1.6,3.6c0,0,0,0,0,0C5.3,26.5,5.5,26.1,5.6,25.7z"/>
<path class="st84" d="M27.1,11.8C27.1,11.8,27.1,11.8,27.1,11.8c0.5-1.2,1-2.5,1.6-3.7c-0.2,0.3-0.3,0.7-0.5,1
	C27.8,10,27.4,10.9,27.1,11.8C27.1,11.8,27.1,11.8,27.1,11.8z"/>
<path class="st84" d="M27.1,11.8C27.1,11.8,27.1,11.8,27.1,11.8c0.4-0.9,0.8-1.8,1.2-2.7c0.1-0.3,0.3-0.6,0.4-1
	C28.1,9.3,27.6,10.6,27.1,11.8C27.1,11.8,27.1,11.8,27.1,11.8z"/>
<path class="st68" d="M47.8,11.2L47.8,11.2c-0.4,0.9-0.7,1.7-1.1,2.6c-0.1,0.3-0.3,0.6-0.4,1C46.8,13.6,47.3,12.4,47.8,11.2
	C47.8,11.2,47.8,11.2,47.8,11.2z"/>
<path class="st68" d="M46.4,14.6c0.2-0.4,0.4-0.8,0.5-1.3c0.3-0.7,0.6-1.4,0.9-2.1c0,0,0,0,0,0c-0.5,1.2-1,2.4-1.5,3.6
	C46.4,14.8,46.4,14.7,46.4,14.6z"/>
<path class="st85" d="M7.7,20.8C7.8,20.5,7.9,20.3,8,20c0.1-0.2,0.1-0.2-0.1-0.2c-1,0-1.9,0-2.9,0c-0.1,0-0.2,0-0.3-0.1
	c0,0,0,0,0-0.1c0,0,0,0,0,0c0,0,0,0,0,0c-0.1,0.2,0,0.2,0.2,0.2c1,0,2,0,3,0c0.2,0,0.2,0,0.1,0.2C7.9,20.3,7.7,20.5,7.7,20.8
	C7.7,20.8,7.7,20.8,7.7,20.8C7.7,20.8,7.7,20.8,7.7,20.8z"/>
<path class="st85" d="M4.7,19.7c0,0.1,0.2,0.1,0.3,0.1c1,0,1.9,0,2.9,0c0.2,0,0.2,0,0.1,0.2c-0.1,0.2-0.2,0.5-0.3,0.7l0,0
	c0.2-0.2,0.2-0.5,0.3-0.7c0.1-0.3,0.1-0.3-0.2-0.3c-1,0-1.9,0-2.9,0C4.9,19.8,4.7,19.8,4.7,19.7C4.7,19.6,4.7,19.6,4.7,19.7
	C4.7,19.7,4.7,19.7,4.7,19.7z"/>
<path class="st86" d="M25.7,12.3c-0.2,0.4-0.3,0.9-0.6,1.3c0.1-0.1,0.2-0.3,0.3-0.4c0.4-0.9,0.8-1.9,1.2-2.8c0,0,0,0,0,0
	C26.2,11,26,11.7,25.7,12.3z"/>
<path class="st86" d="M26.6,10.4C26.5,10.3,26.5,10.3,26.6,10.4c0,0-0.1,0.1-0.1,0.2c-0.2,0.5-0.5,1.1-0.7,1.6
	c-0.2,0.5-0.4,0.9-0.6,1.4c0.2-0.4,0.4-0.8,0.6-1.3C26,11.7,26.2,11,26.6,10.4z"/>
<path class="st86" d="M26.6,10.4C26.6,10.4,26.6,10.4,26.6,10.4C26.6,10.4,26.6,10.4,26.6,10.4C26.6,10.4,26.6,10.4,26.6,10.4z"/>
<path class="st86" d="M26.6,10.4C26.6,10.4,26.6,10.4,26.6,10.4C26.6,10.3,26.6,10.3,26.6,10.4C26.5,10.3,26.5,10.3,26.6,10.4z"/>
<path class="st87" d="M40,22.2C40,22.2,40,22.2,40,22.2c-0.4,0.8-0.7,1.6-1.1,2.5c-0.1,0.3-0.3,0.6-0.4,0.9
	C39,24.5,39.4,23.4,40,22.2C39.9,22.3,39.9,22.3,40,22.2z"/>
<path class="st87" d="M40,22.3C40,22.3,40,22.3,40,22.3C40,22.3,40,22.3,40,22.3C40,22.3,40,22.3,40,22.3
	C39.9,22.3,39.9,22.3,40,22.3c-0.5,1.1-1,2.2-1.4,3.3c0,0,0.1-0.1,0.1-0.1C39,24.4,39.5,23.4,40,22.3z"/>
<path class="st82" d="M16.5,9.3C16.5,9.3,16.5,9.3,16.5,9.3c0.3-0.7,0.6-1.4,0.9-2.1c0.2-0.4,0.3-0.8,0.5-1.1
	c-0.1,0.1-0.2,0.2-0.2,0.3c-0.2,0.5-0.4,0.9-0.6,1.4C16.9,8.3,16.7,8.8,16.5,9.3z"/>
<path class="st82" d="M16.5,9.3C16.5,9.3,16.5,9.3,16.5,9.3C16.5,9.3,16.5,9.3,16.5,9.3C16.6,9.3,16.6,9.3,16.5,9.3
	c0.5-1.1,1-2.2,1.4-3.2c-0.2,0.3-0.4,0.7-0.5,1.1C17.1,7.9,16.8,8.6,16.5,9.3z"/>
<path class="st88" d="M25.8,15C25.8,15,25.8,15,25.8,15c0,0,0-0.1,0-0.2c0.3-0.7,0.6-1.4,0.9-2.1c0.1-0.3,0.3-0.6,0.4-1c0,0,0,0,0,0
	c-0.4,1-0.9,2-1.3,3.1C25.7,14.9,25.7,15,25.8,15C25.8,15,25.8,15,25.8,15z"/>
<path class="st88" d="M27.1,11.8c-0.1,0.3-0.3,0.6-0.4,1c-0.3,0.7-0.6,1.4-0.9,2.1c0,0.1,0,0.1,0,0.2c0,0,0,0,0,0h0v0
	c0-0.2,0.1-0.3,0.2-0.5C26.4,13.6,26.8,12.7,27.1,11.8C27.1,11.8,27.1,11.8,27.1,11.8z"/>
<path class="st88" d="M25.8,15C25.8,15,25.8,15,25.8,15C25.8,15,25.8,15,25.8,15C25.8,15,25.8,15,25.8,15C25.8,15,25.8,15,25.8,15z"
	/>
<path class="st88" d="M25.8,15C25.8,15,25.8,15,25.8,15C25.8,15,25.8,15,25.8,15L25.8,15C25.8,15,25.8,15,25.8,15z"/>
<path class="st88" d="M27.1,11.8C27.1,11.8,27.1,11.8,27.1,11.8C27.1,11.8,27.1,11.8,27.1,11.8C27.1,11.8,27.1,11.8,27.1,11.8z"/>
<path class="st88" d="M27.1,11.8C27.1,11.8,27.1,11.8,27.1,11.8C27.1,11.8,27.1,11.8,27.1,11.8C27.1,11.8,27.1,11.8,27.1,11.8z"/>
<path class="st80" d="M12.6,7.7c-0.4,0.8-0.7,1.6-1,2.4c0,0,0,0,0,0c0,0,0,0.1,0,0.1c0.1,0,0.1-0.1,0.1-0.2c0.4-1,0.9-2,1.3-3
	c0,0,0,0,0,0C12.8,7.3,12.7,7.5,12.6,7.7z"/>
<path class="st80" d="M11.6,10.1c0.4-0.8,0.7-1.6,1-2.4c0.1-0.2,0.2-0.5,0.3-0.6c0,0,0,0,0,0c-0.1,0-0.1,0.1-0.1,0.1
	C12.4,8.1,12,9.1,11.6,10.1C11.6,10.1,11.6,10.1,11.6,10.1C11.6,10.1,11.6,10.1,11.6,10.1z"/>
<path class="st80" d="M11.6,10.1C11.6,10.2,11.5,10.2,11.6,10.1c0,0.1,0,0.1,0,0.1C11.6,10.2,11.6,10.2,11.6,10.1z"/>
<path class="st80" d="M11.6,10.1C11.6,10.1,11.6,10.1,11.6,10.1C11.5,10.1,11.5,10.2,11.6,10.1C11.5,10.2,11.6,10.2,11.6,10.1z"/>
<path class="st88" d="M48.9,8.9c0.3-0.5,0.5-1.1,0.7-1.6c0.2-0.5,0.4-1,0.7-1.4C50.1,6,50,6.2,49.9,6.3C49.6,7.2,49.2,8,48.9,8.9
	C48.8,8.9,48.9,8.9,48.9,8.9z"/>
<path class="st88" d="M48.9,8.9C48.9,8.9,48.9,8.9,48.9,8.9C48.9,8.9,48.9,8.9,48.9,8.9c0.2-0.3,0.4-0.7,0.5-1.1
	c0.3-0.6,0.5-1.3,0.9-1.9c-0.3,0.4-0.5,0.9-0.7,1.4C49.3,7.8,49.1,8.3,48.9,8.9z"/>
<path class="st89" d="M11,19.9c0.9,0,1.8,0,2.7,0c0.1,0,0.2,0.1,0.3-0.1c0,0,0,0,0,0c0,0,0,0,0,0c0,0,0,0,0,0c-0.1,0-0.1,0-0.2,0
	C12.8,19.8,11.9,19.8,11,19.9c-0.1,0-0.2,0-0.3,0c-0.2,0.1-0.2,0.3-0.3,0.5c0,0,0,0,0,0c0,0,0,0,0,0c0,0,0.1-0.1,0.1-0.1
	C10.6,19.9,10.7,19.8,11,19.9z"/>
<path class="st89" d="M10.6,19.8c-0.2,0.1-0.2,0.3-0.3,0.5c0,0,0,0,0,0c0,0,0,0,0,0C10.5,20.1,10.5,19.9,10.6,19.8
	c0.2,0,0.3,0,0.3,0C10.9,19.8,10.8,19.8,10.6,19.8C10.6,19.8,10.6,19.8,10.6,19.8z"/>
<path class="st89" d="M14,19.7C14,19.8,14,19.8,14,19.7C14,19.8,14,19.8,14,19.7C14,19.8,14,19.8,14,19.7C14,19.7,14,19.7,14,19.7
	L14,19.7z"/>
<path class="st70" d="M14.9,17.6c-0.3,0.7-0.6,1.4-0.9,2.1c0,0,0,0,0,0C14.4,19,14.7,18.3,14.9,17.6c0.1,0,0.1-0.1,0-0.1
	c0,0,0,0,0,0C15,17.5,15,17.5,14.9,17.6z"/>
<path class="st70" d="M14.9,17.6c0,0,0-0.1,0-0.1c0,0,0,0,0,0c0,0.1,0,0.2,0,0.2c-0.3,0.7-0.6,1.4-0.9,2c0,0,0,0,0,0
	C14.3,19,14.6,18.3,14.9,17.6z"/>
<path class="st70" d="M14.9,17.5C15,17.5,15,17.5,14.9,17.5C15,17.5,14.9,17.5,14.9,17.5C14.9,17.5,14.9,17.5,14.9,17.5z"/>
<path class="st70" d="M14.9,17.5C14.9,17.5,14.9,17.5,14.9,17.5C14.9,17.5,14.9,17.5,14.9,17.5C14.9,17.5,14.9,17.5,14.9,17.5
	C14.9,17.5,14.9,17.5,14.9,17.5z"/>
<path class="st70" d="M14,19.7C14,19.7,14,19.7,14,19.7C14,19.8,14,19.8,14,19.7C14,19.7,14,19.7,14,19.7z"/>
<path class="st70" d="M14,19.7C14,19.7,14,19.7,14,19.7C14,19.7,14,19.7,14,19.7C14,19.7,14,19.7,14,19.7z"/>
<path class="st80" d="M7.1,15C6.9,15,7,14.9,7,14.8c0.3-0.6,0.6-1.3,0.8-1.9c0,0,0,0,0-0.1c0,0,0,0,0,0c-0.4,0.7-0.6,1.4-1,2.1
	C6.9,15,6.9,15.1,7.1,15z"/>
<path class="st80" d="M7.1,14.8c0.3-0.6,0.6-1.3,0.8-1.9c0,0,0,0,0-0.1c0,0,0,0,0,0.1C7.6,13.5,7.3,14.2,7.1,14.8
	C7,14.9,6.9,15,7.1,15C7,14.9,7,14.9,7.1,14.8z"/>
<path class="st90" d="M9.3,22.8c0.2-0.2,0.2-0.5,0.4-0.8c0.2-0.5,0.5-0.9,0.6-1.4c0,0,0,0,0,0C9.9,21.4,9.6,22.1,9.3,22.8z"/>
<path class="st90" d="M10.3,20.6c-0.1,0-0.1,0.1-0.1,0.2c-0.2,0.5-0.4,0.9-0.6,1.4c-0.1,0.2-0.2,0.4-0.2,0.6
	C9.6,22.1,9.9,21.4,10.3,20.6C10.3,20.6,10.3,20.6,10.3,20.6z"/>
<path class="st69" d="M40.5,21c0.2-0.4,0.3-0.9,0.5-1.3c0.1-0.3,0.2-0.6,0.4-0.9c-0.1,0-0.1,0.1-0.1,0.1C41,19.7,40.7,20.3,40.5,21
	C40.5,21,40.5,21,40.5,21C40.5,21,40.5,21,40.5,21z"/>
<path class="st69" d="M40.5,21C40.5,21,40.5,21,40.5,21C40.5,21,40.5,21,40.5,21c0.3-0.7,0.7-1.4,1-2.2c-0.2,0.3-0.3,0.6-0.4,0.9
	C40.8,20.2,40.6,20.6,40.5,21z"/>
<path class="st91" d="M14.7,21c0.2-0.6,0.5-1.1,0.7-1.7c0,0-0.1,0-0.1,0.1C15.1,20,14.9,20.5,14.7,21C14.7,21,14.7,21,14.7,21
	C14.7,21,14.7,21,14.7,21z"/>
<path class="st91" d="M14.7,21C14.7,21,14.7,21,14.7,21c0.3-0.6,0.5-1.1,0.7-1.7C15.2,19.9,14.9,20.5,14.7,21
	C14.7,21,14.7,21,14.7,21z"/>
<path class="st92" d="M15.5,14.2C15.4,14.2,15.4,14.2,15.5,14.2c0.2,0.5,1,0.9,1.6,0.8c-0.4,0-0.8-0.1-1.2-0.4
	C15.7,14.5,15.6,14.4,15.5,14.2z"/>
<path class="st92" d="M15.5,14.2L15.5,14.2C15.5,14.2,15.5,14.2,15.5,14.2c0.1,0.2,0.2,0.3,0.4,0.4c0.3,0.2,0.7,0.3,1.2,0.4
	c-0.1,0-0.1,0-0.2,0C16.3,14.9,15.8,14.7,15.5,14.2z"/>
<path class="st92" d="M15.5,14.2C15.4,14.2,15.4,14.2,15.5,14.2C15.4,14.2,15.4,14.2,15.5,14.2C15.4,14.2,15.4,14.2,15.5,14.2
	C15.4,14.2,15.4,14.2,15.5,14.2z"/>
<path class="st92" d="M15.4,14.2C15.4,14.2,15.4,14.2,15.4,14.2C15.5,14.2,15.5,14.2,15.4,14.2C15.5,14.2,15.5,14.2,15.4,14.2
	C15.4,14.2,15.4,14.2,15.4,14.2z"/>
<path class="st93" d="M6.7,23.2c0.2-0.5,0.5-1,0.6-1.5c0,0,0,0,0,0c0,0,0,0,0,0C7.1,22.2,6.8,22.7,6.7,23.2
	C6.7,23.2,6.7,23.2,6.7,23.2z"/>
<path class="st93" d="M7.3,21.6C7.3,21.6,7.3,21.6,7.3,21.6c-0.2,0.5-0.4,1-0.6,1.5c0,0,0,0,0,0l0,0h0C6.9,22.7,7.2,22.2,7.3,21.6
	L7.3,21.6C7.3,21.6,7.3,21.6,7.3,21.6z"/>
<path class="st93" d="M6.7,23.2C6.7,23.2,6.7,23.2,6.7,23.2C6.7,23.2,6.7,23.2,6.7,23.2L6.7,23.2C6.7,23.2,6.7,23.2,6.7,23.2z"/>
<path class="st93" d="M6.7,23.2C6.7,23.2,6.7,23.2,6.7,23.2C6.7,23.2,6.7,23.2,6.7,23.2L6.7,23.2L6.7,23.2L6.7,23.2
	C6.7,23.2,6.7,23.2,6.7,23.2z"/>
<path class="st91" d="M48.8,8.9C48.8,8.9,48.8,8.9,48.8,8.9C48.8,8.9,48.8,8.9,48.8,8.9c-0.2,0.4-0.4,0.8-0.6,1.3c0,0,0,0,0,0
	C48.5,9.8,48.6,9.3,48.8,8.9z"/>
<path class="st91" d="M48.8,8.9c-0.2,0.4-0.4,0.9-0.6,1.3c0,0,0,0,0,0c0,0,0,0,0,0C48.5,9.8,48.7,9.4,48.8,8.9L48.8,8.9
	C48.9,8.9,48.9,8.9,48.8,8.9C48.8,8.9,48.8,8.9,48.8,8.9z"/>
<path class="st91" d="M48.8,8.9C48.9,8.9,48.9,8.9,48.8,8.9C48.9,8.9,48.8,8.9,48.8,8.9C48.8,8.9,48.8,8.9,48.8,8.9z"/>
<path class="st91" d="M48.9,8.9C48.9,8.9,48.9,8.9,48.9,8.9C48.9,8.9,48.9,8.9,48.9,8.9C48.9,8.9,48.9,8.9,48.9,8.9z"/>
<path class="st64" d="M24.1,23.6c0.1-0.2,0.2-0.4,0.3-0.6c0.1-0.3,0.3-0.5,0.3-0.8C24.5,22.7,24.3,23.1,24.1,23.6
	C24.1,23.6,24.1,23.6,24.1,23.6z"/>
<path class="st64" d="M24.1,23.6c0.2-0.5,0.4-0.9,0.6-1.4C24.4,22.7,24.2,23.1,24.1,23.6C24.1,23.6,24.1,23.6,24.1,23.6z"/>
<path class="st64" d="M24.1,23.6C24.1,23.6,24.1,23.6,24.1,23.6C24.1,23.6,24.1,23.6,24.1,23.6C24.1,23.6,24.1,23.6,24.1,23.6
	C24.1,23.6,24.1,23.6,24.1,23.6z"/>
<path class="st64" d="M24.1,23.6C24.1,23.6,24.1,23.6,24.1,23.6C24.1,23.6,24.1,23.6,24.1,23.6C24.1,23.6,24.1,23.6,24.1,23.6
	L24.1,23.6C24.1,23.6,24.1,23.6,24.1,23.6z"/>
<path class="st94" d="M40.5,21.1C40.5,21.1,40.4,21,40.5,21.1c-0.2,0.4-0.3,0.7-0.5,1.1c0,0,0,0,0,0C40.1,21.8,40.3,21.4,40.5,21.1z
	"/>
<path class="st94" d="M40.5,21.1c-0.2,0.4-0.3,0.8-0.5,1.2c0,0,0,0.1,0,0.1C40.2,21.9,40.3,21.5,40.5,21.1
	C40.5,21.1,40.5,21.1,40.5,21.1z"/>
<path class="st94" d="M40,22.2C40,22.2,40,22.2,40,22.2C40,22.2,40,22.2,40,22.2C40,22.2,40,22.2,40,22.2z"/>
<path class="st94" d="M40,22.2C40,22.2,40,22.2,40,22.2C40,22.3,40,22.3,40,22.2C40,22.3,40,22.3,40,22.2C40,22.3,40,22.2,40,22.2z"
	/>
<path class="st94" d="M40.5,21.1C40.5,21.1,40.5,21,40.5,21.1C40.5,21,40.5,21,40.5,21.1C40.4,21,40.5,21.1,40.5,21.1z"/>
<path class="st94" d="M40.5,21.1C40.5,21.1,40.5,21.1,40.5,21.1C40.5,21,40.5,21,40.5,21.1C40.5,21,40.5,21.1,40.5,21.1z"/>
<path class="st95" d="M8.4,11.6C8.4,11.6,8.4,11.6,8.4,11.6C8.4,11.6,8.4,11.6,8.4,11.6c-0.2,0.4-0.4,0.8-0.5,1.1c0,0,0,0,0,0
	C8.1,12.4,8.3,12,8.4,11.6z"/>
<path class="st95" d="M7.9,12.9c0.2-0.4,0.4-0.8,0.5-1.3c0,0,0,0,0,0c0,0,0,0,0,0C8.3,12,8.1,12.4,7.9,12.9
	C7.9,12.8,7.9,12.9,7.9,12.9z"/>
<path class="st95" d="M7.9,12.8C7.9,12.8,7.9,12.8,7.9,12.8C7.9,12.8,7.9,12.8,7.9,12.8C7.9,12.8,7.9,12.8,7.9,12.8z"/>
<path class="st95" d="M7.9,12.8C7.9,12.8,7.9,12.8,7.9,12.8C7.9,12.8,7.9,12.9,7.9,12.8C7.9,12.9,7.9,12.8,7.9,12.8z"/>
<path class="st96" d="M28.3,25.6c-0.2,0.3-0.3,0.7-0.5,1c0,0,0,0,0,0C28,26.4,28.2,26,28.3,25.6C28.3,25.6,28.3,25.6,28.3,25.6z"/>
<path class="st96" d="M28.4,25.6C28.4,25.6,28.3,25.6,28.4,25.6c-0.2,0.4-0.3,0.7-0.5,1.1c0,0,0,0.1,0,0.1
	C28.1,26.4,28.2,26,28.4,25.6z"/>
<path class="st97" d="M33.6,15C33.6,15,33.6,15,33.6,15c0.4,0,0.8-0.1,1.1-0.4C34.4,14.8,34,15,33.6,15C33.6,15,33.6,15,33.6,15z"/>
<path class="st97" d="M33.6,15L33.6,15C33.6,15,33.6,15,33.6,15c0.4,0,0.8-0.2,1.1-0.4C34.4,14.7,34,14.9,33.6,15L33.6,15z"/>
<path class="st97" d="M33.6,15C33.6,15,33.6,15,33.6,15C33.6,15,33.6,15,33.6,15C33.6,15,33.6,15,33.6,15C33.6,15,33.6,15,33.6,15z"
	/>
<path class="st97" d="M33.6,15C33.6,15,33.6,15,33.6,15L33.6,15C33.6,15,33.6,15,33.6,15C33.6,15,33.6,15,33.6,15z"/>
<path class="st98" d="M47.8,11.2c0.1-0.3,0.3-0.6,0.4-1c0,0,0,0,0,0c0,0,0,0,0,0C48.1,10.5,47.9,10.9,47.8,11.2L47.8,11.2
	C47.8,11.2,47.8,11.2,47.8,11.2z"/>
<path class="st98" d="M48.2,10.3c-0.1,0.3-0.3,0.6-0.4,1c0,0,0,0,0,0C48,10.9,48.1,10.6,48.2,10.3L48.2,10.3
	C48.3,10.3,48.3,10.2,48.2,10.3C48.2,10.2,48.2,10.2,48.2,10.3z"/>
<path class="st98" d="M47.8,11.2C47.8,11.2,47.8,11.2,47.8,11.2C47.8,11.2,47.8,11.2,47.8,11.2C47.8,11.2,47.8,11.2,47.8,11.2
	C47.8,11.2,47.8,11.2,47.8,11.2z"/>
<path class="st98" d="M47.8,11.2C47.8,11.2,47.8,11.2,47.8,11.2C47.8,11.2,47.9,11.2,47.8,11.2C47.9,11.2,47.8,11.2,47.8,11.2
	C47.8,11.2,47.8,11.2,47.8,11.2z"/>
<path class="st98" d="M48.2,10.2C48.3,10.2,48.3,10.2,48.2,10.2C48.3,10.2,48.3,10.2,48.2,10.2C48.2,10.2,48.2,10.2,48.2,10.2z"/>
<path class="st98" d="M48.2,10.2C48.3,10.2,48.3,10.3,48.2,10.2C48.3,10.2,48.3,10.2,48.2,10.2C48.3,10.2,48.3,10.2,48.2,10.2z"/>
<path class="st76" d="M45.8,13.9c-0.2,0.3-0.3,0.7-0.5,1C45.5,14.7,45.7,14.3,45.8,13.9L45.8,13.9C45.8,13.9,45.8,13.9,45.8,13.9z"
	/>
<path class="st76" d="M45.8,13.9c-0.2,0.3-0.3,0.7-0.5,1C45.5,14.6,45.6,14.3,45.8,13.9C45.8,13.9,45.8,13.9,45.8,13.9z"/>
<polygon class="st76" points="45.8,13.9 45.8,13.9 45.8,13.9 "/>
<polygon class="st76" points="45.8,13.9 45.8,13.9 45.8,13.9 "/>
<polygon class="st76" points="45.8,13.9 45.8,13.9 45.8,13.9 "/>
<polygon class="st76" points="45.8,13.9 45.8,13.9 45.8,13.9 "/>
<path class="st68" d="M14.3,22c0.1-0.3,0.3-0.6,0.4-1c0,0,0,0,0,0C14.5,21.4,14.4,21.7,14.3,22C14.3,22,14.3,22,14.3,22
	C14.3,22,14.3,22,14.3,22z"/>
<path class="st68" d="M14.7,21.1c-0.1,0.3-0.3,0.6-0.4,1c0,0,0,0,0,0c0,0,0,0,0,0C14.5,21.7,14.6,21.4,14.7,21.1
	C14.7,21.1,14.7,21.1,14.7,21.1z"/>
<path class="st68" d="M14.7,21C14.7,21,14.7,21,14.7,21C14.7,21,14.7,21.1,14.7,21C14.7,21,14.7,21,14.7,21z"/>
<path class="st68" d="M14.7,21.1C14.7,21.1,14.7,21.1,14.7,21.1C14.7,21,14.7,21,14.7,21.1C14.7,21,14.7,21,14.7,21.1z"/>
<path class="st97" d="M4.7,19.6c0.1-0.3,0.2-0.5,0.3-0.8c0,0,0-0.1,0-0.1C4.9,19.1,4.8,19.4,4.7,19.6C4.7,19.6,4.7,19.6,4.7,19.6
	C4.7,19.6,4.7,19.6,4.7,19.6z"/>
<path class="st97" d="M4.7,19.6C4.7,19.6,4.7,19.6,4.7,19.6c0.2-0.2,0.2-0.5,0.3-0.7c0,0,0,0,0,0c0,0,0,0,0,0
	C4.9,19.1,4.8,19.4,4.7,19.6z"/>
<path class="st97" d="M5.1,18.9C5.1,18.9,5.1,18.9,5.1,18.9C5.1,18.8,5.1,18.8,5.1,18.9C5.1,18.8,5.1,18.8,5.1,18.9
	C5.1,18.8,5,18.9,5.1,18.9z"/>
<path class="st97" d="M5.1,18.9C5.1,18.9,5.1,18.9,5.1,18.9C5.1,18.9,5.1,18.9,5.1,18.9C5.1,18.9,5.1,18.9,5.1,18.9z"/>
<path class="st97" d="M4.7,19.6C4.7,19.6,4.7,19.6,4.7,19.6C4.7,19.6,4.7,19.6,4.7,19.6C4.7,19.6,4.7,19.6,4.7,19.6z"/>
<polygon class="st97" points="4.7,19.6 4.7,19.6 4.7,19.6 "/>
<path class="st85" d="M7.3,21.6c0.1-0.3,0.2-0.6,0.4-0.8c0,0,0,0,0,0C7.5,21,7.4,21.3,7.3,21.6C7.3,21.6,7.3,21.6,7.3,21.6z"/>
<path class="st85" d="M7.7,20.8c-0.1,0.3-0.3,0.6-0.4,0.8c0,0,0,0,0,0C7.5,21.4,7.7,21.1,7.7,20.8L7.7,20.8
	C7.7,20.8,7.7,20.8,7.7,20.8z"/>
<polygon class="st85" points="7.7,20.8 7.7,20.8 7.7,20.8 "/>
<polygon class="st85" points="7.7,20.8 7.7,20.8 7.7,20.8 "/>
<polygon class="st85" points="7.7,20.8 7.7,20.8 7.7,20.8 "/>
<polygon class="st85" points="7.7,20.8 7.7,20.8 7.7,20.8 "/>
<path class="st85" d="M7.3,21.6C7.3,21.6,7.3,21.6,7.3,21.6C7.3,21.6,7.3,21.6,7.3,21.6C7.3,21.6,7.3,21.6,7.3,21.6z"/>
<path class="st85" d="M7.3,21.6C7.3,21.6,7.3,21.6,7.3,21.6L7.3,21.6C7.4,21.6,7.4,21.6,7.3,21.6C7.3,21.6,7.3,21.6,7.3,21.6z"/>
<path class="st99" d="M14.3,22C14.3,22,14.3,22,14.3,22c-0.1,0.2-0.2,0.5-0.4,0.7c0,0,0,0,0,0C14.1,22.6,14.2,22.3,14.3,22z"/>
<path class="st99" d="M14.3,22c-0.1,0.3-0.2,0.5-0.3,0.8c0,0,0,0,0,0.1C14.1,22.6,14.2,22.3,14.3,22L14.3,22L14.3,22
	C14.3,22,14.3,22,14.3,22z"/>
<path class="st99" d="M13.9,22.8C13.9,22.8,13.9,22.8,13.9,22.8C13.9,22.8,13.9,22.8,13.9,22.8C13.9,22.8,13.9,22.8,13.9,22.8z"/>
<path class="st99" d="M13.9,22.8C13.9,22.8,13.9,22.8,13.9,22.8C13.9,22.9,13.9,22.9,13.9,22.8C13.9,22.9,14,22.8,13.9,22.8z"/>
<path class="st99" d="M14.3,22C14.3,22,14.3,22,14.3,22C14.3,22,14.3,22,14.3,22C14.3,22,14.3,22,14.3,22z"/>
<path class="st99" d="M14.3,22C14.3,22,14.3,22,14.3,22L14.3,22C14.3,22,14.3,22,14.3,22C14.3,22,14.3,22,14.3,22z"/>
<path class="st100" d="M28.3,25.6c0.1-0.2,0.2-0.5,0.3-0.7c0,0,0,0,0,0C28.5,25.1,28.4,25.4,28.3,25.6L28.3,25.6L28.3,25.6
	C28.3,25.6,28.3,25.6,28.3,25.6z"/>
<path class="st100" d="M28.6,24.9c-0.1,0.2-0.2,0.5-0.3,0.7c0,0,0,0,0,0C28.5,25.4,28.6,25.1,28.6,24.9
	C28.6,24.9,28.6,24.9,28.6,24.9z"/>
<path class="st100" d="M28.6,24.9C28.6,24.9,28.6,24.9,28.6,24.9C28.6,24.9,28.6,24.9,28.6,24.9C28.6,24.9,28.6,24.9,28.6,24.9z"/>
<path class="st100" d="M28.6,24.9C28.6,24.9,28.6,24.9,28.6,24.9C28.6,24.9,28.6,24.9,28.6,24.9C28.6,24.9,28.6,24.9,28.6,24.9z"/>
<path class="st100" d="M28.3,25.6C28.3,25.6,28.3,25.6,28.3,25.6C28.3,25.6,28.3,25.6,28.3,25.6L28.3,25.6
	C28.3,25.6,28.3,25.6,28.3,25.6C28.3,25.6,28.3,25.6,28.3,25.6z"/>
<path class="st100" d="M28.3,25.6C28.3,25.6,28.3,25.6,28.3,25.6C28.3,25.6,28.4,25.6,28.3,25.6C28.4,25.6,28.3,25.6,28.3,25.6
	C28.3,25.6,28.3,25.6,28.3,25.6z"/>
<path class="st90" d="M10.3,20.6c0.1-0.1,0.1-0.2,0.2-0.3c0,0,0,0,0,0C10.3,20.4,10.3,20.5,10.3,20.6z"/>
<polygon class="st90" points="10.3,20.6 10.3,20.6 10.3,20.6 "/>
<path class="st90" d="M10.4,20.3c-0.1,0.1-0.2,0.2-0.1,0.4c0,0,0,0,0,0l0,0C10.3,20.5,10.3,20.4,10.4,20.3
	C10.4,20.3,10.4,20.3,10.4,20.3z"/>
<path class="st90" d="M10.4,20.3C10.4,20.3,10.4,20.3,10.4,20.3C10.4,20.3,10.4,20.3,10.4,20.3C10.4,20.3,10.4,20.3,10.4,20.3z"/>
<path class="st90" d="M10.4,20.3C10.4,20.3,10.4,20.3,10.4,20.3C10.4,20.3,10.4,20.3,10.4,20.3C10.4,20.3,10.4,20.3,10.4,20.3z"/>
<polygon class="st90" points="10.3,20.6 10.3,20.6 10.3,20.6 "/>
<polygon class="st90" points="10.3,20.6 10.3,20.6 10.3,20.6 "/>
<path class="st82" d="M16.4,9.5c0-0.1,0-0.2,0.1-0.2c0,0,0,0,0,0c0,0,0,0,0,0C16.4,9.4,16.4,9.5,16.4,9.5
	C16.4,9.5,16.4,9.5,16.4,9.5z"/>
<path class="st82" d="M16.4,9.5C16.4,9.5,16.5,9.5,16.4,9.5c0-0.1,0.1-0.1,0.1-0.2c0,0,0,0,0,0C16.5,9.4,16.4,9.5,16.4,9.5z"/>
<path class="st82" d="M16.4,9.5C16.4,9.5,16.4,9.5,16.4,9.5C16.4,9.5,16.4,9.5,16.4,9.5L16.4,9.5L16.4,9.5z"/>
<path class="st82" d="M16.4,9.5L16.4,9.5C16.5,9.5,16.4,9.5,16.4,9.5C16.4,9.5,16.4,9.5,16.4,9.5z"/>
<polygon class="st82" points="16.5,9.3 16.5,9.3 16.5,9.3 "/>
<polygon class="st82" points="16.5,9.3 16.5,9.3 16.5,9.3 "/>
<polygon class="st82" points="16.5,9.3 16.5,9.3 16.5,9.3 "/>
<polygon class="st82" points="16.5,9.3 16.5,9.3 16.5,9.3 "/>
<path class="st101" d="M20.6,25.3c-0.1,0.1-0.2,0.1-0.4,0.1c-1.4,0-2.7,0-4.1,0c-0.3,0-0.4-0.1-0.3-0.4c0.3-0.6,0.5-1.3,0.8-1.9
	c0-0.1,0.1-0.2,0.1-0.2c0,0,0,0,0,0c0,0,0,0,0,0c0,0,0,0,0,0c-0.3,0.7-0.6,1.4-0.9,2.1c-0.2,0.4,0,0.6,0.4,0.6c1.3,0,2.7,0,4,0
	C20.4,25.5,20.5,25.5,20.6,25.3C20.6,25.3,20.6,25.3,20.6,25.3L20.6,25.3z"/>
<path class="st102" d="M16.7,22.8C16.7,22.8,16.7,22.8,16.7,22.8c0.4-0.8,0.7-1.7,1.1-2.5c0.1-0.2,0.1-0.3,0.3-0.4c0,0,0,0,0,0
	c0,0,0,0,0,0c0,0,0,0,0,0c0.1,0,0.1,0,0.2,0c1.4,0,2.8,0,4.2,0c0.1,0,0.1,0,0.2,0c-0.1-0.1-0.2-0.1-0.3-0.1c-1.4,0-2.7,0-4.1,0
	c-0.3,0-0.4,0.1-0.5,0.3C17.4,21,17.1,21.9,16.7,22.8C16.7,22.8,16.7,22.8,16.7,22.8C16.7,22.8,16.7,22.8,16.7,22.8z"/>
<path class="st102" d="M16.7,22.8C16.7,22.8,16.7,22.8,16.7,22.8C16.7,22.8,16.7,22.8,16.7,22.8z"/>
<path class="st102" d="M22.5,19.8c-1.4,0-2.8,0-4.2,0c-0.1,0-0.1,0-0.2,0c0,0,0,0,0,0c0,0,0.1,0,0.2,0c1.5,0,2.9,0,4.4,0
	C22.6,19.8,22.6,19.8,22.5,19.8z"/>
<path class="st64" d="M18.4,12.7c1.4,0,2.8,0,4.1,0c0.2,0,0.3,0,0.4-0.2c-0.1,0.2-0.3,0.2-0.4,0.2C21.1,12.6,19.7,12.6,18.4,12.7
	c-0.3,0-0.4-0.2-0.3-0.5c0.2-0.5,0.5-1.1,0.7-1.6c0,0,0,0,0,0c0,0,0,0,0,0v0c0,0,0,0,0,0c-0.2,0.5-0.5,1.1-0.7,1.6
	C17.9,12.5,18,12.7,18.4,12.7z"/>
<path class="st64" d="M18.4,12.6c-0.3,0-0.4-0.1-0.3-0.4c0.2-0.6,0.5-1.1,0.7-1.6c0,0,0,0,0,0c0,0,0,0,0,0c-0.2,0.5-0.5,1.1-0.7,1.6
	C18,12.5,18.1,12.6,18.4,12.6c1.3,0,2.7,0,4.1,0c0.2,0,0.3,0,0.4-0.2c-0.1,0.1-0.3,0.2-0.4,0.2C21.1,12.6,19.7,12.6,18.4,12.6z"/>
<path class="st103" d="M20.7,7c1.3,0,2.6,0,4,0c0.1,0,0.1,0,0.2,0c0.2,0,0.3,0.2,0.2,0.3c-0.2,0.6-0.5,1.2-0.7,1.7c0,0,0,0.1,0,0.1
	c0,0,0,0,0,0.1c0.3-0.6,0.5-1.2,0.8-1.7C25.2,7.1,25.1,7,24.7,7C23.3,7,22,7,20.7,7c-0.1,0-0.3-0.1-0.3,0.1C20.5,7,20.6,7,20.7,7z"
	/>
<path class="st103" d="M25,7.4c-0.2,0.6-0.5,1.2-0.7,1.7c0,0,0,0,0,0.1c0,0,0-0.1,0-0.1C24.6,8.5,24.8,8,25,7.4
	c0.1-0.2,0.1-0.3-0.1-0.4c-0.1,0-0.1,0-0.2,0c-1.3,0-2.6,0-4,0c-0.1,0-0.2,0-0.3,0.1c1.5,0,3,0,4.4,0C25,7.1,25.1,7.2,25,7.4z"/>
<path class="st103" d="M24.3,9.2C24.3,9.2,24.3,9.2,24.3,9.2C24.3,9.2,24.3,9.2,24.3,9.2z"/>
<path class="st101" d="M18.8,10.5c0.3-0.7,0.6-1.4,0.9-2.1C19.8,8,20,7.6,20.2,7.2c-0.2,0.3-0.3,0.6-0.4,0.9
	C19.4,8.9,19.1,9.7,18.8,10.5C18.8,10.5,18.8,10.5,18.8,10.5z"/>
<path class="st101" d="M18.8,10.5C18.8,10.5,18.8,10.5,18.8,10.5c0.3-0.6,0.6-1.3,0.9-1.9c0.2-0.5,0.4-0.9,0.6-1.4
	C20,7.6,19.8,8,19.7,8.5C19.4,9.2,19.1,9.8,18.8,10.5z"/>
<path class="st101" d="M18.8,10.5C18.8,10.5,18.8,10.5,18.8,10.5C18.8,10.5,18.8,10.5,18.8,10.5L18.8,10.5
	C18.8,10.5,18.8,10.5,18.8,10.5z"/>
<path class="st101" d="M18.8,10.5C18.8,10.5,18.8,10.5,18.8,10.5C18.8,10.5,18.8,10.5,18.8,10.5C18.8,10.5,18.8,10.5,18.8,10.5z"/>
<path class="st104" d="M23.4,11.3C23.4,11.3,23.4,11.2,23.4,11.3c0.4-0.7,0.6-1.4,0.9-2c0,0,0,0,0,0C24,9.9,23.7,10.6,23.4,11.3z"/>
<path class="st104" d="M24.3,9.2c-0.2,0.4-0.4,0.8-0.5,1.2c-0.1,0.3-0.3,0.6-0.3,0.9C23.7,10.6,24,9.9,24.3,9.2
	C24.3,9.2,24.3,9.2,24.3,9.2z"/>
<path class="st104" d="M24.3,9.2C24.3,9.2,24.3,9.2,24.3,9.2C24.3,9.2,24.3,9.2,24.3,9.2C24.3,9.2,24.3,9.2,24.3,9.2z"/>
<path class="st104" d="M24.3,9.2C24.3,9.2,24.3,9.2,24.3,9.2C24.3,9.2,24.3,9.2,24.3,9.2C24.3,9.2,24.3,9.2,24.3,9.2
	C24.3,9.2,24.3,9.2,24.3,9.2z"/>
<path class="st70" d="M10.9,19.8c0.9,0,1.9,0,2.8,0c0.1,0,0.2,0,0.3,0C13,19.7,11.9,19.7,10.9,19.8c-0.1,0-0.2-0.1-0.3,0
	c0,0,0,0,0,0C10.7,19.7,10.8,19.8,10.9,19.8z"/>
<path class="st70" d="M11,19.8c0.9,0,1.8,0,2.8,0c0.1,0,0.1,0,0.2,0c0,0,0,0,0,0C12.9,19.8,12,19.8,11,19.8z"/>
<path class="st70" d="M13.7,19.8c-0.9,0-1.9,0-2.8,0c-0.1,0-0.2,0-0.3,0c0.1,0,0.2,0,0.3,0c1,0,1.9,0,2.9,0c0,0,0,0,0,0c0,0,0,0,0,0
	C13.9,19.8,13.8,19.8,13.7,19.8z"/>
</svg>
