<?xml version="1.0" encoding="utf-8"?>
<!-- Generator: Adobe Illustrator 28.1.0, SVG Export Plug-In . SVG Version: 6.00 Build 0)  -->
<svg version="1.1" id="Layer_1" xmlns="http://www.w3.org/2000/svg" xmlns:xlink="http://www.w3.org/1999/xlink" x="0px" y="0px"
	 viewBox="0 0 157 35" style="enable-background:new 0 0 157 35;" xml:space="preserve">
<style type="text/css">
	.st0{fill:#FFFFFF;}
</style>
<path class="st0" d="M14.3,3H12v4.3h2.3V3z"/>
<path class="st0" d="M18.2,3h-2.3v4.3h2.3V3z"/>
<path class="st0" d="M27.3,19.1c-2,0-3.9,0-5.9,0c0.2,0.9-0.2,1.8-0.9,2.3c-0.6,0.4-1.4,0.6-2.1,0.4c0,0,0,0,0,0v5c0,0,0,0,0,0
	c0,0,0,0,0,0c0.7,0,1.7,0,2.7-0.2c1.5-0.2,3.1-0.5,4.3-1.5C27.8,23.2,27.4,19.6,27.3,19.1z"/>
<path class="st0" d="M6.5,13.7c0.1,0.5,0.5,1,1.1,1.2h4.2v4c-0.7,0-1.6,0-2.7,0c-3.4-0.2-5.2-0.3-6.7-1.4c-1.3-1-2.3-2.5-2.3-4.3
	c0-1.7,0.9-2.9,1.1-3.3c2-2.5,5.5-2.6,5.9-2.6c1.6,0,3.1,0,4.7,0v5H7.6C6.9,12.4,6.5,13.1,6.5,13.7z"/>
<path class="st0" d="M12,29.9L12,29.9L12,29.9L12,29.9L12,29.9z"/>
<path class="st0" d="M18.4,14.9l11.1,0l-2.1,3.7h-9V14.9z"/>
<path class="st0" d="M12,29.9L12,29.9L12,29.9L12,29.9L12,29.9z"/>
<path class="st0" d="M12,29.9L12,29.9L12,29.9L12,29.9L12,29.9z"/>
<path class="st0" d="M12,29.9L12,29.9L12,29.9L12,29.9L12,29.9z"/>
<path class="st0" d="M18.2,26.8l-6.1,6V7.2h6.1V26.8z"/>
<path class="st0" d="M31.8,8.2h-0.7v0.7h0.7V8.2z"/>
<path class="st0" d="M30.4,9.6h-0.7v0.7h0.7V9.6z"/>
<path class="st0" d="M31.5,9.2h-0.7v0.7h0.7V9.2z"/>
<path class="st0" d="M31.1,7.4h-0.7v0.7h0.7V7.4z"/>
<path class="st0" d="M30.4,12.6h-0.7v0.7h0.7V12.6z"/>
<path class="st0" d="M31.1,10.4h-0.7v0.7h0.7L31.1,10.4L31.1,10.4z"/>
<path class="st0" d="M31.1,11.8h-0.7v0.7h0.7L31.1,11.8L31.1,11.8z"/>
<path class="st0" d="M28.2,7.4h-1.5v0.8h1.5V7.4z"/>
<path class="st0" d="M31.1,6h-0.7v0.7h0.7V6z"/>
<path class="st0" d="M30.4,11.1h-0.7v0.7h0.7V11.1z"/>
<path class="st0" d="M30.3,6.7h-0.7v0.7h0.7V6.7z"/>
<path class="st0" d="M29.6,7.4h-0.7v0.7h0.7V7.4z"/>
<path class="st0" d="M29,11.9h0.6v0.3H18.4V7.1h10.5v0.3h-0.6v0.7h-0.7V7.4h-0.7v0.7h0.7v0.7h0.7v0.7H29v0.7h-0.7v0.7H29V11.9z"/>
<path class="st0" d="M0,26.8l11.8,0v-5H4.3L0,26.8z"/>
<path class="st0" d="M29.7,10.4h-0.7v0.7h0.7V10.4z"/>
<path class="st0" d="M29.7,8.9H29v0.7h0.7V8.9z"/>
<path class="st0" d="M32,9.6h-0.7v0.7H32V9.6z"/>
<path class="st0" d="M39.8,23h0.7v1c0,0.9-0.2,2-1.4,2.7c-0.1-0.1-0.4-0.4-0.5-0.5c1-0.6,1.2-1.5,1.2-2.2V23z M40.1,23h2.6v0.7h-2.6
	V23z M42.4,23h0.7v2.4c0,0.2,0,0.2,0.2,0.2c0.1,0,0.4,0,0.5,0c0.2,0,0.2-0.1,0.2-1.2c0.1,0.1,0.4,0.2,0.6,0.3
	c-0.1,1.2-0.2,1.5-0.8,1.5c-0.1,0-0.6,0-0.8,0c-0.6,0-0.8-0.2-0.8-0.9V23z M39.2,26.9h4.3v0.7h-4.3V26.9z M43.2,26.9h0.1l0.1,0
	l0.5,0.2c-0.8,2.7-2.9,4.1-5.3,4.7c-0.1-0.2-0.2-0.5-0.4-0.7c2.2-0.5,4.2-1.8,4.9-4.1V26.9z M40.2,27.6c0.7,1.8,2.3,3.1,4.6,3.5
	c-0.2,0.2-0.4,0.5-0.5,0.7c-2.3-0.6-3.9-1.9-4.7-4L40.2,27.6z M35.3,28c0.8-0.2,2.1-0.6,3.3-1l0.1,0.6c-1.1,0.4-2.3,0.8-3.2,1.1
	L35.3,28z M35.5,24.6h3.3v0.7h-3.3V24.6z M36.9,22.6h0.7v8.3c0,0.4-0.1,0.6-0.4,0.7c-0.3,0.1-0.7,0.1-1.3,0.1c0-0.2-0.1-0.5-0.2-0.7
	c0.4,0,0.9,0,1,0c0.1,0,0.2,0,0.2-0.2V22.6z M45.8,23.5l0.4-0.5c0.7,0.2,1.6,0.7,2.1,1l-0.4,0.6C47.5,24.2,46.6,23.8,45.8,23.5z
	 M45.5,26c0.7-0.2,1.8-0.5,2.9-0.9l0.1,0.7c-1,0.3-2,0.7-2.8,0.9L45.5,26z M49.8,22.6l0.7,0.1c-0.3,0.9-0.9,1.8-1.8,2.5
	c-0.1-0.2-0.4-0.4-0.5-0.5C49.1,24.2,49.6,23.3,49.8,22.6z M49.8,23.5h3.8v0.6h-4.2L49.8,23.5z M53.5,23.5h0.1l0.1,0l0.5,0.1
	c-0.3,0.6-0.5,1.1-0.8,1.6L52.8,25C53,24.7,53.3,24.1,53.5,23.5L53.5,23.5z M46.8,27.3h6.5V30h-0.8v-2h-5v2.1h-0.7V27.3z M49.7,28.3
	h0.7c-0.3,2-1.3,3.1-4.6,3.5c-0.1-0.2-0.2-0.5-0.3-0.6C48.7,30.8,49.4,29.9,49.7,28.3z M50.2,30.3l0.4-0.6c1.2,0.4,2.9,1,3.8,1.4
	l-0.4,0.6C53.1,31.3,51.4,30.7,50.2,30.3z M51.1,23.8h0.8c-0.3,1.5-1.1,2.6-3.2,3.3c-0.1-0.2-0.3-0.4-0.4-0.6
	C50.2,26,50.8,25,51.1,23.8z M51.5,24.5c0.5,0.9,1.7,1.6,3,1.9c-0.2,0.1-0.4,0.4-0.5,0.6c-1.4-0.4-2.5-1.2-3.1-2.4L51.5,24.5z
	 M55.6,26.7h8.8v0.8h-8.8V26.7z M56.3,24.2h7.4V25h-7.4V24.2z M59.6,22.6h0.8v9.2h-0.8V22.6z M59.4,27.1l0.7,0.3
	c-1,1.6-2.6,3.1-4.2,3.9c-0.1-0.2-0.4-0.5-0.5-0.6C56.9,29.9,58.5,28.5,59.4,27.1z M60.6,27.1c0.9,1.4,2.5,2.9,4.1,3.5
	c-0.2,0.1-0.4,0.4-0.6,0.6c-1.5-0.8-3.2-2.3-4.2-3.9L60.6,27.1z M65.6,27h8.9v0.7h-8.9V27z M66,23.8h8v0.7h-8V23.8z M69.6,22.6h0.8
	v9.2h-0.8V22.6z M72.6,24.7l0.8,0.2c-0.4,0.7-0.8,1.5-1.2,2l-0.6-0.2C71.9,26.2,72.3,25.3,72.6,24.7z M66.8,25l0.7-0.2
	c0.4,0.6,0.8,1.4,0.9,1.9l-0.7,0.3C67.6,26.4,67.2,25.6,66.8,25z M69.4,27.3l0.6,0.2c-0.9,1.6-2.6,3-4.1,3.8
	c-0.1-0.2-0.4-0.5-0.5-0.6C66.9,30.1,68.5,28.7,69.4,27.3z M70.6,27.3c0.9,1.4,2.6,2.8,4.1,3.5c-0.2,0.1-0.4,0.4-0.5,0.6
	c-1.5-0.8-3.2-2.3-4.2-3.8L70.6,27.3z M76.6,32.1l-0.2-0.5c0.8-0.3,1.3-0.8,1.3-1.6l-0.2-0.9l0.5,0.8c-0.1,0.2-0.3,0.2-0.5,0.2
	c-0.4,0-0.8-0.2-0.8-0.7c0-0.5,0.4-0.7,0.8-0.7c0.6,0,0.9,0.5,0.9,1.2C78.3,30.9,77.6,31.7,76.6,32.1z M87.6,22.6h0.8v1.7h-0.8V22.6
	z M85.5,23.9h4.8v0.7h-4.8V23.9z M90.2,25.2h4.3V26h-4.3V25.2z M86.8,26v1.3h2.3V26H86.8z M86.1,25.4h3.8V28h-3.8V25.4z M87.6,27.7
	h0.7V31c0,0.4-0.1,0.6-0.3,0.7c-0.3,0.1-0.7,0.1-1.3,0.1c0-0.2-0.1-0.5-0.2-0.7c0.5,0,0.8,0,1,0c0.1,0,0.1,0,0.1-0.1V27.7z
	 M86.2,28.5l0.7,0.1c-0.2,0.9-0.6,1.8-1,2.4c-0.1-0.1-0.4-0.3-0.6-0.4C85.8,30.1,86.1,29.3,86.2,28.5z M88.8,28.6l0.6-0.2
	c0.3,0.5,0.6,1.2,0.7,1.7l-0.6,0.2C89.4,29.9,89.1,29.2,88.8,28.6z M92.7,23.2l0.6-0.3c0.5,0.5,1,1.1,1.2,1.6l-0.6,0.3
	C93.7,24.4,93.2,23.7,92.7,23.2z M91.7,22.6h0.7v2.1c0,2.1-0.2,5.1-2.4,7.1c-0.1-0.1-0.5-0.3-0.6-0.4c2.1-1.9,2.3-4.7,2.3-6.7V22.6z
	 M92.1,26.5h0.7v4.3c0,0.1,0,0.1,0.1,0.2C93,31,93.1,31,93.2,31c0.1,0,0.3,0,0.4,0c0.1,0,0.2,0,0.3-0.1c0.1,0,0.1-0.1,0.2-0.3
	c0-0.2,0-0.7,0-1.2c0.2,0.1,0.4,0.3,0.6,0.3c0,0.5-0.1,1.1-0.1,1.4c-0.1,0.2-0.2,0.4-0.3,0.5c-0.1,0.1-0.4,0.1-0.6,0.1
	c-0.2,0-0.5,0-0.6,0c-0.2,0-0.5,0-0.6-0.2c-0.2-0.1-0.2-0.3-0.2-0.8V26.5z M95.6,24.1h8.8v0.7h-8.8V24.1z M98.7,27.3h5.3V28h-5.3
	V27.3z M98.3,30.9h6v0.7h-6V30.9z M101,25.4h0.8v5.9H101V25.4z M98.9,22.6l0.8,0.2c-0.7,2.3-1.9,4.6-3.9,6c-0.1-0.2-0.3-0.5-0.4-0.7
	C97.2,26.9,98.3,24.7,98.9,22.6z M96.9,26.7h0.8v5.1h-0.8V26.7z M109.9,23.3c-0.8,1.2-2.4,2.8-4.1,3.8c-0.1-0.2-0.3-0.4-0.5-0.6
	c1.7-1,3.4-2.7,4.2-4h0.8c1.1,1.5,2.8,3,4.4,3.9c-0.2,0.2-0.4,0.4-0.5,0.6C112.6,26.2,110.9,24.6,109.9,23.3z M107.8,25.8h4.4v0.7
	h-4.4V25.8z M106.5,27.7h6.1v0.7h-6.1V27.7z M112.4,27.7h0.1l0.1,0l0.6,0.2c-0.5,1.1-1.2,2.7-1.9,4l-0.8-0.2
	C111.3,30.4,112.1,28.7,112.4,27.7L112.4,27.7z M120.4,26.8c0.6,2.2,1.9,3.8,4.2,4.3c-0.2,0.2-0.4,0.5-0.5,0.7
	c-2.4-0.7-3.8-2.3-4.4-4.9L120.4,26.8z M115.9,26.5h8.2v0.8h-8.2V26.5z M115.6,23.4h8.8v0.8h-8.8V23.4z M119.5,23.6h0.8v2.3
	c0,2.1-0.4,4.5-4.5,5.9c-0.1-0.2-0.3-0.5-0.5-0.7c3.7-1.3,4.1-3.4,4.1-5.2V23.6z"/>
<path class="st0" d="M42.3,7.7c0-0.5-0.2-0.8-0.6-1.1c-0.3-0.3-0.8-0.4-1.4-0.4c-0.4,0-0.7,0.1-1,0.2c-0.3,0.1-0.5,0.3-0.6,0.5
	c-0.1,0.2-0.2,0.4-0.2,0.7c0,0.2,0,0.4,0.1,0.5c0.1,0.2,0.2,0.3,0.4,0.4c0.2,0.1,0.4,0.2,0.6,0.3c0.2,0.1,0.5,0.1,0.7,0.2l1,0.2
	c0.5,0.1,1,0.3,1.4,0.5c0.4,0.2,0.8,0.4,1.1,0.7c0.3,0.3,0.6,0.6,0.7,1c0.2,0.4,0.3,0.8,0.3,1.3c0,0.7-0.2,1.3-0.5,1.9
	c-0.4,0.5-0.9,0.9-1.5,1.2c-0.7,0.3-1.5,0.4-2.4,0.4c-0.9,0-1.8-0.1-2.5-0.4c-0.7-0.3-1.2-0.7-1.6-1.3c-0.4-0.6-0.6-1.3-0.6-2.1H38
	c0,0.4,0.1,0.7,0.3,1c0.2,0.3,0.5,0.5,0.8,0.6c0.3,0.1,0.7,0.2,1.1,0.2c0.4,0,0.8-0.1,1.1-0.2c0.3-0.1,0.6-0.3,0.7-0.5
	c0.2-0.2,0.3-0.5,0.3-0.7c0-0.3-0.1-0.5-0.2-0.7c-0.2-0.2-0.4-0.3-0.7-0.5c-0.3-0.1-0.6-0.2-1.1-0.3l-1.3-0.3
	c-1-0.2-1.8-0.6-2.3-1.1c-0.6-0.5-0.9-1.2-0.8-2.1c0-0.7,0.2-1.3,0.6-1.8c0.4-0.5,0.9-0.9,1.6-1.2c0.7-0.3,1.4-0.4,2.3-0.4
	c0.9,0,1.6,0.1,2.3,0.4c0.6,0.3,1.2,0.7,1.5,1.2c0.4,0.5,0.5,1.1,0.6,1.8H42.3z M53.7,4.4h2.5v7.6c0,0.8-0.2,1.6-0.6,2.2
	c-0.4,0.6-1,1.1-1.7,1.5c-0.7,0.4-1.6,0.5-2.5,0.5c-1,0-1.8-0.2-2.5-0.5c-0.7-0.4-1.3-0.9-1.7-1.5c-0.4-0.6-0.6-1.4-0.6-2.2V4.4H49
	v7.3c0,0.4,0.1,0.8,0.3,1.2c0.2,0.3,0.5,0.6,0.8,0.8c0.4,0.2,0.8,0.3,1.2,0.3c0.5,0,0.9-0.1,1.2-0.3c0.4-0.2,0.6-0.5,0.8-0.8
	c0.2-0.3,0.3-0.7,0.3-1.2V4.4z M58.2,16V4.4h4.6c0.9,0,1.6,0.2,2.3,0.5c0.6,0.3,1.1,0.8,1.4,1.4c0.3,0.6,0.5,1.3,0.5,2
	c0,0.8-0.2,1.5-0.5,2c-0.3,0.6-0.8,1.1-1.4,1.4c-0.6,0.3-1.4,0.5-2.3,0.5h-2.9v-2h2.5c0.5,0,0.9-0.1,1.2-0.2
	c0.3-0.2,0.5-0.4,0.7-0.7c0.2-0.3,0.2-0.6,0.2-1c0-0.4-0.1-0.7-0.2-1C64,7,63.8,6.8,63.5,6.6c-0.3-0.2-0.7-0.2-1.2-0.2h-1.7V16H58.2
	z M68.5,16V4.4h7.8v2H71v2.8h5v2h-5V14h5.4v2H68.5z M78.3,16V4.4h4.6c0.9,0,1.6,0.2,2.2,0.5c0.6,0.3,1.1,0.8,1.4,1.3
	c0.3,0.6,0.5,1.2,0.5,2c0,0.8-0.2,1.4-0.5,2c-0.3,0.6-0.8,1-1.4,1.3c-0.6,0.3-1.4,0.4-2.3,0.4h-3.1v-2h2.7c0.5,0,0.9-0.1,1.2-0.2
	c0.3-0.1,0.5-0.3,0.7-0.6c0.2-0.3,0.2-0.6,0.2-1c0-0.4-0.1-0.7-0.2-1c-0.2-0.3-0.4-0.5-0.7-0.6c-0.3-0.1-0.7-0.2-1.2-0.2h-1.7V16
	H78.3z M84.6,10.7l2.9,5.3h-2.7L82,10.7H84.6z"/>
<path class="st0" d="M92.5,16V4.4h7.7v2H95v2.8h4.7v2H95V16H92.5z M109.1,4.4h2.5v7.6c0,0.8-0.2,1.6-0.6,2.2c-0.4,0.6-1,1.1-1.7,1.5
	c-0.7,0.4-1.6,0.5-2.5,0.5c-1,0-1.8-0.2-2.5-0.5c-0.7-0.4-1.3-0.9-1.7-1.5c-0.4-0.6-0.6-1.4-0.6-2.2V4.4h2.5v7.3
	c0,0.4,0.1,0.8,0.3,1.2c0.2,0.3,0.5,0.6,0.8,0.8c0.4,0.2,0.8,0.3,1.2,0.3c0.5,0,0.9-0.1,1.2-0.3c0.4-0.2,0.6-0.5,0.8-0.8
	c0.2-0.3,0.3-0.7,0.3-1.2V4.4z M113.1,6.4v-2h9.6v2h-3.6V16h-2.4V6.4H113.1z M131.4,4.4h2.5v7.6c0,0.8-0.2,1.6-0.6,2.2
	c-0.4,0.6-1,1.1-1.7,1.5c-0.7,0.4-1.6,0.5-2.5,0.5c-1,0-1.8-0.2-2.5-0.5c-0.7-0.4-1.3-0.9-1.7-1.5c-0.4-0.6-0.6-1.4-0.6-2.2V4.4h2.5
	v7.3c0,0.4,0.1,0.8,0.3,1.2c0.2,0.3,0.5,0.6,0.8,0.8c0.4,0.2,0.8,0.3,1.2,0.3c0.5,0,0.9-0.1,1.2-0.3c0.4-0.2,0.6-0.5,0.8-0.8
	c0.2-0.3,0.3-0.7,0.3-1.2V4.4z M135.9,16V4.4h4.6c0.9,0,1.6,0.2,2.2,0.5c0.6,0.3,1.1,0.8,1.4,1.3c0.3,0.6,0.5,1.2,0.5,2
	c0,0.8-0.2,1.4-0.5,2c-0.3,0.6-0.8,1-1.4,1.3c-0.6,0.3-1.4,0.4-2.3,0.4h-3.1v-2h2.7c0.5,0,0.9-0.1,1.2-0.2c0.3-0.1,0.5-0.3,0.7-0.6
	c0.2-0.3,0.2-0.6,0.2-1c0-0.4-0.1-0.7-0.2-1c-0.2-0.3-0.4-0.5-0.7-0.6c-0.3-0.1-0.7-0.2-1.2-0.2h-1.7V16H135.9z M142.2,10.7l2.9,5.3
	h-2.7l-2.8-5.3H142.2z M146.4,16V4.4h7.8v2h-5.4v2.8h5v2h-5V14h5.4v2H146.4z"/>
</svg>
